<?xml version="1.0" encoding="UTF-8" standalone="no"?>
<!DOCTYPE svg PUBLIC "-//W3C//DTD SVG 1.1//EN"
 "http://www.w3.org/Graphics/SVG/1.1/DTD/svg11.dtd">
<!-- Generated by graphviz version 2.38.0 (20140413.2041)
 -->
<!-- Title: Shape Pages: 1 -->
<svg width="154pt" height="160pt"
 viewBox="0.00 0.00 154.00 160.00" xmlns="http://www.w3.org/2000/svg" xmlns:xlink="http://www.w3.org/1999/xlink">
<g id="graph0" class="graph" transform="scale(1 1) rotate(0) translate(4 156)">
<title>Shape</title>
<!-- Node1 -->
<g id="node1" class="node"><title>Node1</title>
<g id="a_node1"><a xlink:title="A shape is used for collision detection. You can create a shape however you like. Shapes used for sim...">
<polygon fill="#bfbfbf" stroke="black" points="47.5,-0.5 47.5,-21.5 98.5,-21.5 98.5,-0.5 47.5,-0.5"/>
<text text-anchor="middle" x="73" y="-7.9" font-family="Helvetica,sans-Serif" font-size="12.00">Shape</text>
</a>
</g>
</g>
<!-- Node2 -->
<g id="node2" class="node"><title>Node2</title>
<g id="a_node2"><a xlink:href="structtainicom_1_1_aether_1_1_physics2_d_1_1_collision_1_1_shapes_1_1_mass_data.html" target="_top" xlink:title="This holds the mass data computed for a shape.">
<polygon fill="none" stroke="black" points="37.5,-71.5 37.5,-92.5 108.5,-92.5 108.5,-71.5 37.5,-71.5"/>
<text text-anchor="middle" x="73" y="-78.9" font-family="Helvetica,sans-Serif" font-size="12.00">MassData</text>
</a>
</g>
</g>
<!-- Node2&#45;&gt;Node1 -->
<g id="edge1" class="edge"><title>Node2&#45;&gt;Node1</title>
<path fill="none" stroke="#9a32cd" stroke-dasharray="5,2" d="M73,-61.0882C73,-48.0781 73,-31.6754 73,-21.5127"/>
<polygon fill="#9a32cd" stroke="#9a32cd" points="69.5001,-61.4058 73,-71.4058 76.5001,-61.4059 69.5001,-61.4058"/>
<text text-anchor="middle" x="102" y="-43.4" font-family="Helvetica,sans-Serif" font-size="12.00"> MassData</text>
</g>
<!-- Node3 -->
<g id="node3" class="node"><title>Node3</title>
<g id="a_node3"><a xlink:title=" ">
<polygon fill="none" stroke="#bfbfbf" points="0,-130.5 0,-151.5 146,-151.5 146,-130.5 0,-130.5"/>
<text text-anchor="middle" x="73" y="-137.9" font-family="Helvetica,sans-Serif" font-size="12.00">IEquatable&lt; MassData &gt;</text>
</a>
</g>
</g>
<!-- Node3&#45;&gt;Node2 -->
<g id="edge2" class="edge"><title>Node3&#45;&gt;Node2</title>
<path fill="none" stroke="midnightblue" d="M73,-120.234C73,-110.849 73,-100.065 73,-92.5265"/>
<polygon fill="midnightblue" stroke="midnightblue" points="69.5001,-120.331 73,-130.331 76.5001,-120.331 69.5001,-120.331"/>
</g>
</g>
</svg>
