<?xml version="1.0" encoding="UTF-8" standalone="no"?>
<!DOCTYPE svg PUBLIC "-//W3C//DTD SVG 1.1//EN"
 "http://www.w3.org/Graphics/SVG/1.1/DTD/svg11.dtd">
<!-- Generated by graphviz version 2.38.0 (20140413.2041)
 -->
<!-- Title: PolygonShape Pages: 1 -->
<svg width="113pt" height="160pt"
 viewBox="0.00 0.00 112.50 160.00" xmlns="http://www.w3.org/2000/svg" xmlns:xlink="http://www.w3.org/1999/xlink">
<g id="graph0" class="graph" transform="scale(1 1) rotate(0) translate(4 156)">
<title>PolygonShape</title>
<!-- Node1 -->
<g id="node1" class="node"><title>Node1</title>
<g id="a_node1"><a xlink:title="Represents a simple non&#45;selfintersecting convex polygon. Create a convex hull from the given array of...">
<polygon fill="#bfbfbf" stroke="black" points="0,-0.5 0,-21.5 93,-21.5 93,-0.5 0,-0.5"/>
<text text-anchor="middle" x="46.5" y="-7.9" font-family="Helvetica,sans-Serif" font-size="12.00">PolygonShape</text>
</a>
</g>
</g>
<!-- Node2 -->
<g id="node2" class="node"><title>Node2</title>
<g id="a_node2"><a xlink:href="classtainicom_1_1_aether_1_1_physics2_d_1_1_collision_1_1_shapes_1_1_shape.html" target="_top" xlink:title="A shape is used for collision detection. You can create a shape however you like. Shapes used for sim...">
<polygon fill="none" stroke="black" points="21,-59.5 21,-80.5 72,-80.5 72,-59.5 21,-59.5"/>
<text text-anchor="middle" x="46.5" y="-66.9" font-family="Helvetica,sans-Serif" font-size="12.00">Shape</text>
</a>
</g>
</g>
<!-- Node2&#45;&gt;Node1 -->
<g id="edge1" class="edge"><title>Node2&#45;&gt;Node1</title>
<path fill="none" stroke="midnightblue" d="M46.5,-49.2342C46.5,-39.8491 46.5,-29.0651 46.5,-21.5265"/>
<polygon fill="midnightblue" stroke="midnightblue" points="43.0001,-49.3307 46.5,-59.3307 50.0001,-49.3308 43.0001,-49.3307"/>
</g>
<!-- Node3 -->
<g id="node3" class="node"><title>Node3</title>
<g id="a_node3"><a xlink:href="structtainicom_1_1_aether_1_1_physics2_d_1_1_collision_1_1_shapes_1_1_mass_data.html" target="_top" xlink:title="This holds the mass data computed for a shape.">
<polygon fill="none" stroke="red" points="11,-130.5 11,-151.5 82,-151.5 82,-130.5 11,-130.5"/>
<text text-anchor="middle" x="46.5" y="-137.9" font-family="Helvetica,sans-Serif" font-size="12.00">MassData</text>
</a>
</g>
</g>
<!-- Node3&#45;&gt;Node2 -->
<g id="edge2" class="edge"><title>Node3&#45;&gt;Node2</title>
<path fill="none" stroke="#9a32cd" stroke-dasharray="5,2" d="M46.5,-120.088C46.5,-107.078 46.5,-90.6754 46.5,-80.5127"/>
<polygon fill="#9a32cd" stroke="#9a32cd" points="43.0001,-120.406 46.5,-130.406 50.0001,-120.406 43.0001,-120.406"/>
<text text-anchor="middle" x="75.5" y="-102.4" font-family="Helvetica,sans-Serif" font-size="12.00"> MassData</text>
</g>
</g>
</svg>
