<?xml version="1.0" encoding="UTF-8" standalone="no"?>
<!DOCTYPE svg PUBLIC "-//W3C//DTD SVG 1.1//EN"
 "http://www.w3.org/Graphics/SVG/1.1/DTD/svg11.dtd">
<!-- Generated by graphviz version 2.38.0 (20140413.2041)
 -->
<!-- Title: Joint Pages: 1 -->
<svg width="132pt" height="189pt"
 viewBox="0.00 0.00 131.54 189.00" xmlns="http://www.w3.org/2000/svg" xmlns:xlink="http://www.w3.org/1999/xlink">
<g id="graph0" class="graph" transform="scale(1 1) rotate(0) translate(4 185)">
<title>Joint</title>
<!-- Node1 -->
<g id="node1" class="node"><title>Node1</title>
<g id="a_node1"><a xlink:title=" ">
<polygon fill="#bfbfbf" stroke="black" points="15.0359,-88.5 15.0359,-109.5 56.0359,-109.5 56.0359,-88.5 15.0359,-88.5"/>
<text text-anchor="middle" x="35.5359" y="-95.9" font-family="Helvetica,sans-Serif" font-size="12.00">Joint</text>
</a>
</g>
</g>
<!-- Node2 -->
<g id="node2" class="node"><title>Node2</title>
<g id="a_node2"><a xlink:href="classtainicom_1_1_aether_1_1_physics2_d_1_1_dynamics_1_1_joints_1_1_joint_edge.html" target="_top" xlink:title="A joint edge is used to connect bodies and joints together in a joint graph where each body is a node...">
<polygon fill="none" stroke="black" points="0.535889,-2.5 0.535889,-23.5 70.5359,-23.5 70.5359,-2.5 0.535889,-2.5"/>
<text text-anchor="middle" x="35.5359" y="-9.9" font-family="Helvetica,sans-Serif" font-size="12.00">JointEdge</text>
</a>
</g>
</g>
<!-- Node1&#45;&gt;Node2 -->
<g id="edge3" class="edge"><title>Node1&#45;&gt;Node2</title>
<path fill="none" stroke="#9a32cd" stroke-dasharray="5,2" d="M11.7662,-81.5697C8.42651,-78.1539 5.47574,-74.275 3.53589,-70 -1.23905,-59.4771 -1.05778,-54.6033 3.53589,-44 7.10805,-35.7546 14.186,-28.7366 20.7788,-23.5662"/>
<polygon fill="#9a32cd" stroke="#9a32cd" points="9.62156,-84.3434 19.4573,-88.2817 14.2243,-79.0694 9.62156,-84.3434"/>
<text text-anchor="middle" x="17.5359" y="-53.9" font-family="Helvetica,sans-Serif" font-size="12.00"> Joint</text>
</g>
<!-- Node2&#45;&gt;Node1 -->
<g id="edge1" class="edge"><title>Node2&#45;&gt;Node1</title>
<path fill="none" stroke="#9a32cd" stroke-dasharray="5,2" d="M35.5359,-33.6144C35.5359,-50.8078 35.5359,-75.0724 35.5359,-88.3641"/>
<polygon fill="#9a32cd" stroke="#9a32cd" points="39.036,-33.5235 35.5359,-23.5235 32.036,-33.5235 39.036,-33.5235"/>
<text text-anchor="middle" x="55.5359" y="-60.4" font-family="Helvetica,sans-Serif" font-size="12.00"> EdgeA</text>
<text text-anchor="middle" x="55.5359" y="-47.4" font-family="Helvetica,sans-Serif" font-size="12.00">EdgeB</text>
</g>
<!-- Node2&#45;&gt;Node2 -->
<g id="edge2" class="edge"><title>Node2&#45;&gt;Node2</title>
<path fill="none" stroke="#9a32cd" stroke-dasharray="5,2" d="M80.7706,-19.8356C85.5032,-18.5012 88.5359,-16.2227 88.5359,-13 88.5359,-7.84375 80.7722,-5.10449 70.7037,-4.78223"/>
<polygon fill="#9a32cd" stroke="#9a32cd" points="80.1346,-16.3899 70.7037,-21.2178 81.0869,-23.3249 80.1346,-16.3899"/>
<text text-anchor="middle" x="102.036" y="-16.4" font-family="Helvetica,sans-Serif" font-size="12.00"> Next</text>
<text text-anchor="middle" x="102.036" y="-3.4" font-family="Helvetica,sans-Serif" font-size="12.00">Prev</text>
</g>
<!-- Node3 -->
<g id="node3" class="node"><title>Node3</title>
<g id="a_node3"><a xlink:href="classtainicom_1_1_aether_1_1_physics2_d_1_1_dynamics_1_1_body.html" target="_top" xlink:title=" ">
<polygon fill="none" stroke="red" points="75.5359,-88.5 75.5359,-109.5 119.536,-109.5 119.536,-88.5 75.5359,-88.5"/>
<text text-anchor="middle" x="97.5359" y="-95.9" font-family="Helvetica,sans-Serif" font-size="12.00">Body</text>
</a>
</g>
</g>
<!-- Node3&#45;&gt;Node2 -->
<g id="edge4" class="edge"><title>Node3&#45;&gt;Node2</title>
<path fill="none" stroke="#9a32cd" stroke-dasharray="5,2" d="M92.8797,-78.5298C89.588,-67.6055 84.3484,-54.171 76.5359,-44 70.196,-35.7462 60.9897,-28.7275 52.9064,-23.5589"/>
<polygon fill="#9a32cd" stroke="#9a32cd" points="89.5597,-79.6613 95.5451,-88.4035 96.3178,-77.8369 89.5597,-79.6613"/>
<text text-anchor="middle" x="106.536" y="-53.9" font-family="Helvetica,sans-Serif" font-size="12.00"> Other</text>
</g>
<!-- Node13 -->
<g id="node4" class="node"><title>Node13</title>
<g id="a_node4"><a xlink:href="classtainicom_1_1_aether_1_1_physics2_d_1_1_dynamics_1_1_world.html" target="_top" xlink:title="The world class manages all physics entities, dynamic simulation, and asynchronous queries.">
<polygon fill="none" stroke="red" points="43.0359,-159.5 43.0359,-180.5 90.0359,-180.5 90.0359,-159.5 43.0359,-159.5"/>
<text text-anchor="middle" x="66.5359" y="-166.9" font-family="Helvetica,sans-Serif" font-size="12.00">World</text>
</a>
</g>
</g>
<!-- Node13&#45;&gt;Node1 -->
<g id="edge6" class="edge"><title>Node13&#45;&gt;Node1</title>
<path fill="none" stroke="#9a32cd" stroke-dasharray="5,2" d="M45.2074,-152.278C42.1344,-148.883 39.3897,-145.087 37.5359,-141 33.0023,-131.005 33.1995,-118.199 34.0763,-109.58"/>
<polygon fill="#9a32cd" stroke="#9a32cd" points="43.0523,-155.059 52.7085,-159.419 47.8787,-149.989 43.0523,-155.059"/>
<text text-anchor="middle" x="56.5359" y="-131.4" font-family="Helvetica,sans-Serif" font-size="12.00"> _world</text>
</g>
<!-- Node13&#45;&gt;Node3 -->
<g id="edge5" class="edge"><title>Node13&#45;&gt;Node3</title>
<path fill="none" stroke="#9a32cd" stroke-dasharray="5,2" d="M74.9547,-150.261C80.8777,-137.078 88.5579,-119.983 93.2621,-109.513"/>
<polygon fill="#9a32cd" stroke="#9a32cd" points="71.7519,-148.85 70.8463,-159.406 78.1371,-151.719 71.7519,-148.85"/>
<text text-anchor="middle" x="104.536" y="-131.4" font-family="Helvetica,sans-Serif" font-size="12.00"> _world</text>
</g>
</g>
</svg>
