<?xml version="1.0" encoding="UTF-8" standalone="no"?>
<!DOCTYPE svg PUBLIC "-//W3C//DTD SVG 1.1//EN"
 "http://www.w3.org/Graphics/SVG/1.1/DTD/svg11.dtd">
<!-- Generated by graphviz version 2.38.0 (20140413.2041)
 -->
<!-- Title: CircleShape Pages: 1 -->
<svg width="230pt" height="172pt"
 viewBox="0.00 0.00 230.00 172.00" xmlns="http://www.w3.org/2000/svg" xmlns:xlink="http://www.w3.org/1999/xlink">
<g id="graph0" class="graph" transform="scale(1 1) rotate(0) translate(4 168)">
<title>CircleShape</title>
<!-- Node1 -->
<g id="node1" class="node"><title>Node1</title>
<g id="a_node1"><a xlink:title="A circle shape.">
<polygon fill="#bfbfbf" stroke="black" points="66.5,-0.5 66.5,-21.5 148.5,-21.5 148.5,-0.5 66.5,-0.5"/>
<text text-anchor="middle" x="107.5" y="-7.9" font-family="Helvetica,sans-Serif" font-size="12.00">CircleShape</text>
</a>
</g>
</g>
<!-- Node2 -->
<g id="node2" class="node"><title>Node2</title>
<g id="a_node2"><a xlink:href="classtainicom_1_1_aether_1_1_physics2_d_1_1_collision_1_1_shapes_1_1_shape.html" target="_top" xlink:title="A shape is used for collision detection. You can create a shape however you like. Shapes used for sim...">
<polygon fill="none" stroke="black" points="33,-71.5 33,-92.5 84,-92.5 84,-71.5 33,-71.5"/>
<text text-anchor="middle" x="58.5" y="-78.9" font-family="Helvetica,sans-Serif" font-size="12.00">Shape</text>
</a>
</g>
</g>
<!-- Node2&#45;&gt;Node1 -->
<g id="edge1" class="edge"><title>Node2&#45;&gt;Node1</title>
<path fill="none" stroke="midnightblue" d="M71.2597,-63.0322C80.6914,-49.7509 93.1631,-32.1887 100.745,-21.5127"/>
<polygon fill="midnightblue" stroke="midnightblue" points="68.2496,-61.226 65.3132,-71.4058 73.9569,-65.2791 68.2496,-61.226"/>
</g>
<!-- Node3 -->
<g id="node3" class="node"><title>Node3</title>
<g id="a_node3"><a xlink:href="structtainicom_1_1_aether_1_1_physics2_d_1_1_collision_1_1_shapes_1_1_mass_data.html" target="_top" xlink:title="This holds the mass data computed for a shape.">
<polygon fill="none" stroke="red" points="0,-142.5 0,-163.5 71,-163.5 71,-142.5 0,-142.5"/>
<text text-anchor="middle" x="35.5" y="-149.9" font-family="Helvetica,sans-Serif" font-size="12.00">MassData</text>
</a>
</g>
</g>
<!-- Node3&#45;&gt;Node2 -->
<g id="edge2" class="edge"><title>Node3&#45;&gt;Node2</title>
<path fill="none" stroke="#9a32cd" stroke-dasharray="5,2" d="M41.8759,-132.872C46.2522,-119.743 51.8731,-102.881 55.3291,-92.5127"/>
<polygon fill="#9a32cd" stroke="#9a32cd" points="38.54,-131.812 38.6981,-142.406 45.1808,-134.026 38.54,-131.812"/>
<text text-anchor="middle" x="78.5" y="-114.4" font-family="Helvetica,sans-Serif" font-size="12.00"> MassData</text>
</g>
<!-- Node5 -->
<g id="node4" class="node"><title>Node5</title>
<g id="a_node4"><a xlink:href="structtainicom_1_1_aether_1_1_physics2_d_1_1_common_1_1_vector2.html" target="_top" xlink:title=" ">
<polygon fill="none" stroke="black" points="114.5,-71.5 114.5,-92.5 172.5,-92.5 172.5,-71.5 114.5,-71.5"/>
<text text-anchor="middle" x="143.5" y="-78.9" font-family="Helvetica,sans-Serif" font-size="12.00">Vector2</text>
</a>
</g>
</g>
<!-- Node5&#45;&gt;Node1 -->
<g id="edge3" class="edge"><title>Node5&#45;&gt;Node1</title>
<path fill="none" stroke="#9a32cd" stroke-dasharray="5,2" d="M133.723,-62.2613C126.845,-49.0779 117.926,-31.9834 112.463,-21.5127"/>
<polygon fill="#9a32cd" stroke="#9a32cd" points="130.766,-64.159 138.494,-71.4058 136.972,-60.921 130.766,-64.159"/>
<text text-anchor="middle" x="155.5" y="-43.4" font-family="Helvetica,sans-Serif" font-size="12.00"> _position</text>
</g>
<!-- Node6 -->
<g id="node5" class="node"><title>Node6</title>
<g id="a_node5"><a xlink:title=" ">
<polygon fill="none" stroke="#bfbfbf" points="89,-142.5 89,-163.5 222,-163.5 222,-142.5 89,-142.5"/>
<text text-anchor="middle" x="155.5" y="-149.9" font-family="Helvetica,sans-Serif" font-size="12.00">IEquatable&lt; Vector2 &gt;</text>
</a>
</g>
</g>
<!-- Node6&#45;&gt;Node5 -->
<g id="edge4" class="edge"><title>Node6&#45;&gt;Node5</title>
<path fill="none" stroke="midnightblue" d="M152.105,-132.481C149.832,-119.41 146.94,-102.778 145.154,-92.5127"/>
<polygon fill="midnightblue" stroke="midnightblue" points="148.67,-133.153 153.831,-142.406 155.566,-131.954 148.67,-133.153"/>
</g>
</g>
</svg>
