<?xml version="1.0" encoding="UTF-8" standalone="no"?>
<!DOCTYPE svg PUBLIC "-//W3C//DTD SVG 1.1//EN"
 "http://www.w3.org/Graphics/SVG/1.1/DTD/svg11.dtd">
<!-- Generated by graphviz version 2.38.0 (20140413.2041)
 -->
<!-- Title: ContactListHead Pages: 1 -->
<svg width="226pt" height="88pt"
 viewBox="0.00 0.00 225.50 88.00" xmlns="http://www.w3.org/2000/svg" xmlns:xlink="http://www.w3.org/1999/xlink">
<g id="graph0" class="graph" transform="scale(1 1) rotate(0) translate(4 84)">
<title>ContactListHead</title>
<!-- Node1 -->
<g id="node1" class="node"><title>Node1</title>
<g id="a_node1"><a xlink:title="Head of a circular doubly linked list.">
<polygon fill="#bfbfbf" stroke="black" points="35.5,-0.5 35.5,-21.5 139.5,-21.5 139.5,-0.5 35.5,-0.5"/>
<text text-anchor="middle" x="87.5" y="-7.9" font-family="Helvetica,sans-Serif" font-size="12.00">ContactListHead</text>
</a>
</g>
</g>
<!-- Node2 -->
<g id="node2" class="node"><title>Node2</title>
<g id="a_node2"><a xlink:href="classtainicom_1_1_aether_1_1_physics2_d_1_1_dynamics_1_1_contacts_1_1_contact.html" target="_top" xlink:title="The class manages contact between two shapes. A contact exists for each overlapping AABB in the broad...">
<polygon fill="none" stroke="black" points="0,-58.5 0,-79.5 57,-79.5 57,-58.5 0,-58.5"/>
<text text-anchor="middle" x="28.5" y="-65.9" font-family="Helvetica,sans-Serif" font-size="12.00">Contact</text>
</a>
</g>
</g>
<!-- Node2&#45;&gt;Node1 -->
<g id="edge1" class="edge"><title>Node2&#45;&gt;Node1</title>
<path fill="none" stroke="midnightblue" d="M46.0307,-51.3607C56.2377,-41.6727 68.7469,-29.7995 77.3408,-21.6427"/>
<polygon fill="midnightblue" stroke="midnightblue" points="43.6206,-48.8227 38.777,-58.2455 48.4396,-53.8998 43.6206,-48.8227"/>
</g>
<!-- Node3 -->
<g id="node3" class="node"><title>Node3</title>
<g id="a_node3"><a xlink:title=" ">
<polygon fill="none" stroke="#bfbfbf" points="75.5,-58.5 75.5,-79.5 217.5,-79.5 217.5,-58.5 75.5,-58.5"/>
<text text-anchor="middle" x="146.5" y="-65.9" font-family="Helvetica,sans-Serif" font-size="12.00">IEnumerable&lt; Contact &gt;</text>
</a>
</g>
</g>
<!-- Node3&#45;&gt;Node1 -->
<g id="edge2" class="edge"><title>Node3&#45;&gt;Node1</title>
<path fill="none" stroke="midnightblue" d="M128.969,-51.3607C118.762,-41.6727 106.253,-29.7995 97.6592,-21.6427"/>
<polygon fill="midnightblue" stroke="midnightblue" points="126.56,-53.8998 136.223,-58.2455 131.379,-48.8227 126.56,-53.8998"/>
</g>
</g>
</svg>
