<?xml version="1.0" encoding="UTF-8" standalone="no"?>
<!DOCTYPE svg PUBLIC "-//W3C//DTD SVG 1.1//EN"
 "http://www.w3.org/Graphics/SVG/1.1/DTD/svg11.dtd">
<!-- Generated by graphviz version 2.38.0 (20140413.2041)
 -->
<!-- Title: RevoluteJoint Pages: 1 -->
<svg width="227pt" height="189pt"
 viewBox="0.00 0.00 227.00 189.00" xmlns="http://www.w3.org/2000/svg" xmlns:xlink="http://www.w3.org/1999/xlink">
<g id="graph0" class="graph" transform="scale(1 1) rotate(0) translate(4 185)">
<title>RevoluteJoint</title>
<!-- Node1 -->
<g id="node1" class="node"><title>Node1</title>
<g id="a_node1"><a xlink:title="A revolute joint constrains to bodies to share a common point while they are free to rotate about the...">
<polygon fill="#bfbfbf" stroke="black" points="0,-2.5 0,-23.5 86,-23.5 86,-2.5 0,-2.5"/>
<text text-anchor="middle" x="43" y="-9.9" font-family="Helvetica,sans-Serif" font-size="12.00">RevoluteJoint</text>
</a>
</g>
</g>
<!-- Node2 -->
<g id="node2" class="node"><title>Node2</title>
<g id="a_node2"><a xlink:href="classtainicom_1_1_aether_1_1_physics2_d_1_1_dynamics_1_1_joints_1_1_joint.html" target="_top" xlink:title=" ">
<polygon fill="none" stroke="black" points="67.5,-88.5 67.5,-109.5 108.5,-109.5 108.5,-88.5 67.5,-88.5"/>
<text text-anchor="middle" x="88" y="-95.9" font-family="Helvetica,sans-Serif" font-size="12.00">Joint</text>
</a>
</g>
</g>
<!-- Node2&#45;&gt;Node1 -->
<g id="edge1" class="edge"><title>Node2&#45;&gt;Node1</title>
<path fill="none" stroke="midnightblue" d="M72.8931,-80.2673C70.4245,-76.9649 68.0181,-73.4615 66,-70 57.1066,-54.7459 49.9805,-35.3956 46.1322,-23.8948"/>
<polygon fill="midnightblue" stroke="midnightblue" points="70.3811,-82.7312 79.3496,-88.372 75.8562,-78.3696 70.3811,-82.7312"/>
</g>
<!-- Node3 -->
<g id="node3" class="node"><title>Node3</title>
<g id="a_node3"><a xlink:href="classtainicom_1_1_aether_1_1_physics2_d_1_1_dynamics_1_1_joints_1_1_joint_edge.html" target="_top" xlink:title="A joint edge is used to connect bodies and joints together in a joint graph where each body is a node...">
<polygon fill="none" stroke="red" points="104,-2.5 104,-23.5 174,-23.5 174,-2.5 104,-2.5"/>
<text text-anchor="middle" x="139" y="-9.9" font-family="Helvetica,sans-Serif" font-size="12.00">JointEdge</text>
</a>
</g>
</g>
<!-- Node2&#45;&gt;Node3 -->
<g id="edge4" class="edge"><title>Node2&#45;&gt;Node3</title>
<path fill="none" stroke="#9a32cd" stroke-dasharray="5,2" d="M81.9022,-78.6408C79.6493,-67.753 78.9289,-54.3179 85,-44 90.4387,-34.7568 99.8682,-28.1572 109.341,-23.5463"/>
<polygon fill="#9a32cd" stroke="#9a32cd" points="78.5562,-79.6799 84.4712,-88.4698 85.3287,-77.9097 78.5562,-79.6799"/>
<text text-anchor="middle" x="99" y="-53.9" font-family="Helvetica,sans-Serif" font-size="12.00"> Joint</text>
</g>
<!-- Node3&#45;&gt;Node2 -->
<g id="edge2" class="edge"><title>Node3&#45;&gt;Node2</title>
<path fill="none" stroke="#9a32cd" stroke-dasharray="5,2" d="M133.638,-33.4425C129.995,-44.6987 124.472,-58.808 117,-70 112.415,-76.8683 105.895,-83.3539 100.199,-88.3503"/>
<polygon fill="#9a32cd" stroke="#9a32cd" points="137.036,-34.2972 136.558,-23.7132 130.331,-32.2852 137.036,-34.2972"/>
<text text-anchor="middle" x="149" y="-60.4" font-family="Helvetica,sans-Serif" font-size="12.00"> EdgeA</text>
<text text-anchor="middle" x="149" y="-47.4" font-family="Helvetica,sans-Serif" font-size="12.00">EdgeB</text>
</g>
<!-- Node3&#45;&gt;Node3 -->
<g id="edge3" class="edge"><title>Node3&#45;&gt;Node3</title>
<path fill="none" stroke="#9a32cd" stroke-dasharray="5,2" d="M184.235,-19.8356C188.967,-18.5012 192,-16.2227 192,-13 192,-7.84375 184.236,-5.10449 174.168,-4.78223"/>
<polygon fill="#9a32cd" stroke="#9a32cd" points="183.599,-16.3899 174.168,-21.2178 184.551,-23.3249 183.599,-16.3899"/>
<text text-anchor="middle" x="205.5" y="-16.4" font-family="Helvetica,sans-Serif" font-size="12.00"> Next</text>
<text text-anchor="middle" x="205.5" y="-3.4" font-family="Helvetica,sans-Serif" font-size="12.00">Prev</text>
</g>
<!-- Node14 -->
<g id="node4" class="node"><title>Node14</title>
<g id="a_node4"><a xlink:href="classtainicom_1_1_aether_1_1_physics2_d_1_1_dynamics_1_1_world.html" target="_top" xlink:title="The world class manages all physics entities, dynamic simulation, and asynchronous queries.">
<polygon fill="none" stroke="red" points="64.5,-159.5 64.5,-180.5 111.5,-180.5 111.5,-159.5 64.5,-159.5"/>
<text text-anchor="middle" x="88" y="-166.9" font-family="Helvetica,sans-Serif" font-size="12.00">World</text>
</a>
</g>
</g>
<!-- Node14&#45;&gt;Node2 -->
<g id="edge5" class="edge"><title>Node14&#45;&gt;Node2</title>
<path fill="none" stroke="#9a32cd" stroke-dasharray="5,2" d="M88,-149.088C88,-136.078 88,-119.675 88,-109.513"/>
<polygon fill="#9a32cd" stroke="#9a32cd" points="84.5001,-149.406 88,-159.406 91.5001,-149.406 84.5001,-149.406"/>
<text text-anchor="middle" x="107" y="-131.4" font-family="Helvetica,sans-Serif" font-size="12.00"> _world</text>
</g>
</g>
</svg>
