<?xml version="1.0" encoding="UTF-8" standalone="no"?>
<!DOCTYPE svg PUBLIC "-//W3C//DTD SVG 1.1//EN"
 "http://www.w3.org/Graphics/SVG/1.1/DTD/svg11.dtd">
<!-- Generated by graphviz version 2.38.0 (20140413.2041)
 -->
<!-- Title: Spring Pages: 1 -->
<svg width="138pt" height="224pt"
 viewBox="0.00 0.00 138.00 224.00" xmlns="http://www.w3.org/2000/svg" xmlns:xlink="http://www.w3.org/1999/xlink">
<g id="graph0" class="graph" transform="scale(1 1) rotate(0) translate(4 220)">
<title>Spring</title>
<!-- Node1 -->
<g id="node1" class="node"><title>Node1</title>
<g id="a_node1"><a xlink:title=" ">
<polygon fill="#bfbfbf" stroke="black" points="15.5,-0.5 15.5,-21.5 66.5,-21.5 66.5,-0.5 15.5,-0.5"/>
<text text-anchor="middle" x="41" y="-7.9" font-family="Helvetica,sans-Serif" font-size="12.00">Spring</text>
</a>
</g>
</g>
<!-- Node2 -->
<g id="node2" class="node"><title>Node2</title>
<g id="a_node2"><a xlink:href="classtainicom_1_1_aether_1_1_physics2_d_1_1_fluids_1_1_fluid_particle.html" target="_top" xlink:title=" ">
<polygon fill="none" stroke="black" points="0,-84.5 0,-105.5 82,-105.5 82,-84.5 0,-84.5"/>
<text text-anchor="middle" x="41" y="-91.9" font-family="Helvetica,sans-Serif" font-size="12.00">FluidParticle</text>
</a>
</g>
</g>
<!-- Node2&#45;&gt;Node1 -->
<g id="edge1" class="edge"><title>Node2&#45;&gt;Node1</title>
<path fill="none" stroke="#9a32cd" stroke-dasharray="5,2" d="M41,-73.9899C41,-57.4 41,-34.5318 41,-21.7158"/>
<polygon fill="#9a32cd" stroke="#9a32cd" points="37.5001,-74.2715 41,-84.2715 44.5001,-74.2715 37.5001,-74.2715"/>
<text text-anchor="middle" x="50.5" y="-56.4" font-family="Helvetica,sans-Serif" font-size="12.00"> P0</text>
<text text-anchor="middle" x="50.5" y="-43.4" font-family="Helvetica,sans-Serif" font-size="12.00">P1</text>
</g>
<!-- Node3 -->
<g id="node3" class="node"><title>Node3</title>
<g id="a_node3"><a xlink:href="structtainicom_1_1_aether_1_1_physics2_d_1_1_common_1_1_vector2.html" target="_top" xlink:title=" ">
<polygon fill="none" stroke="red" points="12,-194.5 12,-215.5 70,-215.5 70,-194.5 12,-194.5"/>
<text text-anchor="middle" x="41" y="-201.9" font-family="Helvetica,sans-Serif" font-size="12.00">Vector2</text>
</a>
</g>
</g>
<!-- Node3&#45;&gt;Node2 -->
<g id="edge2" class="edge"><title>Node3&#45;&gt;Node2</title>
<path fill="none" stroke="#9a32cd" stroke-dasharray="5,2" d="M41,-184.326C41,-161.095 41,-123.388 41,-105.718"/>
<polygon fill="#9a32cd" stroke="#9a32cd" points="37.5001,-184.416 41,-194.416 44.5001,-184.416 37.5001,-184.416"/>
<text text-anchor="middle" x="85.5" y="-166.4" font-family="Helvetica,sans-Serif" font-size="12.00"> Acceleration</text>
<text text-anchor="middle" x="85.5" y="-153.4" font-family="Helvetica,sans-Serif" font-size="12.00">Position</text>
<text text-anchor="middle" x="85.5" y="-140.4" font-family="Helvetica,sans-Serif" font-size="12.00">PreviousPosition</text>
<text text-anchor="middle" x="85.5" y="-127.4" font-family="Helvetica,sans-Serif" font-size="12.00">Velocity</text>
</g>
</g>
</svg>
