<?xml version="1.0" encoding="UTF-8" standalone="no"?>
<!DOCTYPE svg PUBLIC "-//W3C//DTD SVG 1.1//EN"
 "http://www.w3.org/Graphics/SVG/1.1/DTD/svg11.dtd">
<!-- Generated by graphviz version 2.38.0 (20140413.2041)
 -->
<!-- Title: Shape Pages: 1 -->
<svg width="400pt" height="88pt"
 viewBox="0.00 0.00 399.50 88.00" xmlns="http://www.w3.org/2000/svg" xmlns:xlink="http://www.w3.org/1999/xlink">
<g id="graph0" class="graph" transform="scale(1 1) rotate(0) translate(4 84)">
<title>Shape</title>
<!-- Node1 -->
<g id="node1" class="node"><title>Node1</title>
<g id="a_node1"><a xlink:title="A shape is used for collision detection. You can create a shape however you like. Shapes used for sim...">
<polygon fill="#bfbfbf" stroke="black" points="164.5,-58.5 164.5,-79.5 215.5,-79.5 215.5,-58.5 164.5,-58.5"/>
<text text-anchor="middle" x="190" y="-65.9" font-family="Helvetica,sans-Serif" font-size="12.00">Shape</text>
</a>
</g>
</g>
<!-- Node2 -->
<g id="node2" class="node"><title>Node2</title>
<g id="a_node2"><a xlink:href="classtainicom_1_1_aether_1_1_physics2_d_1_1_collision_1_1_shapes_1_1_chain_shape.html" target="_top" xlink:title="A chain shape is a free form sequence of line segments. The chain has two&#45;sided collision,...">
<polygon fill="none" stroke="black" points="0,-0.5 0,-21.5 82,-21.5 82,-0.5 0,-0.5"/>
<text text-anchor="middle" x="41" y="-7.9" font-family="Helvetica,sans-Serif" font-size="12.00">ChainShape</text>
</a>
</g>
</g>
<!-- Node1&#45;&gt;Node2 -->
<g id="edge1" class="edge"><title>Node1&#45;&gt;Node2</title>
<path fill="none" stroke="midnightblue" d="M154.849,-54.7888C127.643,-44.5639 90.6191,-30.6488 66.2798,-21.5011"/>
<polygon fill="midnightblue" stroke="midnightblue" points="153.794,-58.1313 164.386,-58.3733 156.257,-51.5788 153.794,-58.1313"/>
</g>
<!-- Node3 -->
<g id="node3" class="node"><title>Node3</title>
<g id="a_node3"><a xlink:href="classtainicom_1_1_aether_1_1_physics2_d_1_1_collision_1_1_shapes_1_1_circle_shape.html" target="_top" xlink:title="A circle shape.">
<polygon fill="none" stroke="black" points="100,-0.5 100,-21.5 182,-21.5 182,-0.5 100,-0.5"/>
<text text-anchor="middle" x="141" y="-7.9" font-family="Helvetica,sans-Serif" font-size="12.00">CircleShape</text>
</a>
</g>
</g>
<!-- Node1&#45;&gt;Node3 -->
<g id="edge2" class="edge"><title>Node1&#45;&gt;Node3</title>
<path fill="none" stroke="midnightblue" d="M174.688,-50.5004C166.355,-40.9775 156.365,-29.5596 149.437,-21.6427"/>
<polygon fill="midnightblue" stroke="midnightblue" points="172.246,-53.0245 181.465,-58.2455 177.514,-48.415 172.246,-53.0245"/>
</g>
<!-- Node4 -->
<g id="node4" class="node"><title>Node4</title>
<g id="a_node4"><a xlink:href="classtainicom_1_1_aether_1_1_physics2_d_1_1_collision_1_1_shapes_1_1_edge_shape.html" target="_top" xlink:title="A line segment (edge) shape. These can be connected in chains or loops to other edge shapes....">
<polygon fill="none" stroke="black" points="200,-0.5 200,-21.5 280,-21.5 280,-0.5 200,-0.5"/>
<text text-anchor="middle" x="240" y="-7.9" font-family="Helvetica,sans-Serif" font-size="12.00">EdgeShape</text>
</a>
</g>
</g>
<!-- Node1&#45;&gt;Node4 -->
<g id="edge3" class="edge"><title>Node1&#45;&gt;Node4</title>
<path fill="none" stroke="midnightblue" d="M205.625,-50.5004C214.127,-40.9775 224.322,-29.5596 231.39,-21.6427"/>
<polygon fill="midnightblue" stroke="midnightblue" points="202.759,-48.4551 198.709,-58.2455 207.98,-53.1172 202.759,-48.4551"/>
</g>
<!-- Node5 -->
<g id="node5" class="node"><title>Node5</title>
<g id="a_node5"><a xlink:href="classtainicom_1_1_aether_1_1_physics2_d_1_1_collision_1_1_shapes_1_1_polygon_shape.html" target="_top" xlink:title="Represents a simple non&#45;selfintersecting convex polygon. Create a convex hull from the given array of...">
<polygon fill="none" stroke="black" points="298.5,-0.5 298.5,-21.5 391.5,-21.5 391.5,-0.5 298.5,-0.5"/>
<text text-anchor="middle" x="345" y="-7.9" font-family="Helvetica,sans-Serif" font-size="12.00">PolygonShape</text>
</a>
</g>
</g>
<!-- Node1&#45;&gt;Node5 -->
<g id="edge4" class="edge"><title>Node1&#45;&gt;Node5</title>
<path fill="none" stroke="midnightblue" d="M225.137,-55.3053C253.517,-45.0519 292.838,-30.8457 318.588,-21.5423"/>
<polygon fill="midnightblue" stroke="midnightblue" points="223.811,-52.063 215.595,-58.7527 226.189,-58.6465 223.811,-52.063"/>
</g>
</g>
</svg>
