<?xml version="1.0" encoding="UTF-8" standalone="no"?>
<!DOCTYPE svg PUBLIC "-//W3C//DTD SVG 1.1//EN"
 "http://www.w3.org/Graphics/SVG/1.1/DTD/svg11.dtd">
<!-- Generated by graphviz version 2.38.0 (20140413.2041)
 -->
<!-- Title: WheelJoint Pages: 1 -->
<svg width="215pt" height="189pt"
 viewBox="0.00 0.00 215.00 189.00" xmlns="http://www.w3.org/2000/svg" xmlns:xlink="http://www.w3.org/1999/xlink">
<g id="graph0" class="graph" transform="scale(1 1) rotate(0) translate(4 185)">
<title>WheelJoint</title>
<!-- Node1 -->
<g id="node1" class="node"><title>Node1</title>
<g id="a_node1"><a xlink:title="A wheel joint. This joint provides two degrees of freedom: translation along an axis fixed in bodyA a...">
<polygon fill="#bfbfbf" stroke="black" points="0,-2.5 0,-23.5 74,-23.5 74,-2.5 0,-2.5"/>
<text text-anchor="middle" x="37" y="-9.9" font-family="Helvetica,sans-Serif" font-size="12.00">WheelJoint</text>
</a>
</g>
</g>
<!-- Node2 -->
<g id="node2" class="node"><title>Node2</title>
<g id="a_node2"><a xlink:href="classtainicom_1_1_aether_1_1_physics2_d_1_1_dynamics_1_1_joints_1_1_joint.html" target="_top" xlink:title=" ">
<polygon fill="none" stroke="black" points="55.5,-88.5 55.5,-109.5 96.5,-109.5 96.5,-88.5 55.5,-88.5"/>
<text text-anchor="middle" x="76" y="-95.9" font-family="Helvetica,sans-Serif" font-size="12.00">Joint</text>
</a>
</g>
</g>
<!-- Node2&#45;&gt;Node1 -->
<g id="edge1" class="edge"><title>Node2&#45;&gt;Node1</title>
<path fill="none" stroke="midnightblue" d="M60.4945,-80.2576C58.0995,-76.9858 55.8211,-73.4951 54,-70 46.0185,-54.6821 41.1408,-35.0135 38.7643,-23.5273"/>
<polygon fill="midnightblue" stroke="midnightblue" points="57.9026,-82.6211 66.8725,-88.2595 63.3765,-78.2581 57.9026,-82.6211"/>
</g>
<!-- Node3 -->
<g id="node3" class="node"><title>Node3</title>
<g id="a_node3"><a xlink:href="classtainicom_1_1_aether_1_1_physics2_d_1_1_dynamics_1_1_joints_1_1_joint_edge.html" target="_top" xlink:title="A joint edge is used to connect bodies and joints together in a joint graph where each body is a node...">
<polygon fill="none" stroke="red" points="92,-2.5 92,-23.5 162,-23.5 162,-2.5 92,-2.5"/>
<text text-anchor="middle" x="127" y="-9.9" font-family="Helvetica,sans-Serif" font-size="12.00">JointEdge</text>
</a>
</g>
</g>
<!-- Node2&#45;&gt;Node3 -->
<g id="edge4" class="edge"><title>Node2&#45;&gt;Node3</title>
<path fill="none" stroke="#9a32cd" stroke-dasharray="5,2" d="M69.9022,-78.6408C67.6493,-67.753 66.9289,-54.3179 73,-44 78.4387,-34.7568 87.8682,-28.1572 97.3408,-23.5463"/>
<polygon fill="#9a32cd" stroke="#9a32cd" points="66.5562,-79.6799 72.4712,-88.4698 73.3287,-77.9097 66.5562,-79.6799"/>
<text text-anchor="middle" x="87" y="-53.9" font-family="Helvetica,sans-Serif" font-size="12.00"> Joint</text>
</g>
<!-- Node3&#45;&gt;Node2 -->
<g id="edge2" class="edge"><title>Node3&#45;&gt;Node2</title>
<path fill="none" stroke="#9a32cd" stroke-dasharray="5,2" d="M121.638,-33.4425C117.995,-44.6987 112.472,-58.808 105,-70 100.415,-76.8683 93.8952,-83.3539 88.1986,-88.3503"/>
<polygon fill="#9a32cd" stroke="#9a32cd" points="125.036,-34.2972 124.558,-23.7132 118.331,-32.2852 125.036,-34.2972"/>
<text text-anchor="middle" x="137" y="-60.4" font-family="Helvetica,sans-Serif" font-size="12.00"> EdgeA</text>
<text text-anchor="middle" x="137" y="-47.4" font-family="Helvetica,sans-Serif" font-size="12.00">EdgeB</text>
</g>
<!-- Node3&#45;&gt;Node3 -->
<g id="edge3" class="edge"><title>Node3&#45;&gt;Node3</title>
<path fill="none" stroke="#9a32cd" stroke-dasharray="5,2" d="M172.235,-19.8356C176.967,-18.5012 180,-16.2227 180,-13 180,-7.84375 172.236,-5.10449 162.168,-4.78223"/>
<polygon fill="#9a32cd" stroke="#9a32cd" points="171.599,-16.3899 162.168,-21.2178 172.551,-23.3249 171.599,-16.3899"/>
<text text-anchor="middle" x="193.5" y="-16.4" font-family="Helvetica,sans-Serif" font-size="12.00"> Next</text>
<text text-anchor="middle" x="193.5" y="-3.4" font-family="Helvetica,sans-Serif" font-size="12.00">Prev</text>
</g>
<!-- Node14 -->
<g id="node4" class="node"><title>Node14</title>
<g id="a_node4"><a xlink:href="classtainicom_1_1_aether_1_1_physics2_d_1_1_dynamics_1_1_world.html" target="_top" xlink:title="The world class manages all physics entities, dynamic simulation, and asynchronous queries.">
<polygon fill="none" stroke="red" points="52.5,-159.5 52.5,-180.5 99.5,-180.5 99.5,-159.5 52.5,-159.5"/>
<text text-anchor="middle" x="76" y="-166.9" font-family="Helvetica,sans-Serif" font-size="12.00">World</text>
</a>
</g>
</g>
<!-- Node14&#45;&gt;Node2 -->
<g id="edge5" class="edge"><title>Node14&#45;&gt;Node2</title>
<path fill="none" stroke="#9a32cd" stroke-dasharray="5,2" d="M76,-149.088C76,-136.078 76,-119.675 76,-109.513"/>
<polygon fill="#9a32cd" stroke="#9a32cd" points="72.5001,-149.406 76,-159.406 79.5001,-149.406 72.5001,-149.406"/>
<text text-anchor="middle" x="95" y="-131.4" font-family="Helvetica,sans-Serif" font-size="12.00"> _world</text>
</g>
</g>
</svg>
