<?xml version="1.0" encoding="UTF-8" standalone="no"?>
<!DOCTYPE svg PUBLIC "-//W3C//DTD SVG 1.1//EN"
 "http://www.w3.org/Graphics/SVG/1.1/DTD/svg11.dtd">
<!-- Generated by graphviz version 2.38.0 (20140413.2041)
 -->
<!-- Title: ContactPositionConstraint Pages: 1 -->
<svg width="161pt" height="199pt"
 viewBox="0.00 0.00 161.00 199.00" xmlns="http://www.w3.org/2000/svg" xmlns:xlink="http://www.w3.org/1999/xlink">
<g id="graph0" class="graph" transform="scale(1 1) rotate(0) translate(4 195)">
<title>ContactPositionConstraint</title>
<!-- Node1 -->
<g id="node1" class="node"><title>Node1</title>
<g id="a_node1"><a xlink:title=" ">
<polygon fill="#bfbfbf" stroke="black" points="0,-0.5 0,-21.5 153,-21.5 153,-0.5 0,-0.5"/>
<text text-anchor="middle" x="76.5" y="-7.9" font-family="Helvetica,sans-Serif" font-size="12.00">ContactPositionConstraint</text>
</a>
</g>
</g>
<!-- Node2 -->
<g id="node2" class="node"><title>Node2</title>
<g id="a_node2"><a xlink:href="structtainicom_1_1_aether_1_1_physics2_d_1_1_common_1_1_vector2.html" target="_top" xlink:title=" ">
<polygon fill="none" stroke="black" points="47.5,-110.5 47.5,-131.5 105.5,-131.5 105.5,-110.5 47.5,-110.5"/>
<text text-anchor="middle" x="76.5" y="-117.9" font-family="Helvetica,sans-Serif" font-size="12.00">Vector2</text>
</a>
</g>
</g>
<!-- Node2&#45;&gt;Node1 -->
<g id="edge1" class="edge"><title>Node2&#45;&gt;Node1</title>
<path fill="none" stroke="#9a32cd" stroke-dasharray="5,2" d="M76.5,-100.326C76.5,-77.0954 76.5,-39.3881 76.5,-21.718"/>
<polygon fill="#9a32cd" stroke="#9a32cd" points="73.0001,-100.416 76.5,-110.416 80.0001,-100.416 73.0001,-100.416"/>
<text text-anchor="middle" x="112" y="-82.4" font-family="Helvetica,sans-Serif" font-size="12.00"> localCenterA</text>
<text text-anchor="middle" x="112" y="-69.4" font-family="Helvetica,sans-Serif" font-size="12.00">localNormal</text>
<text text-anchor="middle" x="112" y="-56.4" font-family="Helvetica,sans-Serif" font-size="12.00">localPoint</text>
<text text-anchor="middle" x="112" y="-43.4" font-family="Helvetica,sans-Serif" font-size="12.00">localPoints</text>
</g>
<!-- Node3 -->
<g id="node3" class="node"><title>Node3</title>
<g id="a_node3"><a xlink:title=" ">
<polygon fill="none" stroke="#bfbfbf" points="10,-169.5 10,-190.5 143,-190.5 143,-169.5 10,-169.5"/>
<text text-anchor="middle" x="76.5" y="-176.9" font-family="Helvetica,sans-Serif" font-size="12.00">IEquatable&lt; Vector2 &gt;</text>
</a>
</g>
</g>
<!-- Node3&#45;&gt;Node2 -->
<g id="edge2" class="edge"><title>Node3&#45;&gt;Node2</title>
<path fill="none" stroke="midnightblue" d="M76.5,-159.234C76.5,-149.849 76.5,-139.065 76.5,-131.526"/>
<polygon fill="midnightblue" stroke="midnightblue" points="73.0001,-159.331 76.5,-169.331 80.0001,-159.331 73.0001,-159.331"/>
</g>
</g>
</svg>
