<?xml version="1.0" encoding="UTF-8" standalone="no"?>
<!DOCTYPE svg PUBLIC "-//W3C//DTD SVG 1.1//EN"
 "http://www.w3.org/Graphics/SVG/1.1/DTD/svg11.dtd">
<!-- Generated by graphviz version 2.38.0 (20140413.2041)
 -->
<!-- Title: DTSweepContext.DTSweepEdgeEvent Pages: 1 -->
<svg width="230pt" height="160pt"
 viewBox="0.00 0.00 230.00 160.00" xmlns="http://www.w3.org/2000/svg" xmlns:xlink="http://www.w3.org/1999/xlink">
<g id="graph0" class="graph" transform="scale(1 1) rotate(0) translate(4 156)">
<title>DTSweepContext.DTSweepEdgeEvent</title>
<!-- Node1 -->
<g id="node1" class="node"><title>Node1</title>
<g id="a_node1"><a xlink:title=" ">
<polygon fill="#bfbfbf" stroke="black" points="0,-0.5 0,-21.5 222,-21.5 222,-0.5 0,-0.5"/>
<text text-anchor="middle" x="111" y="-7.9" font-family="Helvetica,sans-Serif" font-size="12.00">DTSweepContext.DTSweepEdgeEvent</text>
</a>
</g>
</g>
<!-- Node2 -->
<g id="node2" class="node"><title>Node2</title>
<g id="a_node2"><a xlink:title=" ">
<polygon fill="none" stroke="#bfbfbf" points="50,-71.5 50,-92.5 172,-92.5 172,-71.5 50,-71.5"/>
<text text-anchor="middle" x="111" y="-78.9" font-family="Helvetica,sans-Serif" font-size="12.00">DTSweepConstraint</text>
</a>
</g>
</g>
<!-- Node2&#45;&gt;Node1 -->
<g id="edge1" class="edge"><title>Node2&#45;&gt;Node1</title>
<path fill="none" stroke="#9a32cd" stroke-dasharray="5,2" d="M111,-61.0882C111,-48.0781 111,-31.6754 111,-21.5127"/>
<polygon fill="#9a32cd" stroke="#9a32cd" points="107.5,-61.4058 111,-71.4058 114.5,-61.4059 107.5,-61.4058"/>
<text text-anchor="middle" x="159" y="-43.4" font-family="Helvetica,sans-Serif" font-size="12.00"> ConstrainedEdge</text>
</g>
<!-- Node3 -->
<g id="node3" class="node"><title>Node3</title>
<g id="a_node3"><a xlink:title=" ">
<polygon fill="none" stroke="#bfbfbf" points="42.5,-130.5 42.5,-151.5 179.5,-151.5 179.5,-130.5 42.5,-130.5"/>
<text text-anchor="middle" x="111" y="-137.9" font-family="Helvetica,sans-Serif" font-size="12.00">TriangulationConstraint</text>
</a>
</g>
</g>
<!-- Node3&#45;&gt;Node2 -->
<g id="edge2" class="edge"><title>Node3&#45;&gt;Node2</title>
<path fill="none" stroke="midnightblue" d="M111,-120.234C111,-110.849 111,-100.065 111,-92.5265"/>
<polygon fill="midnightblue" stroke="midnightblue" points="107.5,-120.331 111,-130.331 114.5,-120.331 107.5,-120.331"/>
</g>
</g>
</svg>
