<?xml version="1.0" encoding="UTF-8" standalone="no"?>
<!DOCTYPE svg PUBLIC "-//W3C//DTD SVG 1.1//EN"
 "http://www.w3.org/Graphics/SVG/1.1/DTD/svg11.dtd">
<!-- Generated by graphviz version 2.38.0 (20140413.2041)
 -->
<!-- Title: DTSweepContext.DTSweepBasin Pages: 1 -->
<svg width="244pt" height="202pt"
 viewBox="0.00 0.00 243.50 202.00" xmlns="http://www.w3.org/2000/svg" xmlns:xlink="http://www.w3.org/1999/xlink">
<g id="graph0" class="graph" transform="scale(1 1) rotate(0) translate(4 198)">
<title>DTSweepContext.DTSweepBasin</title>
<!-- Node1 -->
<g id="node1" class="node"><title>Node1</title>
<g id="a_node1"><a xlink:title=" ">
<polygon fill="#bfbfbf" stroke="black" points="21,-0.5 21,-21.5 215,-21.5 215,-0.5 21,-0.5"/>
<text text-anchor="middle" x="118" y="-7.9" font-family="Helvetica,sans-Serif" font-size="12.00">DTSweepContext.DTSweepBasin</text>
</a>
</g>
</g>
<!-- Node2 -->
<g id="node2" class="node"><title>Node2</title>
<g id="a_node2"><a xlink:title=" ">
<polygon fill="none" stroke="#bfbfbf" points="54.5,-99.5 54.5,-120.5 181.5,-120.5 181.5,-99.5 54.5,-99.5"/>
<text text-anchor="middle" x="118" y="-106.9" font-family="Helvetica,sans-Serif" font-size="12.00">AdvancingFrontNode</text>
</a>
</g>
</g>
<!-- Node2&#45;&gt;Node1 -->
<g id="edge1" class="edge"><title>Node2&#45;&gt;Node1</title>
<path fill="none" stroke="#9a32cd" stroke-dasharray="5,2" d="M118,-89.1871C118,-68.6099 118,-37.2781 118,-21.6163"/>
<polygon fill="#9a32cd" stroke="#9a32cd" points="114.5,-89.3446 118,-99.3446 121.5,-89.3447 114.5,-89.3446"/>
<text text-anchor="middle" x="152" y="-69.4" font-family="Helvetica,sans-Serif" font-size="12.00"> bottomNode</text>
<text text-anchor="middle" x="152" y="-56.4" font-family="Helvetica,sans-Serif" font-size="12.00">leftNode</text>
<text text-anchor="middle" x="152" y="-43.4" font-family="Helvetica,sans-Serif" font-size="12.00">rightNode</text>
</g>
<!-- Node2&#45;&gt;Node2 -->
<g id="edge4" class="edge"><title>Node2&#45;&gt;Node2</title>
<path fill="none" stroke="#9a32cd" stroke-dasharray="5,2" d="M191.542,-114.857C196.494,-113.736 199.5,-112.117 199.5,-110 199.5,-106.695 192.174,-104.604 181.558,-103.726"/>
<polygon fill="#9a32cd" stroke="#9a32cd" points="190.967,-111.404 181.558,-116.274 191.951,-118.334 190.967,-111.404"/>
<text text-anchor="middle" x="213" y="-113.4" font-family="Helvetica,sans-Serif" font-size="12.00"> Next</text>
<text text-anchor="middle" x="213" y="-100.4" font-family="Helvetica,sans-Serif" font-size="12.00">Prev</text>
</g>
<!-- Node3 -->
<g id="node3" class="node"><title>Node3</title>
<g id="a_node3"><a xlink:title=" ">
<polygon fill="none" stroke="#bfbfbf" points="0,-172.5 0,-193.5 110,-193.5 110,-172.5 0,-172.5"/>
<text text-anchor="middle" x="55" y="-179.9" font-family="Helvetica,sans-Serif" font-size="12.00">TriangulationPoint</text>
</a>
</g>
</g>
<!-- Node3&#45;&gt;Node2 -->
<g id="edge2" class="edge"><title>Node3&#45;&gt;Node2</title>
<path fill="none" stroke="#9a32cd" stroke-dasharray="5,2" d="M70.4254,-164.616C82.6227,-150.87 99.2128,-132.173 109.234,-120.879"/>
<polygon fill="#9a32cd" stroke="#9a32cd" points="67.5156,-162.622 63.4965,-172.425 72.7516,-167.268 67.5156,-162.622"/>
<text text-anchor="middle" x="106.5" y="-144.4" font-family="Helvetica,sans-Serif" font-size="12.00"> Point</text>
</g>
<!-- Node4 -->
<g id="node4" class="node"><title>Node4</title>
<g id="a_node4"><a xlink:title=" ">
<polygon fill="none" stroke="#bfbfbf" points="128.5,-172.5 128.5,-193.5 235.5,-193.5 235.5,-172.5 128.5,-172.5"/>
<text text-anchor="middle" x="182" y="-179.9" font-family="Helvetica,sans-Serif" font-size="12.00">DelaunayTriangle</text>
</a>
</g>
</g>
<!-- Node4&#45;&gt;Node2 -->
<g id="edge3" class="edge"><title>Node4&#45;&gt;Node2</title>
<path fill="none" stroke="#9a32cd" stroke-dasharray="5,2" d="M166.33,-164.616C153.939,-150.87 137.085,-132.173 126.905,-120.879"/>
<polygon fill="#9a32cd" stroke="#9a32cd" points="164.074,-167.34 173.369,-172.425 169.273,-162.653 164.074,-167.34"/>
<text text-anchor="middle" x="179" y="-144.4" font-family="Helvetica,sans-Serif" font-size="12.00"> Triangle</text>
</g>
</g>
</svg>
