<?xml version="1.0" encoding="UTF-8" standalone="no"?>
<!DOCTYPE svg PUBLIC "-//W3C//DTD SVG 1.1//EN"
 "http://www.w3.org/Graphics/SVG/1.1/DTD/svg11.dtd">
<!-- Generated by graphviz version 2.38.0 (20140413.2041)
 -->
<!-- Title: Spring2 Pages: 1 -->
<svg width="126pt" height="211pt"
 viewBox="0.00 0.00 126.00 211.00" xmlns="http://www.w3.org/2000/svg" xmlns:xlink="http://www.w3.org/1999/xlink">
<g id="graph0" class="graph" transform="scale(1 1) rotate(0) translate(4 207)">
<title>Spring2</title>
<!-- Node1 -->
<g id="node1" class="node"><title>Node1</title>
<g id="a_node1"><a xlink:title=" ">
<polygon fill="#bfbfbf" stroke="black" points="0,-0.5 0,-21.5 58,-21.5 58,-0.5 0,-0.5"/>
<text text-anchor="middle" x="29" y="-7.9" font-family="Helvetica,sans-Serif" font-size="12.00">Spring2</text>
</a>
</g>
</g>
<!-- Node2 -->
<g id="node2" class="node"><title>Node2</title>
<g id="a_node2"><a xlink:href="classtainicom_1_1_aether_1_1_physics2_d_1_1_fluids_1_1_particle.html" target="_top" xlink:title=" ">
<polygon fill="none" stroke="black" points="1,-84.5 1,-105.5 57,-105.5 57,-84.5 1,-84.5"/>
<text text-anchor="middle" x="29" y="-91.9" font-family="Helvetica,sans-Serif" font-size="12.00">Particle</text>
</a>
</g>
</g>
<!-- Node2&#45;&gt;Node1 -->
<g id="edge1" class="edge"><title>Node2&#45;&gt;Node1</title>
<path fill="none" stroke="#9a32cd" stroke-dasharray="5,2" d="M29,-73.9899C29,-57.4 29,-34.5318 29,-21.7158"/>
<polygon fill="#9a32cd" stroke="#9a32cd" points="25.5001,-74.2715 29,-84.2715 32.5001,-74.2715 25.5001,-74.2715"/>
<text text-anchor="middle" x="39" y="-56.4" font-family="Helvetica,sans-Serif" font-size="12.00"> PA</text>
<text text-anchor="middle" x="39" y="-43.4" font-family="Helvetica,sans-Serif" font-size="12.00">PB</text>
</g>
<!-- Node3 -->
<g id="node3" class="node"><title>Node3</title>
<g id="a_node3"><a xlink:href="structtainicom_1_1_aether_1_1_physics2_d_1_1_common_1_1_vector2.html" target="_top" xlink:title=" ">
<polygon fill="none" stroke="red" points="0,-181.5 0,-202.5 58,-202.5 58,-181.5 0,-181.5"/>
<text text-anchor="middle" x="29" y="-188.9" font-family="Helvetica,sans-Serif" font-size="12.00">Vector2</text>
</a>
</g>
</g>
<!-- Node3&#45;&gt;Node2 -->
<g id="edge2" class="edge"><title>Node3&#45;&gt;Node2</title>
<path fill="none" stroke="#9a32cd" stroke-dasharray="5,2" d="M29,-170.968C29,-150.897 29,-120.857 29,-105.614"/>
<polygon fill="#9a32cd" stroke="#9a32cd" points="25.5001,-171.191 29,-181.191 32.5001,-171.191 25.5001,-171.191"/>
<text text-anchor="middle" x="73.5" y="-153.4" font-family="Helvetica,sans-Serif" font-size="12.00"> Position</text>
<text text-anchor="middle" x="73.5" y="-140.4" font-family="Helvetica,sans-Serif" font-size="12.00">PreviousPosition</text>
<text text-anchor="middle" x="73.5" y="-127.4" font-family="Helvetica,sans-Serif" font-size="12.00">Velocity</text>
</g>
</g>
</svg>
