<?xml version="1.0" encoding="UTF-8" standalone="no"?>
<!DOCTYPE svg PUBLIC "-//W3C//DTD SVG 1.1//EN"
 "http://www.w3.org/Graphics/SVG/1.1/DTD/svg11.dtd">
<!-- Generated by graphviz version 2.38.0 (20140413.2041)
 -->
<!-- Title: JointCollection Pages: 1 -->
<svg width="368pt" height="88pt"
 viewBox="0.00 0.00 368.00 88.00" xmlns="http://www.w3.org/2000/svg" xmlns:xlink="http://www.w3.org/1999/xlink">
<g id="graph0" class="graph" transform="scale(1 1) rotate(0) translate(4 84)">
<title>JointCollection</title>
<!-- Node1 -->
<g id="node1" class="node"><title>Node1</title>
<g id="a_node1"><a xlink:title=" ">
<polygon fill="#bfbfbf" stroke="black" points="155.5,-0.5 155.5,-21.5 248.5,-21.5 248.5,-0.5 155.5,-0.5"/>
<text text-anchor="middle" x="202" y="-7.9" font-family="Helvetica,sans-Serif" font-size="12.00">JointCollection</text>
</a>
</g>
</g>
<!-- Node2 -->
<g id="node2" class="node"><title>Node2</title>
<g id="a_node2"><a xlink:title=" ">
<polygon fill="none" stroke="#bfbfbf" points="0,-58.5 0,-79.5 126,-79.5 126,-58.5 0,-58.5"/>
<text text-anchor="middle" x="63" y="-65.9" font-family="Helvetica,sans-Serif" font-size="12.00">IEnumerable&lt; Joint &gt;</text>
</a>
</g>
</g>
<!-- Node2&#45;&gt;Node1 -->
<g id="edge1" class="edge"><title>Node2&#45;&gt;Node1</title>
<path fill="none" stroke="midnightblue" d="M96.4621,-54.5189C121.777,-44.3201 155.91,-30.5685 178.417,-21.5011"/>
<polygon fill="midnightblue" stroke="midnightblue" points="94.8626,-51.3899 86.895,-58.3733 97.4784,-57.8827 94.8626,-51.3899"/>
</g>
<!-- Node3 -->
<g id="node3" class="node"><title>Node3</title>
<g id="a_node3"><a xlink:title=" ">
<polygon fill="none" stroke="#bfbfbf" points="144.5,-58.5 144.5,-79.5 259.5,-79.5 259.5,-58.5 144.5,-58.5"/>
<text text-anchor="middle" x="202" y="-65.9" font-family="Helvetica,sans-Serif" font-size="12.00">ICollection&lt; Joint &gt;</text>
</a>
</g>
</g>
<!-- Node3&#45;&gt;Node1 -->
<g id="edge2" class="edge"><title>Node3&#45;&gt;Node1</title>
<path fill="none" stroke="midnightblue" d="M202,-48.1575C202,-39.155 202,-28.9199 202,-21.6427"/>
<polygon fill="midnightblue" stroke="midnightblue" points="198.5,-48.2455 202,-58.2455 205.5,-48.2456 198.5,-48.2455"/>
</g>
<!-- Node4 -->
<g id="node4" class="node"><title>Node4</title>
<g id="a_node4"><a xlink:title=" ">
<polygon fill="none" stroke="#bfbfbf" points="278,-58.5 278,-79.5 360,-79.5 360,-58.5 278,-58.5"/>
<text text-anchor="middle" x="319" y="-65.9" font-family="Helvetica,sans-Serif" font-size="12.00">IList&lt; Joint &gt;</text>
</a>
</g>
</g>
<!-- Node4&#45;&gt;Node1 -->
<g id="edge3" class="edge"><title>Node4&#45;&gt;Node1</title>
<path fill="none" stroke="midnightblue" d="M289.696,-53.9741C268.512,-43.8348 240.46,-30.408 221.851,-21.5011"/>
<polygon fill="midnightblue" stroke="midnightblue" points="288.356,-57.2129 298.887,-58.3733 291.378,-50.8989 288.356,-57.2129"/>
</g>
</g>
</svg>
