<?xml version="1.0" encoding="UTF-8" standalone="no"?>
<!DOCTYPE svg PUBLIC "-//W3C//DTD SVG 1.1//EN"
 "http://www.w3.org/Graphics/SVG/1.1/DTD/svg11.dtd">
<!-- Generated by graphviz version 2.38.0 (20140413.2041)
 -->
<!-- Title: BodyCollection Pages: 1 -->
<svg width="374pt" height="88pt"
 viewBox="0.00 0.00 374.00 88.00" xmlns="http://www.w3.org/2000/svg" xmlns:xlink="http://www.w3.org/1999/xlink">
<g id="graph0" class="graph" transform="scale(1 1) rotate(0) translate(4 84)">
<title>BodyCollection</title>
<!-- Node1 -->
<g id="node1" class="node"><title>Node1</title>
<g id="a_node1"><a xlink:title=" ">
<polygon fill="#bfbfbf" stroke="black" points="157.5,-0.5 157.5,-21.5 252.5,-21.5 252.5,-0.5 157.5,-0.5"/>
<text text-anchor="middle" x="205" y="-7.9" font-family="Helvetica,sans-Serif" font-size="12.00">BodyCollection</text>
</a>
</g>
</g>
<!-- Node2 -->
<g id="node2" class="node"><title>Node2</title>
<g id="a_node2"><a xlink:title=" ">
<polygon fill="none" stroke="#bfbfbf" points="0,-58.5 0,-79.5 128,-79.5 128,-58.5 0,-58.5"/>
<text text-anchor="middle" x="64" y="-65.9" font-family="Helvetica,sans-Serif" font-size="12.00">IEnumerable&lt; Body &gt;</text>
</a>
</g>
</g>
<!-- Node2&#45;&gt;Node1 -->
<g id="edge1" class="edge"><title>Node2&#45;&gt;Node1</title>
<path fill="none" stroke="midnightblue" d="M97.6032,-54.6541C123.316,-44.4419 158.146,-30.6086 181.078,-21.5011"/>
<polygon fill="midnightblue" stroke="midnightblue" points="96.2407,-51.4292 88.2388,-58.3733 98.8245,-57.9349 96.2407,-51.4292"/>
</g>
<!-- Node3 -->
<g id="node3" class="node"><title>Node3</title>
<g id="a_node3"><a xlink:title=" ">
<polygon fill="none" stroke="#bfbfbf" points="146.5,-58.5 146.5,-79.5 263.5,-79.5 263.5,-58.5 146.5,-58.5"/>
<text text-anchor="middle" x="205" y="-65.9" font-family="Helvetica,sans-Serif" font-size="12.00">ICollection&lt; Body &gt;</text>
</a>
</g>
</g>
<!-- Node3&#45;&gt;Node1 -->
<g id="edge2" class="edge"><title>Node3&#45;&gt;Node1</title>
<path fill="none" stroke="midnightblue" d="M205,-48.1575C205,-39.155 205,-28.9199 205,-21.6427"/>
<polygon fill="midnightblue" stroke="midnightblue" points="201.5,-48.2455 205,-58.2455 208.5,-48.2456 201.5,-48.2455"/>
</g>
<!-- Node4 -->
<g id="node4" class="node"><title>Node4</title>
<g id="a_node4"><a xlink:title=" ">
<polygon fill="none" stroke="#bfbfbf" points="282,-58.5 282,-79.5 366,-79.5 366,-58.5 282,-58.5"/>
<text text-anchor="middle" x="324" y="-65.9" font-family="Helvetica,sans-Serif" font-size="12.00">IList&lt; Body &gt;</text>
</a>
</g>
</g>
<!-- Node4&#45;&gt;Node1 -->
<g id="edge3" class="edge"><title>Node4&#45;&gt;Node1</title>
<path fill="none" stroke="midnightblue" d="M294.486,-54.1109C272.906,-43.9559 244.202,-30.4482 225.19,-21.5011"/>
<polygon fill="midnightblue" stroke="midnightblue" points="293.005,-57.2821 303.543,-58.3733 295.985,-50.9484 293.005,-57.2821"/>
</g>
</g>
</svg>
