<?xml version="1.0" encoding="UTF-8" standalone="no"?>
<!DOCTYPE svg PUBLIC "-//W3C//DTD SVG 1.1//EN"
 "http://www.w3.org/Graphics/SVG/1.1/DTD/svg11.dtd">
<!-- Generated by graphviz version 2.38.0 (20140413.2041)
 -->
<!-- Title: ContactManager Pages: 1 -->
<svg width="271pt" height="173pt"
 viewBox="0.00 0.00 270.50 173.00" xmlns="http://www.w3.org/2000/svg" xmlns:xlink="http://www.w3.org/1999/xlink">
<g id="graph0" class="graph" transform="scale(1 1) rotate(0) translate(4 169)">
<title>ContactManager</title>
<!-- Node1 -->
<g id="node1" class="node"><title>Node1</title>
<g id="a_node1"><a xlink:title=" ">
<polygon fill="#bfbfbf" stroke="black" points="92.5,-0.5 92.5,-21.5 196.5,-21.5 196.5,-0.5 92.5,-0.5"/>
<text text-anchor="middle" x="144.5" y="-7.9" font-family="Helvetica,sans-Serif" font-size="12.00">ContactManager</text>
</a>
</g>
</g>
<!-- Node2 -->
<g id="node2" class="node"><title>Node2</title>
<g id="a_node2"><a xlink:href="classtainicom_1_1_aether_1_1_physics2_d_1_1_dynamics_1_1_contacts_1_1_contact_list_head.html" target="_top" xlink:title="Head of a circular doubly linked list.">
<polygon fill="none" stroke="black" points="35.5,-84.5 35.5,-105.5 139.5,-105.5 139.5,-84.5 35.5,-84.5"/>
<text text-anchor="middle" x="87.5" y="-91.9" font-family="Helvetica,sans-Serif" font-size="12.00">ContactListHead</text>
</a>
</g>
</g>
<!-- Node2&#45;&gt;Node1 -->
<g id="edge1" class="edge"><title>Node2&#45;&gt;Node1</title>
<path fill="none" stroke="#9a32cd" stroke-dasharray="5,2" d="M82.193,-74.4956C80.3676,-63.5601 80.1443,-50.1258 86.5,-40 91.731,-31.666 100.219,-25.7531 109.107,-21.5814"/>
<polygon fill="#9a32cd" stroke="#9a32cd" points="78.8013,-75.3687 84.3682,-84.3831 85.6378,-73.8646 78.8013,-75.3687"/>
<text text-anchor="middle" x="130.5" y="-56.4" font-family="Helvetica,sans-Serif" font-size="12.00"> ContactList</text>
<text text-anchor="middle" x="130.5" y="-43.4" font-family="Helvetica,sans-Serif" font-size="12.00">_contactPoolList</text>
</g>
<!-- Node3 -->
<g id="node3" class="node"><title>Node3</title>
<g id="a_node3"><a xlink:href="classtainicom_1_1_aether_1_1_physics2_d_1_1_dynamics_1_1_contacts_1_1_contact.html" target="_top" xlink:title="The class manages contact between two shapes. A contact exists for each overlapping AABB in the broad...">
<polygon fill="none" stroke="red" points="0,-143.5 0,-164.5 57,-164.5 57,-143.5 0,-143.5"/>
<text text-anchor="middle" x="28.5" y="-150.9" font-family="Helvetica,sans-Serif" font-size="12.00">Contact</text>
</a>
</g>
</g>
<!-- Node3&#45;&gt;Node2 -->
<g id="edge2" class="edge"><title>Node3&#45;&gt;Node2</title>
<path fill="none" stroke="midnightblue" d="M45.8491,-136.239C56.2075,-126.232 68.988,-113.885 77.6393,-105.526"/>
<polygon fill="midnightblue" stroke="midnightblue" points="43.2686,-133.865 38.5085,-143.331 48.1323,-138.9 43.2686,-133.865"/>
</g>
<!-- Node9 -->
<g id="node4" class="node"><title>Node9</title>
<g id="a_node4"><a xlink:title=" ">
<polygon fill="none" stroke="#bfbfbf" points="75.5,-143.5 75.5,-164.5 217.5,-164.5 217.5,-143.5 75.5,-143.5"/>
<text text-anchor="middle" x="146.5" y="-150.9" font-family="Helvetica,sans-Serif" font-size="12.00">IEnumerable&lt; Contact &gt;</text>
</a>
</g>
</g>
<!-- Node9&#45;&gt;Node2 -->
<g id="edge3" class="edge"><title>Node9&#45;&gt;Node2</title>
<path fill="none" stroke="midnightblue" d="M129.151,-136.239C118.793,-126.232 106.012,-113.885 97.3607,-105.526"/>
<polygon fill="midnightblue" stroke="midnightblue" points="126.868,-138.9 136.491,-143.331 131.731,-133.865 126.868,-138.9"/>
</g>
<!-- Node10 -->
<g id="node5" class="node"><title>Node10</title>
<g id="a_node5"><a xlink:href="interfacetainicom_1_1_aether_1_1_physics2_d_1_1_collision_1_1_i_broad_phase.html" target="_top" xlink:title=" ">
<polygon fill="none" stroke="black" points="158,-84.5 158,-105.5 243,-105.5 243,-84.5 158,-84.5"/>
<text text-anchor="middle" x="200.5" y="-91.9" font-family="Helvetica,sans-Serif" font-size="12.00">IBroadPhase</text>
</a>
</g>
</g>
<!-- Node10&#45;&gt;Node1 -->
<g id="edge4" class="edge"><title>Node10&#45;&gt;Node1</title>
<path fill="none" stroke="#9a32cd" stroke-dasharray="5,2" d="M195.091,-74.3151C191.507,-63.5155 186.06,-50.2736 178.5,-40 173.243,-32.8555 165.769,-26.4367 159.167,-21.5528"/>
<polygon fill="#9a32cd" stroke="#9a32cd" points="191.807,-75.5484 198.062,-84.1001 198.505,-73.5146 191.807,-75.5484"/>
<text text-anchor="middle" x="227.5" y="-49.9" font-family="Helvetica,sans-Serif" font-size="12.00"> BroadPhase</text>
</g>
</g>
</svg>
