<?xml version="1.0" encoding="UTF-8" standalone="no"?>
<!DOCTYPE svg PUBLIC "-//W3C//DTD SVG 1.1//EN"
 "http://www.w3.org/Graphics/SVG/1.1/DTD/svg11.dtd">
<!-- Generated by graphviz version 2.38.0 (20140413.2041)
 -->
<!-- Title: Terrain Pages: 1 -->
<svg width="454pt" height="190pt"
 viewBox="0.00 0.00 454.00 190.00" xmlns="http://www.w3.org/2000/svg" xmlns:xlink="http://www.w3.org/1999/xlink">
<g id="graph0" class="graph" transform="scale(1 1) rotate(0) translate(4 186)">
<title>Terrain</title>
<!-- Node1 -->
<g id="node1" class="node"><title>Node1</title>
<g id="a_node1"><a xlink:title="Simple class to maintain a terrain. It can keep track">
<polygon fill="#bfbfbf" stroke="black" points="393,-113.5 393,-134.5 446,-134.5 446,-113.5 393,-113.5"/>
<text text-anchor="middle" x="419.5" y="-120.9" font-family="Helvetica,sans-Serif" font-size="12.00">Terrain</text>
</a>
</g>
</g>
<!-- Node2 -->
<g id="node2" class="node"><title>Node2</title>
<g id="a_node2"><a xlink:href="structtainicom_1_1_aether_1_1_physics2_d_1_1_common_1_1_vector2.html" target="_top" xlink:title=" ">
<polygon fill="none" stroke="black" points="260,-140.5 260,-161.5 318,-161.5 318,-140.5 260,-140.5"/>
<text text-anchor="middle" x="289" y="-147.9" font-family="Helvetica,sans-Serif" font-size="12.00">Vector2</text>
</a>
</g>
</g>
<!-- Node2&#45;&gt;Node1 -->
<g id="edge1" class="edge"><title>Node2&#45;&gt;Node1</title>
<path fill="none" stroke="#9a32cd" stroke-dasharray="5,2" d="M328.072,-143.001C349.014,-138.6 374.433,-133.259 392.982,-129.362"/>
<polygon fill="#9a32cd" stroke="#9a32cd" points="327.266,-139.593 318.2,-145.075 328.706,-146.444 327.266,-139.593"/>
<text text-anchor="middle" x="355.5" y="-143.4" font-family="Helvetica,sans-Serif" font-size="12.00"> Center</text>
</g>
<!-- Node3 -->
<g id="node3" class="node"><title>Node3</title>
<g id="a_node3"><a xlink:title=" ">
<polygon fill="none" stroke="#bfbfbf" points="0,-160.5 0,-181.5 133,-181.5 133,-160.5 0,-160.5"/>
<text text-anchor="middle" x="66.5" y="-167.9" font-family="Helvetica,sans-Serif" font-size="12.00">IEquatable&lt; Vector2 &gt;</text>
</a>
</g>
</g>
<!-- Node3&#45;&gt;Node2 -->
<g id="edge2" class="edge"><title>Node3&#45;&gt;Node2</title>
<path fill="none" stroke="midnightblue" d="M143.146,-164.139C183.459,-160.482 230.642,-156.203 259.929,-153.546"/>
<polygon fill="midnightblue" stroke="midnightblue" points="142.703,-160.664 133.06,-165.053 143.336,-167.636 142.703,-160.664"/>
</g>
<!-- Node4 -->
<g id="node4" class="node"><title>Node4</title>
<g id="a_node4"><a xlink:href="classtainicom_1_1_aether_1_1_physics2_d_1_1_dynamics_1_1_world.html" target="_top" xlink:title="The world class manages all physics entities, dynamic simulation, and asynchronous queries.">
<polygon fill="none" stroke="black" points="265.5,-80.5 265.5,-101.5 312.5,-101.5 312.5,-80.5 265.5,-80.5"/>
<text text-anchor="middle" x="289" y="-87.9" font-family="Helvetica,sans-Serif" font-size="12.00">World</text>
</a>
</g>
</g>
<!-- Node4&#45;&gt;Node1 -->
<g id="edge3" class="edge"><title>Node4&#45;&gt;Node1</title>
<path fill="none" stroke="#9a32cd" stroke-dasharray="5,2" d="M322.506,-99.348C344.353,-104.958 372.739,-112.248 392.964,-117.442"/>
<polygon fill="#9a32cd" stroke="#9a32cd" points="323.234,-95.9212 312.677,-96.8238 321.493,-102.701 323.234,-95.9212"/>
<text text-anchor="middle" x="355.5" y="-115.4" font-family="Helvetica,sans-Serif" font-size="12.00"> World</text>
</g>
<!-- Node5 -->
<g id="node5" class="node"><title>Node5</title>
<g id="a_node5"><a xlink:href="classtainicom_1_1_aether_1_1_physics2_d_1_1_dynamics_1_1_joint_collection.html" target="_top" xlink:title=" ">
<polygon fill="none" stroke="red" points="20,-120.5 20,-141.5 113,-141.5 113,-120.5 20,-120.5"/>
<text text-anchor="middle" x="66.5" y="-127.9" font-family="Helvetica,sans-Serif" font-size="12.00">JointCollection</text>
</a>
</g>
</g>
<!-- Node5&#45;&gt;Node4 -->
<g id="edge4" class="edge"><title>Node5&#45;&gt;Node4</title>
<path fill="none" stroke="#9a32cd" stroke-dasharray="5,2" d="M123.569,-126.811C158.081,-123.447 203.021,-117.643 242,-108 249.769,-106.078 258.035,-103.275 265.385,-100.498"/>
<polygon fill="#9a32cd" stroke="#9a32cd" points="122.843,-123.364 113.212,-127.779 123.494,-130.334 122.843,-123.364"/>
<text text-anchor="middle" x="196.5" y="-126.4" font-family="Helvetica,sans-Serif" font-size="12.00"> JointList</text>
</g>
<!-- Node9 -->
<g id="node6" class="node"><title>Node9</title>
<g id="a_node6"><a xlink:href="classtainicom_1_1_aether_1_1_physics2_d_1_1_dynamics_1_1_contact_manager.html" target="_top" xlink:title=" ">
<polygon fill="none" stroke="red" points="14.5,-80.5 14.5,-101.5 118.5,-101.5 118.5,-80.5 14.5,-80.5"/>
<text text-anchor="middle" x="66.5" y="-87.9" font-family="Helvetica,sans-Serif" font-size="12.00">ContactManager</text>
</a>
</g>
</g>
<!-- Node9&#45;&gt;Node4 -->
<g id="edge5" class="edge"><title>Node9&#45;&gt;Node4</title>
<path fill="none" stroke="#9a32cd" stroke-dasharray="5,2" d="M128.685,-91C174.084,-91 233.426,-91 265.336,-91"/>
<polygon fill="#9a32cd" stroke="#9a32cd" points="128.641,-87.5001 118.641,-91 128.641,-94.5001 128.641,-87.5001"/>
<text text-anchor="middle" x="196.5" y="-94.4" font-family="Helvetica,sans-Serif" font-size="12.00"> ContactManager</text>
</g>
<!-- Node17 -->
<g id="node7" class="node"><title>Node17</title>
<g id="a_node7"><a xlink:href="classtainicom_1_1_aether_1_1_physics2_d_1_1_dynamics_1_1_controller_collection.html" target="_top" xlink:title=" ">
<polygon fill="none" stroke="red" points="7,-40.5 7,-61.5 126,-61.5 126,-40.5 7,-40.5"/>
<text text-anchor="middle" x="66.5" y="-47.9" font-family="Helvetica,sans-Serif" font-size="12.00">ControllerCollection</text>
</a>
</g>
</g>
<!-- Node17&#45;&gt;Node4 -->
<g id="edge6" class="edge"><title>Node17&#45;&gt;Node4</title>
<path fill="none" stroke="#9a32cd" stroke-dasharray="5,2" d="M136.531,-56.5201C168.873,-60.0146 207.739,-65.5242 242,-74 249.769,-75.922 258.035,-78.7246 265.385,-81.5019"/>
<polygon fill="#9a32cd" stroke="#9a32cd" points="136.582,-53.0067 126.274,-55.4551 135.859,-59.9692 136.582,-53.0067"/>
<text text-anchor="middle" x="196.5" y="-77.4" font-family="Helvetica,sans-Serif" font-size="12.00"> ControllerList</text>
</g>
<!-- Node21 -->
<g id="node8" class="node"><title>Node21</title>
<g id="a_node8"><a xlink:href="classtainicom_1_1_aether_1_1_physics2_d_1_1_dynamics_1_1_body_collection.html" target="_top" xlink:title=" ">
<polygon fill="none" stroke="red" points="19,-0.5 19,-21.5 114,-21.5 114,-0.5 19,-0.5"/>
<text text-anchor="middle" x="66.5" y="-7.9" font-family="Helvetica,sans-Serif" font-size="12.00">BodyCollection</text>
</a>
</g>
</g>
<!-- Node21&#45;&gt;Node4 -->
<g id="edge7" class="edge"><title>Node21&#45;&gt;Node4</title>
<path fill="none" stroke="#9a32cd" stroke-dasharray="5,2" d="M124.503,-11.5615C160.165,-14.077 206.004,-21.3982 242,-41 259.196,-50.364 273.433,-68.6076 281.317,-80.2778"/>
<polygon fill="#9a32cd" stroke="#9a32cd" points="124.449,-8.05214 114.259,-10.9498 124.032,-15.0397 124.449,-8.05214"/>
<text text-anchor="middle" x="196.5" y="-44.4" font-family="Helvetica,sans-Serif" font-size="12.00"> BodyList</text>
</g>
</g>
</svg>
