<?xml version="1.0" encoding="UTF-8" standalone="no"?>
<!DOCTYPE svg PUBLIC "-//W3C//DTD SVG 1.1//EN"
 "http://www.w3.org/Graphics/SVG/1.1/DTD/svg11.dtd">
<!-- Generated by graphviz version 2.38.0 (20140413.2041)
 -->
<!-- Title: JointEdge Pages: 1 -->
<svg width="463pt" height="361pt"
 viewBox="0.00 0.00 462.50 361.00" xmlns="http://www.w3.org/2000/svg" xmlns:xlink="http://www.w3.org/1999/xlink">
<g id="graph0" class="graph" transform="scale(1 1) rotate(0) translate(4 357)">
<title>JointEdge</title>
<!-- Node1 -->
<g id="node1" class="node"><title>Node1</title>
<g id="a_node1"><a xlink:title="A joint edge is used to connect bodies and joints together in a joint graph where each body is a node...">
<polygon fill="#bfbfbf" stroke="black" points="77.5,-86.5 77.5,-107.5 147.5,-107.5 147.5,-86.5 77.5,-86.5"/>
<text text-anchor="middle" x="112.5" y="-93.9" font-family="Helvetica,sans-Serif" font-size="12.00">JointEdge</text>
</a>
</g>
</g>
<!-- Node1&#45;&gt;Node1 -->
<g id="edge1" class="edge"><title>Node1&#45;&gt;Node1</title>
<path fill="none" stroke="#9a32cd" stroke-dasharray="5,2" d="M157.735,-102.593C162.467,-101.501 165.5,-99.6367 165.5,-97 165.5,-92.7813 157.736,-90.54 147.668,-90.2764"/>
<polygon fill="#9a32cd" stroke="#9a32cd" points="157.215,-99.1291 147.668,-103.724 157.996,-106.085 157.215,-99.1291"/>
<text text-anchor="middle" x="179" y="-100.4" font-family="Helvetica,sans-Serif" font-size="12.00"> Next</text>
<text text-anchor="middle" x="179" y="-87.4" font-family="Helvetica,sans-Serif" font-size="12.00">Prev</text>
</g>
<!-- Node2 -->
<g id="node2" class="node"><title>Node2</title>
<g id="a_node2"><a xlink:href="classtainicom_1_1_aether_1_1_physics2_d_1_1_dynamics_1_1_joints_1_1_joint.html" target="_top" xlink:title=" ">
<polygon fill="none" stroke="black" points="29,-0.5 29,-21.5 70,-21.5 70,-0.5 29,-0.5"/>
<text text-anchor="middle" x="49.5" y="-7.9" font-family="Helvetica,sans-Serif" font-size="12.00">Joint</text>
</a>
</g>
</g>
<!-- Node1&#45;&gt;Node2 -->
<g id="edge3" class="edge"><title>Node1&#45;&gt;Node2</title>
<path fill="none" stroke="#9a32cd" stroke-dasharray="5,2" d="M68.0562,-84.2291C59.5247,-79.898 51.6543,-74.0046 46.5,-66 37.8584,-52.5795 42.0168,-33.1702 45.7861,-21.6442"/>
<polygon fill="#9a32cd" stroke="#9a32cd" points="66.9108,-87.548 77.4759,-88.3414 69.7116,-81.1327 66.9108,-87.548"/>
<text text-anchor="middle" x="66.5" y="-56.4" font-family="Helvetica,sans-Serif" font-size="12.00"> EdgeA</text>
<text text-anchor="middle" x="66.5" y="-43.4" font-family="Helvetica,sans-Serif" font-size="12.00">EdgeB</text>
</g>
<!-- Node2&#45;&gt;Node1 -->
<g id="edge2" class="edge"><title>Node2&#45;&gt;Node1</title>
<path fill="none" stroke="#9a32cd" stroke-dasharray="5,2" d="M76.9245,-27.3189C81.9055,-30.9938 86.7139,-35.2502 90.5,-40 101.699,-54.0491 107.78,-74.499 110.566,-86.4067"/>
<polygon fill="#9a32cd" stroke="#9a32cd" points="78.7859,-24.3532 68.5289,-21.699 74.8921,-30.1702 78.7859,-24.3532"/>
<text text-anchor="middle" x="118.5" y="-49.9" font-family="Helvetica,sans-Serif" font-size="12.00"> Joint</text>
</g>
<!-- Node3 -->
<g id="node3" class="node"><title>Node3</title>
<g id="a_node3"><a xlink:href="classtainicom_1_1_aether_1_1_physics2_d_1_1_dynamics_1_1_world.html" target="_top" xlink:title="The world class manages all physics entities, dynamic simulation, and asynchronous queries.">
<polygon fill="none" stroke="red" points="0,-232.5 0,-253.5 47,-253.5 47,-232.5 0,-232.5"/>
<text text-anchor="middle" x="23.5" y="-239.9" font-family="Helvetica,sans-Serif" font-size="12.00">World</text>
</a>
</g>
</g>
<!-- Node3&#45;&gt;Node2 -->
<g id="edge4" class="edge"><title>Node3&#45;&gt;Node2</title>
<path fill="none" stroke="#9a32cd" stroke-dasharray="5,2" d="M22.6904,-221.819C21.7004,-185.078 21.7827,-105.059 37.5,-40 39.04,-33.6254 41.9036,-26.8568 44.4472,-21.5716"/>
<polygon fill="#9a32cd" stroke="#9a32cd" points="19.2034,-222.274 23.0311,-232.153 26.1996,-222.043 19.2034,-222.274"/>
<text text-anchor="middle" x="44.5" y="-131.4" font-family="Helvetica,sans-Serif" font-size="12.00"> _world</text>
</g>
<!-- Node26 -->
<g id="node4" class="node"><title>Node26</title>
<g id="a_node4"><a xlink:href="classtainicom_1_1_aether_1_1_physics2_d_1_1_dynamics_1_1_body.html" target="_top" xlink:title=" ">
<polygon fill="none" stroke="black" points="126.5,-159.5 126.5,-180.5 170.5,-180.5 170.5,-159.5 126.5,-159.5"/>
<text text-anchor="middle" x="148.5" y="-166.9" font-family="Helvetica,sans-Serif" font-size="12.00">Body</text>
</a>
</g>
</g>
<!-- Node3&#45;&gt;Node26 -->
<g id="edge12" class="edge"><title>Node3&#45;&gt;Node26</title>
<path fill="none" stroke="#9a32cd" stroke-dasharray="5,2" d="M28.8721,-222.807C32.1286,-214.402 37.1188,-205.089 44.5,-199 67.8672,-179.724 103.307,-173.632 126.183,-171.756"/>
<polygon fill="#9a32cd" stroke="#9a32cd" points="25.5398,-221.736 25.7154,-232.329 32.1842,-223.938 25.5398,-221.736"/>
<text text-anchor="middle" x="63.5" y="-202.4" font-family="Helvetica,sans-Serif" font-size="12.00"> _world</text>
</g>
<!-- Node26&#45;&gt;Node1 -->
<g id="edge5" class="edge"><title>Node26&#45;&gt;Node1</title>
<path fill="none" stroke="#9a32cd" stroke-dasharray="5,2" d="M139.088,-150.437C132.182,-136.817 123.074,-118.853 117.509,-107.879"/>
<polygon fill="#9a32cd" stroke="#9a32cd" points="136.001,-152.088 143.645,-159.425 142.244,-148.923 136.001,-152.088"/>
<text text-anchor="middle" x="150.5" y="-131.4" font-family="Helvetica,sans-Serif" font-size="12.00"> Other</text>
</g>
<!-- Node27 -->
<g id="node5" class="node"><title>Node27</title>
<g id="a_node5"><a xlink:href="structtainicom_1_1_aether_1_1_physics2_d_1_1_common_1_1_sweep.html" target="_top" xlink:title="This describes the motion of a body/shape for TOI computation. Shapes are defined with respect to the...">
<polygon fill="none" stroke="black" points="192,-232.5 192,-253.5 245,-253.5 245,-232.5 192,-232.5"/>
<text text-anchor="middle" x="218.5" y="-239.9" font-family="Helvetica,sans-Serif" font-size="12.00">Sweep</text>
</a>
</g>
</g>
<!-- Node27&#45;&gt;Node26 -->
<g id="edge6" class="edge"><title>Node27&#45;&gt;Node26</title>
<path fill="none" stroke="#9a32cd" stroke-dasharray="5,2" d="M201.743,-225.004C188.157,-211.223 169.48,-192.279 158.24,-180.879"/>
<polygon fill="#9a32cd" stroke="#9a32cd" points="199.546,-227.761 209.059,-232.425 204.531,-222.846 199.546,-227.761"/>
<text text-anchor="middle" x="211" y="-202.4" font-family="Helvetica,sans-Serif" font-size="12.00"> _sweep</text>
</g>
<!-- Node13 -->
<g id="node6" class="node"><title>Node13</title>
<g id="a_node6"><a xlink:href="structtainicom_1_1_aether_1_1_physics2_d_1_1_common_1_1_vector2.html" target="_top" xlink:title=" ">
<polygon fill="none" stroke="red" points="181.5,-331.5 181.5,-352.5 239.5,-352.5 239.5,-331.5 181.5,-331.5"/>
<text text-anchor="middle" x="210.5" y="-338.9" font-family="Helvetica,sans-Serif" font-size="12.00">Vector2</text>
</a>
</g>
</g>
<!-- Node13&#45;&gt;Node26 -->
<g id="edge9" class="edge"><title>Node13&#45;&gt;Node26</title>
<path fill="none" stroke="#9a32cd" stroke-dasharray="5,2" d="M180.782,-326.573C155.523,-312.482 120.97,-288.427 105.5,-256 92.3264,-228.387 120.649,-196.293 137.372,-180.616"/>
<polygon fill="#9a32cd" stroke="#9a32cd" points="179.148,-329.668 189.614,-331.311 182.457,-323.5 179.148,-329.668"/>
<text text-anchor="middle" x="144" y="-246.4" font-family="Helvetica,sans-Serif" font-size="12.00"> _force</text>
<text text-anchor="middle" x="144" y="-233.4" font-family="Helvetica,sans-Serif" font-size="12.00">_linearVelocity</text>
</g>
<!-- Node13&#45;&gt;Node27 -->
<g id="edge7" class="edge"><title>Node13&#45;&gt;Node27</title>
<path fill="none" stroke="#9a32cd" stroke-dasharray="5,2" d="M209.684,-321.025C209.411,-307.664 209.572,-289.718 211.5,-274 212.347,-267.099 214.139,-259.471 215.697,-253.633"/>
<polygon fill="#9a32cd" stroke="#9a32cd" points="206.198,-321.526 210.001,-331.414 213.194,-321.312 206.198,-321.526"/>
<text text-anchor="middle" x="243.5" y="-303.4" font-family="Helvetica,sans-Serif" font-size="12.00"> C</text>
<text text-anchor="middle" x="243.5" y="-290.4" font-family="Helvetica,sans-Serif" font-size="12.00">C0</text>
<text text-anchor="middle" x="243.5" y="-277.4" font-family="Helvetica,sans-Serif" font-size="12.00">LocalCenter</text>
</g>
<!-- Node32 -->
<g id="node8" class="node"><title>Node32</title>
<g id="a_node8"><a xlink:href="structtainicom_1_1_aether_1_1_physics2_d_1_1_common_1_1_transform.html" target="_top" xlink:title="A transform contains translation and rotation. It is used to represent the position and orientation o...">
<polygon fill="none" stroke="red" points="263,-232.5 263,-253.5 332,-253.5 332,-232.5 263,-232.5"/>
<text text-anchor="middle" x="297.5" y="-239.9" font-family="Helvetica,sans-Serif" font-size="12.00">Transform</text>
</a>
</g>
</g>
<!-- Node13&#45;&gt;Node32 -->
<g id="edge11" class="edge"><title>Node13&#45;&gt;Node32</title>
<path fill="none" stroke="#9a32cd" stroke-dasharray="5,2" d="M249.203,-330.642C258.852,-326.492 268.445,-320.784 275.5,-313 290.868,-296.045 295.504,-268.323 296.9,-253.713"/>
<polygon fill="#9a32cd" stroke="#9a32cd" points="247.725,-327.459 239.628,-334.292 250.218,-334 247.725,-327.459"/>
<text text-anchor="middle" x="298.5" y="-290.4" font-family="Helvetica,sans-Serif" font-size="12.00"> p</text>
</g>
<!-- Node28 -->
<g id="node7" class="node"><title>Node28</title>
<g id="a_node7"><a xlink:href="classtainicom_1_1_aether_1_1_physics2_d_1_1_dynamics_1_1_fixture_collection.html" target="_top" xlink:title=" ">
<polygon fill="none" stroke="red" points="350.5,-232.5 350.5,-253.5 454.5,-253.5 454.5,-232.5 350.5,-232.5"/>
<text text-anchor="middle" x="402.5" y="-239.9" font-family="Helvetica,sans-Serif" font-size="12.00">FixtureCollection</text>
</a>
</g>
</g>
<!-- Node28&#45;&gt;Node26 -->
<g id="edge8" class="edge"><title>Node28&#45;&gt;Node26</title>
<path fill="none" stroke="#9a32cd" stroke-dasharray="5,2" d="M369.31,-228.848C345.212,-219.634 311.677,-207.497 281.5,-199 243.115,-188.191 197.448,-179.451 170.842,-174.759"/>
<polygon fill="#9a32cd" stroke="#9a32cd" points="368.11,-232.137 378.7,-232.473 370.632,-225.607 368.11,-232.137"/>
<text text-anchor="middle" x="351.5" y="-202.4" font-family="Helvetica,sans-Serif" font-size="12.00"> FixtureList</text>
</g>
<!-- Node32&#45;&gt;Node26 -->
<g id="edge10" class="edge"><title>Node32&#45;&gt;Node26</title>
<path fill="none" stroke="#9a32cd" stroke-dasharray="5,2" d="M278.373,-225.894C267.057,-216.997 252.117,-206.302 237.5,-199 215.909,-188.214 189.302,-180.498 170.832,-175.933"/>
<polygon fill="#9a32cd" stroke="#9a32cd" points="276.276,-228.699 286.254,-232.261 280.675,-223.254 276.276,-228.699"/>
<text text-anchor="middle" x="268" y="-202.4" font-family="Helvetica,sans-Serif" font-size="12.00"> _xf</text>
</g>
</g>
</svg>
