<?xml version="1.0" encoding="UTF-8" standalone="no"?>
<!DOCTYPE svg PUBLIC "-//W3C//DTD SVG 1.1//EN"
 "http://www.w3.org/Graphics/SVG/1.1/DTD/svg11.dtd">
<!-- Generated by graphviz version 2.38.0 (20140413.2041)
 -->
<!-- Title: WeldJoint Pages: 1 -->
<svg width="209pt" height="189pt"
 viewBox="0.00 0.00 209.00 189.00" xmlns="http://www.w3.org/2000/svg" xmlns:xlink="http://www.w3.org/1999/xlink">
<g id="graph0" class="graph" transform="scale(1 1) rotate(0) translate(4 185)">
<title>WeldJoint</title>
<!-- Node1 -->
<g id="node1" class="node"><title>Node1</title>
<g id="a_node1"><a xlink:title="A weld joint essentially glues two bodies together. A weld joint may distort somewhat because the isl...">
<polygon fill="#bfbfbf" stroke="black" points="0,-2.5 0,-23.5 68,-23.5 68,-2.5 0,-2.5"/>
<text text-anchor="middle" x="34" y="-9.9" font-family="Helvetica,sans-Serif" font-size="12.00">WeldJoint</text>
</a>
</g>
</g>
<!-- Node2 -->
<g id="node2" class="node"><title>Node2</title>
<g id="a_node2"><a xlink:href="classtainicom_1_1_aether_1_1_physics2_d_1_1_dynamics_1_1_joints_1_1_joint.html" target="_top" xlink:title=" ">
<polygon fill="none" stroke="black" points="49.5,-88.5 49.5,-109.5 90.5,-109.5 90.5,-88.5 49.5,-88.5"/>
<text text-anchor="middle" x="70" y="-95.9" font-family="Helvetica,sans-Serif" font-size="12.00">Joint</text>
</a>
</g>
</g>
<!-- Node2&#45;&gt;Node1 -->
<g id="edge1" class="edge"><title>Node2&#45;&gt;Node1</title>
<path fill="none" stroke="midnightblue" d="M54.3465,-80.3324C51.9681,-77.0522 49.7336,-73.5393 48,-70 40.5059,-54.7004 36.7912,-35.0257 35.1411,-23.5335"/>
<polygon fill="midnightblue" stroke="midnightblue" points="51.758,-82.6999 60.7331,-88.33 57.2279,-78.3318 51.758,-82.6999"/>
</g>
<!-- Node3 -->
<g id="node3" class="node"><title>Node3</title>
<g id="a_node3"><a xlink:href="classtainicom_1_1_aether_1_1_physics2_d_1_1_dynamics_1_1_joints_1_1_joint_edge.html" target="_top" xlink:title="A joint edge is used to connect bodies and joints together in a joint graph where each body is a node...">
<polygon fill="none" stroke="red" points="86,-2.5 86,-23.5 156,-23.5 156,-2.5 86,-2.5"/>
<text text-anchor="middle" x="121" y="-9.9" font-family="Helvetica,sans-Serif" font-size="12.00">JointEdge</text>
</a>
</g>
</g>
<!-- Node2&#45;&gt;Node3 -->
<g id="edge4" class="edge"><title>Node2&#45;&gt;Node3</title>
<path fill="none" stroke="#9a32cd" stroke-dasharray="5,2" d="M63.9022,-78.6408C61.6493,-67.753 60.9289,-54.3179 67,-44 72.4387,-34.7568 81.8682,-28.1572 91.3408,-23.5463"/>
<polygon fill="#9a32cd" stroke="#9a32cd" points="60.5562,-79.6799 66.4712,-88.4698 67.3287,-77.9097 60.5562,-79.6799"/>
<text text-anchor="middle" x="81" y="-53.9" font-family="Helvetica,sans-Serif" font-size="12.00"> Joint</text>
</g>
<!-- Node3&#45;&gt;Node2 -->
<g id="edge2" class="edge"><title>Node3&#45;&gt;Node2</title>
<path fill="none" stroke="#9a32cd" stroke-dasharray="5,2" d="M115.638,-33.4425C111.995,-44.6987 106.472,-58.808 99,-70 94.4148,-76.8683 87.8952,-83.3539 82.1986,-88.3503"/>
<polygon fill="#9a32cd" stroke="#9a32cd" points="119.036,-34.2972 118.558,-23.7132 112.331,-32.2852 119.036,-34.2972"/>
<text text-anchor="middle" x="131" y="-60.4" font-family="Helvetica,sans-Serif" font-size="12.00"> EdgeA</text>
<text text-anchor="middle" x="131" y="-47.4" font-family="Helvetica,sans-Serif" font-size="12.00">EdgeB</text>
</g>
<!-- Node3&#45;&gt;Node3 -->
<g id="edge3" class="edge"><title>Node3&#45;&gt;Node3</title>
<path fill="none" stroke="#9a32cd" stroke-dasharray="5,2" d="M166.235,-19.8356C170.967,-18.5012 174,-16.2227 174,-13 174,-7.84375 166.236,-5.10449 156.168,-4.78223"/>
<polygon fill="#9a32cd" stroke="#9a32cd" points="165.599,-16.3899 156.168,-21.2178 166.551,-23.3249 165.599,-16.3899"/>
<text text-anchor="middle" x="187.5" y="-16.4" font-family="Helvetica,sans-Serif" font-size="12.00"> Next</text>
<text text-anchor="middle" x="187.5" y="-3.4" font-family="Helvetica,sans-Serif" font-size="12.00">Prev</text>
</g>
<!-- Node14 -->
<g id="node4" class="node"><title>Node14</title>
<g id="a_node4"><a xlink:href="classtainicom_1_1_aether_1_1_physics2_d_1_1_dynamics_1_1_world.html" target="_top" xlink:title="The world class manages all physics entities, dynamic simulation, and asynchronous queries.">
<polygon fill="none" stroke="red" points="46.5,-159.5 46.5,-180.5 93.5,-180.5 93.5,-159.5 46.5,-159.5"/>
<text text-anchor="middle" x="70" y="-166.9" font-family="Helvetica,sans-Serif" font-size="12.00">World</text>
</a>
</g>
</g>
<!-- Node14&#45;&gt;Node2 -->
<g id="edge5" class="edge"><title>Node14&#45;&gt;Node2</title>
<path fill="none" stroke="#9a32cd" stroke-dasharray="5,2" d="M70,-149.088C70,-136.078 70,-119.675 70,-109.513"/>
<polygon fill="#9a32cd" stroke="#9a32cd" points="66.5001,-149.406 70,-159.406 73.5001,-149.406 66.5001,-149.406"/>
<text text-anchor="middle" x="89" y="-131.4" font-family="Helvetica,sans-Serif" font-size="12.00"> _world</text>
</g>
</g>
</svg>
