<?xml version="1.0" encoding="UTF-8" standalone="no"?>
<!DOCTYPE svg PUBLIC "-//W3C//DTD SVG 1.1//EN"
 "http://www.w3.org/Graphics/SVG/1.1/DTD/svg11.dtd">
<!-- Generated by graphviz version 2.38.0 (20140413.2041)
 -->
<!-- Title: World Pages: 1 -->
<svg width="577pt" height="430pt"
 viewBox="0.00 0.00 577.00 430.00" xmlns="http://www.w3.org/2000/svg" xmlns:xlink="http://www.w3.org/1999/xlink">
<g id="graph0" class="graph" transform="scale(1 1) rotate(0) translate(4 426)">
<title>World</title>
<!-- Node1 -->
<g id="node1" class="node"><title>Node1</title>
<g id="a_node1"><a xlink:title="The world class manages all physics entities, dynamic simulation, and asynchronous queries.">
<polygon fill="#bfbfbf" stroke="black" points="522,-210.5 522,-231.5 569,-231.5 569,-210.5 522,-210.5"/>
<text text-anchor="middle" x="545.5" y="-217.9" font-family="Helvetica,sans-Serif" font-size="12.00">World</text>
</a>
</g>
</g>
<!-- Node2 -->
<g id="node2" class="node"><title>Node2</title>
<g id="a_node2"><a xlink:href="classtainicom_1_1_aether_1_1_physics2_d_1_1_dynamics_1_1_joint_collection.html" target="_top" xlink:title=" ">
<polygon fill="none" stroke="black" points="289,-340.5 289,-361.5 382,-361.5 382,-340.5 289,-340.5"/>
<text text-anchor="middle" x="335.5" y="-347.9" font-family="Helvetica,sans-Serif" font-size="12.00">JointCollection</text>
</a>
</g>
</g>
<!-- Node2&#45;&gt;Node1 -->
<g id="edge1" class="edge"><title>Node2&#45;&gt;Node1</title>
<path fill="none" stroke="#9a32cd" stroke-dasharray="5,2" d="M367.296,-335.861C401.751,-318.4 458.677,-287.969 504,-256 514.48,-248.608 525.43,-239.015 533.298,-231.742"/>
<polygon fill="#9a32cd" stroke="#9a32cd" points="365.565,-332.813 358.202,-340.432 368.709,-339.068 365.565,-332.813"/>
<text text-anchor="middle" x="458.5" y="-313.4" font-family="Helvetica,sans-Serif" font-size="12.00"> JointList</text>
</g>
<!-- Node3 -->
<g id="node3" class="node"><title>Node3</title>
<g id="a_node3"><a xlink:title=" ">
<polygon fill="none" stroke="#bfbfbf" points="13,-400.5 13,-421.5 139,-421.5 139,-400.5 13,-400.5"/>
<text text-anchor="middle" x="76" y="-407.9" font-family="Helvetica,sans-Serif" font-size="12.00">IEnumerable&lt; Joint &gt;</text>
</a>
</g>
</g>
<!-- Node3&#45;&gt;Node2 -->
<g id="edge2" class="edge"><title>Node3&#45;&gt;Node2</title>
<path fill="none" stroke="midnightblue" d="M145.033,-398.603C179.115,-392.01 220.918,-383.344 258,-374 272.524,-370.34 288.409,-365.675 301.921,-361.504"/>
<polygon fill="midnightblue" stroke="midnightblue" points="144.339,-395.172 135.178,-400.494 145.658,-402.047 144.339,-395.172"/>
</g>
<!-- Node4 -->
<g id="node4" class="node"><title>Node4</title>
<g id="a_node4"><a xlink:title=" ">
<polygon fill="none" stroke="#bfbfbf" points="18.5,-360.5 18.5,-381.5 133.5,-381.5 133.5,-360.5 18.5,-360.5"/>
<text text-anchor="middle" x="76" y="-367.9" font-family="Helvetica,sans-Serif" font-size="12.00">ICollection&lt; Joint &gt;</text>
</a>
</g>
</g>
<!-- Node4&#45;&gt;Node2 -->
<g id="edge3" class="edge"><title>Node4&#45;&gt;Node2</title>
<path fill="none" stroke="midnightblue" d="M143.61,-365.826C189.222,-362.284 248.523,-357.678 288.843,-354.546"/>
<polygon fill="midnightblue" stroke="midnightblue" points="143.208,-362.347 133.509,-366.611 143.751,-369.326 143.208,-362.347"/>
</g>
<!-- Node5 -->
<g id="node5" class="node"><title>Node5</title>
<g id="a_node5"><a xlink:title=" ">
<polygon fill="none" stroke="#bfbfbf" points="35,-320.5 35,-341.5 117,-341.5 117,-320.5 35,-320.5"/>
<text text-anchor="middle" x="76" y="-327.9" font-family="Helvetica,sans-Serif" font-size="12.00">IList&lt; Joint &gt;</text>
</a>
</g>
</g>
<!-- Node5&#45;&gt;Node2 -->
<g id="edge4" class="edge"><title>Node5&#45;&gt;Node2</title>
<path fill="none" stroke="midnightblue" d="M127.474,-334.92C174.383,-338.564 243.635,-343.943 288.909,-347.459"/>
<polygon fill="midnightblue" stroke="midnightblue" points="127.475,-331.41 117.234,-334.125 126.933,-338.389 127.475,-331.41"/>
</g>
<!-- Node6 -->
<g id="node6" class="node"><title>Node6</title>
<g id="a_node6"><a xlink:href="classtainicom_1_1_aether_1_1_physics2_d_1_1_dynamics_1_1_contact_manager.html" target="_top" xlink:title=" ">
<polygon fill="none" stroke="black" points="283.5,-240.5 283.5,-261.5 387.5,-261.5 387.5,-240.5 283.5,-240.5"/>
<text text-anchor="middle" x="335.5" y="-247.9" font-family="Helvetica,sans-Serif" font-size="12.00">ContactManager</text>
</a>
</g>
</g>
<!-- Node6&#45;&gt;Node1 -->
<g id="edge5" class="edge"><title>Node6&#45;&gt;Node1</title>
<path fill="none" stroke="#9a32cd" stroke-dasharray="5,2" d="M397.728,-242.169C439.469,-236.149 492.343,-228.523 521.885,-224.262"/>
<polygon fill="#9a32cd" stroke="#9a32cd" points="397.047,-238.731 387.649,-243.623 398.046,-245.659 397.047,-238.731"/>
<text text-anchor="middle" x="458.5" y="-242.4" font-family="Helvetica,sans-Serif" font-size="12.00"> ContactManager</text>
</g>
<!-- Node7 -->
<g id="node7" class="node"><title>Node7</title>
<g id="a_node7"><a xlink:href="classtainicom_1_1_aether_1_1_physics2_d_1_1_dynamics_1_1_contacts_1_1_contact_list_head.html" target="_top" xlink:title="Head of a circular doubly linked list.">
<polygon fill="none" stroke="red" points="24,-280.5 24,-301.5 128,-301.5 128,-280.5 24,-280.5"/>
<text text-anchor="middle" x="76" y="-287.9" font-family="Helvetica,sans-Serif" font-size="12.00">ContactListHead</text>
</a>
</g>
</g>
<!-- Node7&#45;&gt;Node6 -->
<g id="edge6" class="edge"><title>Node7&#45;&gt;Node6</title>
<path fill="none" stroke="#9a32cd" stroke-dasharray="5,2" d="M138.398,-284.623C173.536,-280.618 218.379,-274.905 258,-268 268.455,-266.178 279.64,-263.888 290.141,-261.585"/>
<polygon fill="#9a32cd" stroke="#9a32cd" points="137.837,-281.164 128.29,-285.759 138.619,-288.12 137.837,-281.164"/>
<text text-anchor="middle" x="214" y="-296.4" font-family="Helvetica,sans-Serif" font-size="12.00"> ContactList</text>
<text text-anchor="middle" x="214" y="-283.4" font-family="Helvetica,sans-Serif" font-size="12.00">_contactPoolList</text>
</g>
<!-- Node15 -->
<g id="node8" class="node"><title>Node15</title>
<g id="a_node8"><a xlink:href="interfacetainicom_1_1_aether_1_1_physics2_d_1_1_collision_1_1_i_broad_phase.html" target="_top" xlink:title=" ">
<polygon fill="none" stroke="black" points="33.5,-240.5 33.5,-261.5 118.5,-261.5 118.5,-240.5 33.5,-240.5"/>
<text text-anchor="middle" x="76" y="-247.9" font-family="Helvetica,sans-Serif" font-size="12.00">IBroadPhase</text>
</a>
</g>
</g>
<!-- Node15&#45;&gt;Node6 -->
<g id="edge7" class="edge"><title>Node15&#45;&gt;Node6</title>
<path fill="none" stroke="#9a32cd" stroke-dasharray="5,2" d="M128.775,-251C173.689,-251 238.35,-251 283.141,-251"/>
<polygon fill="#9a32cd" stroke="#9a32cd" points="128.658,-247.5 118.658,-251 128.658,-254.5 128.658,-247.5"/>
<text text-anchor="middle" x="214" y="-254.4" font-family="Helvetica,sans-Serif" font-size="12.00"> BroadPhase</text>
</g>
<!-- Node16 -->
<g id="node9" class="node"><title>Node16</title>
<g id="a_node9"><a xlink:href="classtainicom_1_1_aether_1_1_physics2_d_1_1_dynamics_1_1_controller_collection.html" target="_top" xlink:title=" ">
<polygon fill="none" stroke="black" points="276,-180.5 276,-201.5 395,-201.5 395,-180.5 276,-180.5"/>
<text text-anchor="middle" x="335.5" y="-187.9" font-family="Helvetica,sans-Serif" font-size="12.00">ControllerCollection</text>
</a>
</g>
</g>
<!-- Node16&#45;&gt;Node1 -->
<g id="edge8" class="edge"><title>Node16&#45;&gt;Node1</title>
<path fill="none" stroke="#9a32cd" stroke-dasharray="5,2" d="M405.43,-196.436C435.814,-199.444 471.847,-203.847 504,-210 509.868,-211.123 516.132,-212.655 521.937,-214.219"/>
<polygon fill="#9a32cd" stroke="#9a32cd" points="405.645,-192.94 395.356,-195.469 404.976,-199.908 405.645,-192.94"/>
<text text-anchor="middle" x="458.5" y="-213.4" font-family="Helvetica,sans-Serif" font-size="12.00"> ControllerList</text>
</g>
<!-- Node17 -->
<g id="node10" class="node"><title>Node17</title>
<g id="a_node10"><a xlink:title=" ">
<polygon fill="none" stroke="#bfbfbf" points="0,-200.5 0,-221.5 152,-221.5 152,-200.5 0,-200.5"/>
<text text-anchor="middle" x="76" y="-207.9" font-family="Helvetica,sans-Serif" font-size="12.00">IEnumerable&lt; Controller &gt;</text>
</a>
</g>
</g>
<!-- Node17&#45;&gt;Node16 -->
<g id="edge9" class="edge"><title>Node17&#45;&gt;Node16</title>
<path fill="none" stroke="midnightblue" d="M162.482,-204.361C199.588,-201.479 242.119,-198.175 275.607,-195.574"/>
<polygon fill="midnightblue" stroke="midnightblue" points="161.871,-200.897 152.172,-205.161 162.413,-207.876 161.871,-200.897"/>
</g>
<!-- Node18 -->
<g id="node11" class="node"><title>Node18</title>
<g id="a_node11"><a xlink:title=" ">
<polygon fill="none" stroke="#bfbfbf" points="6,-160.5 6,-181.5 146,-181.5 146,-160.5 6,-160.5"/>
<text text-anchor="middle" x="76" y="-167.9" font-family="Helvetica,sans-Serif" font-size="12.00">ICollection&lt; Controller &gt;</text>
</a>
</g>
</g>
<!-- Node18&#45;&gt;Node16 -->
<g id="edge10" class="edge"><title>Node18&#45;&gt;Node16</title>
<path fill="none" stroke="midnightblue" d="M156.17,-177.149C194.757,-180.146 240.358,-183.688 275.787,-186.44"/>
<polygon fill="midnightblue" stroke="midnightblue" points="156.246,-173.645 146.005,-176.36 155.704,-180.624 156.246,-173.645"/>
</g>
<!-- Node19 -->
<g id="node12" class="node"><title>Node19</title>
<g id="a_node12"><a xlink:title=" ">
<polygon fill="none" stroke="#bfbfbf" points="22.5,-120.5 22.5,-141.5 129.5,-141.5 129.5,-120.5 22.5,-120.5"/>
<text text-anchor="middle" x="76" y="-127.9" font-family="Helvetica,sans-Serif" font-size="12.00">IList&lt; Controller &gt;</text>
</a>
</g>
</g>
<!-- Node19&#45;&gt;Node16 -->
<g id="edge11" class="edge"><title>Node19&#45;&gt;Node16</title>
<path fill="none" stroke="midnightblue" d="M132.142,-143.849C179.059,-154.781 245.615,-170.289 289.404,-180.492"/>
<polygon fill="midnightblue" stroke="midnightblue" points="132.681,-140.381 122.148,-141.52 131.093,-147.198 132.681,-140.381"/>
</g>
<!-- Node20 -->
<g id="node13" class="node"><title>Node20</title>
<g id="a_node13"><a xlink:href="classtainicom_1_1_aether_1_1_physics2_d_1_1_dynamics_1_1_body_collection.html" target="_top" xlink:title=" ">
<polygon fill="none" stroke="black" points="288,-60.5 288,-81.5 383,-81.5 383,-60.5 288,-60.5"/>
<text text-anchor="middle" x="335.5" y="-67.9" font-family="Helvetica,sans-Serif" font-size="12.00">BodyCollection</text>
</a>
</g>
</g>
<!-- Node20&#45;&gt;Node1 -->
<g id="edge12" class="edge"><title>Node20&#45;&gt;Node1</title>
<path fill="none" stroke="#9a32cd" stroke-dasharray="5,2" d="M364.472,-86.6923C398.783,-106.494 458.044,-142.516 504,-180 515.475,-189.359 527.218,-201.6 535.084,-210.263"/>
<polygon fill="#9a32cd" stroke="#9a32cd" points="365.906,-83.48 355.488,-81.5496 362.428,-89.5551 365.906,-83.48"/>
<text text-anchor="middle" x="458.5" y="-183.4" font-family="Helvetica,sans-Serif" font-size="12.00"> BodyList</text>
</g>
<!-- Node21 -->
<g id="node14" class="node"><title>Node21</title>
<g id="a_node14"><a xlink:title=" ">
<polygon fill="none" stroke="#bfbfbf" points="12,-80.5 12,-101.5 140,-101.5 140,-80.5 12,-80.5"/>
<text text-anchor="middle" x="76" y="-87.9" font-family="Helvetica,sans-Serif" font-size="12.00">IEnumerable&lt; Body &gt;</text>
</a>
</g>
</g>
<!-- Node21&#45;&gt;Node20 -->
<g id="edge13" class="edge"><title>Node21&#45;&gt;Node20</title>
<path fill="none" stroke="midnightblue" d="M150.421,-85.2974C194.527,-81.8717 249.331,-77.6151 287.623,-74.641"/>
<polygon fill="midnightblue" stroke="midnightblue" points="150.02,-81.8179 140.321,-86.0818 150.562,-88.7969 150.02,-81.8179"/>
</g>
<!-- Node22 -->
<g id="node15" class="node"><title>Node22</title>
<g id="a_node15"><a xlink:title=" ">
<polygon fill="none" stroke="#bfbfbf" points="17.5,-40.5 17.5,-61.5 134.5,-61.5 134.5,-40.5 17.5,-40.5"/>
<text text-anchor="middle" x="76" y="-47.9" font-family="Helvetica,sans-Serif" font-size="12.00">ICollection&lt; Body &gt;</text>
</a>
</g>
</g>
<!-- Node22&#45;&gt;Node20 -->
<g id="edge14" class="edge"><title>Node22&#45;&gt;Node20</title>
<path fill="none" stroke="midnightblue" d="M144.764,-56.2632C189.769,-59.7588 247.703,-64.2585 287.651,-67.3612"/>
<polygon fill="midnightblue" stroke="midnightblue" points="145.029,-52.7734 134.788,-55.4884 144.487,-59.7523 145.029,-52.7734"/>
</g>
<!-- Node23 -->
<g id="node16" class="node"><title>Node23</title>
<g id="a_node16"><a xlink:title=" ">
<polygon fill="none" stroke="#bfbfbf" points="34,-0.5 34,-21.5 118,-21.5 118,-0.5 34,-0.5"/>
<text text-anchor="middle" x="76" y="-7.9" font-family="Helvetica,sans-Serif" font-size="12.00">IList&lt; Body &gt;</text>
</a>
</g>
</g>
<!-- Node23&#45;&gt;Node20 -->
<g id="edge15" class="edge"><title>Node23&#45;&gt;Node20</title>
<path fill="none" stroke="midnightblue" d="M128.059,-22.8974C175.068,-33.8508 244.147,-49.9468 289.226,-60.4507"/>
<polygon fill="midnightblue" stroke="midnightblue" points="128.62,-19.4342 118.086,-20.5735 127.031,-26.2516 128.62,-19.4342"/>
</g>
</g>
</svg>
