<?xml version="1.0" encoding="UTF-8" standalone="no"?>
<!DOCTYPE svg PUBLIC "-//W3C//DTD SVG 1.1//EN"
 "http://www.w3.org/Graphics/SVG/1.1/DTD/svg11.dtd">
<!-- Generated by graphviz version 2.38.0 (20140413.2041)
 -->
<!-- Title: FluidSystem2 Pages: 1 -->
<svg width="149pt" height="160pt"
 viewBox="0.00 0.00 149.00 160.00" xmlns="http://www.w3.org/2000/svg" xmlns:xlink="http://www.w3.org/1999/xlink">
<g id="graph0" class="graph" transform="scale(1 1) rotate(0) translate(4 156)">
<title>FluidSystem2</title>
<!-- Node1 -->
<g id="node1" class="node"><title>Node1</title>
<g id="a_node1"><a xlink:title=" ">
<polygon fill="#bfbfbf" stroke="black" points="26.5,-0.5 26.5,-21.5 114.5,-21.5 114.5,-0.5 26.5,-0.5"/>
<text text-anchor="middle" x="70.5" y="-7.9" font-family="Helvetica,sans-Serif" font-size="12.00">FluidSystem2</text>
</a>
</g>
</g>
<!-- Node2 -->
<g id="node2" class="node"><title>Node2</title>
<g id="a_node2"><a xlink:href="classtainicom_1_1_aether_1_1_physics2_d_1_1_fluids_1_1_spatial_table.html" target="_top" xlink:title=" ">
<polygon fill="none" stroke="black" points="29,-71.5 29,-92.5 112,-92.5 112,-71.5 29,-71.5"/>
<text text-anchor="middle" x="70.5" y="-78.9" font-family="Helvetica,sans-Serif" font-size="12.00">SpatialTable</text>
</a>
</g>
</g>
<!-- Node2&#45;&gt;Node1 -->
<g id="edge1" class="edge"><title>Node2&#45;&gt;Node1</title>
<path fill="none" stroke="#9a32cd" stroke-dasharray="5,2" d="M70.5,-61.0882C70.5,-48.0781 70.5,-31.6754 70.5,-21.5127"/>
<polygon fill="#9a32cd" stroke="#9a32cd" points="67.0001,-61.4058 70.5,-71.4058 74.0001,-61.4059 67.0001,-61.4058"/>
<text text-anchor="middle" x="95" y="-43.4" font-family="Helvetica,sans-Serif" font-size="12.00"> Particles</text>
</g>
<!-- Node3 -->
<g id="node3" class="node"><title>Node3</title>
<g id="a_node3"><a xlink:title=" ">
<polygon fill="none" stroke="#bfbfbf" points="0,-130.5 0,-151.5 141,-151.5 141,-130.5 0,-130.5"/>
<text text-anchor="middle" x="70.5" y="-137.9" font-family="Helvetica,sans-Serif" font-size="12.00">IEnumerable&lt; Particle &gt;</text>
</a>
</g>
</g>
<!-- Node3&#45;&gt;Node2 -->
<g id="edge2" class="edge"><title>Node3&#45;&gt;Node2</title>
<path fill="none" stroke="midnightblue" d="M70.5,-120.234C70.5,-110.849 70.5,-100.065 70.5,-92.5265"/>
<polygon fill="midnightblue" stroke="midnightblue" points="67.0001,-120.331 70.5,-130.331 74.0001,-120.331 67.0001,-120.331"/>
</g>
</g>
</svg>
