<?xml version="1.0" encoding="UTF-8" standalone="no"?>
<!DOCTYPE svg PUBLIC "-//W3C//DTD SVG 1.1//EN"
 "http://www.w3.org/Graphics/SVG/1.1/DTD/svg11.dtd">
<!-- Generated by graphviz version 2.38.0 (20140413.2041)
 -->
<!-- Title: FixedMouseJoint Pages: 1 -->
<svg width="247pt" height="189pt"
 viewBox="0.00 0.00 247.00 189.00" xmlns="http://www.w3.org/2000/svg" xmlns:xlink="http://www.w3.org/1999/xlink">
<g id="graph0" class="graph" transform="scale(1 1) rotate(0) translate(4 185)">
<title>FixedMouseJoint</title>
<!-- Node1 -->
<g id="node1" class="node"><title>Node1</title>
<g id="a_node1"><a xlink:title="A mouse joint is used to make a point on a body track a specified world point. This a soft constraint...">
<polygon fill="#bfbfbf" stroke="black" points="0,-2.5 0,-23.5 106,-23.5 106,-2.5 0,-2.5"/>
<text text-anchor="middle" x="53" y="-9.9" font-family="Helvetica,sans-Serif" font-size="12.00">FixedMouseJoint</text>
</a>
</g>
</g>
<!-- Node2 -->
<g id="node2" class="node"><title>Node2</title>
<g id="a_node2"><a xlink:href="classtainicom_1_1_aether_1_1_physics2_d_1_1_dynamics_1_1_joints_1_1_joint.html" target="_top" xlink:title=" ">
<polygon fill="none" stroke="black" points="87.5,-88.5 87.5,-109.5 128.5,-109.5 128.5,-88.5 87.5,-88.5"/>
<text text-anchor="middle" x="108" y="-95.9" font-family="Helvetica,sans-Serif" font-size="12.00">Joint</text>
</a>
</g>
</g>
<!-- Node2&#45;&gt;Node1 -->
<g id="edge1" class="edge"><title>Node2&#45;&gt;Node1</title>
<path fill="none" stroke="midnightblue" d="M96.0173,-79.6992C84.6914,-62.4015 68.1454,-37.1311 59.2356,-23.5235"/>
<polygon fill="midnightblue" stroke="midnightblue" points="93.2847,-81.9152 101.691,-88.3641 99.1411,-78.0807 93.2847,-81.9152"/>
</g>
<!-- Node3 -->
<g id="node3" class="node"><title>Node3</title>
<g id="a_node3"><a xlink:href="classtainicom_1_1_aether_1_1_physics2_d_1_1_dynamics_1_1_joints_1_1_joint_edge.html" target="_top" xlink:title="A joint edge is used to connect bodies and joints together in a joint graph where each body is a node...">
<polygon fill="none" stroke="red" points="124,-2.5 124,-23.5 194,-23.5 194,-2.5 124,-2.5"/>
<text text-anchor="middle" x="159" y="-9.9" font-family="Helvetica,sans-Serif" font-size="12.00">JointEdge</text>
</a>
</g>
</g>
<!-- Node2&#45;&gt;Node3 -->
<g id="edge4" class="edge"><title>Node2&#45;&gt;Node3</title>
<path fill="none" stroke="#9a32cd" stroke-dasharray="5,2" d="M101.902,-78.6408C99.6493,-67.753 98.9289,-54.3179 105,-44 110.439,-34.7568 119.868,-28.1572 129.341,-23.5463"/>
<polygon fill="#9a32cd" stroke="#9a32cd" points="98.5562,-79.6799 104.471,-88.4698 105.329,-77.9097 98.5562,-79.6799"/>
<text text-anchor="middle" x="119" y="-53.9" font-family="Helvetica,sans-Serif" font-size="12.00"> Joint</text>
</g>
<!-- Node3&#45;&gt;Node2 -->
<g id="edge2" class="edge"><title>Node3&#45;&gt;Node2</title>
<path fill="none" stroke="#9a32cd" stroke-dasharray="5,2" d="M153.638,-33.4425C149.995,-44.6987 144.472,-58.808 137,-70 132.415,-76.8683 125.895,-83.3539 120.199,-88.3503"/>
<polygon fill="#9a32cd" stroke="#9a32cd" points="157.036,-34.2972 156.558,-23.7132 150.331,-32.2852 157.036,-34.2972"/>
<text text-anchor="middle" x="169" y="-60.4" font-family="Helvetica,sans-Serif" font-size="12.00"> EdgeA</text>
<text text-anchor="middle" x="169" y="-47.4" font-family="Helvetica,sans-Serif" font-size="12.00">EdgeB</text>
</g>
<!-- Node3&#45;&gt;Node3 -->
<g id="edge3" class="edge"><title>Node3&#45;&gt;Node3</title>
<path fill="none" stroke="#9a32cd" stroke-dasharray="5,2" d="M204.235,-19.8356C208.967,-18.5012 212,-16.2227 212,-13 212,-7.84375 204.236,-5.10449 194.168,-4.78223"/>
<polygon fill="#9a32cd" stroke="#9a32cd" points="203.599,-16.3899 194.168,-21.2178 204.551,-23.3249 203.599,-16.3899"/>
<text text-anchor="middle" x="225.5" y="-16.4" font-family="Helvetica,sans-Serif" font-size="12.00"> Next</text>
<text text-anchor="middle" x="225.5" y="-3.4" font-family="Helvetica,sans-Serif" font-size="12.00">Prev</text>
</g>
<!-- Node14 -->
<g id="node4" class="node"><title>Node14</title>
<g id="a_node4"><a xlink:href="classtainicom_1_1_aether_1_1_physics2_d_1_1_dynamics_1_1_world.html" target="_top" xlink:title="The world class manages all physics entities, dynamic simulation, and asynchronous queries.">
<polygon fill="none" stroke="red" points="84.5,-159.5 84.5,-180.5 131.5,-180.5 131.5,-159.5 84.5,-159.5"/>
<text text-anchor="middle" x="108" y="-166.9" font-family="Helvetica,sans-Serif" font-size="12.00">World</text>
</a>
</g>
</g>
<!-- Node14&#45;&gt;Node2 -->
<g id="edge5" class="edge"><title>Node14&#45;&gt;Node2</title>
<path fill="none" stroke="#9a32cd" stroke-dasharray="5,2" d="M108,-149.088C108,-136.078 108,-119.675 108,-109.513"/>
<polygon fill="#9a32cd" stroke="#9a32cd" points="104.5,-149.406 108,-159.406 111.5,-149.406 104.5,-149.406"/>
<text text-anchor="middle" x="127" y="-131.4" font-family="Helvetica,sans-Serif" font-size="12.00"> _world</text>
</g>
</g>
</svg>
