<?xml version="1.0" encoding="UTF-8" standalone="no"?>
<!DOCTYPE svg PUBLIC "-//W3C//DTD SVG 1.1//EN"
 "http://www.w3.org/Graphics/SVG/1.1/DTD/svg11.dtd">
<!-- Generated by graphviz version 2.38.0 (20140413.2041)
 -->
<!-- Title: Particle Pages: 1 -->
<svg width="164pt" height="186pt"
 viewBox="0.00 0.00 163.50 186.00" xmlns="http://www.w3.org/2000/svg" xmlns:xlink="http://www.w3.org/1999/xlink">
<g id="graph0" class="graph" transform="scale(1 1) rotate(0) translate(4 182)">
<title>Particle</title>
<!-- Node1 -->
<g id="node1" class="node"><title>Node1</title>
<g id="a_node1"><a xlink:title=" ">
<polygon fill="#bfbfbf" stroke="black" points="38.5,-0.5 38.5,-21.5 94.5,-21.5 94.5,-0.5 38.5,-0.5"/>
<text text-anchor="middle" x="66.5" y="-7.9" font-family="Helvetica,sans-Serif" font-size="12.00">Particle</text>
</a>
</g>
</g>
<!-- Node2 -->
<g id="node2" class="node"><title>Node2</title>
<g id="a_node2"><a xlink:href="structtainicom_1_1_aether_1_1_physics2_d_1_1_common_1_1_vector2.html" target="_top" xlink:title=" ">
<polygon fill="none" stroke="black" points="37.5,-97.5 37.5,-118.5 95.5,-118.5 95.5,-97.5 37.5,-97.5"/>
<text text-anchor="middle" x="66.5" y="-104.9" font-family="Helvetica,sans-Serif" font-size="12.00">Vector2</text>
</a>
</g>
</g>
<!-- Node2&#45;&gt;Node1 -->
<g id="edge1" class="edge"><title>Node2&#45;&gt;Node1</title>
<path fill="none" stroke="#9a32cd" stroke-dasharray="5,2" d="M66.5,-86.968C66.5,-66.897 66.5,-36.8572 66.5,-21.614"/>
<polygon fill="#9a32cd" stroke="#9a32cd" points="63.0001,-87.1911 66.5,-97.1911 70.0001,-87.1912 63.0001,-87.1911"/>
<text text-anchor="middle" x="111" y="-69.4" font-family="Helvetica,sans-Serif" font-size="12.00"> Position</text>
<text text-anchor="middle" x="111" y="-56.4" font-family="Helvetica,sans-Serif" font-size="12.00">PreviousPosition</text>
<text text-anchor="middle" x="111" y="-43.4" font-family="Helvetica,sans-Serif" font-size="12.00">Velocity</text>
</g>
<!-- Node3 -->
<g id="node3" class="node"><title>Node3</title>
<g id="a_node3"><a xlink:title=" ">
<polygon fill="none" stroke="#bfbfbf" points="0,-156.5 0,-177.5 133,-177.5 133,-156.5 0,-156.5"/>
<text text-anchor="middle" x="66.5" y="-163.9" font-family="Helvetica,sans-Serif" font-size="12.00">IEquatable&lt; Vector2 &gt;</text>
</a>
</g>
</g>
<!-- Node3&#45;&gt;Node2 -->
<g id="edge2" class="edge"><title>Node3&#45;&gt;Node2</title>
<path fill="none" stroke="midnightblue" d="M66.5,-146.234C66.5,-136.849 66.5,-126.065 66.5,-118.526"/>
<polygon fill="midnightblue" stroke="midnightblue" points="63.0001,-146.331 66.5,-156.331 70.0001,-146.331 63.0001,-146.331"/>
</g>
</g>
</svg>
