<?xml version="1.0" encoding="UTF-8" standalone="no"?>
<!DOCTYPE svg PUBLIC "-//W3C//DTD SVG 1.1//EN"
 "http://www.w3.org/Graphics/SVG/1.1/DTD/svg11.dtd">
<!-- Generated by graphviz version 2.38.0 (20140413.2041)
 -->
<!-- Title: BuoyancyController Pages: 1 -->
<svg width="228pt" height="160pt"
 viewBox="0.00 0.00 227.50 160.00" xmlns="http://www.w3.org/2000/svg" xmlns:xlink="http://www.w3.org/1999/xlink">
<g id="graph0" class="graph" transform="scale(1 1) rotate(0) translate(4 156)">
<title>BuoyancyController</title>
<!-- Node1 -->
<g id="node1" class="node"><title>Node1</title>
<g id="a_node1"><a xlink:title=" ">
<polygon fill="#bfbfbf" stroke="black" points="43.5,-0.5 43.5,-21.5 160.5,-21.5 160.5,-0.5 43.5,-0.5"/>
<text text-anchor="middle" x="102" y="-7.9" font-family="Helvetica,sans-Serif" font-size="12.00">BuoyancyController</text>
</a>
</g>
</g>
<!-- Node2 -->
<g id="node2" class="node"><title>Node2</title>
<g id="a_node2"><a xlink:href="classtainicom_1_1_aether_1_1_physics2_d_1_1_controllers_1_1_controller.html" target="_top" xlink:title=" ">
<polygon fill="none" stroke="black" points="10.5,-71.5 10.5,-92.5 77.5,-92.5 77.5,-71.5 10.5,-71.5"/>
<text text-anchor="middle" x="44" y="-78.9" font-family="Helvetica,sans-Serif" font-size="12.00">Controller</text>
</a>
</g>
</g>
<!-- Node2&#45;&gt;Node1 -->
<g id="edge1" class="edge"><title>Node2&#45;&gt;Node1</title>
<path fill="none" stroke="midnightblue" d="M58.7823,-63.4141C69.983,-50.0892 84.9435,-32.2913 94.0038,-21.5127"/>
<polygon fill="midnightblue" stroke="midnightblue" points="55.82,-61.4989 52.0647,-71.4058 61.1784,-66.0031 55.82,-61.4989"/>
</g>
<!-- Node3 -->
<g id="node3" class="node"><title>Node3</title>
<g id="a_node3"><a xlink:href="classtainicom_1_1_aether_1_1_physics2_d_1_1_common_1_1_physics_logic_1_1_filter_data.html" target="_top" xlink:title="Contains filter data that can determine whether an object should be processed or not.">
<polygon fill="none" stroke="black" points="0,-130.5 0,-151.5 68,-151.5 68,-130.5 0,-130.5"/>
<text text-anchor="middle" x="34" y="-137.9" font-family="Helvetica,sans-Serif" font-size="12.00">FilterData</text>
</a>
</g>
</g>
<!-- Node3&#45;&gt;Node2 -->
<g id="edge2" class="edge"><title>Node3&#45;&gt;Node2</title>
<path fill="none" stroke="midnightblue" d="M37.4677,-120.234C39.1142,-110.849 41.0061,-100.065 42.3287,-92.5265"/>
<polygon fill="midnightblue" stroke="midnightblue" points="33.9771,-119.876 35.6964,-130.331 40.8718,-121.086 33.9771,-119.876"/>
</g>
<!-- Node4 -->
<g id="node4" class="node"><title>Node4</title>
<g id="a_node4"><a xlink:href="structtainicom_1_1_aether_1_1_physics2_d_1_1_common_1_1_vector2.html" target="_top" xlink:title=" ">
<polygon fill="none" stroke="black" points="115,-71.5 115,-92.5 173,-92.5 173,-71.5 115,-71.5"/>
<text text-anchor="middle" x="144" y="-78.9" font-family="Helvetica,sans-Serif" font-size="12.00">Vector2</text>
</a>
</g>
</g>
<!-- Node4&#45;&gt;Node1 -->
<g id="edge3" class="edge"><title>Node4&#45;&gt;Node1</title>
<path fill="none" stroke="#9a32cd" stroke-dasharray="5,2" d="M132.829,-62.6479C124.774,-49.4138 114.226,-32.086 107.79,-21.5127"/>
<polygon fill="#9a32cd" stroke="#9a32cd" points="129.971,-64.6837 138.16,-71.4058 135.95,-61.044 129.971,-64.6837"/>
<text text-anchor="middle" x="149.5" y="-43.4" font-family="Helvetica,sans-Serif" font-size="12.00"> Velocity</text>
</g>
<!-- Node5 -->
<g id="node5" class="node"><title>Node5</title>
<g id="a_node5"><a xlink:title=" ">
<polygon fill="none" stroke="#bfbfbf" points="86.5,-130.5 86.5,-151.5 219.5,-151.5 219.5,-130.5 86.5,-130.5"/>
<text text-anchor="middle" x="153" y="-137.9" font-family="Helvetica,sans-Serif" font-size="12.00">IEquatable&lt; Vector2 &gt;</text>
</a>
</g>
</g>
<!-- Node5&#45;&gt;Node4 -->
<g id="edge4" class="edge"><title>Node5&#45;&gt;Node4</title>
<path fill="none" stroke="midnightblue" d="M149.879,-120.234C148.397,-110.849 146.694,-100.065 145.504,-92.5265"/>
<polygon fill="midnightblue" stroke="midnightblue" points="146.456,-120.999 151.473,-130.331 153.371,-119.907 146.456,-120.999"/>
</g>
</g>
</svg>
