<?xml version="1.0" encoding="UTF-8" standalone="no"?>
<!DOCTYPE svg PUBLIC "-//W3C//DTD SVG 1.1//EN"
 "http://www.w3.org/Graphics/SVG/1.1/DTD/svg11.dtd">
<!-- Generated by graphviz version 2.38.0 (20140413.2041)
 -->
<!-- Title: MotorJoint Pages: 1 -->
<svg width="213pt" height="189pt"
 viewBox="0.00 0.00 212.50 189.00" xmlns="http://www.w3.org/2000/svg" xmlns:xlink="http://www.w3.org/1999/xlink">
<g id="graph0" class="graph" transform="scale(1 1) rotate(0) translate(4 185)">
<title>MotorJoint</title>
<!-- Node1 -->
<g id="node1" class="node"><title>Node1</title>
<g id="a_node1"><a xlink:title="A motor joint is used to control the relative motion between two bodies. A typical usage is to contro...">
<polygon fill="#bfbfbf" stroke="black" points="0,-2.5 0,-23.5 71,-23.5 71,-2.5 0,-2.5"/>
<text text-anchor="middle" x="35.5" y="-9.9" font-family="Helvetica,sans-Serif" font-size="12.00">MotorJoint</text>
</a>
</g>
</g>
<!-- Node2 -->
<g id="node2" class="node"><title>Node2</title>
<g id="a_node2"><a xlink:href="classtainicom_1_1_aether_1_1_physics2_d_1_1_dynamics_1_1_joints_1_1_joint.html" target="_top" xlink:title=" ">
<polygon fill="none" stroke="black" points="53,-88.5 53,-109.5 94,-109.5 94,-88.5 53,-88.5"/>
<text text-anchor="middle" x="73.5" y="-95.9" font-family="Helvetica,sans-Serif" font-size="12.00">Joint</text>
</a>
</g>
</g>
<!-- Node2&#45;&gt;Node1 -->
<g id="edge1" class="edge"><title>Node2&#45;&gt;Node1</title>
<path fill="none" stroke="midnightblue" d="M57.9459,-80.2827C55.5563,-77.0081 53.2924,-73.5099 51.5,-70 43.6826,-54.6914 39.192,-35.0197 37.0571,-23.5304"/>
<polygon fill="midnightblue" stroke="midnightblue" points="55.355,-82.6475 64.3267,-88.2832 60.8276,-78.2828 55.355,-82.6475"/>
</g>
<!-- Node3 -->
<g id="node3" class="node"><title>Node3</title>
<g id="a_node3"><a xlink:href="classtainicom_1_1_aether_1_1_physics2_d_1_1_dynamics_1_1_joints_1_1_joint_edge.html" target="_top" xlink:title="A joint edge is used to connect bodies and joints together in a joint graph where each body is a node...">
<polygon fill="none" stroke="red" points="89.5,-2.5 89.5,-23.5 159.5,-23.5 159.5,-2.5 89.5,-2.5"/>
<text text-anchor="middle" x="124.5" y="-9.9" font-family="Helvetica,sans-Serif" font-size="12.00">JointEdge</text>
</a>
</g>
</g>
<!-- Node2&#45;&gt;Node3 -->
<g id="edge4" class="edge"><title>Node2&#45;&gt;Node3</title>
<path fill="none" stroke="#9a32cd" stroke-dasharray="5,2" d="M67.4022,-78.6408C65.1493,-67.753 64.4289,-54.3179 70.5,-44 75.9387,-34.7568 85.3682,-28.1572 94.8408,-23.5463"/>
<polygon fill="#9a32cd" stroke="#9a32cd" points="64.0562,-79.6799 69.9712,-88.4698 70.8287,-77.9097 64.0562,-79.6799"/>
<text text-anchor="middle" x="84.5" y="-53.9" font-family="Helvetica,sans-Serif" font-size="12.00"> Joint</text>
</g>
<!-- Node3&#45;&gt;Node2 -->
<g id="edge2" class="edge"><title>Node3&#45;&gt;Node2</title>
<path fill="none" stroke="#9a32cd" stroke-dasharray="5,2" d="M119.138,-33.4425C115.495,-44.6987 109.972,-58.808 102.5,-70 97.9148,-76.8683 91.3952,-83.3539 85.6986,-88.3503"/>
<polygon fill="#9a32cd" stroke="#9a32cd" points="122.536,-34.2972 122.058,-23.7132 115.831,-32.2852 122.536,-34.2972"/>
<text text-anchor="middle" x="135.5" y="-60.4" font-family="Helvetica,sans-Serif" font-size="12.00"> EdgeA</text>
<text text-anchor="middle" x="135.5" y="-47.4" font-family="Helvetica,sans-Serif" font-size="12.00">EdgeB</text>
</g>
<!-- Node3&#45;&gt;Node3 -->
<g id="edge3" class="edge"><title>Node3&#45;&gt;Node3</title>
<path fill="none" stroke="#9a32cd" stroke-dasharray="5,2" d="M169.735,-19.8356C174.467,-18.5012 177.5,-16.2227 177.5,-13 177.5,-7.84375 169.736,-5.10449 159.668,-4.78223"/>
<polygon fill="#9a32cd" stroke="#9a32cd" points="169.099,-16.3899 159.668,-21.2178 170.051,-23.3249 169.099,-16.3899"/>
<text text-anchor="middle" x="191" y="-16.4" font-family="Helvetica,sans-Serif" font-size="12.00"> Next</text>
<text text-anchor="middle" x="191" y="-3.4" font-family="Helvetica,sans-Serif" font-size="12.00">Prev</text>
</g>
<!-- Node14 -->
<g id="node4" class="node"><title>Node14</title>
<g id="a_node4"><a xlink:href="classtainicom_1_1_aether_1_1_physics2_d_1_1_dynamics_1_1_world.html" target="_top" xlink:title="The world class manages all physics entities, dynamic simulation, and asynchronous queries.">
<polygon fill="none" stroke="red" points="50,-159.5 50,-180.5 97,-180.5 97,-159.5 50,-159.5"/>
<text text-anchor="middle" x="73.5" y="-166.9" font-family="Helvetica,sans-Serif" font-size="12.00">World</text>
</a>
</g>
</g>
<!-- Node14&#45;&gt;Node2 -->
<g id="edge5" class="edge"><title>Node14&#45;&gt;Node2</title>
<path fill="none" stroke="#9a32cd" stroke-dasharray="5,2" d="M73.5,-149.088C73.5,-136.078 73.5,-119.675 73.5,-109.513"/>
<polygon fill="#9a32cd" stroke="#9a32cd" points="70.0001,-149.406 73.5,-159.406 77.0001,-149.406 70.0001,-149.406"/>
<text text-anchor="middle" x="92.5" y="-131.4" font-family="Helvetica,sans-Serif" font-size="12.00"> _world</text>
</g>
</g>
</svg>
