<?xml version="1.0" encoding="UTF-8" standalone="no"?>
<!DOCTYPE svg PUBLIC "-//W3C//DTD SVG 1.1//EN"
 "http://www.w3.org/Graphics/SVG/1.1/DTD/svg11.dtd">
<!-- Generated by graphviz version 2.38.0 (20140413.2041)
 -->
<!-- Title: ContactSolver Pages: 1 -->
<svg width="886pt" height="370pt"
 viewBox="0.00 0.00 886.00 370.00" xmlns="http://www.w3.org/2000/svg" xmlns:xlink="http://www.w3.org/1999/xlink">
<g id="graph0" class="graph" transform="scale(1 1) rotate(0) translate(4 366)">
<title>ContactSolver</title>
<!-- Node1 -->
<g id="node1" class="node"><title>Node1</title>
<g id="a_node1"><a xlink:title=" ">
<polygon fill="#bfbfbf" stroke="black" points="788,-195.5 788,-216.5 878,-216.5 878,-195.5 788,-195.5"/>
<text text-anchor="middle" x="833" y="-202.9" font-family="Helvetica,sans-Serif" font-size="12.00">ContactSolver</text>
</a>
</g>
</g>
<!-- Node2 -->
<g id="node2" class="node"><title>Node2</title>
<g id="a_node2"><a xlink:href="classtainicom_1_1_aether_1_1_physics2_d_1_1_dynamics_1_1_contacts_1_1_contact_position_constraint.html" target="_top" xlink:title=" ">
<polygon fill="none" stroke="black" points="321,-293.5 321,-314.5 474,-314.5 474,-293.5 321,-293.5"/>
<text text-anchor="middle" x="397.5" y="-300.9" font-family="Helvetica,sans-Serif" font-size="12.00">ContactPositionConstraint</text>
</a>
</g>
</g>
<!-- Node2&#45;&gt;Node1 -->
<g id="edge1" class="edge"><title>Node2&#45;&gt;Node1</title>
<path fill="none" stroke="#9a32cd" stroke-dasharray="5,2" d="M484.371,-301.564C561.678,-296.798 677.08,-283.204 770,-245 787.642,-237.747 805.895,-225.604 817.987,-216.791"/>
<polygon fill="#9a32cd" stroke="#9a32cd" points="483.975,-298.081 474.194,-302.153 484.38,-305.069 483.975,-298.081"/>
<text text-anchor="middle" x="568" y="-303.4" font-family="Helvetica,sans-Serif" font-size="12.00"> _positionConstraints</text>
</g>
<!-- Node3 -->
<g id="node3" class="node"><title>Node3</title>
<g id="a_node3"><a xlink:href="structtainicom_1_1_aether_1_1_physics2_d_1_1_common_1_1_vector2.html" target="_top" xlink:title=" ">
<polygon fill="none" stroke="red" points="0,-169.5 0,-190.5 58,-190.5 58,-169.5 0,-169.5"/>
<text text-anchor="middle" x="29" y="-176.9" font-family="Helvetica,sans-Serif" font-size="12.00">Vector2</text>
</a>
</g>
</g>
<!-- Node3&#45;&gt;Node2 -->
<g id="edge2" class="edge"><title>Node3&#45;&gt;Node2</title>
<path fill="none" stroke="#9a32cd" stroke-dasharray="5,2" d="M33.1939,-200.689C38.0162,-224.189 49.5809,-261.645 76,-280 157.452,-336.59 280.308,-326.165 347.803,-314.505"/>
<polygon fill="#9a32cd" stroke="#9a32cd" points="36.6112,-199.918 31.3779,-190.706 29.7242,-201.171 36.6112,-199.918"/>
<text text-anchor="middle" x="111.5" y="-352.4" font-family="Helvetica,sans-Serif" font-size="12.00"> localCenterA</text>
<text text-anchor="middle" x="111.5" y="-339.4" font-family="Helvetica,sans-Serif" font-size="12.00">localNormal</text>
<text text-anchor="middle" x="111.5" y="-326.4" font-family="Helvetica,sans-Serif" font-size="12.00">localPoint</text>
<text text-anchor="middle" x="111.5" y="-313.4" font-family="Helvetica,sans-Serif" font-size="12.00">localPoints</text>
</g>
<!-- Node5 -->
<g id="node4" class="node"><title>Node5</title>
<g id="a_node4"><a xlink:title=" ">
<polygon fill="none" stroke="#bfbfbf" points="351.5,-250.5 351.5,-271.5 443.5,-271.5 443.5,-250.5 351.5,-250.5"/>
<text text-anchor="middle" x="397.5" y="-257.9" font-family="Helvetica,sans-Serif" font-size="12.00">SolverPosition</text>
</a>
</g>
</g>
<!-- Node3&#45;&gt;Node5 -->
<g id="edge4" class="edge"><title>Node3&#45;&gt;Node5</title>
<path fill="none" stroke="#9a32cd" stroke-dasharray="5,2" d="M39.9727,-199.753C47.8218,-213.034 60.0886,-229.595 76,-238 164.542,-284.769 286.489,-277.259 351.465,-268.595"/>
<polygon fill="#9a32cd" stroke="#9a32cd" points="42.9432,-197.892 35.0491,-190.825 36.8136,-201.272 42.9432,-197.892"/>
<text text-anchor="middle" x="111.5" y="-266.4" font-family="Helvetica,sans-Serif" font-size="12.00"> c</text>
</g>
<!-- Node6 -->
<g id="node5" class="node"><title>Node6</title>
<g id="a_node5"><a xlink:title=" ">
<polygon fill="none" stroke="#bfbfbf" points="352,-213.5 352,-234.5 443,-234.5 443,-213.5 352,-213.5"/>
<text text-anchor="middle" x="397.5" y="-220.9" font-family="Helvetica,sans-Serif" font-size="12.00">SolverVelocity</text>
</a>
</g>
</g>
<!-- Node3&#45;&gt;Node6 -->
<g id="edge6" class="edge"><title>Node3&#45;&gt;Node6</title>
<path fill="none" stroke="#9a32cd" stroke-dasharray="5,2" d="M52.5415,-196.111C59.7116,-200.426 67.8936,-204.564 76,-207 170.988,-235.54 288.832,-232.611 351.825,-228.176"/>
<polygon fill="#9a32cd" stroke="#9a32cd" points="54.3854,-193.135 44.0823,-190.666 50.5967,-199.022 54.3854,-193.135"/>
<text text-anchor="middle" x="111.5" y="-224.4" font-family="Helvetica,sans-Serif" font-size="12.00"> v</text>
</g>
<!-- Node8 -->
<g id="node7" class="node"><title>Node8</title>
<g id="a_node7"><a xlink:href="structtainicom_1_1_aether_1_1_physics2_d_1_1_collision_1_1_manifold.html" target="_top" xlink:title="A manifold for two touching convex Shapes. Box2D supports multiple types of contact:">
<polygon fill="none" stroke="red" points="203.5,-0.5 203.5,-21.5 264.5,-21.5 264.5,-0.5 203.5,-0.5"/>
<text text-anchor="middle" x="234" y="-7.9" font-family="Helvetica,sans-Serif" font-size="12.00">Manifold</text>
</a>
</g>
</g>
<!-- Node3&#45;&gt;Node8 -->
<g id="edge9" class="edge"><title>Node3&#45;&gt;Node8</title>
<path fill="none" stroke="#9a32cd" stroke-dasharray="5,2" d="M32.2156,-159.218C36.2033,-132.142 47.08,-85.071 76,-58 111.208,-25.0429 168.62,-15.1239 203.398,-12.1836"/>
<polygon fill="#9a32cd" stroke="#9a32cd" points="28.6998,-159.117 30.8958,-169.482 35.6427,-160.01 28.6998,-159.117"/>
<text text-anchor="middle" x="111.5" y="-74.4" font-family="Helvetica,sans-Serif" font-size="12.00"> LocalNormal</text>
<text text-anchor="middle" x="111.5" y="-61.4" font-family="Helvetica,sans-Serif" font-size="12.00">LocalPoint</text>
</g>
<!-- Node11 -->
<g id="node9" class="node"><title>Node11</title>
<g id="a_node9"><a xlink:href="classtainicom_1_1_aether_1_1_physics2_d_1_1_dynamics_1_1_contacts_1_1_contact_velocity_constraint.html" target="_top" xlink:title=" ">
<polygon fill="none" stroke="black" points="492,-139.5 492,-160.5 644,-160.5 644,-139.5 492,-139.5"/>
<text text-anchor="middle" x="568" y="-146.9" font-family="Helvetica,sans-Serif" font-size="12.00">ContactVelocityConstraint</text>
</a>
</g>
</g>
<!-- Node3&#45;&gt;Node11 -->
<g id="edge14" class="edge"><title>Node3&#45;&gt;Node11</title>
<path fill="none" stroke="#9a32cd" stroke-dasharray="5,2" d="M44.1341,-161.509C52.4527,-151.772 63.7312,-140.357 76,-133 111.341,-111.806 124.207,-112.837 165,-107 297.885,-87.9872 456.583,-121.381 528.361,-139.49"/>
<polygon fill="#9a32cd" stroke="#9a32cd" points="41.2353,-159.526 37.6353,-169.491 46.6635,-163.946 41.2353,-159.526"/>
<text text-anchor="middle" x="234" y="-110.4" font-family="Helvetica,sans-Serif" font-size="12.00"> normal</text>
</g>
<!-- Node12 -->
<g id="node10" class="node"><title>Node12</title>
<g id="a_node10"><a xlink:href="structtainicom_1_1_aether_1_1_physics2_d_1_1_common_1_1_mat22.html" target="_top" xlink:title="A 2&#45;by&#45;2 matrix. Stored in column&#45;major order.">
<polygon fill="none" stroke="black" points="209,-169.5 209,-190.5 259,-190.5 259,-169.5 209,-169.5"/>
<text text-anchor="middle" x="234" y="-176.9" font-family="Helvetica,sans-Serif" font-size="12.00">Mat22</text>
</a>
</g>
</g>
<!-- Node3&#45;&gt;Node12 -->
<g id="edge13" class="edge"><title>Node3&#45;&gt;Node12</title>
<path fill="none" stroke="#9a32cd" stroke-dasharray="5,2" d="M68.451,-180C109.744,-180 174.089,-180 208.816,-180"/>
<polygon fill="#9a32cd" stroke="#9a32cd" points="68.2263,-176.5 58.2263,-180 68.2262,-183.5 68.2263,-176.5"/>
<text text-anchor="middle" x="111.5" y="-196.4" font-family="Helvetica,sans-Serif" font-size="12.00"> ex</text>
<text text-anchor="middle" x="111.5" y="-183.4" font-family="Helvetica,sans-Serif" font-size="12.00">ey</text>
</g>
<!-- Node13 -->
<g id="node11" class="node"><title>Node13</title>
<g id="a_node11"><a xlink:href="classtainicom_1_1_aether_1_1_physics2_d_1_1_dynamics_1_1_contacts_1_1_velocity_constraint_point.html" target="_top" xlink:title=" ">
<polygon fill="none" stroke="black" points="165,-129.5 165,-150.5 303,-150.5 303,-129.5 165,-129.5"/>
<text text-anchor="middle" x="234" y="-136.9" font-family="Helvetica,sans-Serif" font-size="12.00">VelocityConstraintPoint</text>
</a>
</g>
</g>
<!-- Node3&#45;&gt;Node13 -->
<g id="edge16" class="edge"><title>Node3&#45;&gt;Node13</title>
<path fill="none" stroke="#9a32cd" stroke-dasharray="5,2" d="M50.5325,-163.377C58.0998,-158.156 67.0254,-152.982 76,-150 104.122,-140.657 136.609,-137.437 164.708,-136.829"/>
<polygon fill="#9a32cd" stroke="#9a32cd" points="48.3306,-160.652 42.3515,-169.398 52.4799,-166.29 48.3306,-160.652"/>
<text text-anchor="middle" x="111.5" y="-166.4" font-family="Helvetica,sans-Serif" font-size="12.00"> rA</text>
<text text-anchor="middle" x="111.5" y="-153.4" font-family="Helvetica,sans-Serif" font-size="12.00">rB</text>
</g>
<!-- Node5&#45;&gt;Node1 -->
<g id="edge3" class="edge"><title>Node5&#45;&gt;Node1</title>
<path fill="none" stroke="#9a32cd" stroke-dasharray="5,2" d="M454.116,-258.642C527.162,-254.822 659.153,-245.423 770,-224 779.794,-222.107 790.272,-219.355 799.774,-216.569"/>
<polygon fill="#9a32cd" stroke="#9a32cd" points="453.586,-255.165 443.776,-259.166 453.94,-262.156 453.586,-255.165"/>
<text text-anchor="middle" x="568" y="-259.4" font-family="Helvetica,sans-Serif" font-size="12.00"> _positions</text>
</g>
<!-- Node6&#45;&gt;Node1 -->
<g id="edge5" class="edge"><title>Node6&#45;&gt;Node1</title>
<path fill="none" stroke="#9a32cd" stroke-dasharray="5,2" d="M453.216,-221.644C465.947,-221.101 479.447,-220.527 492,-220 598.246,-215.54 723.175,-210.43 787.987,-207.79"/>
<polygon fill="#9a32cd" stroke="#9a32cd" points="453.046,-218.148 443.205,-222.073 453.345,-225.142 453.046,-218.148"/>
<text text-anchor="middle" x="568" y="-223.4" font-family="Helvetica,sans-Serif" font-size="12.00"> _velocities</text>
</g>
<!-- Node7 -->
<g id="node6" class="node"><title>Node7</title>
<g id="a_node6"><a xlink:href="classtainicom_1_1_aether_1_1_physics2_d_1_1_dynamics_1_1_contacts_1_1_contact.html" target="_top" xlink:title="The class manages contact between two shapes. A contact exists for each overlapping AABB in the broad...">
<polygon fill="none" stroke="black" points="539.5,-40.5 539.5,-61.5 596.5,-61.5 596.5,-40.5 539.5,-40.5"/>
<text text-anchor="middle" x="568" y="-47.9" font-family="Helvetica,sans-Serif" font-size="12.00">Contact</text>
</a>
</g>
</g>
<!-- Node7&#45;&gt;Node1 -->
<g id="edge7" class="edge"><title>Node7&#45;&gt;Node1</title>
<path fill="none" stroke="#9a32cd" stroke-dasharray="5,2" d="M606.352,-62.8051C648.502,-77.2018 717.96,-104.24 770,-141 792.163,-156.656 812.841,-181.058 823.813,-195.084"/>
<polygon fill="#9a32cd" stroke="#9a32cd" points="607.358,-59.451 596.764,-59.5879 605.131,-66.0874 607.358,-59.451"/>
<text text-anchor="middle" x="716" y="-144.4" font-family="Helvetica,sans-Serif" font-size="12.00"> _contacts</text>
</g>
<!-- Node8&#45;&gt;Node7 -->
<g id="edge8" class="edge"><title>Node8&#45;&gt;Node7</title>
<path fill="none" stroke="#9a32cd" stroke-dasharray="5,2" d="M274.701,-13.7841C322.221,-17.3556 404.142,-24.2717 474,-34 496.109,-37.0789 520.974,-41.6843 539.427,-45.3254"/>
<polygon fill="#9a32cd" stroke="#9a32cd" points="274.761,-10.279 264.529,-13.0313 274.244,-17.2599 274.761,-10.279"/>
<text text-anchor="middle" x="397.5" y="-37.4" font-family="Helvetica,sans-Serif" font-size="12.00"> Manifold</text>
</g>
<!-- Node10 -->
<g id="node8" class="node"><title>Node10</title>
<g id="a_node8"><a xlink:href="classtainicom_1_1_aether_1_1_physics2_d_1_1_dynamics_1_1_contacts_1_1_contact_edge.html" target="_top" xlink:title="A contact edge is used to connect bodies and contacts together in a contact graph where each body is ...">
<polygon fill="none" stroke="black" points="191,-40.5 191,-61.5 277,-61.5 277,-40.5 191,-40.5"/>
<text text-anchor="middle" x="234" y="-47.9" font-family="Helvetica,sans-Serif" font-size="12.00">ContactEdge</text>
</a>
</g>
</g>
<!-- Node10&#45;&gt;Node7 -->
<g id="edge10" class="edge"><title>Node10&#45;&gt;Node7</title>
<path fill="none" stroke="#9a32cd" stroke-dasharray="5,2" d="M287.162,-51C358.471,-51 483.85,-51 539.294,-51"/>
<polygon fill="#9a32cd" stroke="#9a32cd" points="287.048,-47.5001 277.048,-51 287.048,-54.5001 287.048,-47.5001"/>
<text text-anchor="middle" x="397.5" y="-67.4" font-family="Helvetica,sans-Serif" font-size="12.00"> _nodeA</text>
<text text-anchor="middle" x="397.5" y="-54.4" font-family="Helvetica,sans-Serif" font-size="12.00">_nodeB</text>
</g>
<!-- Node11&#45;&gt;Node1 -->
<g id="edge11" class="edge"><title>Node11&#45;&gt;Node1</title>
<path fill="none" stroke="#9a32cd" stroke-dasharray="5,2" d="M654.467,-157.227C690.579,-161.587 732.802,-168.424 770,-179 784.342,-183.078 799.713,-189.754 811.562,-195.448"/>
<polygon fill="#9a32cd" stroke="#9a32cd" points="654.791,-153.741 644.453,-156.061 653.982,-160.694 654.791,-153.741"/>
<text text-anchor="middle" x="716" y="-182.4" font-family="Helvetica,sans-Serif" font-size="12.00"> _velocityConstraints</text>
</g>
<!-- Node12&#45;&gt;Node11 -->
<g id="edge12" class="edge"><title>Node12&#45;&gt;Node11</title>
<path fill="none" stroke="#9a32cd" stroke-dasharray="5,2" d="M269.206,-176.909C321.362,-172.196 422.055,-163.097 491.824,-156.793"/>
<polygon fill="#9a32cd" stroke="#9a32cd" points="268.788,-173.432 259.144,-177.818 269.418,-180.404 268.788,-173.432"/>
<text text-anchor="middle" x="397.5" y="-187.4" font-family="Helvetica,sans-Serif" font-size="12.00"> K</text>
<text text-anchor="middle" x="397.5" y="-174.4" font-family="Helvetica,sans-Serif" font-size="12.00">normalMass</text>
</g>
<!-- Node13&#45;&gt;Node11 -->
<g id="edge15" class="edge"><title>Node13&#45;&gt;Node11</title>
<path fill="none" stroke="#9a32cd" stroke-dasharray="5,2" d="M313.075,-139.748C359.786,-139.905 420.315,-140.645 474,-143 479.823,-143.255 485.848,-143.577 491.902,-143.942"/>
<polygon fill="#9a32cd" stroke="#9a32cd" points="313.033,-136.248 303.024,-139.723 313.015,-143.248 313.033,-136.248"/>
<text text-anchor="middle" x="397.5" y="-146.4" font-family="Helvetica,sans-Serif" font-size="12.00"> points</text>
</g>
</g>
</svg>
