<?xml version="1.0" encoding="UTF-8" standalone="no"?>
<!DOCTYPE svg PUBLIC "-//W3C//DTD SVG 1.1//EN"
 "http://www.w3.org/Graphics/SVG/1.1/DTD/svg11.dtd">
<!-- Generated by graphviz version 2.38.0 (20140413.2041)
 -->
<!-- Title: FixtureCollection Pages: 1 -->
<svg width="399pt" height="88pt"
 viewBox="0.00 0.00 398.50 88.00" xmlns="http://www.w3.org/2000/svg" xmlns:xlink="http://www.w3.org/1999/xlink">
<g id="graph0" class="graph" transform="scale(1 1) rotate(0) translate(4 84)">
<title>FixtureCollection</title>
<!-- Node1 -->
<g id="node1" class="node"><title>Node1</title>
<g id="a_node1"><a xlink:title=" ">
<polygon fill="#bfbfbf" stroke="black" points="165.5,-0.5 165.5,-21.5 269.5,-21.5 269.5,-0.5 165.5,-0.5"/>
<text text-anchor="middle" x="217.5" y="-7.9" font-family="Helvetica,sans-Serif" font-size="12.00">FixtureCollection</text>
</a>
</g>
</g>
<!-- Node2 -->
<g id="node2" class="node"><title>Node2</title>
<g id="a_node2"><a xlink:title=" ">
<polygon fill="none" stroke="#bfbfbf" points="0,-58.5 0,-79.5 137,-79.5 137,-58.5 0,-58.5"/>
<text text-anchor="middle" x="68.5" y="-65.9" font-family="Helvetica,sans-Serif" font-size="12.00">IEnumerable&lt; Fixture &gt;</text>
</a>
</g>
</g>
<!-- Node2&#45;&gt;Node1 -->
<g id="edge1" class="edge"><title>Node2&#45;&gt;Node1</title>
<path fill="none" stroke="midnightblue" d="M103.651,-54.7888C130.857,-44.5639 167.881,-30.6488 192.22,-21.5011"/>
<polygon fill="midnightblue" stroke="midnightblue" points="102.243,-51.5788 94.114,-58.3733 104.706,-58.1313 102.243,-51.5788"/>
</g>
<!-- Node3 -->
<g id="node3" class="node"><title>Node3</title>
<g id="a_node3"><a xlink:title=" ">
<polygon fill="none" stroke="#bfbfbf" points="155,-58.5 155,-79.5 280,-79.5 280,-58.5 155,-58.5"/>
<text text-anchor="middle" x="217.5" y="-65.9" font-family="Helvetica,sans-Serif" font-size="12.00">ICollection&lt; Fixture &gt;</text>
</a>
</g>
</g>
<!-- Node3&#45;&gt;Node1 -->
<g id="edge2" class="edge"><title>Node3&#45;&gt;Node1</title>
<path fill="none" stroke="midnightblue" d="M217.5,-48.1575C217.5,-39.155 217.5,-28.9199 217.5,-21.6427"/>
<polygon fill="midnightblue" stroke="midnightblue" points="214,-48.2455 217.5,-58.2455 221,-48.2456 214,-48.2455"/>
</g>
<!-- Node4 -->
<g id="node4" class="node"><title>Node4</title>
<g id="a_node4"><a xlink:title=" ">
<polygon fill="none" stroke="#bfbfbf" points="298.5,-58.5 298.5,-79.5 390.5,-79.5 390.5,-58.5 298.5,-58.5"/>
<text text-anchor="middle" x="344.5" y="-65.9" font-family="Helvetica,sans-Serif" font-size="12.00">IList&lt; Fixture &gt;</text>
</a>
</g>
</g>
<!-- Node4&#45;&gt;Node1 -->
<g id="edge3" class="edge"><title>Node4&#45;&gt;Node1</title>
<path fill="none" stroke="midnightblue" d="M313.311,-54.2473C290.246,-44.0771 259.429,-30.4883 239.047,-21.5011"/>
<polygon fill="midnightblue" stroke="midnightblue" points="312.106,-57.5411 322.668,-58.3733 314.93,-51.1361 312.106,-57.5411"/>
</g>
</g>
</svg>
