<?xml version="1.0" encoding="UTF-8" standalone="no"?>
<!DOCTYPE svg PUBLIC "-//W3C//DTD SVG 1.1//EN"
 "http://www.w3.org/Graphics/SVG/1.1/DTD/svg11.dtd">
<!-- Generated by graphviz version 2.38.0 (20140413.2041)
 -->
<!-- Title: Contact Pages: 1 -->
<svg width="321pt" height="211pt"
 viewBox="0.00 0.00 320.50 211.00" xmlns="http://www.w3.org/2000/svg" xmlns:xlink="http://www.w3.org/1999/xlink">
<g id="graph0" class="graph" transform="scale(1 1) rotate(0) translate(4 207)">
<title>Contact</title>
<!-- Node1 -->
<g id="node1" class="node"><title>Node1</title>
<g id="a_node1"><a xlink:title="The class manages contact between two shapes. A contact exists for each overlapping AABB in the broad...">
<polygon fill="#bfbfbf" stroke="black" points="205,-0.5 205,-21.5 262,-21.5 262,-0.5 205,-0.5"/>
<text text-anchor="middle" x="233.5" y="-7.9" font-family="Helvetica,sans-Serif" font-size="12.00">Contact</text>
</a>
</g>
</g>
<!-- Node2 -->
<g id="node2" class="node"><title>Node2</title>
<g id="a_node2"><a xlink:href="structtainicom_1_1_aether_1_1_physics2_d_1_1_collision_1_1_manifold.html" target="_top" xlink:title="A manifold for two touching convex Shapes. Box2D supports multiple types of contact:">
<polygon fill="none" stroke="black" points="147,-84.5 147,-105.5 208,-105.5 208,-84.5 147,-84.5"/>
<text text-anchor="middle" x="177.5" y="-91.9" font-family="Helvetica,sans-Serif" font-size="12.00">Manifold</text>
</a>
</g>
</g>
<!-- Node2&#45;&gt;Node1 -->
<g id="edge1" class="edge"><title>Node2&#45;&gt;Node1</title>
<path fill="none" stroke="#9a32cd" stroke-dasharray="5,2" d="M180.496,-74.5147C182.906,-63.5855 187.152,-50.1511 194.5,-40 199.876,-32.5729 207.833,-26.3588 215.16,-21.6866"/>
<polygon fill="#9a32cd" stroke="#9a32cd" points="177.046,-73.9217 178.65,-84.3945 183.927,-75.2076 177.046,-73.9217"/>
<text text-anchor="middle" x="218.5" y="-49.9" font-family="Helvetica,sans-Serif" font-size="12.00"> Manifold</text>
</g>
<!-- Node3 -->
<g id="node3" class="node"><title>Node3</title>
<g id="a_node3"><a xlink:href="structtainicom_1_1_aether_1_1_physics2_d_1_1_common_1_1_fixed_array2.html" target="_top" xlink:title=" ">
<polygon fill="none" stroke="black" points="0,-168.5 0,-202.5 205,-202.5 205,-168.5 0,-168.5"/>
<text text-anchor="start" x="8" y="-188.9" font-family="Helvetica,sans-Serif" font-size="12.00">FixedArray2&lt; tainicom.Aether.</text>
<text text-anchor="middle" x="102.5" y="-175.9" font-family="Helvetica,sans-Serif" font-size="12.00">Physics2D.Collision.ManifoldPoint &gt;</text>
</a>
</g>
</g>
<!-- Node3&#45;&gt;Node2 -->
<g id="edge2" class="edge"><title>Node3&#45;&gt;Node2</title>
<path fill="none" stroke="#9a32cd" stroke-dasharray="5,2" d="M122.897,-160.431C138.201,-142.373 158.34,-118.609 169.385,-105.576"/>
<polygon fill="#9a32cd" stroke="#9a32cd" points="120.051,-158.376 116.256,-168.268 125.392,-162.902 120.051,-158.376"/>
<text text-anchor="middle" x="172" y="-133.9" font-family="Helvetica,sans-Serif" font-size="12.00"> Points</text>
</g>
<!-- Node4 -->
<g id="node4" class="node"><title>Node4</title>
<g id="a_node4"><a xlink:href="structtainicom_1_1_aether_1_1_physics2_d_1_1_common_1_1_vector2.html" target="_top" xlink:title=" ">
<polygon fill="none" stroke="red" points="223.5,-175 223.5,-196 281.5,-196 281.5,-175 223.5,-175"/>
<text text-anchor="middle" x="252.5" y="-182.4" font-family="Helvetica,sans-Serif" font-size="12.00">Vector2</text>
</a>
</g>
</g>
<!-- Node4&#45;&gt;Node2 -->
<g id="edge3" class="edge"><title>Node4&#45;&gt;Node2</title>
<path fill="none" stroke="#9a32cd" stroke-dasharray="5,2" d="M237.679,-167.011C222.072,-148.595 198.073,-120.276 185.622,-105.584"/>
<polygon fill="#9a32cd" stroke="#9a32cd" points="235.052,-169.325 244.187,-174.691 240.392,-164.799 235.052,-169.325"/>
<text text-anchor="middle" x="257.5" y="-140.4" font-family="Helvetica,sans-Serif" font-size="12.00"> LocalNormal</text>
<text text-anchor="middle" x="257.5" y="-127.4" font-family="Helvetica,sans-Serif" font-size="12.00">LocalPoint</text>
</g>
<!-- Node6 -->
<g id="node5" class="node"><title>Node6</title>
<g id="a_node5"><a xlink:href="classtainicom_1_1_aether_1_1_physics2_d_1_1_dynamics_1_1_contacts_1_1_contact_edge.html" target="_top" xlink:title="A contact edge is used to connect bodies and contacts together in a contact graph where each body is ...">
<polygon fill="none" stroke="black" points="226.5,-84.5 226.5,-105.5 312.5,-105.5 312.5,-84.5 226.5,-84.5"/>
<text text-anchor="middle" x="269.5" y="-91.9" font-family="Helvetica,sans-Serif" font-size="12.00">ContactEdge</text>
</a>
</g>
</g>
<!-- Node6&#45;&gt;Node1 -->
<g id="edge4" class="edge"><title>Node6&#45;&gt;Node1</title>
<path fill="none" stroke="#9a32cd" stroke-dasharray="5,2" d="M261.132,-74.9399C253.819,-58.2833 243.5,-34.7782 237.765,-21.7158"/>
<polygon fill="#9a32cd" stroke="#9a32cd" points="258.004,-76.5221 265.229,-84.2715 264.414,-73.7081 258.004,-76.5221"/>
<text text-anchor="middle" x="280" y="-56.4" font-family="Helvetica,sans-Serif" font-size="12.00"> _nodeA</text>
<text text-anchor="middle" x="280" y="-43.4" font-family="Helvetica,sans-Serif" font-size="12.00">_nodeB</text>
</g>
</g>
</svg>
