<?xml version="1.0" encoding="UTF-8" standalone="no"?>
<!DOCTYPE svg PUBLIC "-//W3C//DTD SVG 1.1//EN"
 "http://www.w3.org/Graphics/SVG/1.1/DTD/svg11.dtd">
<!-- Generated by graphviz version 2.38.0 (20140413.2041)
 -->
<!-- Title: SpringHash Pages: 1 -->
<svg width="350pt" height="224pt"
 viewBox="0.00 0.00 350.00 224.00" xmlns="http://www.w3.org/2000/svg" xmlns:xlink="http://www.w3.org/1999/xlink">
<g id="graph0" class="graph" transform="scale(1 1) rotate(0) translate(4 220)">
<title>SpringHash</title>
<!-- Node1 -->
<g id="node1" class="node"><title>Node1</title>
<g id="a_node1"><a xlink:title=" ">
<polygon fill="#bfbfbf" stroke="black" points="105,-0.5 105,-21.5 183,-21.5 183,-0.5 105,-0.5"/>
<text text-anchor="middle" x="144" y="-7.9" font-family="Helvetica,sans-Serif" font-size="12.00">SpringHash</text>
</a>
</g>
</g>
<!-- Node2 -->
<g id="node2" class="node"><title>Node2</title>
<g id="a_node2"><a xlink:title=" ">
<polygon fill="none" stroke="#bfbfbf" points="0,-84.5 0,-105.5 194,-105.5 194,-84.5 0,-84.5"/>
<text text-anchor="middle" x="97" y="-91.9" font-family="Helvetica,sans-Serif" font-size="12.00">IEqualityComparer&lt; SpringHash &gt;</text>
</a>
</g>
</g>
<!-- Node2&#45;&gt;Node1 -->
<g id="edge1" class="edge"><title>Node2&#45;&gt;Node1</title>
<path fill="none" stroke="midnightblue" d="M107.656,-75.4095C117.217,-58.7277 130.874,-34.9015 138.431,-21.7158"/>
<polygon fill="midnightblue" stroke="midnightblue" points="104.512,-73.8551 102.576,-84.2715 110.585,-77.3361 104.512,-73.8551"/>
</g>
<!-- Node3 -->
<g id="node3" class="node"><title>Node3</title>
<g id="a_node3"><a xlink:href="classtainicom_1_1_aether_1_1_physics2_d_1_1_fluids_1_1_fluid_particle.html" target="_top" xlink:title=" ">
<polygon fill="none" stroke="black" points="212,-84.5 212,-105.5 294,-105.5 294,-84.5 212,-84.5"/>
<text text-anchor="middle" x="253" y="-91.9" font-family="Helvetica,sans-Serif" font-size="12.00">FluidParticle</text>
</a>
</g>
</g>
<!-- Node3&#45;&gt;Node1 -->
<g id="edge2" class="edge"><title>Node3&#45;&gt;Node1</title>
<path fill="none" stroke="#9a32cd" stroke-dasharray="5,2" d="M231.925,-78.1453C209.71,-61.4332 175.425,-35.6409 156.915,-21.7158"/>
<polygon fill="#9a32cd" stroke="#9a32cd" points="229.973,-81.0567 240.068,-84.2715 234.181,-75.4628 229.973,-81.0567"/>
<text text-anchor="middle" x="223.5" y="-56.4" font-family="Helvetica,sans-Serif" font-size="12.00"> P0</text>
<text text-anchor="middle" x="223.5" y="-43.4" font-family="Helvetica,sans-Serif" font-size="12.00">P1</text>
</g>
<!-- Node4 -->
<g id="node4" class="node"><title>Node4</title>
<g id="a_node4"><a xlink:href="structtainicom_1_1_aether_1_1_physics2_d_1_1_common_1_1_vector2.html" target="_top" xlink:title=" ">
<polygon fill="none" stroke="red" points="224,-194.5 224,-215.5 282,-215.5 282,-194.5 224,-194.5"/>
<text text-anchor="middle" x="253" y="-201.9" font-family="Helvetica,sans-Serif" font-size="12.00">Vector2</text>
</a>
</g>
</g>
<!-- Node4&#45;&gt;Node3 -->
<g id="edge3" class="edge"><title>Node4&#45;&gt;Node3</title>
<path fill="none" stroke="#9a32cd" stroke-dasharray="5,2" d="M253,-184.326C253,-161.095 253,-123.388 253,-105.718"/>
<polygon fill="#9a32cd" stroke="#9a32cd" points="249.5,-184.416 253,-194.416 256.5,-184.416 249.5,-184.416"/>
<text text-anchor="middle" x="297.5" y="-166.4" font-family="Helvetica,sans-Serif" font-size="12.00"> Acceleration</text>
<text text-anchor="middle" x="297.5" y="-153.4" font-family="Helvetica,sans-Serif" font-size="12.00">Position</text>
<text text-anchor="middle" x="297.5" y="-140.4" font-family="Helvetica,sans-Serif" font-size="12.00">PreviousPosition</text>
<text text-anchor="middle" x="297.5" y="-127.4" font-family="Helvetica,sans-Serif" font-size="12.00">Velocity</text>
</g>
</g>
</svg>
