<?xml version="1.0" encoding="UTF-8" standalone="no"?>
<!DOCTYPE svg PUBLIC "-//W3C//DTD SVG 1.1//EN"
 "http://www.w3.org/Graphics/SVG/1.1/DTD/svg11.dtd">
<!-- Generated by graphviz version 2.38.0 (20140413.2041)
 -->
<!-- Title: FrictionJoint Pages: 1 -->
<svg width="221pt" height="189pt"
 viewBox="0.00 0.00 221.00 189.00" xmlns="http://www.w3.org/2000/svg" xmlns:xlink="http://www.w3.org/1999/xlink">
<g id="graph0" class="graph" transform="scale(1 1) rotate(0) translate(4 185)">
<title>FrictionJoint</title>
<!-- Node1 -->
<g id="node1" class="node"><title>Node1</title>
<g id="a_node1"><a xlink:title="Friction joint. This is used for top&#45;down friction. It provides 2D translational friction and angular...">
<polygon fill="#bfbfbf" stroke="black" points="0,-2.5 0,-23.5 80,-23.5 80,-2.5 0,-2.5"/>
<text text-anchor="middle" x="40" y="-9.9" font-family="Helvetica,sans-Serif" font-size="12.00">FrictionJoint</text>
</a>
</g>
</g>
<!-- Node2 -->
<g id="node2" class="node"><title>Node2</title>
<g id="a_node2"><a xlink:href="classtainicom_1_1_aether_1_1_physics2_d_1_1_dynamics_1_1_joints_1_1_joint.html" target="_top" xlink:title=" ">
<polygon fill="none" stroke="black" points="61.5,-88.5 61.5,-109.5 102.5,-109.5 102.5,-88.5 61.5,-88.5"/>
<text text-anchor="middle" x="82" y="-95.9" font-family="Helvetica,sans-Serif" font-size="12.00">Joint</text>
</a>
</g>
</g>
<!-- Node2&#45;&gt;Node1 -->
<g id="edge1" class="edge"><title>Node2&#45;&gt;Node1</title>
<path fill="none" stroke="midnightblue" d="M66.9738,-80.636C64.4425,-77.2413 61.9937,-73.6108 60,-70 51.5168,-54.6362 45.4808,-34.9826 42.3827,-23.5117"/>
<polygon fill="midnightblue" stroke="midnightblue" points="64.2419,-82.824 73.2237,-88.4434 69.7066,-78.4493 64.2419,-82.824"/>
</g>
<!-- Node3 -->
<g id="node3" class="node"><title>Node3</title>
<g id="a_node3"><a xlink:href="classtainicom_1_1_aether_1_1_physics2_d_1_1_dynamics_1_1_joints_1_1_joint_edge.html" target="_top" xlink:title="A joint edge is used to connect bodies and joints together in a joint graph where each body is a node...">
<polygon fill="none" stroke="red" points="98,-2.5 98,-23.5 168,-23.5 168,-2.5 98,-2.5"/>
<text text-anchor="middle" x="133" y="-9.9" font-family="Helvetica,sans-Serif" font-size="12.00">JointEdge</text>
</a>
</g>
</g>
<!-- Node2&#45;&gt;Node3 -->
<g id="edge4" class="edge"><title>Node2&#45;&gt;Node3</title>
<path fill="none" stroke="#9a32cd" stroke-dasharray="5,2" d="M75.9022,-78.6408C73.6493,-67.753 72.9289,-54.3179 79,-44 84.4387,-34.7568 93.8682,-28.1572 103.341,-23.5463"/>
<polygon fill="#9a32cd" stroke="#9a32cd" points="72.5562,-79.6799 78.4712,-88.4698 79.3287,-77.9097 72.5562,-79.6799"/>
<text text-anchor="middle" x="93" y="-53.9" font-family="Helvetica,sans-Serif" font-size="12.00"> Joint</text>
</g>
<!-- Node3&#45;&gt;Node2 -->
<g id="edge2" class="edge"><title>Node3&#45;&gt;Node2</title>
<path fill="none" stroke="#9a32cd" stroke-dasharray="5,2" d="M127.638,-33.4425C123.995,-44.6987 118.472,-58.808 111,-70 106.415,-76.8683 99.8952,-83.3539 94.1986,-88.3503"/>
<polygon fill="#9a32cd" stroke="#9a32cd" points="131.036,-34.2972 130.558,-23.7132 124.331,-32.2852 131.036,-34.2972"/>
<text text-anchor="middle" x="143" y="-60.4" font-family="Helvetica,sans-Serif" font-size="12.00"> EdgeA</text>
<text text-anchor="middle" x="143" y="-47.4" font-family="Helvetica,sans-Serif" font-size="12.00">EdgeB</text>
</g>
<!-- Node3&#45;&gt;Node3 -->
<g id="edge3" class="edge"><title>Node3&#45;&gt;Node3</title>
<path fill="none" stroke="#9a32cd" stroke-dasharray="5,2" d="M178.235,-19.8356C182.967,-18.5012 186,-16.2227 186,-13 186,-7.84375 178.236,-5.10449 168.168,-4.78223"/>
<polygon fill="#9a32cd" stroke="#9a32cd" points="177.599,-16.3899 168.168,-21.2178 178.551,-23.3249 177.599,-16.3899"/>
<text text-anchor="middle" x="199.5" y="-16.4" font-family="Helvetica,sans-Serif" font-size="12.00"> Next</text>
<text text-anchor="middle" x="199.5" y="-3.4" font-family="Helvetica,sans-Serif" font-size="12.00">Prev</text>
</g>
<!-- Node14 -->
<g id="node4" class="node"><title>Node14</title>
<g id="a_node4"><a xlink:href="classtainicom_1_1_aether_1_1_physics2_d_1_1_dynamics_1_1_world.html" target="_top" xlink:title="The world class manages all physics entities, dynamic simulation, and asynchronous queries.">
<polygon fill="none" stroke="red" points="58.5,-159.5 58.5,-180.5 105.5,-180.5 105.5,-159.5 58.5,-159.5"/>
<text text-anchor="middle" x="82" y="-166.9" font-family="Helvetica,sans-Serif" font-size="12.00">World</text>
</a>
</g>
</g>
<!-- Node14&#45;&gt;Node2 -->
<g id="edge5" class="edge"><title>Node14&#45;&gt;Node2</title>
<path fill="none" stroke="#9a32cd" stroke-dasharray="5,2" d="M82,-149.088C82,-136.078 82,-119.675 82,-109.513"/>
<polygon fill="#9a32cd" stroke="#9a32cd" points="78.5001,-149.406 82,-159.406 85.5001,-149.406 78.5001,-149.406"/>
<text text-anchor="middle" x="101" y="-131.4" font-family="Helvetica,sans-Serif" font-size="12.00"> _world</text>
</g>
</g>
</svg>
