<?xml version="1.0" encoding="UTF-8" standalone="no"?>
<!DOCTYPE svg PUBLIC "-//W3C//DTD SVG 1.1//EN"
 "http://www.w3.org/Graphics/SVG/1.1/DTD/svg11.dtd">
<!-- Generated by graphviz version 2.38.0 (20140413.2041)
 -->
<!-- Title: QuadTree&lt; T &gt; Pages: 1 -->
<svg width="126pt" height="185pt"
 viewBox="0.00 0.00 125.50 185.00" xmlns="http://www.w3.org/2000/svg" xmlns:xlink="http://www.w3.org/1999/xlink">
<g id="graph0" class="graph" transform="scale(1 1) rotate(0) translate(4 181)">
<title>QuadTree&lt; T &gt;</title>
<!-- Node1 -->
<g id="node1" class="node"><title>Node1</title>
<g id="a_node1"><a xlink:title=" ">
<polygon fill="#bfbfbf" stroke="black" points="0,-0.5 0,-21.5 95,-21.5 95,-0.5 0,-0.5"/>
<text text-anchor="middle" x="47.5" y="-7.9" font-family="Helvetica,sans-Serif" font-size="12.00">QuadTree&lt; T &gt;</text>
</a>
</g>
</g>
<!-- Node2 -->
<g id="node2" class="node"><title>Node2</title>
<g id="a_node2"><a xlink:href="structtainicom_1_1_aether_1_1_physics2_d_1_1_collision_1_1_a_a_b_b.html" target="_top" xlink:title="An axis aligned bounding box.">
<polygon fill="none" stroke="black" points="22.5,-71.5 22.5,-92.5 72.5,-92.5 72.5,-71.5 22.5,-71.5"/>
<text text-anchor="middle" x="47.5" y="-78.9" font-family="Helvetica,sans-Serif" font-size="12.00">AABB</text>
</a>
</g>
</g>
<!-- Node2&#45;&gt;Node1 -->
<g id="edge1" class="edge"><title>Node2&#45;&gt;Node1</title>
<path fill="none" stroke="#9a32cd" stroke-dasharray="5,2" d="M47.5,-61.0882C47.5,-48.0781 47.5,-31.6754 47.5,-21.5127"/>
<polygon fill="#9a32cd" stroke="#9a32cd" points="44.0001,-61.4058 47.5,-71.4058 51.0001,-61.4059 44.0001,-61.4058"/>
<text text-anchor="middle" x="63" y="-43.4" font-family="Helvetica,sans-Serif" font-size="12.00"> Span</text>
</g>
<!-- Node3 -->
<g id="node3" class="node"><title>Node3</title>
<g id="a_node3"><a xlink:href="structtainicom_1_1_aether_1_1_physics2_d_1_1_common_1_1_vector2.html" target="_top" xlink:title=" ">
<polygon fill="none" stroke="red" points="18.5,-155.5 18.5,-176.5 76.5,-176.5 76.5,-155.5 18.5,-155.5"/>
<text text-anchor="middle" x="47.5" y="-162.9" font-family="Helvetica,sans-Serif" font-size="12.00">Vector2</text>
</a>
</g>
</g>
<!-- Node3&#45;&gt;Node2 -->
<g id="edge2" class="edge"><title>Node3&#45;&gt;Node2</title>
<path fill="none" stroke="#9a32cd" stroke-dasharray="5,2" d="M47.5,-144.99C47.5,-128.4 47.5,-105.532 47.5,-92.7158"/>
<polygon fill="#9a32cd" stroke="#9a32cd" points="44.0001,-145.271 47.5,-155.272 51.0001,-145.272 44.0001,-145.271"/>
<text text-anchor="middle" x="82.5" y="-127.4" font-family="Helvetica,sans-Serif" font-size="12.00"> LowerBound</text>
<text text-anchor="middle" x="82.5" y="-114.4" font-family="Helvetica,sans-Serif" font-size="12.00">UpperBound</text>
</g>
</g>
</svg>
