<?xml version="1.0" encoding="UTF-8" standalone="no"?>
<!DOCTYPE svg PUBLIC "-//W3C//DTD SVG 1.1//EN"
 "http://www.w3.org/Graphics/SVG/1.1/DTD/svg11.dtd">
<!-- Generated by graphviz version 2.38.0 (20140413.2041)
 -->
<!-- Title: DistanceJoint Pages: 1 -->
<svg width="229pt" height="189pt"
 viewBox="0.00 0.00 229.00 189.00" xmlns="http://www.w3.org/2000/svg" xmlns:xlink="http://www.w3.org/1999/xlink">
<g id="graph0" class="graph" transform="scale(1 1) rotate(0) translate(4 185)">
<title>DistanceJoint</title>
<!-- Node1 -->
<g id="node1" class="node"><title>Node1</title>
<g id="a_node1"><a xlink:title="A distance joint rains two points on two bodies to remain at a fixed distance from each other....">
<polygon fill="#bfbfbf" stroke="black" points="0,-2.5 0,-23.5 88,-23.5 88,-2.5 0,-2.5"/>
<text text-anchor="middle" x="44" y="-9.9" font-family="Helvetica,sans-Serif" font-size="12.00">DistanceJoint</text>
</a>
</g>
</g>
<!-- Node2 -->
<g id="node2" class="node"><title>Node2</title>
<g id="a_node2"><a xlink:href="classtainicom_1_1_aether_1_1_physics2_d_1_1_dynamics_1_1_joints_1_1_joint.html" target="_top" xlink:title=" ">
<polygon fill="none" stroke="black" points="69.5,-88.5 69.5,-109.5 110.5,-109.5 110.5,-88.5 69.5,-88.5"/>
<text text-anchor="middle" x="90" y="-95.9" font-family="Helvetica,sans-Serif" font-size="12.00">Joint</text>
</a>
</g>
</g>
<!-- Node2&#45;&gt;Node1 -->
<g id="edge1" class="edge"><title>Node2&#45;&gt;Node1</title>
<path fill="none" stroke="midnightblue" d="M74.937,-80.2415C72.4636,-76.9419 70.0443,-73.446 68,-70 58.9335,-54.7168 51.4308,-35.3756 47.3441,-23.8845"/>
<polygon fill="midnightblue" stroke="midnightblue" points="72.4238,-82.7041 81.3901,-88.3481 77.9005,-78.3445 72.4238,-82.7041"/>
</g>
<!-- Node3 -->
<g id="node3" class="node"><title>Node3</title>
<g id="a_node3"><a xlink:href="classtainicom_1_1_aether_1_1_physics2_d_1_1_dynamics_1_1_joints_1_1_joint_edge.html" target="_top" xlink:title="A joint edge is used to connect bodies and joints together in a joint graph where each body is a node...">
<polygon fill="none" stroke="red" points="106,-2.5 106,-23.5 176,-23.5 176,-2.5 106,-2.5"/>
<text text-anchor="middle" x="141" y="-9.9" font-family="Helvetica,sans-Serif" font-size="12.00">JointEdge</text>
</a>
</g>
</g>
<!-- Node2&#45;&gt;Node3 -->
<g id="edge4" class="edge"><title>Node2&#45;&gt;Node3</title>
<path fill="none" stroke="#9a32cd" stroke-dasharray="5,2" d="M83.9022,-78.6408C81.6493,-67.753 80.9289,-54.3179 87,-44 92.4387,-34.7568 101.868,-28.1572 111.341,-23.5463"/>
<polygon fill="#9a32cd" stroke="#9a32cd" points="80.5562,-79.6799 86.4712,-88.4698 87.3287,-77.9097 80.5562,-79.6799"/>
<text text-anchor="middle" x="101" y="-53.9" font-family="Helvetica,sans-Serif" font-size="12.00"> Joint</text>
</g>
<!-- Node3&#45;&gt;Node2 -->
<g id="edge2" class="edge"><title>Node3&#45;&gt;Node2</title>
<path fill="none" stroke="#9a32cd" stroke-dasharray="5,2" d="M135.638,-33.4425C131.995,-44.6987 126.472,-58.808 119,-70 114.415,-76.8683 107.895,-83.3539 102.199,-88.3503"/>
<polygon fill="#9a32cd" stroke="#9a32cd" points="139.036,-34.2972 138.558,-23.7132 132.331,-32.2852 139.036,-34.2972"/>
<text text-anchor="middle" x="151" y="-60.4" font-family="Helvetica,sans-Serif" font-size="12.00"> EdgeA</text>
<text text-anchor="middle" x="151" y="-47.4" font-family="Helvetica,sans-Serif" font-size="12.00">EdgeB</text>
</g>
<!-- Node3&#45;&gt;Node3 -->
<g id="edge3" class="edge"><title>Node3&#45;&gt;Node3</title>
<path fill="none" stroke="#9a32cd" stroke-dasharray="5,2" d="M186.235,-19.8356C190.967,-18.5012 194,-16.2227 194,-13 194,-7.84375 186.236,-5.10449 176.168,-4.78223"/>
<polygon fill="#9a32cd" stroke="#9a32cd" points="185.599,-16.3899 176.168,-21.2178 186.551,-23.3249 185.599,-16.3899"/>
<text text-anchor="middle" x="207.5" y="-16.4" font-family="Helvetica,sans-Serif" font-size="12.00"> Next</text>
<text text-anchor="middle" x="207.5" y="-3.4" font-family="Helvetica,sans-Serif" font-size="12.00">Prev</text>
</g>
<!-- Node14 -->
<g id="node4" class="node"><title>Node14</title>
<g id="a_node4"><a xlink:href="classtainicom_1_1_aether_1_1_physics2_d_1_1_dynamics_1_1_world.html" target="_top" xlink:title="The world class manages all physics entities, dynamic simulation, and asynchronous queries.">
<polygon fill="none" stroke="red" points="66.5,-159.5 66.5,-180.5 113.5,-180.5 113.5,-159.5 66.5,-159.5"/>
<text text-anchor="middle" x="90" y="-166.9" font-family="Helvetica,sans-Serif" font-size="12.00">World</text>
</a>
</g>
</g>
<!-- Node14&#45;&gt;Node2 -->
<g id="edge5" class="edge"><title>Node14&#45;&gt;Node2</title>
<path fill="none" stroke="#9a32cd" stroke-dasharray="5,2" d="M90,-149.088C90,-136.078 90,-119.675 90,-109.513"/>
<polygon fill="#9a32cd" stroke="#9a32cd" points="86.5001,-149.406 90,-159.406 93.5001,-149.406 86.5001,-149.406"/>
<text text-anchor="middle" x="109" y="-131.4" font-family="Helvetica,sans-Serif" font-size="12.00"> _world</text>
</g>
</g>
</svg>
