<?xml version="1.0" encoding="UTF-8" standalone="no"?>
<!DOCTYPE svg PUBLIC "-//W3C//DTD SVG 1.1//EN"
 "http://www.w3.org/Graphics/SVG/1.1/DTD/svg11.dtd">
<!-- Generated by graphviz version 2.38.0 (20140413.2041)
 -->
<!-- Title: Element&lt; T &gt; Pages: 1 -->
<svg width="121pt" height="185pt"
 viewBox="0.00 0.00 121.00 185.00" xmlns="http://www.w3.org/2000/svg" xmlns:xlink="http://www.w3.org/1999/xlink">
<g id="graph0" class="graph" transform="scale(1 1) rotate(0) translate(4 181)">
<title>Element&lt; T &gt;</title>
<!-- Node1 -->
<g id="node1" class="node"><title>Node1</title>
<g id="a_node1"><a xlink:title=" ">
<polygon fill="#bfbfbf" stroke="black" points="0,-0.5 0,-21.5 86,-21.5 86,-0.5 0,-0.5"/>
<text text-anchor="middle" x="43" y="-7.9" font-family="Helvetica,sans-Serif" font-size="12.00">Element&lt; T &gt;</text>
</a>
</g>
</g>
<!-- Node2 -->
<g id="node2" class="node"><title>Node2</title>
<g id="a_node2"><a xlink:href="structtainicom_1_1_aether_1_1_physics2_d_1_1_collision_1_1_a_a_b_b.html" target="_top" xlink:title="An axis aligned bounding box.">
<polygon fill="none" stroke="black" points="18,-71.5 18,-92.5 68,-92.5 68,-71.5 18,-71.5"/>
<text text-anchor="middle" x="43" y="-78.9" font-family="Helvetica,sans-Serif" font-size="12.00">AABB</text>
</a>
</g>
</g>
<!-- Node2&#45;&gt;Node1 -->
<g id="edge1" class="edge"><title>Node2&#45;&gt;Node1</title>
<path fill="none" stroke="#9a32cd" stroke-dasharray="5,2" d="M43,-61.0882C43,-48.0781 43,-31.6754 43,-21.5127"/>
<polygon fill="#9a32cd" stroke="#9a32cd" points="39.5001,-61.4058 43,-71.4058 46.5001,-61.4059 39.5001,-61.4058"/>
<text text-anchor="middle" x="58.5" y="-43.4" font-family="Helvetica,sans-Serif" font-size="12.00"> Span</text>
</g>
<!-- Node3 -->
<g id="node3" class="node"><title>Node3</title>
<g id="a_node3"><a xlink:href="structtainicom_1_1_aether_1_1_physics2_d_1_1_common_1_1_vector2.html" target="_top" xlink:title=" ">
<polygon fill="none" stroke="red" points="14,-155.5 14,-176.5 72,-176.5 72,-155.5 14,-155.5"/>
<text text-anchor="middle" x="43" y="-162.9" font-family="Helvetica,sans-Serif" font-size="12.00">Vector2</text>
</a>
</g>
</g>
<!-- Node3&#45;&gt;Node2 -->
<g id="edge2" class="edge"><title>Node3&#45;&gt;Node2</title>
<path fill="none" stroke="#9a32cd" stroke-dasharray="5,2" d="M43,-144.99C43,-128.4 43,-105.532 43,-92.7158"/>
<polygon fill="#9a32cd" stroke="#9a32cd" points="39.5001,-145.271 43,-155.272 46.5001,-145.272 39.5001,-145.271"/>
<text text-anchor="middle" x="78" y="-127.4" font-family="Helvetica,sans-Serif" font-size="12.00"> LowerBound</text>
<text text-anchor="middle" x="78" y="-114.4" font-family="Helvetica,sans-Serif" font-size="12.00">UpperBound</text>
</g>
</g>
</svg>
