<?xml version="1.0" encoding="UTF-8" standalone="no"?>
<!DOCTYPE svg PUBLIC "-//W3C//DTD SVG 1.1//EN"
 "http://www.w3.org/Graphics/SVG/1.1/DTD/svg11.dtd">
<!-- Generated by graphviz version 2.38.0 (20140413.2041)
 -->
<!-- Title: Graphical Class Hierarchy Pages: 1 -->
<svg width="245pt" height="230pt"
 viewBox="0.00 0.00 245.00 230.00" xmlns="http://www.w3.org/2000/svg" xmlns:xlink="http://www.w3.org/1999/xlink">
<g id="graph0" class="graph" transform="scale(1 1) rotate(0) translate(4 226)">
<title>Graphical Class Hierarchy</title>
<!-- Node0 -->
<g id="node1" class="node"><title>Node0</title>
<g id="a_node1"><a xlink:href="classtainicom_1_1_aether_1_1_physics2_d_1_1_dynamics_1_1_contacts_1_1_contact.html" target="_top" xlink:title="The class manages contact between two shapes. A contact exists for each overlapping AABB in the broad...">
<polygon fill="none" stroke="black" points="12.5,-200.5 12.5,-221.5 69.5,-221.5 69.5,-200.5 12.5,-200.5"/>
<text text-anchor="middle" x="41" y="-207.9" font-family="Helvetica,sans-Serif" font-size="12.00">Contact</text>
</a>
</g>
</g>
<!-- Node1 -->
<g id="node2" class="node"><title>Node1</title>
<g id="a_node2"><a xlink:href="classtainicom_1_1_aether_1_1_physics2_d_1_1_dynamics_1_1_contacts_1_1_contact_list_head.html" target="_top" xlink:title="Head of a circular doubly linked list.">
<polygon fill="none" stroke="black" points="125.5,-200.5 125.5,-221.5 229.5,-221.5 229.5,-200.5 125.5,-200.5"/>
<text text-anchor="middle" x="177.5" y="-207.9" font-family="Helvetica,sans-Serif" font-size="12.00">ContactListHead</text>
</a>
</g>
</g>
<!-- Node0&#45;&gt;Node1 -->
<g id="edge1" class="edge"><title>Node0&#45;&gt;Node1</title>
<path fill="none" stroke="midnightblue" d="M79.859,-211C93.9689,-211 110.228,-211 125.336,-211"/>
<polygon fill="midnightblue" stroke="midnightblue" points="79.5427,-207.5 69.5426,-211 79.5426,-214.5 79.5427,-207.5"/>
</g>
<!-- Node60 -->
<g id="node3" class="node"><title>Node60</title>
<g id="a_node3"><a xlink:title=" ">
<polygon fill="none" stroke="#bfbfbf" points="5.5,-80.5 5.5,-101.5 76.5,-101.5 76.5,-80.5 5.5,-80.5"/>
<text text-anchor="middle" x="41" y="-87.9" font-family="Helvetica,sans-Serif" font-size="12.00">ICollection</text>
</a>
</g>
</g>
<!-- Node61 -->
<g id="node4" class="node"><title>Node61</title>
<g id="a_node4"><a xlink:href="classtainicom_1_1_aether_1_1_physics2_d_1_1_dynamics_1_1_body_collection.html" target="_top" xlink:title=" ">
<polygon fill="none" stroke="black" points="130,-120.5 130,-141.5 225,-141.5 225,-120.5 130,-120.5"/>
<text text-anchor="middle" x="177.5" y="-127.9" font-family="Helvetica,sans-Serif" font-size="12.00">BodyCollection</text>
</a>
</g>
</g>
<!-- Node60&#45;&gt;Node61 -->
<g id="edge2" class="edge"><title>Node60&#45;&gt;Node61</title>
<path fill="none" stroke="midnightblue" d="M86.2304,-104.154C104.018,-109.444 124.249,-115.461 141.044,-120.455"/>
<polygon fill="midnightblue" stroke="midnightblue" points="87.2199,-100.797 76.6371,-101.301 85.2245,-107.506 87.2199,-100.797"/>
</g>
<!-- Node62 -->
<g id="node5" class="node"><title>Node62</title>
<g id="a_node5"><a xlink:href="classtainicom_1_1_aether_1_1_physics2_d_1_1_dynamics_1_1_controller_collection.html" target="_top" xlink:title=" ">
<polygon fill="none" stroke="black" points="118,-80.5 118,-101.5 237,-101.5 237,-80.5 118,-80.5"/>
<text text-anchor="middle" x="177.5" y="-87.9" font-family="Helvetica,sans-Serif" font-size="12.00">ControllerCollection</text>
</a>
</g>
</g>
<!-- Node60&#45;&gt;Node62 -->
<g id="edge3" class="edge"><title>Node60&#45;&gt;Node62</title>
<path fill="none" stroke="midnightblue" d="M86.7485,-91C96.754,-91 107.511,-91 117.98,-91"/>
<polygon fill="midnightblue" stroke="midnightblue" points="86.6371,-87.5001 76.6371,-91 86.6371,-94.5001 86.6371,-87.5001"/>
</g>
<!-- Node63 -->
<g id="node6" class="node"><title>Node63</title>
<g id="a_node6"><a xlink:href="classtainicom_1_1_aether_1_1_physics2_d_1_1_dynamics_1_1_fixture_collection.html" target="_top" xlink:title=" ">
<polygon fill="none" stroke="black" points="125.5,-40.5 125.5,-61.5 229.5,-61.5 229.5,-40.5 125.5,-40.5"/>
<text text-anchor="middle" x="177.5" y="-47.9" font-family="Helvetica,sans-Serif" font-size="12.00">FixtureCollection</text>
</a>
</g>
</g>
<!-- Node60&#45;&gt;Node63 -->
<g id="edge4" class="edge"><title>Node60&#45;&gt;Node63</title>
<path fill="none" stroke="midnightblue" d="M86.2304,-77.846C104.018,-72.556 124.249,-66.5394 141.044,-61.5447"/>
<polygon fill="midnightblue" stroke="midnightblue" points="85.2245,-74.4936 76.6371,-80.699 87.2199,-81.2031 85.2245,-74.4936"/>
</g>
<!-- Node64 -->
<g id="node7" class="node"><title>Node64</title>
<g id="a_node7"><a xlink:href="classtainicom_1_1_aether_1_1_physics2_d_1_1_dynamics_1_1_joint_collection.html" target="_top" xlink:title=" ">
<polygon fill="none" stroke="black" points="131,-0.5 131,-21.5 224,-21.5 224,-0.5 131,-0.5"/>
<text text-anchor="middle" x="177.5" y="-7.9" font-family="Helvetica,sans-Serif" font-size="12.00">JointCollection</text>
</a>
</g>
</g>
<!-- Node60&#45;&gt;Node64 -->
<g id="edge5" class="edge"><title>Node60&#45;&gt;Node64</title>
<path fill="none" stroke="midnightblue" d="M75.6646,-75.3648C77.8664,-73.9804 80.0002,-72.5228 82,-71 101.029,-56.5099 98.0425,-44.1814 118,-31 123.642,-27.2733 130.051,-24.1696 136.506,-21.608"/>
<polygon fill="midnightblue" stroke="midnightblue" points="73.9241,-72.3282 66.9744,-80.3252 77.3942,-78.4075 73.9241,-72.3282"/>
</g>
<!-- Node65 -->
<g id="node8" class="node"><title>Node65</title>
<g id="a_node8"><a xlink:title=" ">
<polygon fill="none" stroke="#bfbfbf" points="0,-120.5 0,-141.5 82,-141.5 82,-120.5 0,-120.5"/>
<text text-anchor="middle" x="41" y="-127.9" font-family="Helvetica,sans-Serif" font-size="12.00">IEnumerable</text>
</a>
</g>
</g>
<!-- Node65&#45;&gt;Node1 -->
<g id="edge7" class="edge"><title>Node65&#45;&gt;Node1</title>
<path fill="none" stroke="midnightblue" d="M60.3637,-148.447C75.0188,-161.608 96.5766,-179.328 118,-191 124.692,-194.646 132.172,-197.808 139.488,-200.474"/>
<polygon fill="midnightblue" stroke="midnightblue" points="62.7124,-145.852 52.9769,-141.672 57.981,-151.011 62.7124,-145.852"/>
</g>
<!-- Node65&#45;&gt;Node61 -->
<g id="edge6" class="edge"><title>Node65&#45;&gt;Node61</title>
<path fill="none" stroke="midnightblue" d="M92.3668,-131C104.553,-131 117.531,-131 129.553,-131"/>
<polygon fill="midnightblue" stroke="midnightblue" points="92.3545,-127.5 82.3544,-131 92.3544,-134.5 92.3545,-127.5"/>
</g>
<!-- Node65&#45;&gt;Node62 -->
<g id="edge8" class="edge"><title>Node65&#45;&gt;Node62</title>
<path fill="none" stroke="midnightblue" d="M87.3311,-117.519C104.809,-112.321 124.504,-106.463 140.931,-101.578"/>
<polygon fill="midnightblue" stroke="midnightblue" points="85.9257,-114.285 77.3383,-120.49 87.9211,-120.995 85.9257,-114.285"/>
</g>
<!-- Node65&#45;&gt;Node63 -->
<g id="edge9" class="edge"><title>Node65&#45;&gt;Node63</title>
<path fill="none" stroke="midnightblue" d="M75.6646,-115.365C77.8664,-113.98 80.0002,-112.523 82,-111 101.029,-96.5099 98.0425,-84.1814 118,-71 123.642,-67.2733 130.051,-64.1696 136.506,-61.608"/>
<polygon fill="midnightblue" stroke="midnightblue" points="73.9241,-112.328 66.9744,-120.325 77.3942,-118.408 73.9241,-112.328"/>
</g>
<!-- Node65&#45;&gt;Node64 -->
<g id="edge10" class="edge"><title>Node65&#45;&gt;Node64</title>
<path fill="none" stroke="midnightblue" d="M78.0734,-114.61C79.4623,-113.473 80.7801,-112.271 82,-111 109.002,-82.8735 89.1727,-57.2523 118,-31 122.206,-27.1697 127.178,-24.0682 132.418,-21.5578"/>
<polygon fill="midnightblue" stroke="midnightblue" points="75.8368,-111.898 69.5303,-120.411 79.7694,-117.689 75.8368,-111.898"/>
</g>
<!-- Node66 -->
<g id="node9" class="node"><title>Node66</title>
<g id="a_node9"><a xlink:href="classtainicom_1_1_aether_1_1_physics2_d_1_1_fluids_1_1_spatial_table.html" target="_top" xlink:title=" ">
<polygon fill="none" stroke="black" points="136,-160.5 136,-181.5 219,-181.5 219,-160.5 136,-160.5"/>
<text text-anchor="middle" x="177.5" y="-167.9" font-family="Helvetica,sans-Serif" font-size="12.00">SpatialTable</text>
</a>
</g>
</g>
<!-- Node65&#45;&gt;Node66 -->
<g id="edge11" class="edge"><title>Node65&#45;&gt;Node66</title>
<path fill="none" stroke="midnightblue" d="M87.3311,-144.481C104.809,-149.679 124.504,-155.537 140.931,-160.422"/>
<polygon fill="midnightblue" stroke="midnightblue" points="87.9211,-141.005 77.3383,-141.51 85.9257,-147.715 87.9211,-141.005"/>
</g>
<!-- Node78 -->
<g id="node10" class="node"><title>Node78</title>
<g id="a_node10"><a xlink:title=" ">
<polygon fill="none" stroke="#bfbfbf" points="22,-40.5 22,-61.5 60,-61.5 60,-40.5 22,-40.5"/>
<text text-anchor="middle" x="41" y="-47.9" font-family="Helvetica,sans-Serif" font-size="12.00">IList</text>
</a>
</g>
</g>
<!-- Node78&#45;&gt;Node61 -->
<g id="edge12" class="edge"><title>Node78&#45;&gt;Node61</title>
<path fill="none" stroke="midnightblue" d="M69.3024,-62.9167C73.7185,-65.3259 78.1123,-68.0396 82,-71 101.029,-85.4901 98.0425,-97.8186 118,-111 123.642,-114.727 130.051,-117.83 136.506,-120.392"/>
<polygon fill="midnightblue" stroke="midnightblue" points="70.8676,-59.7862 60.3616,-58.4173 67.7209,-66.0391 70.8676,-59.7862"/>
</g>
<!-- Node78&#45;&gt;Node62 -->
<g id="edge13" class="edge"><title>Node78&#45;&gt;Node62</title>
<path fill="none" stroke="midnightblue" d="M69.8788,-59.2911C90.5145,-65.4281 118.784,-73.8355 141.03,-80.4512"/>
<polygon fill="midnightblue" stroke="midnightblue" points="70.7221,-55.8904 60.1393,-56.3946 68.7266,-62.6 70.7221,-55.8904"/>
</g>
<!-- Node78&#45;&gt;Node63 -->
<g id="edge14" class="edge"><title>Node78&#45;&gt;Node63</title>
<path fill="none" stroke="midnightblue" d="M70.3987,-51C86.3525,-51 106.746,-51 125.383,-51"/>
<polygon fill="midnightblue" stroke="midnightblue" points="70.1393,-47.5001 60.1393,-51 70.1392,-54.5001 70.1393,-47.5001"/>
</g>
<!-- Node78&#45;&gt;Node64 -->
<g id="edge15" class="edge"><title>Node78&#45;&gt;Node64</title>
<path fill="none" stroke="midnightblue" d="M69.8788,-42.7089C90.5145,-36.5719 118.784,-28.1645 141.03,-21.5488"/>
<polygon fill="midnightblue" stroke="midnightblue" points="68.7266,-39.4 60.1393,-45.6054 70.7221,-46.1096 68.7266,-39.4"/>
</g>
</g>
</svg>
