<?xml version="1.0" encoding="UTF-8" standalone="no"?>
<!DOCTYPE svg PUBLIC "-//W3C//DTD SVG 1.1//EN"
 "http://www.w3.org/Graphics/SVG/1.1/DTD/svg11.dtd">
<!-- Generated by graphviz version 2.38.0 (20140413.2041)
 -->
<!-- Title: Graphical Class Hierarchy Pages: 1 -->
<svg width="327pt" height="164pt"
 viewBox="0.00 0.00 327.00 164.00" xmlns="http://www.w3.org/2000/svg" xmlns:xlink="http://www.w3.org/1999/xlink">
<g id="graph0" class="graph" transform="scale(1 1) rotate(0) translate(4 160)">
<title>Graphical Class Hierarchy</title>
<!-- Node67 -->
<g id="node1" class="node"><title>Node67</title>
<g id="a_node1"><a xlink:title=" ">
<polygon fill="none" stroke="#bfbfbf" points="0,-63.5 0,-84.5 80,-84.5 80,-63.5 0,-63.5"/>
<text text-anchor="middle" x="40" y="-70.9" font-family="Helvetica,sans-Serif" font-size="12.00">IEnumerator</text>
</a>
</g>
</g>
<!-- Node0 -->
<g id="node2" class="node"><title>Node0</title>
<g id="a_node2"><a xlink:href="structtainicom_1_1_aether_1_1_physics2_d_1_1_dynamics_1_1_body_collection_1_1_body_enumerator.html" target="_top" xlink:title=" ">
<polygon fill="none" stroke="black" points="124.5,-134.5 124.5,-155.5 310.5,-155.5 310.5,-134.5 124.5,-134.5"/>
<text text-anchor="middle" x="217.5" y="-141.9" font-family="Helvetica,sans-Serif" font-size="12.00">BodyCollection.BodyEnumerator</text>
</a>
</g>
</g>
<!-- Node67&#45;&gt;Node0 -->
<g id="edge1" class="edge"><title>Node67&#45;&gt;Node0</title>
<path fill="none" stroke="midnightblue" d="M61.2476,-91.0923C75.6434,-102.377 95.9157,-116.584 116,-125 125.106,-128.816 134.988,-131.917 144.88,-134.435"/>
<polygon fill="midnightblue" stroke="midnightblue" points="63.0795,-88.0734 53.0978,-84.5214 58.6858,-93.5228 63.0795,-88.0734"/>
</g>
<!-- Node69 -->
<g id="node3" class="node"><title>Node69</title>
<g id="a_node3"><a xlink:href="structtainicom_1_1_aether_1_1_physics2_d_1_1_dynamics_1_1_controller_collection_1_1_controller_enumerator.html" target="_top" xlink:title=" ">
<polygon fill="none" stroke="black" points="131.5,-81 131.5,-115 303.5,-115 303.5,-81 131.5,-81"/>
<text text-anchor="start" x="139.5" y="-101.4" font-family="Helvetica,sans-Serif" font-size="12.00">ControllerCollection.Controller</text>
<text text-anchor="middle" x="217.5" y="-88.4" font-family="Helvetica,sans-Serif" font-size="12.00">Enumerator</text>
</a>
</g>
</g>
<!-- Node67&#45;&gt;Node69 -->
<g id="edge2" class="edge"><title>Node67&#45;&gt;Node69</title>
<path fill="none" stroke="midnightblue" d="M90.3247,-80.7453C103.115,-82.4944 117.263,-84.4291 131.322,-86.3518"/>
<polygon fill="midnightblue" stroke="midnightblue" points="90.7677,-77.2733 80.3856,-79.3861 89.8192,-84.2088 90.7677,-77.2733"/>
</g>
<!-- Node70 -->
<g id="node4" class="node"><title>Node70</title>
<g id="a_node4"><a xlink:href="structtainicom_1_1_aether_1_1_physics2_d_1_1_dynamics_1_1_fixture_collection_1_1_fixture_enumerator.html" target="_top" xlink:title=" ">
<polygon fill="none" stroke="black" points="116,-40.5 116,-61.5 319,-61.5 319,-40.5 116,-40.5"/>
<text text-anchor="middle" x="217.5" y="-47.9" font-family="Helvetica,sans-Serif" font-size="12.00">FixtureCollection.FixtureEnumerator</text>
</a>
</g>
</g>
<!-- Node67&#45;&gt;Node70 -->
<g id="edge3" class="edge"><title>Node67&#45;&gt;Node70</title>
<path fill="none" stroke="midnightblue" d="M90.4514,-67.5192C104.723,-65.6489 120.675,-63.5583 136.305,-61.5098"/>
<polygon fill="midnightblue" stroke="midnightblue" points="89.846,-64.0685 80.3856,-68.8384 90.7557,-71.0092 89.846,-64.0685"/>
</g>
<!-- Node71 -->
<g id="node5" class="node"><title>Node71</title>
<g id="a_node5"><a xlink:href="structtainicom_1_1_aether_1_1_physics2_d_1_1_dynamics_1_1_joint_collection_1_1_joint_enumerator.html" target="_top" xlink:title=" ">
<polygon fill="none" stroke="black" points="126.5,-0.5 126.5,-21.5 308.5,-21.5 308.5,-0.5 126.5,-0.5"/>
<text text-anchor="middle" x="217.5" y="-7.9" font-family="Helvetica,sans-Serif" font-size="12.00">JointCollection.JointEnumerator</text>
</a>
</g>
</g>
<!-- Node67&#45;&gt;Node71 -->
<g id="edge4" class="edge"><title>Node67&#45;&gt;Node71</title>
<path fill="none" stroke="midnightblue" d="M64.7443,-57.7232C79.0286,-48.6236 97.8989,-37.7825 116,-31 126.162,-27.1923 137.187,-24.0636 148.088,-21.5066"/>
<polygon fill="midnightblue" stroke="midnightblue" points="62.529,-54.9898 56.0739,-63.3912 66.3592,-60.849 62.529,-54.9898"/>
</g>
</g>
</svg>
