<?xml version="1.0" encoding="UTF-8" standalone="no"?>
<!DOCTYPE svg PUBLIC "-//W3C//DTD SVG 1.1//EN"
 "http://www.w3.org/Graphics/SVG/1.1/DTD/svg11.dtd">
<!-- Generated by graphviz version 2.38.0 (20140413.2041)
 -->
<!-- Title: Graphical Class Hierarchy Pages: 1 -->
<svg width="188pt" height="150pt"
 viewBox="0.00 0.00 188.00 150.00" xmlns="http://www.w3.org/2000/svg" xmlns:xlink="http://www.w3.org/1999/xlink">
<g id="graph0" class="graph" transform="scale(1 1) rotate(0) translate(4 146)">
<title>Graphical Class Hierarchy</title>
<!-- Node0 -->
<g id="node1" class="node"><title>Node0</title>
<g id="a_node1"><a xlink:href="classtainicom_1_1_aether_1_1_physics2_d_1_1_collision_1_1_shapes_1_1_shape.html" target="_top" xlink:title="A shape is used for collision detection. You can create a shape however you like. Shapes used for sim...">
<polygon fill="none" stroke="black" points="0,-60.5 0,-81.5 51,-81.5 51,-60.5 0,-60.5"/>
<text text-anchor="middle" x="25.5" y="-67.9" font-family="Helvetica,sans-Serif" font-size="12.00">Shape</text>
</a>
</g>
</g>
<!-- Node1 -->
<g id="node2" class="node"><title>Node1</title>
<g id="a_node2"><a xlink:href="classtainicom_1_1_aether_1_1_physics2_d_1_1_collision_1_1_shapes_1_1_chain_shape.html" target="_top" xlink:title="A chain shape is a free form sequence of line segments. The chain has two&#45;sided collision,...">
<polygon fill="none" stroke="black" points="92.5,-120.5 92.5,-141.5 174.5,-141.5 174.5,-120.5 92.5,-120.5"/>
<text text-anchor="middle" x="133.5" y="-127.9" font-family="Helvetica,sans-Serif" font-size="12.00">ChainShape</text>
</a>
</g>
</g>
<!-- Node0&#45;&gt;Node1 -->
<g id="edge1" class="edge"><title>Node0&#45;&gt;Node1</title>
<path fill="none" stroke="midnightblue" d="M49.2622,-87.3775C60.3681,-95.0203 74.0896,-103.961 87,-111 93.0607,-114.304 99.7769,-117.497 106.147,-120.324"/>
<polygon fill="midnightblue" stroke="midnightblue" points="51.1827,-84.4496 40.9817,-81.5876 47.1714,-90.1864 51.1827,-84.4496"/>
</g>
<!-- Node2 -->
<g id="node3" class="node"><title>Node2</title>
<g id="a_node3"><a xlink:href="classtainicom_1_1_aether_1_1_physics2_d_1_1_collision_1_1_shapes_1_1_circle_shape.html" target="_top" xlink:title="A circle shape.">
<polygon fill="none" stroke="black" points="92.5,-80.5 92.5,-101.5 174.5,-101.5 174.5,-80.5 92.5,-80.5"/>
<text text-anchor="middle" x="133.5" y="-87.9" font-family="Helvetica,sans-Serif" font-size="12.00">CircleShape</text>
</a>
</g>
</g>
<!-- Node0&#45;&gt;Node2 -->
<g id="edge2" class="edge"><title>Node0&#45;&gt;Node2</title>
<path fill="none" stroke="midnightblue" d="M61.0468,-77.5183C71.0197,-79.3999 81.9886,-81.4695 92.2748,-83.4103"/>
<polygon fill="midnightblue" stroke="midnightblue" points="61.5605,-74.0535 51.085,-75.6387 60.2626,-80.9321 61.5605,-74.0535"/>
</g>
<!-- Node3 -->
<g id="node4" class="node"><title>Node3</title>
<g id="a_node4"><a xlink:href="classtainicom_1_1_aether_1_1_physics2_d_1_1_collision_1_1_shapes_1_1_edge_shape.html" target="_top" xlink:title="A line segment (edge) shape. These can be connected in chains or loops to other edge shapes....">
<polygon fill="none" stroke="black" points="93.5,-40.5 93.5,-61.5 173.5,-61.5 173.5,-40.5 93.5,-40.5"/>
<text text-anchor="middle" x="133.5" y="-47.9" font-family="Helvetica,sans-Serif" font-size="12.00">EdgeShape</text>
</a>
</g>
</g>
<!-- Node0&#45;&gt;Node3 -->
<g id="edge3" class="edge"><title>Node0&#45;&gt;Node3</title>
<path fill="none" stroke="midnightblue" d="M60.9335,-64.5031C71.2051,-62.5651 82.5416,-60.4261 93.1048,-58.433"/>
<polygon fill="midnightblue" stroke="midnightblue" points="60.2626,-61.0679 51.085,-66.3613 61.5605,-67.9465 60.2626,-61.0679"/>
</g>
<!-- Node4 -->
<g id="node5" class="node"><title>Node4</title>
<g id="a_node5"><a xlink:href="classtainicom_1_1_aether_1_1_physics2_d_1_1_collision_1_1_shapes_1_1_polygon_shape.html" target="_top" xlink:title="Represents a simple non&#45;selfintersecting convex polygon. Create a convex hull from the given array of...">
<polygon fill="none" stroke="black" points="87,-0.5 87,-21.5 180,-21.5 180,-0.5 87,-0.5"/>
<text text-anchor="middle" x="133.5" y="-7.9" font-family="Helvetica,sans-Serif" font-size="12.00">PolygonShape</text>
</a>
</g>
</g>
<!-- Node0&#45;&gt;Node4 -->
<g id="edge4" class="edge"><title>Node0&#45;&gt;Node4</title>
<path fill="none" stroke="midnightblue" d="M49.2622,-54.6225C60.3681,-46.9797 74.0896,-38.0389 87,-31 93.0607,-27.6956 99.7769,-24.5034 106.147,-21.6758"/>
<polygon fill="midnightblue" stroke="midnightblue" points="47.1714,-51.8136 40.9817,-60.4124 51.1827,-57.5504 47.1714,-51.8136"/>
</g>
</g>
</svg>
