<?xml version="1.0" encoding="UTF-8" standalone="no"?>
<!DOCTYPE svg PUBLIC "-//W3C//DTD SVG 1.1//EN"
 "http://www.w3.org/Graphics/SVG/1.1/DTD/svg11.dtd">
<!-- Generated by graphviz version 2.38.0 (20140413.2041)
 -->
<!-- Title: Graphical Class Hierarchy Pages: 1 -->
<svg width="223pt" height="70pt"
 viewBox="0.00 0.00 223.00 70.00" xmlns="http://www.w3.org/2000/svg" xmlns:xlink="http://www.w3.org/1999/xlink">
<g id="graph0" class="graph" transform="scale(1 1) rotate(0) translate(4 66)">
<title>Graphical Class Hierarchy</title>
<!-- Node20 -->
<g id="node1" class="node"><title>Node20</title>
<g id="a_node1"><a xlink:title=" ">
<polygon fill="none" stroke="#bfbfbf" points="0,-20.5 0,-41.5 69,-41.5 69,-20.5 0,-20.5"/>
<text text-anchor="middle" x="34.5" y="-27.9" font-family="Helvetica,sans-Serif" font-size="12.00">Dictionary</text>
</a>
</g>
</g>
<!-- Node0 -->
<g id="node2" class="node"><title>Node0</title>
<g id="a_node2"><a xlink:href="classtainicom_1_1_aether_1_1_physics2_d_1_1_content_1_1_body_container.html" target="_top" xlink:title=" ">
<polygon fill="none" stroke="black" points="112.5,-40.5 112.5,-61.5 207.5,-61.5 207.5,-40.5 112.5,-40.5"/>
<text text-anchor="middle" x="160" y="-47.9" font-family="Helvetica,sans-Serif" font-size="12.00">BodyContainer</text>
</a>
</g>
</g>
<!-- Node20&#45;&gt;Node0 -->
<g id="edge1" class="edge"><title>Node20&#45;&gt;Node0</title>
<path fill="none" stroke="midnightblue" d="M79.2368,-38.0829C89.9598,-39.8194 101.477,-41.6845 112.332,-43.4424"/>
<polygon fill="midnightblue" stroke="midnightblue" points="79.6779,-34.6088 69.2469,-36.4651 78.5588,-41.5188 79.6779,-34.6088"/>
</g>
<!-- Node22 -->
<g id="node3" class="node"><title>Node22</title>
<g id="a_node3"><a xlink:href="classtainicom_1_1_aether_1_1_physics2_d_1_1_content_1_1_polygon_container.html" target="_top" xlink:title=" ">
<polygon fill="none" stroke="black" points="105,-0.5 105,-21.5 215,-21.5 215,-0.5 105,-0.5"/>
<text text-anchor="middle" x="160" y="-7.9" font-family="Helvetica,sans-Serif" font-size="12.00">PolygonContainer</text>
</a>
</g>
</g>
<!-- Node20&#45;&gt;Node22 -->
<g id="edge2" class="edge"><title>Node20&#45;&gt;Node22</title>
<path fill="none" stroke="midnightblue" d="M79.3902,-23.8923C87.6335,-22.5573 96.3414,-21.1471 104.854,-19.7687"/>
<polygon fill="midnightblue" stroke="midnightblue" points="78.5588,-20.4812 69.2469,-25.5349 79.6779,-27.3912 78.5588,-20.4812"/>
</g>
</g>
</svg>
