<?xml version="1.0" encoding="UTF-8" standalone="no"?>
<!DOCTYPE svg PUBLIC "-//W3C//DTD SVG 1.1//EN"
 "http://www.w3.org/Graphics/SVG/1.1/DTD/svg11.dtd">
<!-- Generated by graphviz version 2.38.0 (20140413.2041)
 -->
<!-- Title: Graphical Class Hierarchy Pages: 1 -->
<svg width="281pt" height="70pt"
 viewBox="0.00 0.00 281.00 70.00" xmlns="http://www.w3.org/2000/svg" xmlns:xlink="http://www.w3.org/1999/xlink">
<g id="graph0" class="graph" transform="scale(1 1) rotate(0) translate(4 66)">
<title>Graphical Class Hierarchy</title>
<!-- Node0 -->
<g id="node1" class="node"><title>Node0</title>
<g id="a_node1"><a xlink:href="interfacetainicom_1_1_aether_1_1_physics2_d_1_1_collision_1_1_i_broad_phase.html" target="_top" xlink:title=" ">
<polygon fill="none" stroke="black" points="0,-20.5 0,-41.5 85,-41.5 85,-20.5 0,-20.5"/>
<text text-anchor="middle" x="42.5" y="-27.9" font-family="Helvetica,sans-Serif" font-size="12.00">IBroadPhase</text>
</a>
</g>
</g>
<!-- Node1 -->
<g id="node2" class="node"><title>Node1</title>
<g id="a_node2"><a xlink:href="classtainicom_1_1_aether_1_1_physics2_d_1_1_collision_1_1_dynamic_tree_broad_phase.html" target="_top" xlink:title="The broad&#45;phase is used for computing pairs and performing volume queries and ray casts....">
<polygon fill="none" stroke="black" points="121,-40.5 121,-61.5 273,-61.5 273,-40.5 121,-40.5"/>
<text text-anchor="middle" x="197" y="-47.9" font-family="Helvetica,sans-Serif" font-size="12.00">DynamicTreeBroadPhase</text>
</a>
</g>
</g>
<!-- Node0&#45;&gt;Node1 -->
<g id="edge1" class="edge"><title>Node0&#45;&gt;Node1</title>
<path fill="none" stroke="midnightblue" d="M95.0878,-37.7656C103.422,-38.8586 112.197,-40.0094 120.951,-41.1575"/>
<polygon fill="midnightblue" stroke="midnightblue" points="95.5415,-34.2952 85.1713,-36.4651 94.6312,-41.2358 95.5415,-34.2952"/>
</g>
<!-- Node2 -->
<g id="node3" class="node"><title>Node2</title>
<g id="a_node3"><a xlink:href="classtainicom_1_1_aether_1_1_physics2_d_1_1_collision_1_1_quad_tree_broad_phase.html" target="_top" xlink:title=" ">
<polygon fill="none" stroke="black" points="129.5,-0.5 129.5,-21.5 264.5,-21.5 264.5,-0.5 129.5,-0.5"/>
<text text-anchor="middle" x="197" y="-7.9" font-family="Helvetica,sans-Serif" font-size="12.00">QuadTreeBroadPhase</text>
</a>
</g>
</g>
<!-- Node0&#45;&gt;Node2 -->
<g id="edge2" class="edge"><title>Node0&#45;&gt;Node2</title>
<path fill="none" stroke="midnightblue" d="M95.3998,-24.1935C106.343,-22.7583 118.033,-21.2252 129.43,-19.7305"/>
<polygon fill="midnightblue" stroke="midnightblue" points="94.6312,-20.7642 85.1713,-25.5349 95.5415,-27.7048 94.6312,-20.7642"/>
</g>
</g>
</svg>
