<?xml version="1.0" encoding="UTF-8" standalone="no"?>
<!DOCTYPE svg PUBLIC "-//W3C//DTD SVG 1.1//EN"
 "http://www.w3.org/Graphics/SVG/1.1/DTD/svg11.dtd">
<!-- Generated by graphviz version 2.38.0 (20140413.2041)
 -->
<!-- Title: Graphical Class Hierarchy Pages: 1 -->
<svg width="315pt" height="70pt"
 viewBox="0.00 0.00 315.00 70.00" xmlns="http://www.w3.org/2000/svg" xmlns:xlink="http://www.w3.org/1999/xlink">
<g id="graph0" class="graph" transform="scale(1 1) rotate(0) translate(4 66)">
<title>Graphical Class Hierarchy</title>
<!-- Node16 -->
<g id="node1" class="node"><title>Node16</title>
<g id="a_node1"><a xlink:title=" ">
<polygon fill="none" stroke="#bfbfbf" points="0,-20.5 0,-41.5 122,-41.5 122,-20.5 0,-20.5"/>
<text text-anchor="middle" x="61" y="-27.9" font-family="Helvetica,sans-Serif" font-size="12.00">ContentTypeReader</text>
</a>
</g>
</g>
<!-- Node0 -->
<g id="node2" class="node"><title>Node0</title>
<g id="a_node2"><a xlink:href="classtainicom_1_1_aether_1_1_physics2_d_1_1_content_1_1_body_container_reader.html" target="_top" xlink:title=" ">
<polygon fill="none" stroke="black" points="165.5,-40.5 165.5,-61.5 299.5,-61.5 299.5,-40.5 165.5,-40.5"/>
<text text-anchor="middle" x="232.5" y="-47.9" font-family="Helvetica,sans-Serif" font-size="12.00">BodyContainerReader</text>
</a>
</g>
</g>
<!-- Node16&#45;&gt;Node0 -->
<g id="edge1" class="edge"><title>Node16&#45;&gt;Node0</title>
<path fill="none" stroke="midnightblue" d="M132.21,-39.2844C143.197,-40.5808 154.521,-41.9169 165.411,-43.2019"/>
<polygon fill="midnightblue" stroke="midnightblue" points="132.578,-35.8036 122.237,-38.1076 131.758,-42.7554 132.578,-35.8036"/>
</g>
<!-- Node18 -->
<g id="node3" class="node"><title>Node18</title>
<g id="a_node3"><a xlink:href="classtainicom_1_1_aether_1_1_physics2_d_1_1_content_1_1_polygon_container_reader.html" target="_top" xlink:title=" ">
<polygon fill="none" stroke="black" points="158,-0.5 158,-21.5 307,-21.5 307,-0.5 158,-0.5"/>
<text text-anchor="middle" x="232.5" y="-7.9" font-family="Helvetica,sans-Serif" font-size="12.00">PolygonContainerReader</text>
</a>
</g>
</g>
<!-- Node16&#45;&gt;Node18 -->
<g id="edge2" class="edge"><title>Node16&#45;&gt;Node18</title>
<path fill="none" stroke="midnightblue" d="M132.364,-22.6975C140.764,-21.7063 149.358,-20.6922 157.804,-19.6957"/>
<polygon fill="midnightblue" stroke="midnightblue" points="131.758,-19.2446 122.237,-23.8924 132.578,-26.1964 131.758,-19.2446"/>
</g>
</g>
</svg>
