<?xml version="1.0" encoding="UTF-8" standalone="no"?>
<!DOCTYPE svg PUBLIC "-//W3C//DTD SVG 1.1//EN"
 "http://www.w3.org/Graphics/SVG/1.1/DTD/svg11.dtd">
<!-- Generated by graphviz version 2.38.0 (20140413.2041)
 -->
<!-- Title: Graphical Class Hierarchy Pages: 1 -->
<svg width="522pt" height="230pt"
 viewBox="0.00 0.00 522.00 230.00" xmlns="http://www.w3.org/2000/svg" xmlns:xlink="http://www.w3.org/1999/xlink">
<g id="graph0" class="graph" transform="scale(1 1) rotate(0) translate(4 226)">
<title>Graphical Class Hierarchy</title>
<!-- Node0 -->
<g id="node1" class="node"><title>Node0</title>
<g id="a_node1"><a xlink:href="classtainicom_1_1_aether_1_1_physics2_d_1_1_common_1_1_physics_logic_1_1_filter_data.html" target="_top" xlink:title="Contains filter data that can determine whether an object should be processed or not.">
<polygon fill="none" stroke="black" points="0,-120.5 0,-141.5 68,-141.5 68,-120.5 0,-120.5"/>
<text text-anchor="middle" x="34" y="-127.9" font-family="Helvetica,sans-Serif" font-size="12.00">FilterData</text>
</a>
</g>
</g>
<!-- Node1 -->
<g id="node2" class="node"><title>Node1</title>
<g id="a_node2"><a xlink:href="classtainicom_1_1_aether_1_1_physics2_d_1_1_common_1_1_physics_logic_1_1_physics_logic.html" target="_top" xlink:title=" ">
<polygon fill="none" stroke="black" points="104,-160.5 104,-181.5 190,-181.5 190,-160.5 104,-160.5"/>
<text text-anchor="middle" x="147" y="-167.9" font-family="Helvetica,sans-Serif" font-size="12.00">PhysicsLogic</text>
</a>
</g>
</g>
<!-- Node0&#45;&gt;Node1 -->
<g id="edge1" class="edge"><title>Node0&#45;&gt;Node1</title>
<path fill="none" stroke="midnightblue" d="M73.6283,-144.92C87.7441,-150.007 103.469,-155.674 116.645,-160.422"/>
<polygon fill="midnightblue" stroke="midnightblue" points="74.7583,-141.607 64.1639,-141.51 72.3852,-148.193 74.7583,-141.607"/>
</g>
<!-- Node4 -->
<g id="node5" class="node"><title>Node4</title>
<g id="a_node5"><a xlink:href="classtainicom_1_1_aether_1_1_physics2_d_1_1_controllers_1_1_controller.html" target="_top" xlink:title=" ">
<polygon fill="none" stroke="black" points="113.5,-80.5 113.5,-101.5 180.5,-101.5 180.5,-80.5 113.5,-80.5"/>
<text text-anchor="middle" x="147" y="-87.9" font-family="Helvetica,sans-Serif" font-size="12.00">Controller</text>
</a>
</g>
</g>
<!-- Node0&#45;&gt;Node4 -->
<g id="edge4" class="edge"><title>Node0&#45;&gt;Node4</title>
<path fill="none" stroke="midnightblue" d="M73.6283,-117.08C87.7441,-111.993 103.469,-106.326 116.645,-101.578"/>
<polygon fill="midnightblue" stroke="midnightblue" points="72.3852,-113.807 64.1639,-120.49 74.7583,-120.393 72.3852,-113.807"/>
</g>
<!-- Node2 -->
<g id="node3" class="node"><title>Node2</title>
<g id="a_node3"><a xlink:href="classtainicom_1_1_aether_1_1_physics2_d_1_1_common_1_1_physics_logic_1_1_real_explosion.html" target="_top" xlink:title="Creates a realistic explosion based on raycasting. Objects in the open will be affected,...">
<polygon fill="none" stroke="black" points="250.5,-200.5 250.5,-221.5 342.5,-221.5 342.5,-200.5 250.5,-200.5"/>
<text text-anchor="middle" x="296.5" y="-207.9" font-family="Helvetica,sans-Serif" font-size="12.00">RealExplosion</text>
</a>
</g>
</g>
<!-- Node1&#45;&gt;Node2 -->
<g id="edge2" class="edge"><title>Node1&#45;&gt;Node2</title>
<path fill="none" stroke="midnightblue" d="M196.412,-184.129C215.988,-189.438 238.276,-195.482 256.749,-200.491"/>
<polygon fill="midnightblue" stroke="midnightblue" points="197.321,-180.749 186.754,-181.51 195.489,-187.505 197.321,-180.749"/>
</g>
<!-- Node3 -->
<g id="node4" class="node"><title>Node3</title>
<g id="a_node4"><a xlink:href="classtainicom_1_1_aether_1_1_physics2_d_1_1_common_1_1_physics_logic_1_1_simple_explosion.html" target="_top" xlink:title="Creates a simple explosion that ignores other bodies hiding behind static bodies.">
<polygon fill="none" stroke="black" points="244.5,-160.5 244.5,-181.5 348.5,-181.5 348.5,-160.5 244.5,-160.5"/>
<text text-anchor="middle" x="296.5" y="-167.9" font-family="Helvetica,sans-Serif" font-size="12.00">SimpleExplosion</text>
</a>
</g>
</g>
<!-- Node1&#45;&gt;Node3 -->
<g id="edge3" class="edge"><title>Node1&#45;&gt;Node3</title>
<path fill="none" stroke="midnightblue" d="M200.419,-171C214.69,-171 230.126,-171 244.327,-171"/>
<polygon fill="midnightblue" stroke="midnightblue" points="200.268,-167.5 190.268,-171 200.268,-174.5 200.268,-167.5"/>
</g>
<!-- Node5 -->
<g id="node6" class="node"><title>Node5</title>
<g id="a_node6"><a xlink:href="classtainicom_1_1_aether_1_1_physics2_d_1_1_controllers_1_1_abstract_force_controller.html" target="_top" xlink:title=" ">
<polygon fill="none" stroke="black" points="226,-120.5 226,-141.5 367,-141.5 367,-120.5 226,-120.5"/>
<text text-anchor="middle" x="296.5" y="-127.9" font-family="Helvetica,sans-Serif" font-size="12.00">AbstractForceController</text>
</a>
</g>
</g>
<!-- Node4&#45;&gt;Node5 -->
<g id="edge5" class="edge"><title>Node4&#45;&gt;Node5</title>
<path fill="none" stroke="midnightblue" d="M190.589,-102.55C211.404,-108.194 236.276,-114.939 256.577,-120.445"/>
<polygon fill="midnightblue" stroke="midnightblue" points="191.303,-99.1167 180.735,-99.8773 189.47,-105.873 191.303,-99.1167"/>
</g>
<!-- Node7 -->
<g id="node8" class="node"><title>Node7</title>
<g id="a_node8"><a xlink:href="classtainicom_1_1_aether_1_1_physics2_d_1_1_controllers_1_1_buoyancy_controller.html" target="_top" xlink:title=" ">
<polygon fill="none" stroke="black" points="238,-80.5 238,-101.5 355,-101.5 355,-80.5 238,-80.5"/>
<text text-anchor="middle" x="296.5" y="-87.9" font-family="Helvetica,sans-Serif" font-size="12.00">BuoyancyController</text>
</a>
</g>
</g>
<!-- Node4&#45;&gt;Node7 -->
<g id="edge7" class="edge"><title>Node4&#45;&gt;Node7</title>
<path fill="none" stroke="midnightblue" d="M191.016,-91C205.672,-91 222.3,-91 237.912,-91"/>
<polygon fill="midnightblue" stroke="midnightblue" points="190.735,-87.5001 180.735,-91 190.735,-94.5001 190.735,-87.5001"/>
</g>
<!-- Node8 -->
<g id="node9" class="node"><title>Node8</title>
<g id="a_node9"><a xlink:href="classtainicom_1_1_aether_1_1_physics2_d_1_1_controllers_1_1_gravity_controller.html" target="_top" xlink:title=" ">
<polygon fill="none" stroke="black" points="245,-40.5 245,-61.5 348,-61.5 348,-40.5 245,-40.5"/>
<text text-anchor="middle" x="296.5" y="-47.9" font-family="Helvetica,sans-Serif" font-size="12.00">GravityController</text>
</a>
</g>
</g>
<!-- Node4&#45;&gt;Node8 -->
<g id="edge8" class="edge"><title>Node4&#45;&gt;Node8</title>
<path fill="none" stroke="midnightblue" d="M190.589,-79.4504C211.404,-73.8058 236.276,-67.0608 256.577,-61.5553"/>
<polygon fill="midnightblue" stroke="midnightblue" points="189.47,-76.1273 180.735,-82.1227 191.303,-82.8833 189.47,-76.1273"/>
</g>
<!-- Node9 -->
<g id="node10" class="node"><title>Node9</title>
<g id="a_node10"><a xlink:href="classtainicom_1_1_aether_1_1_physics2_d_1_1_controllers_1_1_velocity_limit_controller.html" target="_top" xlink:title="Put a limit on the linear (translation &#45; the movespeed) and angular (rotation) velocity of bodies add...">
<polygon fill="none" stroke="black" points="229.5,-0.5 229.5,-21.5 363.5,-21.5 363.5,-0.5 229.5,-0.5"/>
<text text-anchor="middle" x="296.5" y="-7.9" font-family="Helvetica,sans-Serif" font-size="12.00">VelocityLimitController</text>
</a>
</g>
</g>
<!-- Node4&#45;&gt;Node9 -->
<g id="edge9" class="edge"><title>Node4&#45;&gt;Node9</title>
<path fill="none" stroke="midnightblue" d="M166.767,-73.278C181.765,-59.9694 203.871,-42.1835 226,-31 233.396,-27.2622 241.598,-24.1224 249.698,-21.5206"/>
<polygon fill="midnightblue" stroke="midnightblue" points="164.261,-70.8264 159.212,-80.1406 168.967,-76.0081 164.261,-70.8264"/>
</g>
<!-- Node6 -->
<g id="node7" class="node"><title>Node6</title>
<g id="a_node7"><a xlink:href="classtainicom_1_1_aether_1_1_physics2_d_1_1_controllers_1_1_simple_wind_force.html" target="_top" xlink:title="Reference implementation for forces based on AbstractForceController It supports all features provide...">
<polygon fill="none" stroke="black" points="403,-120.5 403,-141.5 514,-141.5 514,-120.5 403,-120.5"/>
<text text-anchor="middle" x="458.5" y="-127.9" font-family="Helvetica,sans-Serif" font-size="12.00">SimpleWindForce</text>
</a>
</g>
</g>
<!-- Node5&#45;&gt;Node6 -->
<g id="edge6" class="edge"><title>Node5&#45;&gt;Node6</title>
<path fill="none" stroke="midnightblue" d="M377.352,-131C386.011,-131 394.672,-131 402.93,-131"/>
<polygon fill="midnightblue" stroke="midnightblue" points="377.213,-127.5 367.213,-131 377.213,-134.5 377.213,-127.5"/>
</g>
</g>
</svg>
