<?xml version="1.0" encoding="UTF-8" standalone="no"?>
<!DOCTYPE svg PUBLIC "-//W3C//DTD SVG 1.1//EN"
 "http://www.w3.org/Graphics/SVG/1.1/DTD/svg11.dtd">
<!-- Generated by graphviz version 2.38.0 (20140413.2041)
 -->
<!-- Title: IBroadPhase Pages: 1 -->
<svg width="314pt" height="88pt"
 viewBox="0.00 0.00 313.50 88.00" xmlns="http://www.w3.org/2000/svg" xmlns:xlink="http://www.w3.org/1999/xlink">
<g id="graph0" class="graph" transform="scale(1 1) rotate(0) translate(4 84)">
<title>IBroadPhase</title>
<!-- Node1 -->
<g id="node1" class="node"><title>Node1</title>
<g id="a_node1"><a xlink:title=" ">
<polygon fill="#bfbfbf" stroke="black" points="114.5,-58.5 114.5,-79.5 199.5,-79.5 199.5,-58.5 114.5,-58.5"/>
<text text-anchor="middle" x="157" y="-65.9" font-family="Helvetica,sans-Serif" font-size="12.00">IBroadPhase</text>
</a>
</g>
</g>
<!-- Node2 -->
<g id="node2" class="node"><title>Node2</title>
<g id="a_node2"><a xlink:href="classtainicom_1_1_aether_1_1_physics2_d_1_1_collision_1_1_dynamic_tree_broad_phase.html" target="_top" xlink:title="The broad&#45;phase is used for computing pairs and performing volume queries and ray casts....">
<polygon fill="none" stroke="black" points="0,-0.5 0,-21.5 152,-21.5 152,-0.5 0,-0.5"/>
<text text-anchor="middle" x="76" y="-7.9" font-family="Helvetica,sans-Serif" font-size="12.00">DynamicTreeBroadPhase</text>
</a>
</g>
</g>
<!-- Node1&#45;&gt;Node2 -->
<g id="edge1" class="edge"><title>Node1&#45;&gt;Node2</title>
<path fill="none" stroke="midnightblue" d="M134.566,-52.49C120.275,-42.6096 102.208,-30.1194 89.9474,-21.6427"/>
<polygon fill="midnightblue" stroke="midnightblue" points="132.675,-55.4376 142.891,-58.2455 136.656,-49.6797 132.675,-55.4376"/>
</g>
<!-- Node3 -->
<g id="node3" class="node"><title>Node3</title>
<g id="a_node3"><a xlink:href="classtainicom_1_1_aether_1_1_physics2_d_1_1_collision_1_1_quad_tree_broad_phase.html" target="_top" xlink:title=" ">
<polygon fill="none" stroke="black" points="170.5,-0.5 170.5,-21.5 305.5,-21.5 305.5,-0.5 170.5,-0.5"/>
<text text-anchor="middle" x="238" y="-7.9" font-family="Helvetica,sans-Serif" font-size="12.00">QuadTreeBroadPhase</text>
</a>
</g>
</g>
<!-- Node1&#45;&gt;Node3 -->
<g id="edge2" class="edge"><title>Node1&#45;&gt;Node3</title>
<path fill="none" stroke="midnightblue" d="M179.434,-52.49C193.725,-42.6096 211.792,-30.1194 224.053,-21.6427"/>
<polygon fill="midnightblue" stroke="midnightblue" points="177.344,-49.6797 171.109,-58.2455 181.325,-55.4376 177.344,-49.6797"/>
</g>
</g>
</svg>
