<?xml version="1.0" encoding="UTF-8" standalone="no"?>
<!DOCTYPE svg PUBLIC "-//W3C//DTD SVG 1.1//EN"
 "http://www.w3.org/Graphics/SVG/1.1/DTD/svg11.dtd">
<!-- Generated by graphviz version 2.38.0 (20140413.2041)
 -->
<!-- Title: FixtureProxy Pages: 1 -->
<svg width="173pt" height="185pt"
 viewBox="0.00 0.00 173.00 185.00" xmlns="http://www.w3.org/2000/svg" xmlns:xlink="http://www.w3.org/1999/xlink">
<g id="graph0" class="graph" transform="scale(1 1) rotate(0) translate(4 181)">
<title>FixtureProxy</title>
<!-- Node1 -->
<g id="node1" class="node"><title>Node1</title>
<g id="a_node1"><a xlink:title="This proxy is used internally to connect fixtures to the broad&#45;phase.">
<polygon fill="#bfbfbf" stroke="black" points="17.5,-0.5 17.5,-21.5 98.5,-21.5 98.5,-0.5 17.5,-0.5"/>
<text text-anchor="middle" x="58" y="-7.9" font-family="Helvetica,sans-Serif" font-size="12.00">FixtureProxy</text>
</a>
</g>
</g>
<!-- Node2 -->
<g id="node2" class="node"><title>Node2</title>
<g id="a_node2"><a xlink:href="classtainicom_1_1_aether_1_1_physics2_d_1_1_dynamics_1_1_fixture.html" target="_top" xlink:title="A fixture is used to attach a Shape to a body for collision detection. A fixture inherits its transfo...">
<polygon fill="none" stroke="black" points="0,-71.5 0,-92.5 52,-92.5 52,-71.5 0,-71.5"/>
<text text-anchor="middle" x="26" y="-78.9" font-family="Helvetica,sans-Serif" font-size="12.00">Fixture</text>
</a>
</g>
</g>
<!-- Node2&#45;&gt;Node1 -->
<g id="edge1" class="edge"><title>Node2&#45;&gt;Node1</title>
<path fill="none" stroke="#9a32cd" stroke-dasharray="5,2" d="M25.2294,-61.3058C25.6396,-54.3004 26.9127,-46.5353 30,-40 33.3475,-32.9138 39.2662,-26.5863 44.8022,-21.7469"/>
<polygon fill="#9a32cd" stroke="#9a32cd" points="21.7289,-61.3787 25.1585,-71.403 28.7288,-61.4279 21.7289,-61.3787"/>
<text text-anchor="middle" x="49.5" y="-43.4" font-family="Helvetica,sans-Serif" font-size="12.00"> Fixture</text>
</g>
<!-- Node3 -->
<g id="node3" class="node"><title>Node3</title>
<g id="a_node3"><a xlink:href="structtainicom_1_1_aether_1_1_physics2_d_1_1_collision_1_1_a_a_b_b.html" target="_top" xlink:title="An axis aligned bounding box.">
<polygon fill="none" stroke="black" points="70,-71.5 70,-92.5 120,-92.5 120,-71.5 70,-71.5"/>
<text text-anchor="middle" x="95" y="-78.9" font-family="Helvetica,sans-Serif" font-size="12.00">AABB</text>
</a>
</g>
</g>
<!-- Node3&#45;&gt;Node1 -->
<g id="edge2" class="edge"><title>Node3&#45;&gt;Node1</title>
<path fill="none" stroke="#9a32cd" stroke-dasharray="5,2" d="M84.9517,-62.2613C77.8824,-49.0779 68.7157,-31.9834 63.101,-21.5127"/>
<polygon fill="#9a32cd" stroke="#9a32cd" points="82.045,-64.247 89.8553,-71.4058 88.214,-60.9389 82.045,-64.247"/>
<text text-anchor="middle" x="97.5" y="-43.4" font-family="Helvetica,sans-Serif" font-size="12.00"> AABB</text>
</g>
<!-- Node4 -->
<g id="node4" class="node"><title>Node4</title>
<g id="a_node4"><a xlink:href="structtainicom_1_1_aether_1_1_physics2_d_1_1_common_1_1_vector2.html" target="_top" xlink:title=" ">
<polygon fill="none" stroke="red" points="66,-155.5 66,-176.5 124,-176.5 124,-155.5 66,-155.5"/>
<text text-anchor="middle" x="95" y="-162.9" font-family="Helvetica,sans-Serif" font-size="12.00">Vector2</text>
</a>
</g>
</g>
<!-- Node4&#45;&gt;Node3 -->
<g id="edge3" class="edge"><title>Node4&#45;&gt;Node3</title>
<path fill="none" stroke="#9a32cd" stroke-dasharray="5,2" d="M95,-144.99C95,-128.4 95,-105.532 95,-92.7158"/>
<polygon fill="#9a32cd" stroke="#9a32cd" points="91.5001,-145.271 95,-155.272 98.5001,-145.272 91.5001,-145.271"/>
<text text-anchor="middle" x="130" y="-127.4" font-family="Helvetica,sans-Serif" font-size="12.00"> LowerBound</text>
<text text-anchor="middle" x="130" y="-114.4" font-family="Helvetica,sans-Serif" font-size="12.00">UpperBound</text>
</g>
</g>
</svg>
