<?xml version="1.0" encoding="UTF-8" standalone="no"?>
<!DOCTYPE svg PUBLIC "-//W3C//DTD SVG 1.1//EN"
 "http://www.w3.org/Graphics/SVG/1.1/DTD/svg11.dtd">
<!-- Generated by graphviz version 2.38.0 (20140413.2041)
 -->
<!-- Title: Manifold Pages: 1 -->
<svg width="327pt" height="186pt"
 viewBox="0.00 0.00 327.00 186.00" xmlns="http://www.w3.org/2000/svg" xmlns:xlink="http://www.w3.org/1999/xlink">
<g id="graph0" class="graph" transform="scale(1 1) rotate(0) translate(4 182)">
<title>Manifold</title>
<!-- Node1 -->
<g id="node1" class="node"><title>Node1</title>
<g id="a_node1"><a xlink:title="A manifold for two touching convex Shapes. Box2D supports multiple types of contact:">
<polygon fill="#bfbfbf" stroke="black" points="124,-0.5 124,-21.5 185,-21.5 185,-0.5 124,-0.5"/>
<text text-anchor="middle" x="154.5" y="-7.9" font-family="Helvetica,sans-Serif" font-size="12.00">Manifold</text>
</a>
</g>
</g>
<!-- Node2 -->
<g id="node2" class="node"><title>Node2</title>
<g id="a_node2"><a xlink:href="structtainicom_1_1_aether_1_1_physics2_d_1_1_common_1_1_fixed_array2.html" target="_top" xlink:title=" ">
<polygon fill="none" stroke="black" points="0,-84.5 0,-118.5 205,-118.5 205,-84.5 0,-84.5"/>
<text text-anchor="start" x="8" y="-104.9" font-family="Helvetica,sans-Serif" font-size="12.00">FixedArray2&lt; tainicom.Aether.</text>
<text text-anchor="middle" x="102.5" y="-91.9" font-family="Helvetica,sans-Serif" font-size="12.00">Physics2D.Collision.ManifoldPoint &gt;</text>
</a>
</g>
</g>
<!-- Node2&#45;&gt;Node1 -->
<g id="edge1" class="edge"><title>Node2&#45;&gt;Node1</title>
<path fill="none" stroke="#9a32cd" stroke-dasharray="5,2" d="M117.219,-75.4498C127.754,-57.5204 141.354,-34.3739 148.873,-21.5762"/>
<polygon fill="#9a32cd" stroke="#9a32cd" points="114.086,-73.8728 112.038,-84.2677 120.121,-77.419 114.086,-73.8728"/>
<text text-anchor="middle" x="157" y="-49.9" font-family="Helvetica,sans-Serif" font-size="12.00"> Points</text>
</g>
<!-- Node3 -->
<g id="node3" class="node"><title>Node3</title>
<g id="a_node3"><a xlink:href="structtainicom_1_1_aether_1_1_physics2_d_1_1_common_1_1_vector2.html" target="_top" xlink:title=" ">
<polygon fill="none" stroke="black" points="223.5,-91 223.5,-112 281.5,-112 281.5,-91 223.5,-91"/>
<text text-anchor="middle" x="252.5" y="-98.4" font-family="Helvetica,sans-Serif" font-size="12.00">Vector2</text>
</a>
</g>
</g>
<!-- Node3&#45;&gt;Node1 -->
<g id="edge2" class="edge"><title>Node3&#45;&gt;Node1</title>
<path fill="none" stroke="#9a32cd" stroke-dasharray="5,2" d="M233.954,-83.7521C213.592,-65.3632 181.602,-36.475 165.113,-21.5841"/>
<polygon fill="#9a32cd" stroke="#9a32cd" points="231.87,-86.5862 241.638,-90.6908 236.562,-81.391 231.87,-86.5862"/>
<text text-anchor="middle" x="246.5" y="-56.4" font-family="Helvetica,sans-Serif" font-size="12.00"> LocalNormal</text>
<text text-anchor="middle" x="246.5" y="-43.4" font-family="Helvetica,sans-Serif" font-size="12.00">LocalPoint</text>
</g>
<!-- Node4 -->
<g id="node4" class="node"><title>Node4</title>
<g id="a_node4"><a xlink:title=" ">
<polygon fill="none" stroke="#bfbfbf" points="186,-156.5 186,-177.5 319,-177.5 319,-156.5 186,-156.5"/>
<text text-anchor="middle" x="252.5" y="-163.9" font-family="Helvetica,sans-Serif" font-size="12.00">IEquatable&lt; Vector2 &gt;</text>
</a>
</g>
</g>
<!-- Node4&#45;&gt;Node3 -->
<g id="edge3" class="edge"><title>Node4&#45;&gt;Node3</title>
<path fill="none" stroke="midnightblue" d="M252.5,-146.111C252.5,-134.831 252.5,-121.218 252.5,-112.235"/>
<polygon fill="midnightblue" stroke="midnightblue" points="249,-146.356 252.5,-156.356 256,-146.356 249,-146.356"/>
</g>
</g>
</svg>
