<?xml version="1.0" encoding="UTF-8" standalone="no"?>
<!DOCTYPE svg PUBLIC "-//W3C//DTD SVG 1.1//EN"
 "http://www.w3.org/Graphics/SVG/1.1/DTD/svg11.dtd">
<!-- Generated by graphviz version 2.38.0 (20140413.2041)
 -->
<!-- Title: RayCastOutput Pages: 1 -->
<svg width="141pt" height="160pt"
 viewBox="0.00 0.00 141.00 160.00" xmlns="http://www.w3.org/2000/svg" xmlns:xlink="http://www.w3.org/1999/xlink">
<g id="graph0" class="graph" transform="scale(1 1) rotate(0) translate(4 156)">
<title>RayCastOutput</title>
<!-- Node1 -->
<g id="node1" class="node"><title>Node1</title>
<g id="a_node1"><a xlink:title="Ray&#45;cast output data.">
<polygon fill="#bfbfbf" stroke="black" points="19,-0.5 19,-21.5 114,-21.5 114,-0.5 19,-0.5"/>
<text text-anchor="middle" x="66.5" y="-7.9" font-family="Helvetica,sans-Serif" font-size="12.00">RayCastOutput</text>
</a>
</g>
</g>
<!-- Node2 -->
<g id="node2" class="node"><title>Node2</title>
<g id="a_node2"><a xlink:href="structtainicom_1_1_aether_1_1_physics2_d_1_1_common_1_1_vector2.html" target="_top" xlink:title=" ">
<polygon fill="none" stroke="black" points="37.5,-71.5 37.5,-92.5 95.5,-92.5 95.5,-71.5 37.5,-71.5"/>
<text text-anchor="middle" x="66.5" y="-78.9" font-family="Helvetica,sans-Serif" font-size="12.00">Vector2</text>
</a>
</g>
</g>
<!-- Node2&#45;&gt;Node1 -->
<g id="edge1" class="edge"><title>Node2&#45;&gt;Node1</title>
<path fill="none" stroke="#9a32cd" stroke-dasharray="5,2" d="M66.5,-61.0882C66.5,-48.0781 66.5,-31.6754 66.5,-21.5127"/>
<polygon fill="#9a32cd" stroke="#9a32cd" points="63.0001,-61.4058 66.5,-71.4058 70.0001,-61.4059 63.0001,-61.4058"/>
<text text-anchor="middle" x="87" y="-43.4" font-family="Helvetica,sans-Serif" font-size="12.00"> Normal</text>
</g>
<!-- Node3 -->
<g id="node3" class="node"><title>Node3</title>
<g id="a_node3"><a xlink:title=" ">
<polygon fill="none" stroke="#bfbfbf" points="0,-130.5 0,-151.5 133,-151.5 133,-130.5 0,-130.5"/>
<text text-anchor="middle" x="66.5" y="-137.9" font-family="Helvetica,sans-Serif" font-size="12.00">IEquatable&lt; Vector2 &gt;</text>
</a>
</g>
</g>
<!-- Node3&#45;&gt;Node2 -->
<g id="edge2" class="edge"><title>Node3&#45;&gt;Node2</title>
<path fill="none" stroke="midnightblue" d="M66.5,-120.234C66.5,-110.849 66.5,-100.065 66.5,-92.5265"/>
<polygon fill="midnightblue" stroke="midnightblue" points="63.0001,-120.331 66.5,-130.331 70.0001,-120.331 63.0001,-120.331"/>
</g>
</g>
</svg>
