<?xml version="1.0" encoding="UTF-8" standalone="no"?>
<!DOCTYPE svg PUBLIC "-//W3C//DTD SVG 1.1//EN"
 "http://www.w3.org/Graphics/SVG/1.1/DTD/svg11.dtd">
<!-- Generated by graphviz version 2.38.0 (20140413.2041)
 -->
<!-- Title: ReferenceFace Pages: 1 -->
<svg width="142pt" height="212pt"
 viewBox="0.00 0.00 141.50 212.00" xmlns="http://www.w3.org/2000/svg" xmlns:xlink="http://www.w3.org/1999/xlink">
<g id="graph0" class="graph" transform="scale(1 1) rotate(0) translate(4 208)">
<title>ReferenceFace</title>
<!-- Node1 -->
<g id="node1" class="node"><title>Node1</title>
<g id="a_node1"><a xlink:title="Reference face used for clipping">
<polygon fill="#bfbfbf" stroke="black" points="17.5,-0.5 17.5,-21.5 115.5,-21.5 115.5,-0.5 17.5,-0.5"/>
<text text-anchor="middle" x="66.5" y="-7.9" font-family="Helvetica,sans-Serif" font-size="12.00">ReferenceFace</text>
</a>
</g>
</g>
<!-- Node2 -->
<g id="node2" class="node"><title>Node2</title>
<g id="a_node2"><a xlink:href="structtainicom_1_1_aether_1_1_physics2_d_1_1_common_1_1_vector2.html" target="_top" xlink:title=" ">
<polygon fill="none" stroke="black" points="37.5,-123.5 37.5,-144.5 95.5,-144.5 95.5,-123.5 37.5,-123.5"/>
<text text-anchor="middle" x="66.5" y="-130.9" font-family="Helvetica,sans-Serif" font-size="12.00">Vector2</text>
</a>
</g>
</g>
<!-- Node2&#45;&gt;Node1 -->
<g id="edge1" class="edge"><title>Node2&#45;&gt;Node1</title>
<path fill="none" stroke="#9a32cd" stroke-dasharray="5,2" d="M66.5,-112.768C66.5,-86.4155 66.5,-41.3924 66.5,-21.7006"/>
<polygon fill="#9a32cd" stroke="#9a32cd" points="63.0001,-113.098 66.5,-123.098 70.0001,-113.098 63.0001,-113.098"/>
<text text-anchor="middle" x="100" y="-95.4" font-family="Helvetica,sans-Serif" font-size="12.00"> normal</text>
<text text-anchor="middle" x="100" y="-82.4" font-family="Helvetica,sans-Serif" font-size="12.00">sideNormal1</text>
<text text-anchor="middle" x="100" y="-69.4" font-family="Helvetica,sans-Serif" font-size="12.00">sideNormal2</text>
<text text-anchor="middle" x="100" y="-56.4" font-family="Helvetica,sans-Serif" font-size="12.00">v1</text>
<text text-anchor="middle" x="100" y="-43.4" font-family="Helvetica,sans-Serif" font-size="12.00">v2</text>
</g>
<!-- Node3 -->
<g id="node3" class="node"><title>Node3</title>
<g id="a_node3"><a xlink:title=" ">
<polygon fill="none" stroke="#bfbfbf" points="0,-182.5 0,-203.5 133,-203.5 133,-182.5 0,-182.5"/>
<text text-anchor="middle" x="66.5" y="-189.9" font-family="Helvetica,sans-Serif" font-size="12.00">IEquatable&lt; Vector2 &gt;</text>
</a>
</g>
</g>
<!-- Node3&#45;&gt;Node2 -->
<g id="edge2" class="edge"><title>Node3&#45;&gt;Node2</title>
<path fill="none" stroke="midnightblue" d="M66.5,-172.234C66.5,-162.849 66.5,-152.065 66.5,-144.526"/>
<polygon fill="midnightblue" stroke="midnightblue" points="63.0001,-172.331 66.5,-182.331 70.0001,-172.331 63.0001,-172.331"/>
</g>
</g>
</svg>
