<?xml version="1.0" encoding="UTF-8" standalone="no"?>
<!DOCTYPE svg PUBLIC "-//W3C//DTD SVG 1.1//EN"
 "http://www.w3.org/Graphics/SVG/1.1/DTD/svg11.dtd">
<!-- Generated by graphviz version 2.38.0 (20140413.2041)
 -->
<!-- Title: DistanceProxy Pages: 1 -->
<svg width="104pt" height="160pt"
 viewBox="0.00 0.00 104.00 160.00" xmlns="http://www.w3.org/2000/svg" xmlns:xlink="http://www.w3.org/1999/xlink">
<g id="graph0" class="graph" transform="scale(1 1) rotate(0) translate(4 156)">
<title>DistanceProxy</title>
<!-- Node1 -->
<g id="node1" class="node"><title>Node1</title>
<g id="a_node1"><a xlink:title="A distance proxy is used by the GJK algorithm. It encapsulates any shape.">
<polygon fill="#bfbfbf" stroke="black" points="2,-0.5 2,-21.5 94,-21.5 94,-0.5 2,-0.5"/>
<text text-anchor="middle" x="48" y="-7.9" font-family="Helvetica,sans-Serif" font-size="12.00">DistanceProxy</text>
</a>
</g>
</g>
<!-- Node2 -->
<g id="node2" class="node"><title>Node2</title>
<g id="a_node2"><a xlink:href="classtainicom_1_1_aether_1_1_physics2_d_1_1_common_1_1_vertices.html" target="_top" xlink:title=" ">
<polygon fill="none" stroke="black" points="18,-71.5 18,-92.5 78,-92.5 78,-71.5 18,-71.5"/>
<text text-anchor="middle" x="48" y="-78.9" font-family="Helvetica,sans-Serif" font-size="12.00">Vertices</text>
</a>
</g>
</g>
<!-- Node2&#45;&gt;Node1 -->
<g id="edge1" class="edge"><title>Node2&#45;&gt;Node1</title>
<path fill="none" stroke="#9a32cd" stroke-dasharray="5,2" d="M48,-61.0882C48,-48.0781 48,-31.6754 48,-21.5127"/>
<polygon fill="#9a32cd" stroke="#9a32cd" points="44.5001,-61.4058 48,-71.4058 51.5001,-61.4059 44.5001,-61.4058"/>
<text text-anchor="middle" x="71.5" y="-43.4" font-family="Helvetica,sans-Serif" font-size="12.00"> Vertices</text>
</g>
<!-- Node3 -->
<g id="node3" class="node"><title>Node3</title>
<g id="a_node3"><a xlink:title=" ">
<polygon fill="none" stroke="#bfbfbf" points="0,-130.5 0,-151.5 96,-151.5 96,-130.5 0,-130.5"/>
<text text-anchor="middle" x="48" y="-137.9" font-family="Helvetica,sans-Serif" font-size="12.00">List&lt; Vector2 &gt;</text>
</a>
</g>
</g>
<!-- Node3&#45;&gt;Node2 -->
<g id="edge2" class="edge"><title>Node3&#45;&gt;Node2</title>
<path fill="none" stroke="midnightblue" d="M48,-120.234C48,-110.849 48,-100.065 48,-92.5265"/>
<polygon fill="midnightblue" stroke="midnightblue" points="44.5001,-120.331 48,-130.331 51.5001,-120.331 44.5001,-120.331"/>
</g>
</g>
</svg>
