<?xml version="1.0" encoding="UTF-8" standalone="no"?>
<!DOCTYPE svg PUBLIC "-//W3C//DTD SVG 1.1//EN"
 "http://www.w3.org/Graphics/SVG/1.1/DTD/svg11.dtd">
<!-- Generated by graphviz version 2.38.0 (20140413.2041)
 -->
<!-- Title: FixtureTemplate Pages: 1 -->
<svg width="117pt" height="172pt"
 viewBox="0.00 0.00 116.50 172.00" xmlns="http://www.w3.org/2000/svg" xmlns:xlink="http://www.w3.org/1999/xlink">
<g id="graph0" class="graph" transform="scale(1 1) rotate(0) translate(4 168)">
<title>FixtureTemplate</title>
<!-- Node1 -->
<g id="node1" class="node"><title>Node1</title>
<g id="a_node1"><a xlink:title=" ">
<polygon fill="#bfbfbf" stroke="black" points="0,-0.5 0,-21.5 101,-21.5 101,-0.5 0,-0.5"/>
<text text-anchor="middle" x="50.5" y="-7.9" font-family="Helvetica,sans-Serif" font-size="12.00">FixtureTemplate</text>
</a>
</g>
</g>
<!-- Node2 -->
<g id="node2" class="node"><title>Node2</title>
<g id="a_node2"><a xlink:href="classtainicom_1_1_aether_1_1_physics2_d_1_1_collision_1_1_shapes_1_1_shape.html" target="_top" xlink:title="A shape is used for collision detection. You can create a shape however you like. Shapes used for sim...">
<polygon fill="none" stroke="black" points="25,-71.5 25,-92.5 76,-92.5 76,-71.5 25,-71.5"/>
<text text-anchor="middle" x="50.5" y="-78.9" font-family="Helvetica,sans-Serif" font-size="12.00">Shape</text>
</a>
</g>
</g>
<!-- Node2&#45;&gt;Node1 -->
<g id="edge1" class="edge"><title>Node2&#45;&gt;Node1</title>
<path fill="none" stroke="#9a32cd" stroke-dasharray="5,2" d="M50.5,-61.0882C50.5,-48.0781 50.5,-31.6754 50.5,-21.5127"/>
<polygon fill="#9a32cd" stroke="#9a32cd" points="47.0001,-61.4058 50.5,-71.4058 54.0001,-61.4059 47.0001,-61.4058"/>
<text text-anchor="middle" x="69.5" y="-43.4" font-family="Helvetica,sans-Serif" font-size="12.00"> Shape</text>
</g>
<!-- Node3 -->
<g id="node3" class="node"><title>Node3</title>
<g id="a_node3"><a xlink:href="structtainicom_1_1_aether_1_1_physics2_d_1_1_collision_1_1_shapes_1_1_mass_data.html" target="_top" xlink:title="This holds the mass data computed for a shape.">
<polygon fill="none" stroke="red" points="15,-142.5 15,-163.5 86,-163.5 86,-142.5 15,-142.5"/>
<text text-anchor="middle" x="50.5" y="-149.9" font-family="Helvetica,sans-Serif" font-size="12.00">MassData</text>
</a>
</g>
</g>
<!-- Node3&#45;&gt;Node2 -->
<g id="edge2" class="edge"><title>Node3&#45;&gt;Node2</title>
<path fill="none" stroke="#9a32cd" stroke-dasharray="5,2" d="M50.5,-132.088C50.5,-119.078 50.5,-102.675 50.5,-92.5127"/>
<polygon fill="#9a32cd" stroke="#9a32cd" points="47.0001,-132.406 50.5,-142.406 54.0001,-132.406 47.0001,-132.406"/>
<text text-anchor="middle" x="79.5" y="-114.4" font-family="Helvetica,sans-Serif" font-size="12.00"> MassData</text>
</g>
</g>
</svg>
