<?xml version="1.0" encoding="UTF-8" standalone="no"?>
<!DOCTYPE svg PUBLIC "-//W3C//DTD SVG 1.1//EN"
 "http://www.w3.org/Graphics/SVG/1.1/DTD/svg11.dtd">
<!-- Generated by graphviz version 2.38.0 (20140413.2041)
 -->
<!-- Title: EdgeShape Pages: 1 -->
<svg width="230pt" height="185pt"
 viewBox="0.00 0.00 230.00 185.00" xmlns="http://www.w3.org/2000/svg" xmlns:xlink="http://www.w3.org/1999/xlink">
<g id="graph0" class="graph" transform="scale(1 1) rotate(0) translate(4 181)">
<title>EdgeShape</title>
<!-- Node1 -->
<g id="node1" class="node"><title>Node1</title>
<g id="a_node1"><a xlink:title="A line segment (edge) shape. These can be connected in chains or loops to other edge shapes....">
<polygon fill="#bfbfbf" stroke="black" points="67.5,-0.5 67.5,-21.5 147.5,-21.5 147.5,-0.5 67.5,-0.5"/>
<text text-anchor="middle" x="107.5" y="-7.9" font-family="Helvetica,sans-Serif" font-size="12.00">EdgeShape</text>
</a>
</g>
</g>
<!-- Node2 -->
<g id="node2" class="node"><title>Node2</title>
<g id="a_node2"><a xlink:href="classtainicom_1_1_aether_1_1_physics2_d_1_1_collision_1_1_shapes_1_1_shape.html" target="_top" xlink:title="A shape is used for collision detection. You can create a shape however you like. Shapes used for sim...">
<polygon fill="none" stroke="black" points="33,-84.5 33,-105.5 84,-105.5 84,-84.5 33,-84.5"/>
<text text-anchor="middle" x="58.5" y="-91.9" font-family="Helvetica,sans-Serif" font-size="12.00">Shape</text>
</a>
</g>
</g>
<!-- Node2&#45;&gt;Node1 -->
<g id="edge1" class="edge"><title>Node2&#45;&gt;Node1</title>
<path fill="none" stroke="midnightblue" d="M69.6089,-75.4095C79.5774,-58.7277 93.815,-34.9015 101.694,-21.7158"/>
<polygon fill="midnightblue" stroke="midnightblue" points="66.4385,-73.892 64.3134,-84.2715 72.4474,-77.4827 66.4385,-73.892"/>
</g>
<!-- Node3 -->
<g id="node3" class="node"><title>Node3</title>
<g id="a_node3"><a xlink:href="structtainicom_1_1_aether_1_1_physics2_d_1_1_collision_1_1_shapes_1_1_mass_data.html" target="_top" xlink:title="This holds the mass data computed for a shape.">
<polygon fill="none" stroke="red" points="0,-155.5 0,-176.5 71,-176.5 71,-155.5 0,-155.5"/>
<text text-anchor="middle" x="35.5" y="-162.9" font-family="Helvetica,sans-Serif" font-size="12.00">MassData</text>
</a>
</g>
</g>
<!-- Node3&#45;&gt;Node2 -->
<g id="edge2" class="edge"><title>Node3&#45;&gt;Node2</title>
<path fill="none" stroke="#9a32cd" stroke-dasharray="5,2" d="M41.8759,-145.872C46.2522,-132.743 51.8731,-115.881 55.3291,-105.513"/>
<polygon fill="#9a32cd" stroke="#9a32cd" points="38.54,-144.812 38.6981,-155.406 45.1808,-147.026 38.54,-144.812"/>
<text text-anchor="middle" x="78.5" y="-127.4" font-family="Helvetica,sans-Serif" font-size="12.00"> MassData</text>
</g>
<!-- Node5 -->
<g id="node4" class="node"><title>Node5</title>
<g id="a_node4"><a xlink:href="structtainicom_1_1_aether_1_1_physics2_d_1_1_common_1_1_vector2.html" target="_top" xlink:title=" ">
<polygon fill="none" stroke="black" points="114.5,-84.5 114.5,-105.5 172.5,-105.5 172.5,-84.5 114.5,-84.5"/>
<text text-anchor="middle" x="143.5" y="-91.9" font-family="Helvetica,sans-Serif" font-size="12.00">Vector2</text>
</a>
</g>
</g>
<!-- Node5&#45;&gt;Node1 -->
<g id="edge3" class="edge"><title>Node5&#45;&gt;Node1</title>
<path fill="none" stroke="#9a32cd" stroke-dasharray="5,2" d="M135.132,-74.9399C127.819,-58.2833 117.5,-34.7782 111.765,-21.7158"/>
<polygon fill="#9a32cd" stroke="#9a32cd" points="132.004,-76.5221 139.229,-84.2715 138.414,-73.7081 132.004,-76.5221"/>
<text text-anchor="middle" x="155.5" y="-56.4" font-family="Helvetica,sans-Serif" font-size="12.00"> _vertex1</text>
<text text-anchor="middle" x="155.5" y="-43.4" font-family="Helvetica,sans-Serif" font-size="12.00">_vertex2</text>
</g>
<!-- Node6 -->
<g id="node5" class="node"><title>Node6</title>
<g id="a_node5"><a xlink:title=" ">
<polygon fill="none" stroke="#bfbfbf" points="89,-155.5 89,-176.5 222,-176.5 222,-155.5 89,-155.5"/>
<text text-anchor="middle" x="155.5" y="-162.9" font-family="Helvetica,sans-Serif" font-size="12.00">IEquatable&lt; Vector2 &gt;</text>
</a>
</g>
</g>
<!-- Node6&#45;&gt;Node5 -->
<g id="edge4" class="edge"><title>Node6&#45;&gt;Node5</title>
<path fill="none" stroke="midnightblue" d="M152.105,-145.481C149.832,-132.41 146.94,-115.778 145.154,-105.513"/>
<polygon fill="midnightblue" stroke="midnightblue" points="148.67,-146.153 153.831,-155.406 155.566,-144.954 148.67,-146.153"/>
</g>
</g>
</svg>
