<?xml version="1.0" encoding="UTF-8" standalone="no"?>
<!DOCTYPE svg PUBLIC "-//W3C//DTD SVG 1.1//EN"
 "http://www.w3.org/Graphics/SVG/1.1/DTD/svg11.dtd">
<!-- Generated by graphviz version 2.38.0 (20140413.2041)
 -->
<!-- Title: PulleyJoint Pages: 1 -->
<svg width="213pt" height="189pt"
 viewBox="0.00 0.00 213.00 189.00" xmlns="http://www.w3.org/2000/svg" xmlns:xlink="http://www.w3.org/1999/xlink">
<g id="graph0" class="graph" transform="scale(1 1) rotate(0) translate(4 185)">
<title>PulleyJoint</title>
<!-- Node1 -->
<g id="node1" class="node"><title>Node1</title>
<g id="a_node1"><a xlink:title="The pulley joint is connected to two bodies and two fixed world points. The pulley supports a ratio s...">
<polygon fill="#bfbfbf" stroke="black" points="0,-2.5 0,-23.5 72,-23.5 72,-2.5 0,-2.5"/>
<text text-anchor="middle" x="36" y="-9.9" font-family="Helvetica,sans-Serif" font-size="12.00">PulleyJoint</text>
</a>
</g>
</g>
<!-- Node2 -->
<g id="node2" class="node"><title>Node2</title>
<g id="a_node2"><a xlink:href="classtainicom_1_1_aether_1_1_physics2_d_1_1_dynamics_1_1_joints_1_1_joint.html" target="_top" xlink:title=" ">
<polygon fill="none" stroke="black" points="53.5,-88.5 53.5,-109.5 94.5,-109.5 94.5,-88.5 53.5,-88.5"/>
<text text-anchor="middle" x="74" y="-95.9" font-family="Helvetica,sans-Serif" font-size="12.00">Joint</text>
</a>
</g>
</g>
<!-- Node2&#45;&gt;Node1 -->
<g id="edge1" class="edge"><title>Node2&#45;&gt;Node1</title>
<path fill="none" stroke="midnightblue" d="M58.4459,-80.2827C56.0563,-77.0081 53.7924,-73.5099 52,-70 44.1826,-54.6914 39.692,-35.0197 37.5571,-23.5304"/>
<polygon fill="midnightblue" stroke="midnightblue" points="55.855,-82.6475 64.8267,-88.2832 61.3276,-78.2828 55.855,-82.6475"/>
</g>
<!-- Node3 -->
<g id="node3" class="node"><title>Node3</title>
<g id="a_node3"><a xlink:href="classtainicom_1_1_aether_1_1_physics2_d_1_1_dynamics_1_1_joints_1_1_joint_edge.html" target="_top" xlink:title="A joint edge is used to connect bodies and joints together in a joint graph where each body is a node...">
<polygon fill="none" stroke="red" points="90,-2.5 90,-23.5 160,-23.5 160,-2.5 90,-2.5"/>
<text text-anchor="middle" x="125" y="-9.9" font-family="Helvetica,sans-Serif" font-size="12.00">JointEdge</text>
</a>
</g>
</g>
<!-- Node2&#45;&gt;Node3 -->
<g id="edge4" class="edge"><title>Node2&#45;&gt;Node3</title>
<path fill="none" stroke="#9a32cd" stroke-dasharray="5,2" d="M67.9022,-78.6408C65.6493,-67.753 64.9289,-54.3179 71,-44 76.4387,-34.7568 85.8682,-28.1572 95.3408,-23.5463"/>
<polygon fill="#9a32cd" stroke="#9a32cd" points="64.5562,-79.6799 70.4712,-88.4698 71.3287,-77.9097 64.5562,-79.6799"/>
<text text-anchor="middle" x="85" y="-53.9" font-family="Helvetica,sans-Serif" font-size="12.00"> Joint</text>
</g>
<!-- Node3&#45;&gt;Node2 -->
<g id="edge2" class="edge"><title>Node3&#45;&gt;Node2</title>
<path fill="none" stroke="#9a32cd" stroke-dasharray="5,2" d="M119.638,-33.4425C115.995,-44.6987 110.472,-58.808 103,-70 98.4148,-76.8683 91.8952,-83.3539 86.1986,-88.3503"/>
<polygon fill="#9a32cd" stroke="#9a32cd" points="123.036,-34.2972 122.558,-23.7132 116.331,-32.2852 123.036,-34.2972"/>
<text text-anchor="middle" x="135" y="-60.4" font-family="Helvetica,sans-Serif" font-size="12.00"> EdgeA</text>
<text text-anchor="middle" x="135" y="-47.4" font-family="Helvetica,sans-Serif" font-size="12.00">EdgeB</text>
</g>
<!-- Node3&#45;&gt;Node3 -->
<g id="edge3" class="edge"><title>Node3&#45;&gt;Node3</title>
<path fill="none" stroke="#9a32cd" stroke-dasharray="5,2" d="M170.235,-19.8356C174.967,-18.5012 178,-16.2227 178,-13 178,-7.84375 170.236,-5.10449 160.168,-4.78223"/>
<polygon fill="#9a32cd" stroke="#9a32cd" points="169.599,-16.3899 160.168,-21.2178 170.551,-23.3249 169.599,-16.3899"/>
<text text-anchor="middle" x="191.5" y="-16.4" font-family="Helvetica,sans-Serif" font-size="12.00"> Next</text>
<text text-anchor="middle" x="191.5" y="-3.4" font-family="Helvetica,sans-Serif" font-size="12.00">Prev</text>
</g>
<!-- Node14 -->
<g id="node4" class="node"><title>Node14</title>
<g id="a_node4"><a xlink:href="classtainicom_1_1_aether_1_1_physics2_d_1_1_dynamics_1_1_world.html" target="_top" xlink:title="The world class manages all physics entities, dynamic simulation, and asynchronous queries.">
<polygon fill="none" stroke="red" points="50.5,-159.5 50.5,-180.5 97.5,-180.5 97.5,-159.5 50.5,-159.5"/>
<text text-anchor="middle" x="74" y="-166.9" font-family="Helvetica,sans-Serif" font-size="12.00">World</text>
</a>
</g>
</g>
<!-- Node14&#45;&gt;Node2 -->
<g id="edge5" class="edge"><title>Node14&#45;&gt;Node2</title>
<path fill="none" stroke="#9a32cd" stroke-dasharray="5,2" d="M74,-149.088C74,-136.078 74,-119.675 74,-109.513"/>
<polygon fill="#9a32cd" stroke="#9a32cd" points="70.5001,-149.406 74,-159.406 77.5001,-149.406 70.5001,-149.406"/>
<text text-anchor="middle" x="93" y="-131.4" font-family="Helvetica,sans-Serif" font-size="12.00"> _world</text>
</g>
</g>
</svg>
