<?xml version="1.0" encoding="UTF-8" standalone="no"?>
<!DOCTYPE svg PUBLIC "-//W3C//DTD SVG 1.1//EN"
 "http://www.w3.org/Graphics/SVG/1.1/DTD/svg11.dtd">
<!-- Generated by graphviz version 2.38.0 (20140413.2041)
 -->
<!-- Title: Island Pages: 1 -->
<svg width="632pt" height="282pt"
 viewBox="0.00 0.00 631.50 282.00" xmlns="http://www.w3.org/2000/svg" xmlns:xlink="http://www.w3.org/1999/xlink">
<g id="graph0" class="graph" transform="scale(1 1) rotate(0) translate(4 278)">
<title>Island</title>
<!-- Node1 -->
<g id="node1" class="node"><title>Node1</title>
<g id="a_node1"><a xlink:title="This is an internal class.">
<polygon fill="#bfbfbf" stroke="black" points="119.5,-0.5 119.5,-21.5 166.5,-21.5 166.5,-0.5 119.5,-0.5"/>
<text text-anchor="middle" x="143" y="-7.9" font-family="Helvetica,sans-Serif" font-size="12.00">Island</text>
</a>
</g>
</g>
<!-- Node2 -->
<g id="node2" class="node"><title>Node2</title>
<g id="a_node2"><a xlink:title=" ">
<polygon fill="none" stroke="#bfbfbf" points="0,-111.5 0,-132.5 92,-132.5 92,-111.5 0,-111.5"/>
<text text-anchor="middle" x="46" y="-118.9" font-family="Helvetica,sans-Serif" font-size="12.00">SolverPosition</text>
</a>
</g>
</g>
<!-- Node2&#45;&gt;Node1 -->
<g id="edge1" class="edge"><title>Node2&#45;&gt;Node1</title>
<path fill="none" stroke="#9a32cd" stroke-dasharray="5,2" d="M57.4414,-102.839C63.9131,-93.0571 72.4116,-80.9828 81,-71 97.0863,-52.302 118.38,-33.0452 131.364,-21.8162"/>
<polygon fill="#9a32cd" stroke="#9a32cd" points="54.414,-101.075 51.9208,-111.373 60.2913,-104.878 54.414,-101.075"/>
<text text-anchor="middle" x="110" y="-78.9" font-family="Helvetica,sans-Serif" font-size="12.00"> _positions</text>
</g>
<!-- Node3 -->
<g id="node3" class="node"><title>Node3</title>
<g id="a_node3"><a xlink:href="structtainicom_1_1_aether_1_1_physics2_d_1_1_common_1_1_vector2.html" target="_top" xlink:title=" ">
<polygon fill="none" stroke="red" points="171,-252.5 171,-273.5 229,-273.5 229,-252.5 171,-252.5"/>
<text text-anchor="middle" x="200" y="-259.9" font-family="Helvetica,sans-Serif" font-size="12.00">Vector2</text>
</a>
</g>
</g>
<!-- Node3&#45;&gt;Node2 -->
<g id="edge2" class="edge"><title>Node3&#45;&gt;Node2</title>
<path fill="none" stroke="#9a32cd" stroke-dasharray="5,2" d="M169.477,-247.761C162.144,-243.756 154.546,-239.088 148,-234 107.088,-202.196 68.4447,-153.188 53.0346,-132.614"/>
<polygon fill="#9a32cd" stroke="#9a32cd" points="168.037,-250.957 178.525,-252.461 171.264,-244.745 168.037,-250.957"/>
<text text-anchor="middle" x="153" y="-211.4" font-family="Helvetica,sans-Serif" font-size="12.00"> c</text>
</g>
<!-- Node5 -->
<g id="node4" class="node"><title>Node5</title>
<g id="a_node4"><a xlink:title=" ">
<polygon fill="none" stroke="#bfbfbf" points="97.5,-111.5 97.5,-132.5 188.5,-132.5 188.5,-111.5 97.5,-111.5"/>
<text text-anchor="middle" x="143" y="-118.9" font-family="Helvetica,sans-Serif" font-size="12.00">SolverVelocity</text>
</a>
</g>
</g>
<!-- Node3&#45;&gt;Node5 -->
<g id="edge4" class="edge"><title>Node3&#45;&gt;Node5</title>
<path fill="none" stroke="#9a32cd" stroke-dasharray="5,2" d="M183.998,-244.612C181.414,-241.251 178.952,-237.638 177,-234 158.323,-199.191 148.315,-152.617 144.65,-132.698"/>
<polygon fill="#9a32cd" stroke="#9a32cd" points="181.345,-246.896 190.445,-252.321 186.715,-242.405 181.345,-246.896"/>
<text text-anchor="middle" x="181.5" y="-211.4" font-family="Helvetica,sans-Serif" font-size="12.00"> v</text>
</g>
<!-- Node6 -->
<g id="node5" class="node"><title>Node6</title>
<g id="a_node5"><a xlink:href="classtainicom_1_1_aether_1_1_physics2_d_1_1_dynamics_1_1_body.html" target="_top" xlink:title=" ">
<polygon fill="none" stroke="black" points="339,-71.5 339,-92.5 383,-92.5 383,-71.5 339,-71.5"/>
<text text-anchor="middle" x="361" y="-78.9" font-family="Helvetica,sans-Serif" font-size="12.00">Body</text>
</a>
</g>
</g>
<!-- Node3&#45;&gt;Node6 -->
<g id="edge9" class="edge"><title>Node3&#45;&gt;Node6</title>
<path fill="none" stroke="#9a32cd" stroke-dasharray="5,2" d="M196,-242.313C192.306,-218.418 189.919,-177.983 209,-151 239.713,-107.569 304.799,-91.4413 338.981,-85.8048"/>
<polygon fill="#9a32cd" stroke="#9a32cd" points="192.579,-243.068 197.773,-252.302 199.471,-241.844 192.579,-243.068"/>
<text text-anchor="middle" x="247.5" y="-167.4" font-family="Helvetica,sans-Serif" font-size="12.00"> _force</text>
<text text-anchor="middle" x="247.5" y="-154.4" font-family="Helvetica,sans-Serif" font-size="12.00">_linearVelocity</text>
</g>
<!-- Node7 -->
<g id="node6" class="node"><title>Node7</title>
<g id="a_node6"><a xlink:href="structtainicom_1_1_aether_1_1_physics2_d_1_1_common_1_1_sweep.html" target="_top" xlink:title="This describes the motion of a body/shape for TOI computation. Shapes are defined with respect to the...">
<polygon fill="none" stroke="black" points="295.5,-153.5 295.5,-174.5 348.5,-174.5 348.5,-153.5 295.5,-153.5"/>
<text text-anchor="middle" x="322" y="-160.9" font-family="Helvetica,sans-Serif" font-size="12.00">Sweep</text>
</a>
</g>
</g>
<!-- Node3&#45;&gt;Node7 -->
<g id="edge7" class="edge"><title>Node3&#45;&gt;Node7</title>
<path fill="none" stroke="#9a32cd" stroke-dasharray="5,2" d="M220.066,-246.046C245.609,-225.737 288.93,-191.293 309.905,-174.616"/>
<polygon fill="#9a32cd" stroke="#9a32cd" points="217.793,-243.382 212.144,-252.345 222.15,-248.861 217.793,-243.382"/>
<text text-anchor="middle" x="315" y="-224.4" font-family="Helvetica,sans-Serif" font-size="12.00"> C</text>
<text text-anchor="middle" x="315" y="-211.4" font-family="Helvetica,sans-Serif" font-size="12.00">C0</text>
<text text-anchor="middle" x="315" y="-198.4" font-family="Helvetica,sans-Serif" font-size="12.00">LocalCenter</text>
</g>
<!-- Node12 -->
<g id="node8" class="node"><title>Node12</title>
<g id="a_node8"><a xlink:href="structtainicom_1_1_aether_1_1_physics2_d_1_1_common_1_1_transform.html" target="_top" xlink:title="A transform contains translation and rotation. It is used to represent the position and orientation o...">
<polygon fill="none" stroke="red" points="366.5,-153.5 366.5,-174.5 435.5,-174.5 435.5,-153.5 366.5,-153.5"/>
<text text-anchor="middle" x="401" y="-160.9" font-family="Helvetica,sans-Serif" font-size="12.00">Transform</text>
</a>
</g>
</g>
<!-- Node3&#45;&gt;Node12 -->
<g id="edge11" class="edge"><title>Node3&#45;&gt;Node12</title>
<path fill="none" stroke="#9a32cd" stroke-dasharray="5,2" d="M239.686,-262.528C271.962,-261.2 317.486,-255.177 351,-234 374.011,-219.459 389.774,-190.175 396.82,-174.853"/>
<polygon fill="#9a32cd" stroke="#9a32cd" points="239.185,-259.04 229.285,-262.814 239.377,-266.038 239.185,-259.04"/>
<text text-anchor="middle" x="391" y="-211.4" font-family="Helvetica,sans-Serif" font-size="12.00"> p</text>
</g>
<!-- Node5&#45;&gt;Node1 -->
<g id="edge3" class="edge"><title>Node5&#45;&gt;Node1</title>
<path fill="none" stroke="#9a32cd" stroke-dasharray="5,2" d="M143,-101.144C143,-77.6981 143,-39.6417 143,-21.808"/>
<polygon fill="#9a32cd" stroke="#9a32cd" points="139.5,-101.327 143,-111.327 146.5,-101.327 139.5,-101.327"/>
<text text-anchor="middle" x="172.5" y="-78.9" font-family="Helvetica,sans-Serif" font-size="12.00"> _velocities</text>
</g>
<!-- Node6&#45;&gt;Node1 -->
<g id="edge5" class="edge"><title>Node6&#45;&gt;Node1</title>
<path fill="none" stroke="#9a32cd" stroke-dasharray="5,2" d="M329.253,-70.9518C285.127,-56.9852 206.244,-32.0177 166.811,-19.5364"/>
<polygon fill="#9a32cd" stroke="#9a32cd" points="328.307,-74.3234 338.897,-74.0042 330.42,-67.6497 328.307,-74.3234"/>
<text text-anchor="middle" x="292.5" y="-43.4" font-family="Helvetica,sans-Serif" font-size="12.00"> Bodies</text>
</g>
<!-- Node7&#45;&gt;Node6 -->
<g id="edge6" class="edge"><title>Node7&#45;&gt;Node6</title>
<path fill="none" stroke="#9a32cd" stroke-dasharray="5,2" d="M322.48,-142.907C323.444,-132.824 325.745,-120.721 331,-111 334.863,-103.855 341.234,-97.5215 347.114,-92.6931"/>
<polygon fill="#9a32cd" stroke="#9a32cd" points="318.968,-143.01 321.873,-153.199 325.955,-143.422 318.968,-143.01"/>
<text text-anchor="middle" x="353.5" y="-118.9" font-family="Helvetica,sans-Serif" font-size="12.00"> _sweep</text>
</g>
<!-- Node8 -->
<g id="node7" class="node"><title>Node8</title>
<g id="a_node7"><a xlink:href="classtainicom_1_1_aether_1_1_physics2_d_1_1_dynamics_1_1_fixture_collection.html" target="_top" xlink:title=" ">
<polygon fill="none" stroke="red" points="454,-153.5 454,-174.5 558,-174.5 558,-153.5 454,-153.5"/>
<text text-anchor="middle" x="506" y="-160.9" font-family="Helvetica,sans-Serif" font-size="12.00">FixtureCollection</text>
</a>
</g>
</g>
<!-- Node8&#45;&gt;Node6 -->
<g id="edge8" class="edge"><title>Node8&#45;&gt;Node6</title>
<path fill="none" stroke="#9a32cd" stroke-dasharray="5,2" d="M479.641,-148.457C450.309,-132.274 403.736,-106.578 378.552,-92.6841"/>
<polygon fill="#9a32cd" stroke="#9a32cd" points="478.063,-151.584 488.51,-153.35 481.445,-145.455 478.063,-151.584"/>
<text text-anchor="middle" x="480" y="-118.9" font-family="Helvetica,sans-Serif" font-size="12.00"> FixtureList</text>
</g>
<!-- Node12&#45;&gt;Node6 -->
<g id="edge10" class="edge"><title>Node12&#45;&gt;Node6</title>
<path fill="none" stroke="#9a32cd" stroke-dasharray="5,2" d="M392.138,-144.06C387.444,-134.159 381.522,-121.871 376,-111 372.853,-104.805 369.17,-97.9251 366.241,-92.5354"/>
<polygon fill="#9a32cd" stroke="#9a32cd" points="389.089,-145.8 396.517,-153.354 395.421,-142.816 389.089,-145.8"/>
<text text-anchor="middle" x="396.5" y="-118.9" font-family="Helvetica,sans-Serif" font-size="12.00"> _xf</text>
</g>
<!-- Node14 -->
<g id="node9" class="node"><title>Node14</title>
<g id="a_node9"><a xlink:href="classtainicom_1_1_aether_1_1_physics2_d_1_1_dynamics_1_1_world.html" target="_top" xlink:title="The world class manages all physics entities, dynamic simulation, and asynchronous queries.">
<polygon fill="none" stroke="red" points="576.5,-153.5 576.5,-174.5 623.5,-174.5 623.5,-153.5 576.5,-153.5"/>
<text text-anchor="middle" x="600" y="-160.9" font-family="Helvetica,sans-Serif" font-size="12.00">World</text>
</a>
</g>
</g>
<!-- Node14&#45;&gt;Node6 -->
<g id="edge12" class="edge"><title>Node14&#45;&gt;Node6</title>
<path fill="none" stroke="#9a32cd" stroke-dasharray="5,2" d="M578.625,-147.255C561.658,-135.513 536.896,-120.007 513,-111 468.683,-94.2964 413.223,-87.3158 383.05,-84.5911"/>
<polygon fill="#9a32cd" stroke="#9a32cd" points="577.011,-150.401 587.194,-153.326 581.058,-144.689 577.011,-150.401"/>
<text text-anchor="middle" x="575" y="-118.9" font-family="Helvetica,sans-Serif" font-size="12.00"> _world</text>
</g>
</g>
</svg>
