<?xml version="1.0" encoding="UTF-8" standalone="no"?>
<!DOCTYPE svg PUBLIC "-//W3C//DTD SVG 1.1//EN"
 "http://www.w3.org/Graphics/SVG/1.1/DTD/svg11.dtd">
<!-- Generated by graphviz version 2.38.0 (20140413.2041)
 -->
<!-- Title: VelocityConstraintPoint Pages: 1 -->
<svg width="146pt" height="173pt"
 viewBox="0.00 0.00 146.00 173.00" xmlns="http://www.w3.org/2000/svg" xmlns:xlink="http://www.w3.org/1999/xlink">
<g id="graph0" class="graph" transform="scale(1 1) rotate(0) translate(4 169)">
<title>VelocityConstraintPoint</title>
<!-- Node1 -->
<g id="node1" class="node"><title>Node1</title>
<g id="a_node1"><a xlink:title=" ">
<polygon fill="#bfbfbf" stroke="black" points="0,-0.5 0,-21.5 138,-21.5 138,-0.5 0,-0.5"/>
<text text-anchor="middle" x="69" y="-7.9" font-family="Helvetica,sans-Serif" font-size="12.00">VelocityConstraintPoint</text>
</a>
</g>
</g>
<!-- Node2 -->
<g id="node2" class="node"><title>Node2</title>
<g id="a_node2"><a xlink:href="structtainicom_1_1_aether_1_1_physics2_d_1_1_common_1_1_vector2.html" target="_top" xlink:title=" ">
<polygon fill="none" stroke="black" points="40,-84.5 40,-105.5 98,-105.5 98,-84.5 40,-84.5"/>
<text text-anchor="middle" x="69" y="-91.9" font-family="Helvetica,sans-Serif" font-size="12.00">Vector2</text>
</a>
</g>
</g>
<!-- Node2&#45;&gt;Node1 -->
<g id="edge1" class="edge"><title>Node2&#45;&gt;Node1</title>
<path fill="none" stroke="#9a32cd" stroke-dasharray="5,2" d="M69,-73.9899C69,-57.4 69,-34.5318 69,-21.7158"/>
<polygon fill="#9a32cd" stroke="#9a32cd" points="65.5001,-74.2715 69,-84.2715 72.5001,-74.2715 65.5001,-74.2715"/>
<text text-anchor="middle" x="77" y="-56.4" font-family="Helvetica,sans-Serif" font-size="12.00"> rA</text>
<text text-anchor="middle" x="77" y="-43.4" font-family="Helvetica,sans-Serif" font-size="12.00">rB</text>
</g>
<!-- Node3 -->
<g id="node3" class="node"><title>Node3</title>
<g id="a_node3"><a xlink:title=" ">
<polygon fill="none" stroke="#bfbfbf" points="2.5,-143.5 2.5,-164.5 135.5,-164.5 135.5,-143.5 2.5,-143.5"/>
<text text-anchor="middle" x="69" y="-150.9" font-family="Helvetica,sans-Serif" font-size="12.00">IEquatable&lt; Vector2 &gt;</text>
</a>
</g>
</g>
<!-- Node3&#45;&gt;Node2 -->
<g id="edge2" class="edge"><title>Node3&#45;&gt;Node2</title>
<path fill="none" stroke="midnightblue" d="M69,-133.234C69,-123.849 69,-113.065 69,-105.526"/>
<polygon fill="midnightblue" stroke="midnightblue" points="65.5001,-133.331 69,-143.331 72.5001,-133.331 65.5001,-133.331"/>
</g>
</g>
</svg>
