<?xml version="1.0" encoding="UTF-8" standalone="no"?>
<!DOCTYPE svg PUBLIC "-//W3C//DTD SVG 1.1//EN"
 "http://www.w3.org/Graphics/SVG/1.1/DTD/svg11.dtd">
<!-- Generated by graphviz version 2.38.0 (20140413.2041)
 -->
<!-- Title: ChainShape Pages: 1 -->
<svg width="194pt" height="172pt"
 viewBox="0.00 0.00 193.50 172.00" xmlns="http://www.w3.org/2000/svg" xmlns:xlink="http://www.w3.org/1999/xlink">
<g id="graph0" class="graph" transform="scale(1 1) rotate(0) translate(4 168)">
<title>ChainShape</title>
<!-- Node1 -->
<g id="node1" class="node"><title>Node1</title>
<g id="a_node1"><a xlink:title="A chain shape is a free form sequence of line segments. The chain has two&#45;sided collision,...">
<polygon fill="#bfbfbf" stroke="black" points="51.5,-0.5 51.5,-21.5 133.5,-21.5 133.5,-0.5 51.5,-0.5"/>
<text text-anchor="middle" x="92.5" y="-7.9" font-family="Helvetica,sans-Serif" font-size="12.00">ChainShape</text>
</a>
</g>
</g>
<!-- Node2 -->
<g id="node2" class="node"><title>Node2</title>
<g id="a_node2"><a xlink:href="classtainicom_1_1_aether_1_1_physics2_d_1_1_collision_1_1_shapes_1_1_shape.html" target="_top" xlink:title="A shape is used for collision detection. You can create a shape however you like. Shapes used for sim...">
<polygon fill="none" stroke="black" points="17,-71.5 17,-92.5 68,-92.5 68,-71.5 17,-71.5"/>
<text text-anchor="middle" x="42.5" y="-78.9" font-family="Helvetica,sans-Serif" font-size="12.00">Shape</text>
</a>
</g>
</g>
<!-- Node2&#45;&gt;Node1 -->
<g id="edge1" class="edge"><title>Node2&#45;&gt;Node1</title>
<path fill="none" stroke="midnightblue" d="M55.5201,-63.0322C65.1443,-49.7509 77.8705,-32.1887 85.6068,-21.5127"/>
<polygon fill="midnightblue" stroke="midnightblue" points="52.4859,-61.2546 49.4523,-71.4058 58.1542,-65.3621 52.4859,-61.2546"/>
</g>
<!-- Node3 -->
<g id="node3" class="node"><title>Node3</title>
<g id="a_node3"><a xlink:href="structtainicom_1_1_aether_1_1_physics2_d_1_1_collision_1_1_shapes_1_1_mass_data.html" target="_top" xlink:title="This holds the mass data computed for a shape.">
<polygon fill="none" stroke="red" points="0,-142.5 0,-163.5 71,-163.5 71,-142.5 0,-142.5"/>
<text text-anchor="middle" x="35.5" y="-149.9" font-family="Helvetica,sans-Serif" font-size="12.00">MassData</text>
</a>
</g>
</g>
<!-- Node3&#45;&gt;Node2 -->
<g id="edge2" class="edge"><title>Node3&#45;&gt;Node2</title>
<path fill="none" stroke="#9a32cd" stroke-dasharray="5,2" d="M37.52,-132.088C38.8399,-119.078 40.5039,-102.675 41.5349,-92.5127"/>
<polygon fill="#9a32cd" stroke="#9a32cd" points="34.0006,-132.104 36.4733,-142.406 40.9648,-132.81 34.0006,-132.104"/>
<text text-anchor="middle" x="69.5" y="-114.4" font-family="Helvetica,sans-Serif" font-size="12.00"> MassData</text>
</g>
<!-- Node5 -->
<g id="node4" class="node"><title>Node5</title>
<g id="a_node4"><a xlink:href="classtainicom_1_1_aether_1_1_physics2_d_1_1_common_1_1_vertices.html" target="_top" xlink:title=" ">
<polygon fill="none" stroke="black" points="100.5,-71.5 100.5,-92.5 160.5,-92.5 160.5,-71.5 100.5,-71.5"/>
<text text-anchor="middle" x="130.5" y="-78.9" font-family="Helvetica,sans-Serif" font-size="12.00">Vertices</text>
</a>
</g>
</g>
<!-- Node5&#45;&gt;Node1 -->
<g id="edge3" class="edge"><title>Node5&#45;&gt;Node1</title>
<path fill="none" stroke="#9a32cd" stroke-dasharray="5,2" d="M120.18,-62.2613C112.92,-49.0779 103.505,-31.9834 97.7389,-21.5127"/>
<polygon fill="#9a32cd" stroke="#9a32cd" points="117.326,-64.3348 125.216,-71.4058 123.458,-60.9579 117.326,-64.3348"/>
<text text-anchor="middle" x="139" y="-43.4" font-family="Helvetica,sans-Serif" font-size="12.00"> Vertices</text>
</g>
<!-- Node6 -->
<g id="node5" class="node"><title>Node6</title>
<g id="a_node5"><a xlink:title=" ">
<polygon fill="none" stroke="#bfbfbf" points="89.5,-142.5 89.5,-163.5 185.5,-163.5 185.5,-142.5 89.5,-142.5"/>
<text text-anchor="middle" x="137.5" y="-149.9" font-family="Helvetica,sans-Serif" font-size="12.00">List&lt; Vector2 &gt;</text>
</a>
</g>
</g>
<!-- Node6&#45;&gt;Node5 -->
<g id="edge4" class="edge"><title>Node6&#45;&gt;Node5</title>
<path fill="none" stroke="midnightblue" d="M135.48,-132.088C134.16,-119.078 132.496,-102.675 131.465,-92.5127"/>
<polygon fill="midnightblue" stroke="midnightblue" points="132.035,-132.81 136.527,-142.406 138.999,-132.104 132.035,-132.81"/>
</g>
</g>
</svg>
