<?xml version="1.0" encoding="UTF-8" standalone="no"?>
<!DOCTYPE svg PUBLIC "-//W3C//DTD SVG 1.1//EN"
 "http://www.w3.org/Graphics/SVG/1.1/DTD/svg11.dtd">
<!-- Generated by graphviz version 2.38.0 (20140413.2041)
 -->
<!-- Title: Controller Pages: 1 -->
<svg width="503pt" height="150pt"
 viewBox="0.00 0.00 503.00 150.00" xmlns="http://www.w3.org/2000/svg" xmlns:xlink="http://www.w3.org/1999/xlink">
<g id="graph0" class="graph" transform="scale(1 1) rotate(0) translate(4 146)">
<title>Controller</title>
<!-- Node1 -->
<g id="node1" class="node"><title>Node1</title>
<g id="a_node1"><a xlink:title=" ">
<polygon fill="#bfbfbf" stroke="black" points="104,-60.5 104,-81.5 171,-81.5 171,-60.5 104,-60.5"/>
<text text-anchor="middle" x="137.5" y="-67.9" font-family="Helvetica,sans-Serif" font-size="12.00">Controller</text>
</a>
</g>
</g>
<!-- Node3 -->
<g id="node3" class="node"><title>Node3</title>
<g id="a_node3"><a xlink:href="classtainicom_1_1_aether_1_1_physics2_d_1_1_controllers_1_1_abstract_force_controller.html" target="_top" xlink:title=" ">
<polygon fill="none" stroke="black" points="207,-120.5 207,-141.5 348,-141.5 348,-120.5 207,-120.5"/>
<text text-anchor="middle" x="277.5" y="-127.9" font-family="Helvetica,sans-Serif" font-size="12.00">AbstractForceController</text>
</a>
</g>
</g>
<!-- Node1&#45;&gt;Node3 -->
<g id="edge2" class="edge"><title>Node1&#45;&gt;Node3</title>
<path fill="none" stroke="midnightblue" d="M162.615,-87.0691C175.404,-95.0713 191.616,-104.417 207,-111 215.426,-114.606 224.698,-117.782 233.649,-120.479"/>
<polygon fill="midnightblue" stroke="midnightblue" points="164.279,-83.9787 153.969,-81.5384 160.507,-89.8754 164.279,-83.9787"/>
</g>
<!-- Node5 -->
<g id="node5" class="node"><title>Node5</title>
<g id="a_node5"><a xlink:href="classtainicom_1_1_aether_1_1_physics2_d_1_1_controllers_1_1_buoyancy_controller.html" target="_top" xlink:title=" ">
<polygon fill="none" stroke="black" points="219,-80.5 219,-101.5 336,-101.5 336,-80.5 219,-80.5"/>
<text text-anchor="middle" x="277.5" y="-87.9" font-family="Helvetica,sans-Serif" font-size="12.00">BuoyancyController</text>
</a>
</g>
</g>
<!-- Node1&#45;&gt;Node5 -->
<g id="edge4" class="edge"><title>Node1&#45;&gt;Node5</title>
<path fill="none" stroke="midnightblue" d="M181.303,-77.2033C193.202,-78.9279 206.323,-80.8294 218.92,-82.6551"/>
<polygon fill="midnightblue" stroke="midnightblue" points="181.603,-73.7103 171.204,-75.7397 180.599,-80.6379 181.603,-73.7103"/>
</g>
<!-- Node6 -->
<g id="node6" class="node"><title>Node6</title>
<g id="a_node6"><a xlink:href="classtainicom_1_1_aether_1_1_physics2_d_1_1_controllers_1_1_gravity_controller.html" target="_top" xlink:title=" ">
<polygon fill="none" stroke="black" points="226,-40.5 226,-61.5 329,-61.5 329,-40.5 226,-40.5"/>
<text text-anchor="middle" x="277.5" y="-47.9" font-family="Helvetica,sans-Serif" font-size="12.00">GravityController</text>
</a>
</g>
</g>
<!-- Node1&#45;&gt;Node6 -->
<g id="edge5" class="edge"><title>Node1&#45;&gt;Node6</title>
<path fill="none" stroke="midnightblue" d="M181.17,-64.8159C195.338,-62.7627 211.248,-60.4569 225.951,-58.3259"/>
<polygon fill="midnightblue" stroke="midnightblue" points="180.599,-61.3621 171.204,-66.2603 181.603,-68.2897 180.599,-61.3621"/>
</g>
<!-- Node7 -->
<g id="node7" class="node"><title>Node7</title>
<g id="a_node7"><a xlink:href="classtainicom_1_1_aether_1_1_physics2_d_1_1_controllers_1_1_velocity_limit_controller.html" target="_top" xlink:title="Put a limit on the linear (translation &#45; the movespeed) and angular (rotation) velocity of bodies add...">
<polygon fill="none" stroke="black" points="210.5,-0.5 210.5,-21.5 344.5,-21.5 344.5,-0.5 210.5,-0.5"/>
<text text-anchor="middle" x="277.5" y="-7.9" font-family="Helvetica,sans-Serif" font-size="12.00">VelocityLimitController</text>
</a>
</g>
</g>
<!-- Node1&#45;&gt;Node7 -->
<g id="edge6" class="edge"><title>Node1&#45;&gt;Node7</title>
<path fill="none" stroke="midnightblue" d="M162.615,-54.9309C175.404,-46.9287 191.616,-37.5835 207,-31 215.426,-27.3939 224.698,-24.2182 233.649,-21.5205"/>
<polygon fill="midnightblue" stroke="midnightblue" points="160.507,-52.1246 153.969,-60.4616 164.279,-58.0213 160.507,-52.1246"/>
</g>
<!-- Node2 -->
<g id="node2" class="node"><title>Node2</title>
<g id="a_node2"><a xlink:href="classtainicom_1_1_aether_1_1_physics2_d_1_1_common_1_1_physics_logic_1_1_filter_data.html" target="_top" xlink:title="Contains filter data that can determine whether an object should be processed or not.">
<polygon fill="none" stroke="black" points="0,-60.5 0,-81.5 68,-81.5 68,-60.5 0,-60.5"/>
<text text-anchor="middle" x="34" y="-67.9" font-family="Helvetica,sans-Serif" font-size="12.00">FilterData</text>
</a>
</g>
</g>
<!-- Node2&#45;&gt;Node1 -->
<g id="edge1" class="edge"><title>Node2&#45;&gt;Node1</title>
<path fill="none" stroke="midnightblue" d="M78.4351,-71C86.9666,-71 95.7798,-71 103.883,-71"/>
<polygon fill="midnightblue" stroke="midnightblue" points="78.2349,-67.5001 68.2349,-71 78.2349,-74.5001 78.2349,-67.5001"/>
</g>
<!-- Node4 -->
<g id="node4" class="node"><title>Node4</title>
<g id="a_node4"><a xlink:href="classtainicom_1_1_aether_1_1_physics2_d_1_1_controllers_1_1_simple_wind_force.html" target="_top" xlink:title="Reference implementation for forces based on AbstractForceController It supports all features provide...">
<polygon fill="none" stroke="black" points="384,-120.5 384,-141.5 495,-141.5 495,-120.5 384,-120.5"/>
<text text-anchor="middle" x="439.5" y="-127.9" font-family="Helvetica,sans-Serif" font-size="12.00">SimpleWindForce</text>
</a>
</g>
</g>
<!-- Node3&#45;&gt;Node4 -->
<g id="edge3" class="edge"><title>Node3&#45;&gt;Node4</title>
<path fill="none" stroke="midnightblue" d="M358.352,-131C367.011,-131 375.672,-131 383.93,-131"/>
<polygon fill="midnightblue" stroke="midnightblue" points="358.213,-127.5 348.213,-131 358.213,-134.5 358.213,-127.5"/>
</g>
</g>
</svg>
