<?xml version="1.0" encoding="UTF-8" standalone="no"?>
<!DOCTYPE svg PUBLIC "-//W3C//DTD SVG 1.1//EN"
 "http://www.w3.org/Graphics/SVG/1.1/DTD/svg11.dtd">
<!-- Generated by graphviz version 2.38.0 (20140413.2041)
 -->
<!-- Title: BuoyancyController Pages: 1 -->
<svg width="125pt" height="146pt"
 viewBox="0.00 0.00 125.00 146.00" xmlns="http://www.w3.org/2000/svg" xmlns:xlink="http://www.w3.org/1999/xlink">
<g id="graph0" class="graph" transform="scale(1 1) rotate(0) translate(4 142)">
<title>BuoyancyController</title>
<!-- Node1 -->
<g id="node1" class="node"><title>Node1</title>
<g id="a_node1"><a xlink:title=" ">
<polygon fill="#bfbfbf" stroke="black" points="0,-0.5 0,-21.5 117,-21.5 117,-0.5 0,-0.5"/>
<text text-anchor="middle" x="58.5" y="-7.9" font-family="Helvetica,sans-Serif" font-size="12.00">BuoyancyController</text>
</a>
</g>
</g>
<!-- Node2 -->
<g id="node2" class="node"><title>Node2</title>
<g id="a_node2"><a xlink:href="classtainicom_1_1_aether_1_1_physics2_d_1_1_controllers_1_1_controller.html" target="_top" xlink:title=" ">
<polygon fill="none" stroke="black" points="25,-58.5 25,-79.5 92,-79.5 92,-58.5 25,-58.5"/>
<text text-anchor="middle" x="58.5" y="-65.9" font-family="Helvetica,sans-Serif" font-size="12.00">Controller</text>
</a>
</g>
</g>
<!-- Node2&#45;&gt;Node1 -->
<g id="edge1" class="edge"><title>Node2&#45;&gt;Node1</title>
<path fill="none" stroke="midnightblue" d="M58.5,-48.1575C58.5,-39.155 58.5,-28.9199 58.5,-21.6427"/>
<polygon fill="midnightblue" stroke="midnightblue" points="55.0001,-48.2455 58.5,-58.2455 62.0001,-48.2456 55.0001,-48.2455"/>
</g>
<!-- Node3 -->
<g id="node3" class="node"><title>Node3</title>
<g id="a_node3"><a xlink:href="classtainicom_1_1_aether_1_1_physics2_d_1_1_common_1_1_physics_logic_1_1_filter_data.html" target="_top" xlink:title="Contains filter data that can determine whether an object should be processed or not.">
<polygon fill="none" stroke="black" points="24.5,-116.5 24.5,-137.5 92.5,-137.5 92.5,-116.5 24.5,-116.5"/>
<text text-anchor="middle" x="58.5" y="-123.9" font-family="Helvetica,sans-Serif" font-size="12.00">FilterData</text>
</a>
</g>
</g>
<!-- Node3&#45;&gt;Node2 -->
<g id="edge2" class="edge"><title>Node3&#45;&gt;Node2</title>
<path fill="none" stroke="midnightblue" d="M58.5,-106.158C58.5,-97.155 58.5,-86.9199 58.5,-79.6427"/>
<polygon fill="midnightblue" stroke="midnightblue" points="55.0001,-106.246 58.5,-116.246 62.0001,-106.246 55.0001,-106.246"/>
</g>
</g>
</svg>
