<?xml version="1.0" encoding="UTF-8" standalone="no"?>
<!DOCTYPE svg PUBLIC "-//W3C//DTD SVG 1.1//EN"
 "http://www.w3.org/Graphics/SVG/1.1/DTD/svg11.dtd">
<!-- Generated by graphviz version 2.38.0 (20140413.2041)
 -->
<!-- Title: ContactVelocityConstraint Pages: 1 -->
<svg width="265pt" height="198pt"
 viewBox="0.00 0.00 265.04 198.00" xmlns="http://www.w3.org/2000/svg" xmlns:xlink="http://www.w3.org/1999/xlink">
<g id="graph0" class="graph" transform="scale(1 1) rotate(0) translate(4 194)">
<title>ContactVelocityConstraint</title>
<!-- Node1 -->
<g id="node1" class="node"><title>Node1</title>
<g id="a_node1"><a xlink:title=" ">
<polygon fill="#bfbfbf" stroke="black" points="0.0366902,-0.5 0.0366902,-21.5 152.037,-21.5 152.037,-0.5 0.0366902,-0.5"/>
<text text-anchor="middle" x="76.0367" y="-7.9" font-family="Helvetica,sans-Serif" font-size="12.00">ContactVelocityConstraint</text>
</a>
</g>
</g>
<!-- Node2 -->
<g id="node2" class="node"><title>Node2</title>
<g id="a_node2"><a xlink:href="structtainicom_1_1_aether_1_1_physics2_d_1_1_common_1_1_mat22.html" target="_top" xlink:title="A 2&#45;by&#45;2 matrix. Stored in column&#45;major order.">
<polygon fill="none" stroke="black" points="51.0367,-84.5 51.0367,-105.5 101.037,-105.5 101.037,-84.5 51.0367,-84.5"/>
<text text-anchor="middle" x="76.0367" y="-91.9" font-family="Helvetica,sans-Serif" font-size="12.00">Mat22</text>
</a>
</g>
</g>
<!-- Node2&#45;&gt;Node1 -->
<g id="edge1" class="edge"><title>Node2&#45;&gt;Node1</title>
<path fill="none" stroke="#9a32cd" stroke-dasharray="5,2" d="M76.0367,-73.9899C76.0367,-57.4 76.0367,-34.5318 76.0367,-21.7158"/>
<polygon fill="#9a32cd" stroke="#9a32cd" points="72.5368,-74.2715 76.0367,-84.2715 79.5368,-74.2715 72.5368,-74.2715"/>
<text text-anchor="middle" x="108.037" y="-56.4" font-family="Helvetica,sans-Serif" font-size="12.00"> K</text>
<text text-anchor="middle" x="108.037" y="-43.4" font-family="Helvetica,sans-Serif" font-size="12.00">normalMass</text>
</g>
<!-- Node3 -->
<g id="node3" class="node"><title>Node3</title>
<g id="a_node3"><a xlink:href="structtainicom_1_1_aether_1_1_physics2_d_1_1_common_1_1_vector2.html" target="_top" xlink:title=" ">
<polygon fill="none" stroke="red" points="47.0367,-168.5 47.0367,-189.5 105.037,-189.5 105.037,-168.5 47.0367,-168.5"/>
<text text-anchor="middle" x="76.0367" y="-175.9" font-family="Helvetica,sans-Serif" font-size="12.00">Vector2</text>
</a>
</g>
</g>
<!-- Node3&#45;&gt;Node1 -->
<g id="edge3" class="edge"><title>Node3&#45;&gt;Node1</title>
<path fill="none" stroke="#9a32cd" stroke-dasharray="5,2" d="M51.9935,-162.271C34.7629,-149.45 12.9218,-129.634 3.03669,-106 -11.7134,-70.7345 32.9779,-37.3489 58.9022,-21.5429"/>
<polygon fill="#9a32cd" stroke="#9a32cd" points="50.3191,-165.375 60.4961,-168.321 54.3776,-159.672 50.3191,-165.375"/>
<text text-anchor="middle" x="22.5367" y="-91.9" font-family="Helvetica,sans-Serif" font-size="12.00"> normal</text>
</g>
<!-- Node3&#45;&gt;Node2 -->
<g id="edge2" class="edge"><title>Node3&#45;&gt;Node2</title>
<path fill="none" stroke="#9a32cd" stroke-dasharray="5,2" d="M76.0367,-157.99C76.0367,-141.4 76.0367,-118.532 76.0367,-105.716"/>
<polygon fill="#9a32cd" stroke="#9a32cd" points="72.5368,-158.271 76.0367,-168.272 79.5368,-158.272 72.5368,-158.271"/>
<text text-anchor="middle" x="84.0367" y="-140.4" font-family="Helvetica,sans-Serif" font-size="12.00"> ex</text>
<text text-anchor="middle" x="84.0367" y="-127.4" font-family="Helvetica,sans-Serif" font-size="12.00">ey</text>
</g>
<!-- Node5 -->
<g id="node4" class="node"><title>Node5</title>
<g id="a_node4"><a xlink:href="classtainicom_1_1_aether_1_1_physics2_d_1_1_dynamics_1_1_contacts_1_1_velocity_constraint_point.html" target="_top" xlink:title=" ">
<polygon fill="none" stroke="black" points="119.037,-84.5 119.037,-105.5 257.037,-105.5 257.037,-84.5 119.037,-84.5"/>
<text text-anchor="middle" x="188.037" y="-91.9" font-family="Helvetica,sans-Serif" font-size="12.00">VelocityConstraintPoint</text>
</a>
</g>
</g>
<!-- Node3&#45;&gt;Node5 -->
<g id="edge5" class="edge"><title>Node3&#45;&gt;Node5</title>
<path fill="none" stroke="#9a32cd" stroke-dasharray="5,2" d="M97.6919,-162.145C120.518,-145.433 155.747,-119.641 174.766,-105.716"/>
<polygon fill="#9a32cd" stroke="#9a32cd" points="95.3254,-159.54 89.3244,-168.272 99.4606,-165.188 95.3254,-159.54"/>
<text text-anchor="middle" x="156.037" y="-140.4" font-family="Helvetica,sans-Serif" font-size="12.00"> rA</text>
<text text-anchor="middle" x="156.037" y="-127.4" font-family="Helvetica,sans-Serif" font-size="12.00">rB</text>
</g>
<!-- Node5&#45;&gt;Node1 -->
<g id="edge4" class="edge"><title>Node5&#45;&gt;Node1</title>
<path fill="none" stroke="#9a32cd" stroke-dasharray="5,2" d="M176.75,-75.9205C168.785,-64.3735 157.212,-49.7864 144.037,-40 133.377,-32.0828 120.156,-25.9772 108.214,-21.518"/>
<polygon fill="#9a32cd" stroke="#9a32cd" points="173.901,-77.9571 182.327,-84.3795 179.745,-74.1041 173.901,-77.9571"/>
<text text-anchor="middle" x="186.537" y="-49.9" font-family="Helvetica,sans-Serif" font-size="12.00"> points</text>
</g>
</g>
</svg>
