<?xml version="1.0" encoding="UTF-8" standalone="no"?>
<!DOCTYPE svg PUBLIC "-//W3C//DTD SVG 1.1//EN"
 "http://www.w3.org/Graphics/SVG/1.1/DTD/svg11.dtd">
<!-- Generated by graphviz version 2.38.0 (20140413.2041)
 -->
<!-- Title: ControllerCollection Pages: 1 -->
<svg width="444pt" height="88pt"
 viewBox="0.00 0.00 443.50 88.00" xmlns="http://www.w3.org/2000/svg" xmlns:xlink="http://www.w3.org/1999/xlink">
<g id="graph0" class="graph" transform="scale(1 1) rotate(0) translate(4 84)">
<title>ControllerCollection</title>
<!-- Node1 -->
<g id="node1" class="node"><title>Node1</title>
<g id="a_node1"><a xlink:title=" ">
<polygon fill="#bfbfbf" stroke="black" points="180.5,-0.5 180.5,-21.5 299.5,-21.5 299.5,-0.5 180.5,-0.5"/>
<text text-anchor="middle" x="240" y="-7.9" font-family="Helvetica,sans-Serif" font-size="12.00">ControllerCollection</text>
</a>
</g>
</g>
<!-- Node2 -->
<g id="node2" class="node"><title>Node2</title>
<g id="a_node2"><a xlink:title=" ">
<polygon fill="none" stroke="#bfbfbf" points="0,-58.5 0,-79.5 152,-79.5 152,-58.5 0,-58.5"/>
<text text-anchor="middle" x="76" y="-65.9" font-family="Helvetica,sans-Serif" font-size="12.00">IEnumerable&lt; Controller &gt;</text>
</a>
</g>
</g>
<!-- Node2&#45;&gt;Node1 -->
<g id="edge1" class="edge"><title>Node2&#45;&gt;Node1</title>
<path fill="none" stroke="midnightblue" d="M113.904,-55.057C143.918,-44.8084 185.151,-30.729 212.175,-21.5011"/>
<polygon fill="midnightblue" stroke="midnightblue" points="112.525,-51.8295 104.193,-58.3733 114.787,-58.454 112.525,-51.8295"/>
</g>
<!-- Node3 -->
<g id="node3" class="node"><title>Node3</title>
<g id="a_node3"><a xlink:title=" ">
<polygon fill="none" stroke="#bfbfbf" points="170,-58.5 170,-79.5 310,-79.5 310,-58.5 170,-58.5"/>
<text text-anchor="middle" x="240" y="-65.9" font-family="Helvetica,sans-Serif" font-size="12.00">ICollection&lt; Controller &gt;</text>
</a>
</g>
</g>
<!-- Node3&#45;&gt;Node1 -->
<g id="edge2" class="edge"><title>Node3&#45;&gt;Node1</title>
<path fill="none" stroke="midnightblue" d="M240,-48.1575C240,-39.155 240,-28.9199 240,-21.6427"/>
<polygon fill="midnightblue" stroke="midnightblue" points="236.5,-48.2455 240,-58.2455 243.5,-48.2456 236.5,-48.2455"/>
</g>
<!-- Node4 -->
<g id="node4" class="node"><title>Node4</title>
<g id="a_node4"><a xlink:title=" ">
<polygon fill="none" stroke="#bfbfbf" points="328.5,-58.5 328.5,-79.5 435.5,-79.5 435.5,-58.5 328.5,-58.5"/>
<text text-anchor="middle" x="382" y="-65.9" font-family="Helvetica,sans-Serif" font-size="12.00">IList&lt; Controller &gt;</text>
</a>
</g>
</g>
<!-- Node4&#45;&gt;Node1 -->
<g id="edge3" class="edge"><title>Node4&#45;&gt;Node1</title>
<path fill="none" stroke="midnightblue" d="M348.158,-54.6541C322.263,-44.4419 287.186,-30.6086 264.092,-21.5011"/>
<polygon fill="midnightblue" stroke="midnightblue" points="347.003,-57.9605 357.589,-58.3733 349.571,-51.4486 347.003,-57.9605"/>
</g>
</g>
</svg>
