<?xml version="1.0" encoding="UTF-8" standalone="no"?>
<!DOCTYPE svg PUBLIC "-//W3C//DTD SVG 1.1//EN"
 "http://www.w3.org/Graphics/SVG/1.1/DTD/svg11.dtd">
<!-- Generated by graphviz version 2.38.0 (20140413.2041)
 -->
<!-- Title: PhysicsLogic Pages: 1 -->
<svg width="222pt" height="146pt"
 viewBox="0.00 0.00 222.00 146.00" xmlns="http://www.w3.org/2000/svg" xmlns:xlink="http://www.w3.org/1999/xlink">
<g id="graph0" class="graph" transform="scale(1 1) rotate(0) translate(4 142)">
<title>PhysicsLogic</title>
<!-- Node1 -->
<g id="node1" class="node"><title>Node1</title>
<g id="a_node1"><a xlink:title=" ">
<polygon fill="#bfbfbf" stroke="black" points="61,-58.5 61,-79.5 147,-79.5 147,-58.5 61,-58.5"/>
<text text-anchor="middle" x="104" y="-65.9" font-family="Helvetica,sans-Serif" font-size="12.00">PhysicsLogic</text>
</a>
</g>
</g>
<!-- Node3 -->
<g id="node3" class="node"><title>Node3</title>
<g id="a_node3"><a xlink:href="classtainicom_1_1_aether_1_1_physics2_d_1_1_common_1_1_physics_logic_1_1_real_explosion.html" target="_top" xlink:title="Creates a realistic explosion based on raycasting. Objects in the open will be affected,...">
<polygon fill="none" stroke="black" points="0,-0.5 0,-21.5 92,-21.5 92,-0.5 0,-0.5"/>
<text text-anchor="middle" x="46" y="-7.9" font-family="Helvetica,sans-Serif" font-size="12.00">RealExplosion</text>
</a>
</g>
</g>
<!-- Node1&#45;&gt;Node3 -->
<g id="edge2" class="edge"><title>Node1&#45;&gt;Node3</title>
<path fill="none" stroke="midnightblue" d="M86.4707,-51.0751C76.4917,-41.4402 64.3524,-29.7196 55.9871,-21.6427"/>
<polygon fill="midnightblue" stroke="midnightblue" points="84.272,-53.8175 93.8972,-58.2455 89.1342,-48.7817 84.272,-53.8175"/>
</g>
<!-- Node4 -->
<g id="node4" class="node"><title>Node4</title>
<g id="a_node4"><a xlink:href="classtainicom_1_1_aether_1_1_physics2_d_1_1_common_1_1_physics_logic_1_1_simple_explosion.html" target="_top" xlink:title="Creates a simple explosion that ignores other bodies hiding behind static bodies.">
<polygon fill="none" stroke="black" points="110,-0.5 110,-21.5 214,-21.5 214,-0.5 110,-0.5"/>
<text text-anchor="middle" x="162" y="-7.9" font-family="Helvetica,sans-Serif" font-size="12.00">SimpleExplosion</text>
</a>
</g>
</g>
<!-- Node1&#45;&gt;Node4 -->
<g id="edge3" class="edge"><title>Node1&#45;&gt;Node4</title>
<path fill="none" stroke="midnightblue" d="M121.529,-51.0751C131.508,-41.4402 143.648,-29.7196 152.013,-21.6427"/>
<polygon fill="midnightblue" stroke="midnightblue" points="118.866,-48.7817 114.103,-58.2455 123.728,-53.8175 118.866,-48.7817"/>
</g>
<!-- Node2 -->
<g id="node2" class="node"><title>Node2</title>
<g id="a_node2"><a xlink:href="classtainicom_1_1_aether_1_1_physics2_d_1_1_common_1_1_physics_logic_1_1_filter_data.html" target="_top" xlink:title="Contains filter data that can determine whether an object should be processed or not.">
<polygon fill="none" stroke="black" points="70,-116.5 70,-137.5 138,-137.5 138,-116.5 70,-116.5"/>
<text text-anchor="middle" x="104" y="-123.9" font-family="Helvetica,sans-Serif" font-size="12.00">FilterData</text>
</a>
</g>
</g>
<!-- Node2&#45;&gt;Node1 -->
<g id="edge1" class="edge"><title>Node2&#45;&gt;Node1</title>
<path fill="none" stroke="midnightblue" d="M104,-106.158C104,-97.155 104,-86.9199 104,-79.6427"/>
<polygon fill="midnightblue" stroke="midnightblue" points="100.5,-106.246 104,-116.246 107.5,-106.246 100.5,-106.246"/>
</g>
</g>
</svg>
