<?xml version="1.0" encoding="UTF-8" standalone="no"?>
<!DOCTYPE svg PUBLIC "-//W3C//DTD SVG 1.1//EN"
 "http://www.w3.org/Graphics/SVG/1.1/DTD/svg11.dtd">
<!-- Generated by graphviz version 2.38.0 (20140413.2041)
 -->
<!-- Title: DynamicTreeBroadPhase&lt; TNode &gt; Pages: 1 -->
<svg width="252pt" height="101pt"
 viewBox="0.00 0.00 251.50 101.00" xmlns="http://www.w3.org/2000/svg" xmlns:xlink="http://www.w3.org/1999/xlink">
<g id="graph0" class="graph" transform="scale(1 1) rotate(0) translate(4 97)">
<title>DynamicTreeBroadPhase&lt; TNode &gt;</title>
<!-- Node1 -->
<g id="node1" class="node"><title>Node1</title>
<g id="a_node1"><a xlink:title="The broad&#45;phase is used for computing pairs and performing volume queries and ray casts....">
<polygon fill="#bfbfbf" stroke="black" points="31.5,-0.5 31.5,-34.5 183.5,-34.5 183.5,-0.5 31.5,-0.5"/>
<text text-anchor="start" x="39.5" y="-20.9" font-family="Helvetica,sans-Serif" font-size="12.00">DynamicTreeBroadPhase</text>
<text text-anchor="middle" x="107.5" y="-7.9" font-family="Helvetica,sans-Serif" font-size="12.00">&lt; TNode &gt;</text>
</a>
</g>
</g>
<!-- Node2 -->
<g id="node2" class="node"><title>Node2</title>
<g id="a_node2"><a xlink:href="interfacetainicom_1_1_aether_1_1_physics2_d_1_1_collision_1_1_i_broad_phase.html" target="_top" xlink:title=" ">
<polygon fill="none" stroke="black" points="0,-71.5 0,-92.5 85,-92.5 85,-71.5 0,-71.5"/>
<text text-anchor="middle" x="42.5" y="-78.9" font-family="Helvetica,sans-Serif" font-size="12.00">IBroadPhase</text>
</a>
</g>
</g>
<!-- Node2&#45;&gt;Node1 -->
<g id="edge1" class="edge"><title>Node2&#45;&gt;Node1</title>
<path fill="none" stroke="midnightblue" d="M60.0765,-64.0995C69.6468,-54.8973 81.4225,-43.5746 90.8453,-34.5141"/>
<polygon fill="midnightblue" stroke="midnightblue" points="57.4387,-61.7803 52.6563,-71.2344 62.2905,-66.8262 57.4387,-61.7803"/>
</g>
<!-- Node3 -->
<g id="node3" class="node"><title>Node3</title>
<g id="a_node3"><a xlink:href="interfacetainicom_1_1_aether_1_1_physics2_d_1_1_collision_1_1_i_broad_phase.html" target="_top" xlink:title=" ">
<polygon fill="none" stroke="black" points="103.5,-71.5 103.5,-92.5 243.5,-92.5 243.5,-71.5 103.5,-71.5"/>
<text text-anchor="middle" x="173.5" y="-78.9" font-family="Helvetica,sans-Serif" font-size="12.00">IBroadPhase&lt; TNode &gt;</text>
</a>
</g>
</g>
<!-- Node3&#45;&gt;Node1 -->
<g id="edge2" class="edge"><title>Node3&#45;&gt;Node1</title>
<path fill="none" stroke="midnightblue" d="M155.653,-64.0995C145.936,-54.8973 133.979,-43.5746 124.411,-34.5141"/>
<polygon fill="midnightblue" stroke="midnightblue" points="153.52,-66.8998 163.188,-71.2344 158.333,-61.8171 153.52,-66.8998"/>
</g>
</g>
</svg>
