<?xml version="1.0" encoding="UTF-8" standalone="no"?>
<!DOCTYPE svg PUBLIC "-//W3C//DTD SVG 1.1//EN"
 "http://www.w3.org/Graphics/SVG/1.1/DTD/svg11.dtd">
<!-- Generated by graphviz version 2.38.0 (20140413.2041)
 -->
<!-- Title: PrismaticJoint Pages: 1 -->
<svg width="233pt" height="189pt"
 viewBox="0.00 0.00 232.50 189.00" xmlns="http://www.w3.org/2000/svg" xmlns:xlink="http://www.w3.org/1999/xlink">
<g id="graph0" class="graph" transform="scale(1 1) rotate(0) translate(4 185)">
<title>PrismaticJoint</title>
<!-- Node1 -->
<g id="node1" class="node"><title>Node1</title>
<g id="a_node1"><a xlink:title="A prismatic joint. This joint provides one degree of freedom: translation along an axis fixed in body...">
<polygon fill="#bfbfbf" stroke="black" points="0,-2.5 0,-23.5 91,-23.5 91,-2.5 0,-2.5"/>
<text text-anchor="middle" x="45.5" y="-9.9" font-family="Helvetica,sans-Serif" font-size="12.00">PrismaticJoint</text>
</a>
</g>
</g>
<!-- Node2 -->
<g id="node2" class="node"><title>Node2</title>
<g id="a_node2"><a xlink:href="classtainicom_1_1_aether_1_1_physics2_d_1_1_dynamics_1_1_joints_1_1_joint.html" target="_top" xlink:title=" ">
<polygon fill="none" stroke="black" points="73,-88.5 73,-109.5 114,-109.5 114,-88.5 73,-88.5"/>
<text text-anchor="middle" x="93.5" y="-95.9" font-family="Helvetica,sans-Serif" font-size="12.00">Joint</text>
</a>
</g>
</g>
<!-- Node2&#45;&gt;Node1 -->
<g id="edge1" class="edge"><title>Node2&#45;&gt;Node1</title>
<path fill="none" stroke="midnightblue" d="M78.5225,-80.1899C76.0399,-76.8959 73.5954,-73.4152 71.5,-70 62.0826,-54.6508 53.8283,-35.3303 49.2662,-23.8611"/>
<polygon fill="midnightblue" stroke="midnightblue" points="76.0069,-82.6499 84.9692,-88.3004 81.4867,-78.2943 76.0069,-82.6499"/>
</g>
<!-- Node3 -->
<g id="node3" class="node"><title>Node3</title>
<g id="a_node3"><a xlink:href="classtainicom_1_1_aether_1_1_physics2_d_1_1_dynamics_1_1_joints_1_1_joint_edge.html" target="_top" xlink:title="A joint edge is used to connect bodies and joints together in a joint graph where each body is a node...">
<polygon fill="none" stroke="red" points="109.5,-2.5 109.5,-23.5 179.5,-23.5 179.5,-2.5 109.5,-2.5"/>
<text text-anchor="middle" x="144.5" y="-9.9" font-family="Helvetica,sans-Serif" font-size="12.00">JointEdge</text>
</a>
</g>
</g>
<!-- Node2&#45;&gt;Node3 -->
<g id="edge4" class="edge"><title>Node2&#45;&gt;Node3</title>
<path fill="none" stroke="#9a32cd" stroke-dasharray="5,2" d="M87.4022,-78.6408C85.1493,-67.753 84.4289,-54.3179 90.5,-44 95.9387,-34.7568 105.368,-28.1572 114.841,-23.5463"/>
<polygon fill="#9a32cd" stroke="#9a32cd" points="84.0562,-79.6799 89.9712,-88.4698 90.8287,-77.9097 84.0562,-79.6799"/>
<text text-anchor="middle" x="104.5" y="-53.9" font-family="Helvetica,sans-Serif" font-size="12.00"> Joint</text>
</g>
<!-- Node3&#45;&gt;Node2 -->
<g id="edge2" class="edge"><title>Node3&#45;&gt;Node2</title>
<path fill="none" stroke="#9a32cd" stroke-dasharray="5,2" d="M139.138,-33.4425C135.495,-44.6987 129.972,-58.808 122.5,-70 117.915,-76.8683 111.395,-83.3539 105.699,-88.3503"/>
<polygon fill="#9a32cd" stroke="#9a32cd" points="142.536,-34.2972 142.058,-23.7132 135.831,-32.2852 142.536,-34.2972"/>
<text text-anchor="middle" x="155.5" y="-60.4" font-family="Helvetica,sans-Serif" font-size="12.00"> EdgeA</text>
<text text-anchor="middle" x="155.5" y="-47.4" font-family="Helvetica,sans-Serif" font-size="12.00">EdgeB</text>
</g>
<!-- Node3&#45;&gt;Node3 -->
<g id="edge3" class="edge"><title>Node3&#45;&gt;Node3</title>
<path fill="none" stroke="#9a32cd" stroke-dasharray="5,2" d="M189.735,-19.8356C194.467,-18.5012 197.5,-16.2227 197.5,-13 197.5,-7.84375 189.736,-5.10449 179.668,-4.78223"/>
<polygon fill="#9a32cd" stroke="#9a32cd" points="189.099,-16.3899 179.668,-21.2178 190.051,-23.3249 189.099,-16.3899"/>
<text text-anchor="middle" x="211" y="-16.4" font-family="Helvetica,sans-Serif" font-size="12.00"> Next</text>
<text text-anchor="middle" x="211" y="-3.4" font-family="Helvetica,sans-Serif" font-size="12.00">Prev</text>
</g>
<!-- Node14 -->
<g id="node4" class="node"><title>Node14</title>
<g id="a_node4"><a xlink:href="classtainicom_1_1_aether_1_1_physics2_d_1_1_dynamics_1_1_world.html" target="_top" xlink:title="The world class manages all physics entities, dynamic simulation, and asynchronous queries.">
<polygon fill="none" stroke="red" points="70,-159.5 70,-180.5 117,-180.5 117,-159.5 70,-159.5"/>
<text text-anchor="middle" x="93.5" y="-166.9" font-family="Helvetica,sans-Serif" font-size="12.00">World</text>
</a>
</g>
</g>
<!-- Node14&#45;&gt;Node2 -->
<g id="edge5" class="edge"><title>Node14&#45;&gt;Node2</title>
<path fill="none" stroke="#9a32cd" stroke-dasharray="5,2" d="M93.5,-149.088C93.5,-136.078 93.5,-119.675 93.5,-109.513"/>
<polygon fill="#9a32cd" stroke="#9a32cd" points="90.0001,-149.406 93.5,-159.406 97.0001,-149.406 90.0001,-149.406"/>
<text text-anchor="middle" x="112.5" y="-131.4" font-family="Helvetica,sans-Serif" font-size="12.00"> _world</text>
</g>
</g>
</svg>
