<?xml version="1.0" encoding="UTF-8" standalone="no"?>
<!DOCTYPE svg PUBLIC "-//W3C//DTD SVG 1.1//EN"
 "http://www.w3.org/Graphics/SVG/1.1/DTD/svg11.dtd">
<!-- Generated by graphviz version 2.38.0 (20140413.2041)
 -->
<!-- Title: Joint Pages: 1 -->
<svg width="191pt" height="470pt"
 viewBox="0.00 0.00 191.00 470.00" xmlns="http://www.w3.org/2000/svg" xmlns:xlink="http://www.w3.org/1999/xlink">
<g id="graph0" class="graph" transform="scale(1 1) rotate(0) translate(4 466)">
<title>Joint</title>
<!-- Node1 -->
<g id="node1" class="node"><title>Node1</title>
<g id="a_node1"><a xlink:title=" ">
<polygon fill="#bfbfbf" stroke="black" points="0,-220.5 0,-241.5 41,-241.5 41,-220.5 0,-220.5"/>
<text text-anchor="middle" x="20.5" y="-227.9" font-family="Helvetica,sans-Serif" font-size="12.00">Joint</text>
</a>
</g>
</g>
<!-- Node2 -->
<g id="node2" class="node"><title>Node2</title>
<g id="a_node2"><a xlink:href="classtainicom_1_1_aether_1_1_physics2_d_1_1_dynamics_1_1_joints_1_1_angle_joint.html" target="_top" xlink:title="Maintains a fixed angle between two bodies">
<polygon fill="none" stroke="black" points="94.5,-440.5 94.5,-461.5 165.5,-461.5 165.5,-440.5 94.5,-440.5"/>
<text text-anchor="middle" x="130" y="-447.9" font-family="Helvetica,sans-Serif" font-size="12.00">AngleJoint</text>
</a>
</g>
</g>
<!-- Node1&#45;&gt;Node2 -->
<g id="edge1" class="edge"><title>Node1&#45;&gt;Node2</title>
<path fill="none" stroke="midnightblue" d="M21.4301,-251.793C22.4169,-291.649 30.1631,-379.411 77,-431 81.6812,-436.156 87.8425,-439.994 94.2811,-442.847"/>
<polygon fill="midnightblue" stroke="midnightblue" points="24.9285,-251.637 21.3042,-241.681 17.9291,-251.724 24.9285,-251.637"/>
</g>
<!-- Node3 -->
<g id="node3" class="node"><title>Node3</title>
<g id="a_node3"><a xlink:href="classtainicom_1_1_aether_1_1_physics2_d_1_1_dynamics_1_1_joints_1_1_distance_joint.html" target="_top" xlink:title="A distance joint rains two points on two bodies to remain at a fixed distance from each other....">
<polygon fill="none" stroke="black" points="86,-400.5 86,-421.5 174,-421.5 174,-400.5 86,-400.5"/>
<text text-anchor="middle" x="130" y="-407.9" font-family="Helvetica,sans-Serif" font-size="12.00">DistanceJoint</text>
</a>
</g>
</g>
<!-- Node1&#45;&gt;Node3 -->
<g id="edge2" class="edge"><title>Node1&#45;&gt;Node3</title>
<path fill="none" stroke="midnightblue" d="M23.1528,-251.542C26.9125,-285.058 38.9843,-351.697 77,-391 80.6986,-394.824 85.2082,-397.928 90.0095,-400.445"/>
<polygon fill="midnightblue" stroke="midnightblue" points="26.6306,-251.144 22.171,-241.533 19.6641,-251.827 26.6306,-251.144"/>
</g>
<!-- Node4 -->
<g id="node4" class="node"><title>Node4</title>
<g id="a_node4"><a xlink:href="classtainicom_1_1_aether_1_1_physics2_d_1_1_dynamics_1_1_joints_1_1_fixed_mouse_joint.html" target="_top" xlink:title="A mouse joint is used to make a point on a body track a specified world point. This a soft constraint...">
<polygon fill="none" stroke="black" points="77,-360.5 77,-381.5 183,-381.5 183,-360.5 77,-360.5"/>
<text text-anchor="middle" x="130" y="-367.9" font-family="Helvetica,sans-Serif" font-size="12.00">FixedMouseJoint</text>
</a>
</g>
</g>
<!-- Node1&#45;&gt;Node4 -->
<g id="edge3" class="edge"><title>Node1&#45;&gt;Node4</title>
<path fill="none" stroke="midnightblue" d="M25.9456,-251.591C32.6592,-278.012 47.8209,-323.687 77,-351 81.0957,-354.834 86.0047,-357.957 91.1483,-360.495"/>
<polygon fill="midnightblue" stroke="midnightblue" points="29.2795,-250.48 23.5694,-241.556 22.4679,-252.093 29.2795,-250.48"/>
</g>
<!-- Node5 -->
<g id="node5" class="node"><title>Node5</title>
<g id="a_node5"><a xlink:href="classtainicom_1_1_aether_1_1_physics2_d_1_1_dynamics_1_1_joints_1_1_friction_joint.html" target="_top" xlink:title="Friction joint. This is used for top&#45;down friction. It provides 2D translational friction and angular...">
<polygon fill="none" stroke="black" points="90,-320.5 90,-341.5 170,-341.5 170,-320.5 90,-320.5"/>
<text text-anchor="middle" x="130" y="-327.9" font-family="Helvetica,sans-Serif" font-size="12.00">FrictionJoint</text>
</a>
</g>
</g>
<!-- Node1&#45;&gt;Node5 -->
<g id="edge4" class="edge"><title>Node1&#45;&gt;Node5</title>
<path fill="none" stroke="midnightblue" d="M30.7792,-250.596C40.1689,-268.537 56.2483,-294.703 77,-311 81.7925,-314.764 87.3754,-317.886 93.0695,-320.455"/>
<polygon fill="midnightblue" stroke="midnightblue" points="33.8745,-248.961 26.2637,-241.59 27.617,-252.098 33.8745,-248.961"/>
</g>
<!-- Node6 -->
<g id="node6" class="node"><title>Node6</title>
<g id="a_node6"><a xlink:href="classtainicom_1_1_aether_1_1_physics2_d_1_1_dynamics_1_1_joints_1_1_gear_joint.html" target="_top" xlink:title="A gear joint is used to connect two joints together. Either joint can be a revolute or prismatic join...">
<polygon fill="none" stroke="black" points="96,-280.5 96,-301.5 164,-301.5 164,-280.5 96,-280.5"/>
<text text-anchor="middle" x="130" y="-287.9" font-family="Helvetica,sans-Serif" font-size="12.00">GearJoint</text>
</a>
</g>
</g>
<!-- Node1&#45;&gt;Node6 -->
<g id="edge5" class="edge"><title>Node1&#45;&gt;Node6</title>
<path fill="none" stroke="midnightblue" d="M42.2641,-247.92C52.3469,-255.615 64.8801,-264.444 77,-271 83.4658,-274.497 90.6756,-277.681 97.6177,-280.429"/>
<polygon fill="midnightblue" stroke="midnightblue" points="44.1383,-244.942 34.1063,-241.535 39.8238,-250.455 44.1383,-244.942"/>
</g>
<!-- Node7 -->
<g id="node7" class="node"><title>Node7</title>
<g id="a_node7"><a xlink:href="classtainicom_1_1_aether_1_1_physics2_d_1_1_dynamics_1_1_joints_1_1_motor_joint.html" target="_top" xlink:title="A motor joint is used to control the relative motion between two bodies. A typical usage is to contro...">
<polygon fill="none" stroke="black" points="94.5,-240.5 94.5,-261.5 165.5,-261.5 165.5,-240.5 94.5,-240.5"/>
<text text-anchor="middle" x="130" y="-247.9" font-family="Helvetica,sans-Serif" font-size="12.00">MotorJoint</text>
</a>
</g>
</g>
<!-- Node1&#45;&gt;Node7 -->
<g id="edge6" class="edge"><title>Node1&#45;&gt;Node7</title>
<path fill="none" stroke="midnightblue" d="M51.2721,-236.539C64.5729,-239.014 80.3376,-241.947 94.1814,-244.522"/>
<polygon fill="midnightblue" stroke="midnightblue" points="51.6887,-233.057 41.2172,-234.668 50.4083,-239.938 51.6887,-233.057"/>
</g>
<!-- Node8 -->
<g id="node8" class="node"><title>Node8</title>
<g id="a_node8"><a xlink:href="classtainicom_1_1_aether_1_1_physics2_d_1_1_dynamics_1_1_joints_1_1_prismatic_joint.html" target="_top" xlink:title="A prismatic joint. This joint provides one degree of freedom: translation along an axis fixed in body...">
<polygon fill="none" stroke="black" points="84.5,-200.5 84.5,-221.5 175.5,-221.5 175.5,-200.5 84.5,-200.5"/>
<text text-anchor="middle" x="130" y="-207.9" font-family="Helvetica,sans-Serif" font-size="12.00">PrismaticJoint</text>
</a>
</g>
</g>
<!-- Node1&#45;&gt;Node8 -->
<g id="edge7" class="edge"><title>Node1&#45;&gt;Node8</title>
<path fill="none" stroke="midnightblue" d="M51.2915,-225.457C61.548,-223.549 73.2678,-221.369 84.4414,-219.29"/>
<polygon fill="midnightblue" stroke="midnightblue" points="50.4083,-222.062 41.2172,-227.332 51.6887,-228.943 50.4083,-222.062"/>
</g>
<!-- Node9 -->
<g id="node9" class="node"><title>Node9</title>
<g id="a_node9"><a xlink:href="classtainicom_1_1_aether_1_1_physics2_d_1_1_dynamics_1_1_joints_1_1_pulley_joint.html" target="_top" xlink:title="The pulley joint is connected to two bodies and two fixed world points. The pulley supports a ratio s...">
<polygon fill="none" stroke="black" points="94,-160.5 94,-181.5 166,-181.5 166,-160.5 94,-160.5"/>
<text text-anchor="middle" x="130" y="-167.9" font-family="Helvetica,sans-Serif" font-size="12.00">PulleyJoint</text>
</a>
</g>
</g>
<!-- Node1&#45;&gt;Node9 -->
<g id="edge8" class="edge"><title>Node1&#45;&gt;Node9</title>
<path fill="none" stroke="midnightblue" d="M42.2641,-214.08C52.3469,-206.385 64.8801,-197.556 77,-191 83.4658,-187.503 90.6756,-184.319 97.6177,-181.571"/>
<polygon fill="midnightblue" stroke="midnightblue" points="39.8238,-211.545 34.1063,-220.465 44.1383,-217.058 39.8238,-211.545"/>
</g>
<!-- Node10 -->
<g id="node10" class="node"><title>Node10</title>
<g id="a_node10"><a xlink:href="classtainicom_1_1_aether_1_1_physics2_d_1_1_dynamics_1_1_joints_1_1_revolute_joint.html" target="_top" xlink:title="A revolute joint constrains to bodies to share a common point while they are free to rotate about the...">
<polygon fill="none" stroke="black" points="87,-120.5 87,-141.5 173,-141.5 173,-120.5 87,-120.5"/>
<text text-anchor="middle" x="130" y="-127.9" font-family="Helvetica,sans-Serif" font-size="12.00">RevoluteJoint</text>
</a>
</g>
</g>
<!-- Node1&#45;&gt;Node10 -->
<g id="edge9" class="edge"><title>Node1&#45;&gt;Node10</title>
<path fill="none" stroke="midnightblue" d="M30.7792,-211.404C40.1689,-193.463 56.2483,-167.297 77,-151 81.7925,-147.236 87.3754,-144.114 93.0695,-141.545"/>
<polygon fill="midnightblue" stroke="midnightblue" points="27.617,-209.902 26.2637,-220.41 33.8745,-213.039 27.617,-209.902"/>
</g>
<!-- Node11 -->
<g id="node11" class="node"><title>Node11</title>
<g id="a_node11"><a xlink:href="classtainicom_1_1_aether_1_1_physics2_d_1_1_dynamics_1_1_joints_1_1_rope_joint.html" target="_top" xlink:title="A rope joint enforces a maximum distance between two points on two bodies. It has no other effect....">
<polygon fill="none" stroke="black" points="95,-80.5 95,-101.5 165,-101.5 165,-80.5 95,-80.5"/>
<text text-anchor="middle" x="130" y="-87.9" font-family="Helvetica,sans-Serif" font-size="12.00">RopeJoint</text>
</a>
</g>
</g>
<!-- Node1&#45;&gt;Node11 -->
<g id="edge10" class="edge"><title>Node1&#45;&gt;Node11</title>
<path fill="none" stroke="midnightblue" d="M25.9456,-210.409C32.6592,-183.988 47.8209,-138.313 77,-111 82.0843,-106.241 88.4219,-102.577 94.9058,-99.768"/>
<polygon fill="midnightblue" stroke="midnightblue" points="22.4679,-209.907 23.5694,-220.444 29.2795,-211.52 22.4679,-209.907"/>
</g>
<!-- Node12 -->
<g id="node12" class="node"><title>Node12</title>
<g id="a_node12"><a xlink:href="classtainicom_1_1_aether_1_1_physics2_d_1_1_dynamics_1_1_joints_1_1_weld_joint.html" target="_top" xlink:title="A weld joint essentially glues two bodies together. A weld joint may distort somewhat because the isl...">
<polygon fill="none" stroke="black" points="96,-40.5 96,-61.5 164,-61.5 164,-40.5 96,-40.5"/>
<text text-anchor="middle" x="130" y="-47.9" font-family="Helvetica,sans-Serif" font-size="12.00">WeldJoint</text>
</a>
</g>
</g>
<!-- Node1&#45;&gt;Node12 -->
<g id="edge11" class="edge"><title>Node1&#45;&gt;Node12</title>
<path fill="none" stroke="midnightblue" d="M23.1528,-210.458C26.9125,-176.942 38.9843,-110.303 77,-71 82.178,-65.6467 88.9456,-61.7043 95.8779,-58.8085"/>
<polygon fill="midnightblue" stroke="midnightblue" points="19.6641,-210.173 22.171,-220.467 26.6306,-210.856 19.6641,-210.173"/>
</g>
<!-- Node13 -->
<g id="node13" class="node"><title>Node13</title>
<g id="a_node13"><a xlink:href="classtainicom_1_1_aether_1_1_physics2_d_1_1_dynamics_1_1_joints_1_1_wheel_joint.html" target="_top" xlink:title="A wheel joint. This joint provides two degrees of freedom: translation along an axis fixed in bodyA a...">
<polygon fill="none" stroke="black" points="93,-0.5 93,-21.5 167,-21.5 167,-0.5 93,-0.5"/>
<text text-anchor="middle" x="130" y="-7.9" font-family="Helvetica,sans-Serif" font-size="12.00">WheelJoint</text>
</a>
</g>
</g>
<!-- Node1&#45;&gt;Node13 -->
<g id="edge12" class="edge"><title>Node1&#45;&gt;Node13</title>
<path fill="none" stroke="midnightblue" d="M21.4301,-210.207C22.4169,-170.351 30.1631,-82.5889 77,-31 81.3561,-26.2019 86.9939,-22.5454 92.9442,-19.7615"/>
<polygon fill="midnightblue" stroke="midnightblue" points="17.9291,-210.276 21.3042,-220.319 24.9285,-210.363 17.9291,-210.276"/>
</g>
</g>
</svg>
