<?xml version="1.0" encoding="UTF-8" standalone="no"?>
<!DOCTYPE svg PUBLIC "-//W3C//DTD SVG 1.1//EN"
 "http://www.w3.org/Graphics/SVG/1.1/DTD/svg11.dtd">
<!-- Generated by graphviz version 2.38.0 (20140413.2041)
 -->
<!-- Title: Body Pages: 1 -->
<svg width="514pt" height="428pt"
 viewBox="0.00 0.00 514.00 428.00" xmlns="http://www.w3.org/2000/svg" xmlns:xlink="http://www.w3.org/1999/xlink">
<g id="graph0" class="graph" transform="scale(1 1) rotate(0) translate(4 424)">
<title>Body</title>
<!-- Node1 -->
<g id="node1" class="node"><title>Node1</title>
<g id="a_node1"><a xlink:title=" ">
<polygon fill="#bfbfbf" stroke="black" points="462,-287.5 462,-308.5 506,-308.5 506,-287.5 462,-287.5"/>
<text text-anchor="middle" x="484" y="-294.9" font-family="Helvetica,sans-Serif" font-size="12.00">Body</text>
</a>
</g>
</g>
<!-- Node2 -->
<g id="node2" class="node"><title>Node2</title>
<g id="a_node2"><a xlink:href="structtainicom_1_1_aether_1_1_physics2_d_1_1_common_1_1_sweep.html" target="_top" xlink:title="This describes the motion of a body/shape for TOI computation. Shapes are defined with respect to the...">
<polygon fill="none" stroke="black" points="289.5,-334.5 289.5,-355.5 342.5,-355.5 342.5,-334.5 289.5,-334.5"/>
<text text-anchor="middle" x="316" y="-341.9" font-family="Helvetica,sans-Serif" font-size="12.00">Sweep</text>
</a>
</g>
</g>
<!-- Node2&#45;&gt;Node1 -->
<g id="edge1" class="edge"><title>Node2&#45;&gt;Node1</title>
<path fill="none" stroke="#9a32cd" stroke-dasharray="5,2" d="M352.717,-338.347C378.433,-333.127 413.773,-325.068 444,-315 449.886,-313.039 456.109,-310.535 461.813,-308.055"/>
<polygon fill="#9a32cd" stroke="#9a32cd" points="351.802,-334.96 342.675,-340.34 353.165,-341.826 351.802,-334.96"/>
<text text-anchor="middle" x="415" y="-333.4" font-family="Helvetica,sans-Serif" font-size="12.00"> _sweep</text>
</g>
<!-- Node3 -->
<g id="node3" class="node"><title>Node3</title>
<g id="a_node3"><a xlink:href="structtainicom_1_1_aether_1_1_physics2_d_1_1_common_1_1_vector2.html" target="_top" xlink:title=" ">
<polygon fill="none" stroke="red" points="39.5,-348.5 39.5,-369.5 97.5,-369.5 97.5,-348.5 39.5,-348.5"/>
<text text-anchor="middle" x="68.5" y="-355.9" font-family="Helvetica,sans-Serif" font-size="12.00">Vector2</text>
</a>
</g>
</g>
<!-- Node3&#45;&gt;Node1 -->
<g id="edge7" class="edge"><title>Node3&#45;&gt;Node1</title>
<path fill="none" stroke="#9a32cd" stroke-dasharray="5,2" d="M96.3984,-374.453C112.761,-382.95 134.411,-392.631 155,-397 194.563,-405.396 205.864,-401.989 246,-397 336.069,-385.803 367.732,-396.204 444,-347 458.983,-337.334 470.775,-319.943 477.315,-308.691"/>
<polygon fill="#9a32cd" stroke="#9a32cd" points="97.8896,-371.282 87.4232,-369.637 94.5795,-377.449 97.8896,-371.282"/>
<text text-anchor="middle" x="316" y="-410.4" font-family="Helvetica,sans-Serif" font-size="12.00"> _force</text>
<text text-anchor="middle" x="316" y="-397.4" font-family="Helvetica,sans-Serif" font-size="12.00">_linearVelocity</text>
</g>
<!-- Node3&#45;&gt;Node2 -->
<g id="edge2" class="edge"><title>Node3&#45;&gt;Node2</title>
<path fill="none" stroke="#9a32cd" stroke-dasharray="5,2" d="M107.868,-356.812C158.472,-353.926 246.151,-348.926 289.386,-346.461"/>
<polygon fill="#9a32cd" stroke="#9a32cd" points="107.446,-353.33 97.662,-357.394 107.845,-360.319 107.446,-353.33"/>
<text text-anchor="middle" x="200.5" y="-383.4" font-family="Helvetica,sans-Serif" font-size="12.00"> C</text>
<text text-anchor="middle" x="200.5" y="-370.4" font-family="Helvetica,sans-Serif" font-size="12.00">C0</text>
<text text-anchor="middle" x="200.5" y="-357.4" font-family="Helvetica,sans-Serif" font-size="12.00">LocalCenter</text>
</g>
<!-- Node9 -->
<g id="node8" class="node"><title>Node9</title>
<g id="a_node8"><a xlink:href="structtainicom_1_1_aether_1_1_physics2_d_1_1_common_1_1_transform.html" target="_top" xlink:title="A transform contains translation and rotation. It is used to represent the position and orientation o...">
<polygon fill="none" stroke="black" points="281.5,-287.5 281.5,-308.5 350.5,-308.5 350.5,-287.5 281.5,-287.5"/>
<text text-anchor="middle" x="316" y="-294.9" font-family="Helvetica,sans-Serif" font-size="12.00">Transform</text>
</a>
</g>
</g>
<!-- Node3&#45;&gt;Node9 -->
<g id="edge9" class="edge"><title>Node3&#45;&gt;Node9</title>
<path fill="none" stroke="#9a32cd" stroke-dasharray="5,2" d="M107.576,-346.11C122.299,-341.354 139.345,-336.125 155,-332 198.251,-320.604 248.845,-310.361 281.376,-304.166"/>
<polygon fill="#9a32cd" stroke="#9a32cd" points="106.216,-342.872 97.7996,-349.308 108.392,-349.526 106.216,-342.872"/>
<text text-anchor="middle" x="200.5" y="-335.4" font-family="Helvetica,sans-Serif" font-size="12.00"> p</text>
</g>
<!-- Node5 -->
<g id="node4" class="node"><title>Node5</title>
<g id="a_node4"><a xlink:href="classtainicom_1_1_aether_1_1_physics2_d_1_1_dynamics_1_1_fixture_collection.html" target="_top" xlink:title=" ">
<polygon fill="none" stroke="black" points="264,-220.5 264,-241.5 368,-241.5 368,-220.5 264,-220.5"/>
<text text-anchor="middle" x="316" y="-227.9" font-family="Helvetica,sans-Serif" font-size="12.00">FixtureCollection</text>
</a>
</g>
</g>
<!-- Node5&#45;&gt;Node1 -->
<g id="edge3" class="edge"><title>Node5&#45;&gt;Node1</title>
<path fill="none" stroke="#9a32cd" stroke-dasharray="5,2" d="M354.221,-245.248C379.61,-255.066 413.952,-268.541 444,-281 449.731,-283.376 455.9,-286.024 461.603,-288.508"/>
<polygon fill="#9a32cd" stroke="#9a32cd" points="355.203,-241.876 344.614,-241.542 352.684,-248.407 355.203,-241.876"/>
<text text-anchor="middle" x="415" y="-284.4" font-family="Helvetica,sans-Serif" font-size="12.00"> FixtureList</text>
</g>
<!-- Node6 -->
<g id="node5" class="node"><title>Node6</title>
<g id="a_node5"><a xlink:title=" ">
<polygon fill="none" stroke="#bfbfbf" points="0,-240.5 0,-261.5 137,-261.5 137,-240.5 0,-240.5"/>
<text text-anchor="middle" x="68.5" y="-247.9" font-family="Helvetica,sans-Serif" font-size="12.00">IEnumerable&lt; Fixture &gt;</text>
</a>
</g>
</g>
<!-- Node6&#45;&gt;Node5 -->
<g id="edge4" class="edge"><title>Node6&#45;&gt;Node5</title>
<path fill="none" stroke="midnightblue" d="M147.269,-244.664C185.349,-241.562 230.132,-237.914 263.841,-235.168"/>
<polygon fill="midnightblue" stroke="midnightblue" points="146.917,-241.181 137.234,-245.482 147.485,-248.158 146.917,-241.181"/>
</g>
<!-- Node7 -->
<g id="node6" class="node"><title>Node7</title>
<g id="a_node6"><a xlink:title=" ">
<polygon fill="none" stroke="#bfbfbf" points="6,-200.5 6,-221.5 131,-221.5 131,-200.5 6,-200.5"/>
<text text-anchor="middle" x="68.5" y="-207.9" font-family="Helvetica,sans-Serif" font-size="12.00">ICollection&lt; Fixture &gt;</text>
</a>
</g>
</g>
<!-- Node7&#45;&gt;Node5 -->
<g id="edge5" class="edge"><title>Node7&#45;&gt;Node5</title>
<path fill="none" stroke="midnightblue" d="M141.18,-216.84C180.445,-220.038 228.194,-223.928 263.703,-226.821"/>
<polygon fill="midnightblue" stroke="midnightblue" points="141.384,-213.345 131.133,-216.021 140.816,-220.322 141.384,-213.345"/>
</g>
<!-- Node8 -->
<g id="node7" class="node"><title>Node8</title>
<g id="a_node7"><a xlink:title=" ">
<polygon fill="none" stroke="#bfbfbf" points="22.5,-160.5 22.5,-181.5 114.5,-181.5 114.5,-160.5 22.5,-160.5"/>
<text text-anchor="middle" x="68.5" y="-167.9" font-family="Helvetica,sans-Serif" font-size="12.00">IList&lt; Fixture &gt;</text>
</a>
</g>
</g>
<!-- Node8&#45;&gt;Node5 -->
<g id="edge6" class="edge"><title>Node8&#45;&gt;Node5</title>
<path fill="none" stroke="midnightblue" d="M123.033,-184.004C158.03,-192.515 204.737,-203.89 246,-214 254.508,-216.084 263.604,-218.32 272.308,-220.463"/>
<polygon fill="midnightblue" stroke="midnightblue" points="123.572,-180.533 113.028,-181.571 121.918,-187.335 123.572,-180.533"/>
</g>
<!-- Node9&#45;&gt;Node1 -->
<g id="edge8" class="edge"><title>Node9&#45;&gt;Node1</title>
<path fill="none" stroke="#9a32cd" stroke-dasharray="5,2" d="M360.745,-298C393.252,-298 436.197,-298 461.58,-298"/>
<polygon fill="#9a32cd" stroke="#9a32cd" points="360.593,-294.5 350.593,-298 360.593,-301.5 360.593,-294.5"/>
<text text-anchor="middle" x="415" y="-301.4" font-family="Helvetica,sans-Serif" font-size="12.00"> _xf</text>
</g>
<!-- Node10 -->
<g id="node9" class="node"><title>Node10</title>
<g id="a_node9"><a xlink:href="structtainicom_1_1_aether_1_1_physics2_d_1_1_common_1_1_complex.html" target="_top" xlink:title=" ">
<polygon fill="none" stroke="black" points="37,-280.5 37,-301.5 100,-301.5 100,-280.5 37,-280.5"/>
<text text-anchor="middle" x="68.5" y="-287.9" font-family="Helvetica,sans-Serif" font-size="12.00">Complex</text>
</a>
</g>
</g>
<!-- Node10&#45;&gt;Node9 -->
<g id="edge10" class="edge"><title>Node10&#45;&gt;Node9</title>
<path fill="none" stroke="#9a32cd" stroke-dasharray="5,2" d="M110.219,-288.258C146.029,-286.336 199.539,-284.651 246,-288 257.59,-288.835 270.191,-290.451 281.414,-292.143"/>
<polygon fill="#9a32cd" stroke="#9a32cd" points="109.941,-284.769 100.155,-288.83 110.338,-291.757 109.941,-284.769"/>
<text text-anchor="middle" x="200.5" y="-291.4" font-family="Helvetica,sans-Serif" font-size="12.00"> q</text>
</g>
<!-- Node11 -->
<g id="node10" class="node"><title>Node11</title>
<g id="a_node10"><a xlink:href="classtainicom_1_1_aether_1_1_physics2_d_1_1_dynamics_1_1_world.html" target="_top" xlink:title="The world class manages all physics entities, dynamic simulation, and asynchronous queries.">
<polygon fill="none" stroke="black" points="292.5,-80.5 292.5,-101.5 339.5,-101.5 339.5,-80.5 292.5,-80.5"/>
<text text-anchor="middle" x="316" y="-87.9" font-family="Helvetica,sans-Serif" font-size="12.00">World</text>
</a>
</g>
</g>
<!-- Node11&#45;&gt;Node1 -->
<g id="edge11" class="edge"><title>Node11&#45;&gt;Node1</title>
<path fill="none" stroke="#9a32cd" stroke-dasharray="5,2" d="M333.571,-109.318C358.443,-137.085 406.507,-191.814 444,-241 455.921,-256.639 468.574,-275.633 476.128,-287.266"/>
<polygon fill="#9a32cd" stroke="#9a32cd" points="335.922,-106.698 326.634,-101.602 330.717,-111.378 335.922,-106.698"/>
<text text-anchor="middle" x="415" y="-244.4" font-family="Helvetica,sans-Serif" font-size="12.00"> _world</text>
</g>
<!-- Node12 -->
<g id="node11" class="node"><title>Node12</title>
<g id="a_node11"><a xlink:href="classtainicom_1_1_aether_1_1_physics2_d_1_1_dynamics_1_1_joint_collection.html" target="_top" xlink:title=" ">
<polygon fill="none" stroke="red" points="22,-120.5 22,-141.5 115,-141.5 115,-120.5 22,-120.5"/>
<text text-anchor="middle" x="68.5" y="-127.9" font-family="Helvetica,sans-Serif" font-size="12.00">JointCollection</text>
</a>
</g>
</g>
<!-- Node12&#45;&gt;Node11 -->
<g id="edge12" class="edge"><title>Node12&#45;&gt;Node11</title>
<path fill="none" stroke="#9a32cd" stroke-dasharray="5,2" d="M125.059,-125.374C159.941,-121.444 205.781,-115.551 246,-108 261.642,-105.063 279.04,-100.77 292.453,-97.2323"/>
<polygon fill="#9a32cd" stroke="#9a32cd" points="124.619,-121.902 115.065,-126.481 125.39,-128.859 124.619,-121.902"/>
<text text-anchor="middle" x="200.5" y="-124.4" font-family="Helvetica,sans-Serif" font-size="12.00"> JointList</text>
</g>
<!-- Node16 -->
<g id="node12" class="node"><title>Node16</title>
<g id="a_node12"><a xlink:href="classtainicom_1_1_aether_1_1_physics2_d_1_1_dynamics_1_1_contact_manager.html" target="_top" xlink:title=" ">
<polygon fill="none" stroke="red" points="16.5,-80.5 16.5,-101.5 120.5,-101.5 120.5,-80.5 16.5,-80.5"/>
<text text-anchor="middle" x="68.5" y="-87.9" font-family="Helvetica,sans-Serif" font-size="12.00">ContactManager</text>
</a>
</g>
</g>
<!-- Node16&#45;&gt;Node11 -->
<g id="edge13" class="edge"><title>Node16&#45;&gt;Node11</title>
<path fill="none" stroke="#9a32cd" stroke-dasharray="5,2" d="M130.875,-91C183.347,-91 255.966,-91 292.334,-91"/>
<polygon fill="#9a32cd" stroke="#9a32cd" points="130.666,-87.5001 120.666,-91 130.666,-94.5001 130.666,-87.5001"/>
<text text-anchor="middle" x="200.5" y="-94.4" font-family="Helvetica,sans-Serif" font-size="12.00"> ContactManager</text>
</g>
<!-- Node24 -->
<g id="node13" class="node"><title>Node24</title>
<g id="a_node13"><a xlink:href="classtainicom_1_1_aether_1_1_physics2_d_1_1_dynamics_1_1_controller_collection.html" target="_top" xlink:title=" ">
<polygon fill="none" stroke="red" points="9,-40.5 9,-61.5 128,-61.5 128,-40.5 9,-40.5"/>
<text text-anchor="middle" x="68.5" y="-47.9" font-family="Helvetica,sans-Serif" font-size="12.00">ControllerCollection</text>
</a>
</g>
</g>
<!-- Node24&#45;&gt;Node11 -->
<g id="edge14" class="edge"><title>Node24&#45;&gt;Node11</title>
<path fill="none" stroke="#9a32cd" stroke-dasharray="5,2" d="M138.132,-58.1331C170.919,-62.0019 210.632,-67.3603 246,-74 261.642,-76.9365 279.04,-81.2302 292.453,-84.7677"/>
<polygon fill="#9a32cd" stroke="#9a32cd" points="138.528,-54.6557 128.191,-56.9805 137.721,-61.6091 138.528,-54.6557"/>
<text text-anchor="middle" x="200.5" y="-77.4" font-family="Helvetica,sans-Serif" font-size="12.00"> ControllerList</text>
</g>
<!-- Node28 -->
<g id="node14" class="node"><title>Node28</title>
<g id="a_node14"><a xlink:href="classtainicom_1_1_aether_1_1_physics2_d_1_1_dynamics_1_1_body_collection.html" target="_top" xlink:title=" ">
<polygon fill="none" stroke="red" points="21,-0.5 21,-21.5 116,-21.5 116,-0.5 21,-0.5"/>
<text text-anchor="middle" x="68.5" y="-7.9" font-family="Helvetica,sans-Serif" font-size="12.00">BodyCollection</text>
</a>
</g>
</g>
<!-- Node28&#45;&gt;Node11 -->
<g id="edge15" class="edge"><title>Node28&#45;&gt;Node11</title>
<path fill="none" stroke="#9a32cd" stroke-dasharray="5,2" d="M126.549,-15.1149C162,-19.1685 207.913,-27.1844 246,-43 268.102,-52.1778 290.204,-69.2958 303.234,-80.414"/>
<polygon fill="#9a32cd" stroke="#9a32cd" points="126.69,-11.6101 116.375,-14.0266 125.946,-18.5704 126.69,-11.6101"/>
<text text-anchor="middle" x="200.5" y="-46.4" font-family="Helvetica,sans-Serif" font-size="12.00"> BodyList</text>
</g>
</g>
</svg>
