<?xml version="1.0" encoding="UTF-8" standalone="no"?>
<!DOCTYPE svg PUBLIC "-//W3C//DTD SVG 1.1//EN"
 "http://www.w3.org/Graphics/SVG/1.1/DTD/svg11.dtd">
<!-- Generated by graphviz version 2.38.0 (20140413.2041)
 -->
<!-- Title: ContactListHead Pages: 1 -->
<svg width="274pt" height="173pt"
 viewBox="0.00 0.00 273.50 173.00" xmlns="http://www.w3.org/2000/svg" xmlns:xlink="http://www.w3.org/1999/xlink">
<g id="graph0" class="graph" transform="scale(1 1) rotate(0) translate(4 169)">
<title>ContactListHead</title>
<!-- Node1 -->
<g id="node1" class="node"><title>Node1</title>
<g id="a_node1"><a xlink:title="Head of a circular doubly linked list.">
<polygon fill="#bfbfbf" stroke="black" points="112.5,-0.5 112.5,-21.5 216.5,-21.5 216.5,-0.5 112.5,-0.5"/>
<text text-anchor="middle" x="164.5" y="-7.9" font-family="Helvetica,sans-Serif" font-size="12.00">ContactListHead</text>
</a>
</g>
</g>
<!-- Node2 -->
<g id="node2" class="node"><title>Node2</title>
<g id="a_node2"><a xlink:href="classtainicom_1_1_aether_1_1_physics2_d_1_1_dynamics_1_1_contacts_1_1_contact.html" target="_top" xlink:title="The class manages contact between two shapes. A contact exists for each overlapping AABB in the broad...">
<polygon fill="none" stroke="black" points="48,-59.5 48,-80.5 105,-80.5 105,-59.5 48,-59.5"/>
<text text-anchor="middle" x="76.5" y="-66.9" font-family="Helvetica,sans-Serif" font-size="12.00">Contact</text>
</a>
</g>
</g>
<!-- Node2&#45;&gt;Node1 -->
<g id="edge1" class="edge"><title>Node2&#45;&gt;Node1</title>
<path fill="none" stroke="midnightblue" d="M100.132,-53.6931C115.943,-43.4518 136.256,-30.2942 149.792,-21.5265"/>
<polygon fill="midnightblue" stroke="midnightblue" points="97.9184,-50.9566 91.428,-59.3307 101.724,-56.8318 97.9184,-50.9566"/>
</g>
<!-- Node3 -->
<g id="node3" class="node"><title>Node3</title>
<g id="a_node3"><a xlink:href="structtainicom_1_1_aether_1_1_physics2_d_1_1_collision_1_1_manifold.html" target="_top" xlink:title="A manifold for two touching convex Shapes. Box2D supports multiple types of contact:">
<polygon fill="none" stroke="red" points="0,-143.5 0,-164.5 61,-164.5 61,-143.5 0,-143.5"/>
<text text-anchor="middle" x="30.5" y="-150.9" font-family="Helvetica,sans-Serif" font-size="12.00">Manifold</text>
</a>
</g>
</g>
<!-- Node3&#45;&gt;Node2 -->
<g id="edge2" class="edge"><title>Node3&#45;&gt;Node2</title>
<path fill="none" stroke="#9a32cd" stroke-dasharray="5,2" d="M36.619,-133.791C40.4242,-123.141 45.8575,-109.889 52.5,-99 56.5677,-92.3318 62.2091,-85.6601 67.0004,-80.5026"/>
<polygon fill="#9a32cd" stroke="#9a32cd" points="33.2606,-132.797 33.372,-143.391 39.8916,-135.04 33.2606,-132.797"/>
<text text-anchor="middle" x="76.5" y="-108.9" font-family="Helvetica,sans-Serif" font-size="12.00"> Manifold</text>
</g>
<!-- Node7 -->
<g id="node4" class="node"><title>Node7</title>
<g id="a_node4"><a xlink:href="classtainicom_1_1_aether_1_1_physics2_d_1_1_dynamics_1_1_contacts_1_1_contact_edge.html" target="_top" xlink:title="A contact edge is used to connect bodies and contacts together in a contact graph where each body is ...">
<polygon fill="none" stroke="black" points="79.5,-143.5 79.5,-164.5 165.5,-164.5 165.5,-143.5 79.5,-143.5"/>
<text text-anchor="middle" x="122.5" y="-150.9" font-family="Helvetica,sans-Serif" font-size="12.00">ContactEdge</text>
</a>
</g>
</g>
<!-- Node7&#45;&gt;Node2 -->
<g id="edge3" class="edge"><title>Node7&#45;&gt;Node2</title>
<path fill="none" stroke="#9a32cd" stroke-dasharray="5,2" d="M116.381,-133.791C112.576,-123.141 107.143,-109.889 100.5,-99 96.4323,-92.3318 90.7909,-85.6601 85.9996,-80.5026"/>
<polygon fill="#9a32cd" stroke="#9a32cd" points="113.108,-135.04 119.628,-143.391 119.739,-132.797 113.108,-135.04"/>
<text text-anchor="middle" x="136" y="-115.4" font-family="Helvetica,sans-Serif" font-size="12.00"> _nodeA</text>
<text text-anchor="middle" x="136" y="-102.4" font-family="Helvetica,sans-Serif" font-size="12.00">_nodeB</text>
</g>
<!-- Node8 -->
<g id="node5" class="node"><title>Node8</title>
<g id="a_node5"><a xlink:title=" ">
<polygon fill="none" stroke="#bfbfbf" points="123.5,-59.5 123.5,-80.5 265.5,-80.5 265.5,-59.5 123.5,-59.5"/>
<text text-anchor="middle" x="194.5" y="-66.9" font-family="Helvetica,sans-Serif" font-size="12.00">IEnumerable&lt; Contact &gt;</text>
</a>
</g>
</g>
<!-- Node8&#45;&gt;Node1 -->
<g id="edge4" class="edge"><title>Node8&#45;&gt;Node1</title>
<path fill="none" stroke="midnightblue" d="M184.737,-50.45C179.654,-40.7929 173.654,-29.3929 169.514,-21.5265"/>
<polygon fill="midnightblue" stroke="midnightblue" points="181.656,-52.1117 189.411,-59.3307 187.851,-48.8514 181.656,-52.1117"/>
</g>
</g>
</svg>
