<?xml version="1.0" encoding="UTF-8" standalone="no"?>
<!DOCTYPE svg PUBLIC "-//W3C//DTD SVG 1.1//EN"
 "http://www.w3.org/Graphics/SVG/1.1/DTD/svg11.dtd">
<!-- Generated by graphviz version 2.38.0 (20140413.2041)
 -->
<!-- Title: RopeJoint Pages: 1 -->
<svg width="211pt" height="189pt"
 viewBox="0.00 0.00 211.00 189.00" xmlns="http://www.w3.org/2000/svg" xmlns:xlink="http://www.w3.org/1999/xlink">
<g id="graph0" class="graph" transform="scale(1 1) rotate(0) translate(4 185)">
<title>RopeJoint</title>
<!-- Node1 -->
<g id="node1" class="node"><title>Node1</title>
<g id="a_node1"><a xlink:title="A rope joint enforces a maximum distance between two points on two bodies. It has no other effect....">
<polygon fill="#bfbfbf" stroke="black" points="0,-2.5 0,-23.5 70,-23.5 70,-2.5 0,-2.5"/>
<text text-anchor="middle" x="35" y="-9.9" font-family="Helvetica,sans-Serif" font-size="12.00">RopeJoint</text>
</a>
</g>
</g>
<!-- Node2 -->
<g id="node2" class="node"><title>Node2</title>
<g id="a_node2"><a xlink:href="classtainicom_1_1_aether_1_1_physics2_d_1_1_dynamics_1_1_joints_1_1_joint.html" target="_top" xlink:title=" ">
<polygon fill="none" stroke="black" points="51.5,-88.5 51.5,-109.5 92.5,-109.5 92.5,-88.5 51.5,-88.5"/>
<text text-anchor="middle" x="72" y="-95.9" font-family="Helvetica,sans-Serif" font-size="12.00">Joint</text>
</a>
</g>
</g>
<!-- Node2&#45;&gt;Node1 -->
<g id="edge1" class="edge"><title>Node2&#45;&gt;Node1</title>
<path fill="none" stroke="midnightblue" d="M56.3965,-80.3077C54.0125,-77.0303 51.7632,-73.5247 50,-70 42.345,-54.6975 38.2421,-35.0238 36.3494,-23.5325"/>
<polygon fill="midnightblue" stroke="midnightblue" points="53.8068,-82.6738 62.7802,-88.3067 59.2781,-78.3074 53.8068,-82.6738"/>
</g>
<!-- Node3 -->
<g id="node3" class="node"><title>Node3</title>
<g id="a_node3"><a xlink:href="classtainicom_1_1_aether_1_1_physics2_d_1_1_dynamics_1_1_joints_1_1_joint_edge.html" target="_top" xlink:title="A joint edge is used to connect bodies and joints together in a joint graph where each body is a node...">
<polygon fill="none" stroke="red" points="88,-2.5 88,-23.5 158,-23.5 158,-2.5 88,-2.5"/>
<text text-anchor="middle" x="123" y="-9.9" font-family="Helvetica,sans-Serif" font-size="12.00">JointEdge</text>
</a>
</g>
</g>
<!-- Node2&#45;&gt;Node3 -->
<g id="edge4" class="edge"><title>Node2&#45;&gt;Node3</title>
<path fill="none" stroke="#9a32cd" stroke-dasharray="5,2" d="M65.9022,-78.6408C63.6493,-67.753 62.9289,-54.3179 69,-44 74.4387,-34.7568 83.8682,-28.1572 93.3408,-23.5463"/>
<polygon fill="#9a32cd" stroke="#9a32cd" points="62.5562,-79.6799 68.4712,-88.4698 69.3287,-77.9097 62.5562,-79.6799"/>
<text text-anchor="middle" x="83" y="-53.9" font-family="Helvetica,sans-Serif" font-size="12.00"> Joint</text>
</g>
<!-- Node3&#45;&gt;Node2 -->
<g id="edge2" class="edge"><title>Node3&#45;&gt;Node2</title>
<path fill="none" stroke="#9a32cd" stroke-dasharray="5,2" d="M117.638,-33.4425C113.995,-44.6987 108.472,-58.808 101,-70 96.4148,-76.8683 89.8952,-83.3539 84.1986,-88.3503"/>
<polygon fill="#9a32cd" stroke="#9a32cd" points="121.036,-34.2972 120.558,-23.7132 114.331,-32.2852 121.036,-34.2972"/>
<text text-anchor="middle" x="133" y="-60.4" font-family="Helvetica,sans-Serif" font-size="12.00"> EdgeA</text>
<text text-anchor="middle" x="133" y="-47.4" font-family="Helvetica,sans-Serif" font-size="12.00">EdgeB</text>
</g>
<!-- Node3&#45;&gt;Node3 -->
<g id="edge3" class="edge"><title>Node3&#45;&gt;Node3</title>
<path fill="none" stroke="#9a32cd" stroke-dasharray="5,2" d="M168.235,-19.8356C172.967,-18.5012 176,-16.2227 176,-13 176,-7.84375 168.236,-5.10449 158.168,-4.78223"/>
<polygon fill="#9a32cd" stroke="#9a32cd" points="167.599,-16.3899 158.168,-21.2178 168.551,-23.3249 167.599,-16.3899"/>
<text text-anchor="middle" x="189.5" y="-16.4" font-family="Helvetica,sans-Serif" font-size="12.00"> Next</text>
<text text-anchor="middle" x="189.5" y="-3.4" font-family="Helvetica,sans-Serif" font-size="12.00">Prev</text>
</g>
<!-- Node14 -->
<g id="node4" class="node"><title>Node14</title>
<g id="a_node4"><a xlink:href="classtainicom_1_1_aether_1_1_physics2_d_1_1_dynamics_1_1_world.html" target="_top" xlink:title="The world class manages all physics entities, dynamic simulation, and asynchronous queries.">
<polygon fill="none" stroke="red" points="48.5,-159.5 48.5,-180.5 95.5,-180.5 95.5,-159.5 48.5,-159.5"/>
<text text-anchor="middle" x="72" y="-166.9" font-family="Helvetica,sans-Serif" font-size="12.00">World</text>
</a>
</g>
</g>
<!-- Node14&#45;&gt;Node2 -->
<g id="edge5" class="edge"><title>Node14&#45;&gt;Node2</title>
<path fill="none" stroke="#9a32cd" stroke-dasharray="5,2" d="M72,-149.088C72,-136.078 72,-119.675 72,-109.513"/>
<polygon fill="#9a32cd" stroke="#9a32cd" points="68.5001,-149.406 72,-159.406 75.5001,-149.406 68.5001,-149.406"/>
<text text-anchor="middle" x="91" y="-131.4" font-family="Helvetica,sans-Serif" font-size="12.00"> _world</text>
</g>
</g>
</svg>
