<?xml version="1.0" encoding="UTF-8" standalone="no"?>
<!DOCTYPE svg PUBLIC "-//W3C//DTD SVG 1.1//EN"
 "http://www.w3.org/Graphics/SVG/1.1/DTD/svg11.dtd">
<!-- Generated by graphviz version 2.38.0 (20140413.2041)
 -->
<!-- Title: TOIInput Pages: 1 -->
<svg width="175pt" height="211pt"
 viewBox="0.00 0.00 175.00 211.00" xmlns="http://www.w3.org/2000/svg" xmlns:xlink="http://www.w3.org/1999/xlink">
<g id="graph0" class="graph" transform="scale(1 1) rotate(0) translate(4 207)">
<title>TOIInput</title>
<!-- Node1 -->
<g id="node1" class="node"><title>Node1</title>
<g id="a_node1"><a xlink:title="Input parameters for CalculateTimeOfImpact">
<polygon fill="#bfbfbf" stroke="black" points="46.5,-0.5 46.5,-21.5 105.5,-21.5 105.5,-0.5 46.5,-0.5"/>
<text text-anchor="middle" x="76" y="-7.9" font-family="Helvetica,sans-Serif" font-size="12.00">TOIInput</text>
</a>
</g>
</g>
<!-- Node2 -->
<g id="node2" class="node"><title>Node2</title>
<g id="a_node2"><a xlink:href="structtainicom_1_1_aether_1_1_physics2_d_1_1_common_1_1_sweep.html" target="_top" xlink:title="This describes the motion of a body/shape for TOI computation. Shapes are defined with respect to the...">
<polygon fill="none" stroke="black" points="2.5,-84.5 2.5,-105.5 55.5,-105.5 55.5,-84.5 2.5,-84.5"/>
<text text-anchor="middle" x="29" y="-91.9" font-family="Helvetica,sans-Serif" font-size="12.00">Sweep</text>
</a>
</g>
</g>
<!-- Node2&#45;&gt;Node1 -->
<g id="edge1" class="edge"><title>Node2&#45;&gt;Node1</title>
<path fill="none" stroke="#9a32cd" stroke-dasharray="5,2" d="M29.2315,-74.3198C30.1616,-63.4998 32.681,-50.2364 39,-40 43.6546,-32.4598 51.1406,-26.2297 58.1652,-21.5761"/>
<polygon fill="#9a32cd" stroke="#9a32cd" points="25.7273,-74.3257 28.7449,-84.4817 32.7193,-74.6606 25.7273,-74.3257"/>
<text text-anchor="middle" x="63.5" y="-56.4" font-family="Helvetica,sans-Serif" font-size="12.00"> SweepA</text>
<text text-anchor="middle" x="63.5" y="-43.4" font-family="Helvetica,sans-Serif" font-size="12.00">SweepB</text>
</g>
<!-- Node3 -->
<g id="node3" class="node"><title>Node3</title>
<g id="a_node3"><a xlink:href="structtainicom_1_1_aether_1_1_physics2_d_1_1_common_1_1_vector2.html" target="_top" xlink:title=" ">
<polygon fill="none" stroke="red" points="0,-181.5 0,-202.5 58,-202.5 58,-181.5 0,-181.5"/>
<text text-anchor="middle" x="29" y="-188.9" font-family="Helvetica,sans-Serif" font-size="12.00">Vector2</text>
</a>
</g>
</g>
<!-- Node3&#45;&gt;Node2 -->
<g id="edge2" class="edge"><title>Node3&#45;&gt;Node2</title>
<path fill="none" stroke="#9a32cd" stroke-dasharray="5,2" d="M29,-170.968C29,-150.897 29,-120.857 29,-105.614"/>
<polygon fill="#9a32cd" stroke="#9a32cd" points="25.5001,-171.191 29,-181.191 32.5001,-171.191 25.5001,-171.191"/>
<text text-anchor="middle" x="61" y="-153.4" font-family="Helvetica,sans-Serif" font-size="12.00"> C</text>
<text text-anchor="middle" x="61" y="-140.4" font-family="Helvetica,sans-Serif" font-size="12.00">C0</text>
<text text-anchor="middle" x="61" y="-127.4" font-family="Helvetica,sans-Serif" font-size="12.00">LocalCenter</text>
</g>
<!-- Node5 -->
<g id="node4" class="node"><title>Node5</title>
<g id="a_node4"><a xlink:href="structtainicom_1_1_aether_1_1_physics2_d_1_1_collision_1_1_distance_proxy.html" target="_top" xlink:title="A distance proxy is used by the GJK algorithm. It encapsulates any shape.">
<polygon fill="none" stroke="black" points="74,-84.5 74,-105.5 166,-105.5 166,-84.5 74,-84.5"/>
<text text-anchor="middle" x="120" y="-91.9" font-family="Helvetica,sans-Serif" font-size="12.00">DistanceProxy</text>
</a>
</g>
</g>
<!-- Node5&#45;&gt;Node1 -->
<g id="edge3" class="edge"><title>Node5&#45;&gt;Node1</title>
<path fill="none" stroke="#9a32cd" stroke-dasharray="5,2" d="M110.025,-75.4095C101.073,-58.7277 88.2886,-34.9015 81.2134,-21.7158"/>
<polygon fill="#9a32cd" stroke="#9a32cd" points="106.968,-77.1148 114.78,-84.2715 113.136,-73.805 106.968,-77.1148"/>
<text text-anchor="middle" x="125.5" y="-56.4" font-family="Helvetica,sans-Serif" font-size="12.00"> ProxyA</text>
<text text-anchor="middle" x="125.5" y="-43.4" font-family="Helvetica,sans-Serif" font-size="12.00">ProxyB</text>
</g>
<!-- Node6 -->
<g id="node5" class="node"><title>Node6</title>
<g id="a_node5"><a xlink:href="classtainicom_1_1_aether_1_1_physics2_d_1_1_common_1_1_vertices.html" target="_top" xlink:title=" ">
<polygon fill="none" stroke="red" points="90,-181.5 90,-202.5 150,-202.5 150,-181.5 90,-181.5"/>
<text text-anchor="middle" x="120" y="-188.9" font-family="Helvetica,sans-Serif" font-size="12.00">Vertices</text>
</a>
</g>
</g>
<!-- Node6&#45;&gt;Node5 -->
<g id="edge4" class="edge"><title>Node6&#45;&gt;Node5</title>
<path fill="none" stroke="#9a32cd" stroke-dasharray="5,2" d="M120,-170.968C120,-150.897 120,-120.857 120,-105.614"/>
<polygon fill="#9a32cd" stroke="#9a32cd" points="116.5,-171.191 120,-181.191 123.5,-171.191 116.5,-171.191"/>
<text text-anchor="middle" x="143.5" y="-140.4" font-family="Helvetica,sans-Serif" font-size="12.00"> Vertices</text>
</g>
</g>
</svg>
