<?xml version="1.0" encoding="UTF-8" standalone="no"?>
<!DOCTYPE svg PUBLIC "-//W3C//DTD SVG 1.1//EN"
 "http://www.w3.org/Graphics/SVG/1.1/DTD/svg11.dtd">
<!-- Generated by graphviz version 2.38.0 (20140413.2041)
 -->
<!-- Title: Graphical Class Hierarchy Pages: 1 -->
<svg width="187pt" height="110pt"
 viewBox="0.00 0.00 187.00 110.00" xmlns="http://www.w3.org/2000/svg" xmlns:xlink="http://www.w3.org/1999/xlink">
<g id="graph0" class="graph" transform="scale(1 1) rotate(0) translate(4 106)">
<title>Graphical Class Hierarchy</title>
<!-- Node63 -->
<g id="node1" class="node"><title>Node63</title>
<g id="a_node1"><a xlink:title=" ">
<polygon fill="none" stroke="#bfbfbf" points="0,-40.5 0,-61.5 72,-61.5 72,-40.5 0,-40.5"/>
<text text-anchor="middle" x="36" y="-47.9" font-family="Helvetica,sans-Serif" font-size="12.00">IEquatable</text>
</a>
</g>
</g>
<!-- Node0 -->
<g id="node2" class="node"><title>Node0</title>
<g id="a_node2"><a xlink:href="structtainicom_1_1_aether_1_1_physics2_d_1_1_collision_1_1_shapes_1_1_mass_data.html" target="_top" xlink:title="This holds the mass data computed for a shape.">
<polygon fill="none" stroke="black" points="108,-80.5 108,-101.5 179,-101.5 179,-80.5 108,-80.5"/>
<text text-anchor="middle" x="143.5" y="-87.9" font-family="Helvetica,sans-Serif" font-size="12.00">MassData</text>
</a>
</g>
</g>
<!-- Node63&#45;&gt;Node0 -->
<g id="edge1" class="edge"><title>Node63&#45;&gt;Node0</title>
<path fill="none" stroke="midnightblue" d="M74.1017,-65.067C87.4178,-70.1158 102.197,-75.7192 114.6,-80.4218"/>
<polygon fill="midnightblue" stroke="midnightblue" points="75.3102,-61.7821 64.7189,-61.5095 72.8285,-68.3275 75.3102,-61.7821"/>
</g>
<!-- Node65 -->
<g id="node3" class="node"><title>Node65</title>
<g id="a_node3"><a xlink:href="structtainicom_1_1_aether_1_1_physics2_d_1_1_common_1_1_vector2.html" target="_top" xlink:title=" ">
<polygon fill="none" stroke="black" points="114.5,-40.5 114.5,-61.5 172.5,-61.5 172.5,-40.5 114.5,-40.5"/>
<text text-anchor="middle" x="143.5" y="-47.9" font-family="Helvetica,sans-Serif" font-size="12.00">Vector2</text>
</a>
</g>
</g>
<!-- Node63&#45;&gt;Node65 -->
<g id="edge2" class="edge"><title>Node63&#45;&gt;Node65</title>
<path fill="none" stroke="midnightblue" d="M82.3123,-51C93.1324,-51 104.379,-51 114.18,-51"/>
<polygon fill="midnightblue" stroke="midnightblue" points="82.13,-47.5001 72.13,-51 82.1299,-54.5001 82.13,-47.5001"/>
</g>
<!-- Node66 -->
<g id="node4" class="node"><title>Node66</title>
<g id="a_node4"><a xlink:href="structtainicom_1_1_aether_1_1_physics2_d_1_1_common_1_1_vector3.html" target="_top" xlink:title=" ">
<polygon fill="none" stroke="black" points="114.5,-0.5 114.5,-21.5 172.5,-21.5 172.5,-0.5 114.5,-0.5"/>
<text text-anchor="middle" x="143.5" y="-7.9" font-family="Helvetica,sans-Serif" font-size="12.00">Vector3</text>
</a>
</g>
</g>
<!-- Node63&#45;&gt;Node66 -->
<g id="edge3" class="edge"><title>Node63&#45;&gt;Node66</title>
<path fill="none" stroke="midnightblue" d="M74.1017,-36.933C87.4178,-31.8842 102.197,-26.2808 114.6,-21.5782"/>
<polygon fill="midnightblue" stroke="midnightblue" points="72.8285,-33.6725 64.7189,-40.4905 75.3102,-40.2179 72.8285,-33.6725"/>
</g>
</g>
</svg>
