<?xml version="1.0" encoding="UTF-8" standalone="no"?>
<!DOCTYPE svg PUBLIC "-//W3C//DTD SVG 1.1//EN"
 "http://www.w3.org/Graphics/SVG/1.1/DTD/svg11.dtd">
<!-- Generated by graphviz version 2.38.0 (20140413.2041)
 -->
<!-- Title: IBroadPhase&lt; TNode &gt; Pages: 1 -->
<svg width="160pt" height="101pt"
 viewBox="0.00 0.00 160.00 101.00" xmlns="http://www.w3.org/2000/svg" xmlns:xlink="http://www.w3.org/1999/xlink">
<g id="graph0" class="graph" transform="scale(1 1) rotate(0) translate(4 97)">
<title>IBroadPhase&lt; TNode &gt;</title>
<!-- Node1 -->
<g id="node1" class="node"><title>Node1</title>
<g id="a_node1"><a xlink:title=" ">
<polygon fill="#bfbfbf" stroke="black" points="6,-71.5 6,-92.5 146,-92.5 146,-71.5 6,-71.5"/>
<text text-anchor="middle" x="76" y="-78.9" font-family="Helvetica,sans-Serif" font-size="12.00">IBroadPhase&lt; TNode &gt;</text>
</a>
</g>
</g>
<!-- Node2 -->
<g id="node2" class="node"><title>Node2</title>
<g id="a_node2"><a xlink:href="classtainicom_1_1_aether_1_1_physics2_d_1_1_collision_1_1_dynamic_tree_broad_phase.html" target="_top" xlink:title="The broad&#45;phase is used for computing pairs and performing volume queries and ray casts....">
<polygon fill="none" stroke="black" points="0,-0.5 0,-34.5 152,-34.5 152,-0.5 0,-0.5"/>
<text text-anchor="start" x="8" y="-20.9" font-family="Helvetica,sans-Serif" font-size="12.00">DynamicTreeBroadPhase</text>
<text text-anchor="middle" x="76" y="-7.9" font-family="Helvetica,sans-Serif" font-size="12.00">&lt; TNode &gt;</text>
</a>
</g>
</g>
<!-- Node1&#45;&gt;Node2 -->
<g id="edge1" class="edge"><title>Node1&#45;&gt;Node2</title>
<path fill="none" stroke="midnightblue" d="M69.6601,-61.0702C69.0184,-52.58 69.1298,-42.8008 69.9942,-34.758"/>
<polygon fill="midnightblue" stroke="midnightblue" points="66.2178,-61.7489 70.9375,-71.2344 73.1631,-60.876 66.2178,-61.7489"/>
</g>
<!-- Node1&#45;&gt;Node2 -->
<g id="edge2" class="edge"><title>Node1&#45;&gt;Node2</title>
<path fill="none" stroke="midnightblue" d="M82.3399,-61.0702C82.9816,-52.58 82.8702,-42.8008 82.0058,-34.758"/>
<polygon fill="midnightblue" stroke="midnightblue" points="78.8369,-60.876 81.0625,-71.2344 85.7822,-61.7489 78.8369,-60.876"/>
</g>
</g>
</svg>
