<?xml version="1.0" encoding="UTF-8" standalone="no"?>
<!DOCTYPE svg PUBLIC "-//W3C//DTD SVG 1.1//EN"
 "http://www.w3.org/Graphics/SVG/1.1/DTD/svg11.dtd">
<!-- Generated by graphviz version 2.38.0 (20140413.2041)
 -->
<!-- Title: DistanceInput Pages: 1 -->
<svg width="253pt" height="185pt"
 viewBox="0.00 0.00 252.50 185.00" xmlns="http://www.w3.org/2000/svg" xmlns:xlink="http://www.w3.org/1999/xlink">
<g id="graph0" class="graph" transform="scale(1 1) rotate(0) translate(4 181)">
<title>DistanceInput</title>
<!-- Node1 -->
<g id="node1" class="node"><title>Node1</title>
<g id="a_node1"><a xlink:title="Input for Distance.ComputeDistance(). You have to option to use the shape radii in the computation.">
<polygon fill="#bfbfbf" stroke="black" points="55.5,-0.5 55.5,-21.5 142.5,-21.5 142.5,-0.5 55.5,-0.5"/>
<text text-anchor="middle" x="99" y="-7.9" font-family="Helvetica,sans-Serif" font-size="12.00">DistanceInput</text>
</a>
</g>
</g>
<!-- Node2 -->
<g id="node2" class="node"><title>Node2</title>
<g id="a_node2"><a xlink:href="structtainicom_1_1_aether_1_1_physics2_d_1_1_collision_1_1_distance_proxy.html" target="_top" xlink:title="A distance proxy is used by the GJK algorithm. It encapsulates any shape.">
<polygon fill="none" stroke="black" points="0,-84.5 0,-105.5 92,-105.5 92,-84.5 0,-84.5"/>
<text text-anchor="middle" x="46" y="-91.9" font-family="Helvetica,sans-Serif" font-size="12.00">DistanceProxy</text>
</a>
</g>
</g>
<!-- Node2&#45;&gt;Node1 -->
<g id="edge1" class="edge"><title>Node2&#45;&gt;Node1</title>
<path fill="none" stroke="#9a32cd" stroke-dasharray="5,2" d="M53.0283,-74.6242C57.3758,-63.9214 63.5484,-50.6732 71,-40 75.7225,-33.2358 82.17,-26.6607 87.6876,-21.5837"/>
<polygon fill="#9a32cd" stroke="#9a32cd" points="49.6341,-73.6991 49.3093,-84.289 56.1671,-76.213 49.6341,-73.6991"/>
<text text-anchor="middle" x="91.5" y="-56.4" font-family="Helvetica,sans-Serif" font-size="12.00"> ProxyA</text>
<text text-anchor="middle" x="91.5" y="-43.4" font-family="Helvetica,sans-Serif" font-size="12.00">ProxyB</text>
</g>
<!-- Node3 -->
<g id="node3" class="node"><title>Node3</title>
<g id="a_node3"><a xlink:href="classtainicom_1_1_aether_1_1_physics2_d_1_1_common_1_1_vertices.html" target="_top" xlink:title=" ">
<polygon fill="none" stroke="red" points="16,-155.5 16,-176.5 76,-176.5 76,-155.5 16,-155.5"/>
<text text-anchor="middle" x="46" y="-162.9" font-family="Helvetica,sans-Serif" font-size="12.00">Vertices</text>
</a>
</g>
</g>
<!-- Node3&#45;&gt;Node2 -->
<g id="edge2" class="edge"><title>Node3&#45;&gt;Node2</title>
<path fill="none" stroke="#9a32cd" stroke-dasharray="5,2" d="M46,-145.088C46,-132.078 46,-115.675 46,-105.513"/>
<polygon fill="#9a32cd" stroke="#9a32cd" points="42.5001,-145.406 46,-155.406 49.5001,-145.406 42.5001,-145.406"/>
<text text-anchor="middle" x="69.5" y="-127.4" font-family="Helvetica,sans-Serif" font-size="12.00"> Vertices</text>
</g>
<!-- Node5 -->
<g id="node4" class="node"><title>Node5</title>
<g id="a_node4"><a xlink:href="structtainicom_1_1_aether_1_1_physics2_d_1_1_common_1_1_transform.html" target="_top" xlink:title="A transform contains translation and rotation. It is used to represent the position and orientation o...">
<polygon fill="none" stroke="black" points="110.5,-84.5 110.5,-105.5 179.5,-105.5 179.5,-84.5 110.5,-84.5"/>
<text text-anchor="middle" x="145" y="-91.9" font-family="Helvetica,sans-Serif" font-size="12.00">Transform</text>
</a>
</g>
</g>
<!-- Node5&#45;&gt;Node1 -->
<g id="edge3" class="edge"><title>Node5&#45;&gt;Node1</title>
<path fill="none" stroke="#9a32cd" stroke-dasharray="5,2" d="M134.571,-75.4095C125.213,-58.7277 111.847,-34.9015 104.45,-21.7158"/>
<polygon fill="#9a32cd" stroke="#9a32cd" points="131.597,-77.2625 139.543,-84.2715 137.703,-73.8377 131.597,-77.2625"/>
<text text-anchor="middle" x="161" y="-56.4" font-family="Helvetica,sans-Serif" font-size="12.00"> TransformA</text>
<text text-anchor="middle" x="161" y="-43.4" font-family="Helvetica,sans-Serif" font-size="12.00">TransformB</text>
</g>
<!-- Node6 -->
<g id="node5" class="node"><title>Node6</title>
<g id="a_node5"><a xlink:href="structtainicom_1_1_aether_1_1_physics2_d_1_1_common_1_1_vector2.html" target="_top" xlink:title=" ">
<polygon fill="none" stroke="red" points="105,-155.5 105,-176.5 163,-176.5 163,-155.5 105,-155.5"/>
<text text-anchor="middle" x="134" y="-162.9" font-family="Helvetica,sans-Serif" font-size="12.00">Vector2</text>
</a>
</g>
</g>
<!-- Node6&#45;&gt;Node5 -->
<g id="edge4" class="edge"><title>Node6&#45;&gt;Node5</title>
<path fill="none" stroke="#9a32cd" stroke-dasharray="5,2" d="M137.112,-145.481C139.195,-132.41 141.847,-115.778 143.483,-105.513"/>
<polygon fill="#9a32cd" stroke="#9a32cd" points="133.648,-144.98 135.53,-155.406 140.56,-146.082 133.648,-144.98"/>
<text text-anchor="middle" x="146" y="-127.4" font-family="Helvetica,sans-Serif" font-size="12.00"> p</text>
</g>
<!-- Node8 -->
<g id="node6" class="node"><title>Node8</title>
<g id="a_node6"><a xlink:href="structtainicom_1_1_aether_1_1_physics2_d_1_1_common_1_1_complex.html" target="_top" xlink:title=" ">
<polygon fill="none" stroke="black" points="181.5,-155.5 181.5,-176.5 244.5,-176.5 244.5,-155.5 181.5,-155.5"/>
<text text-anchor="middle" x="213" y="-162.9" font-family="Helvetica,sans-Serif" font-size="12.00">Complex</text>
</a>
</g>
</g>
<!-- Node8&#45;&gt;Node5 -->
<g id="edge5" class="edge"><title>Node8&#45;&gt;Node5</title>
<path fill="none" stroke="#9a32cd" stroke-dasharray="5,2" d="M196.415,-148.171C183.208,-134.77 165.2,-116.497 154.375,-105.513"/>
<polygon fill="#9a32cd" stroke="#9a32cd" points="194.033,-150.74 203.545,-155.406 199.018,-145.827 194.033,-150.74"/>
<text text-anchor="middle" x="191" y="-127.4" font-family="Helvetica,sans-Serif" font-size="12.00"> q</text>
</g>
</g>
</svg>
