<?xml version="1.0" encoding="UTF-8" standalone="no"?>
<!DOCTYPE svg PUBLIC "-//W3C//DTD SVG 1.1//EN"
 "http://www.w3.org/Graphics/SVG/1.1/DTD/svg11.dtd">
<!-- Generated by graphviz version 2.38.0 (20140413.2041)
 -->
<!-- Title: Transform Pages: 1 -->
<svg width="185pt" height="160pt"
 viewBox="0.00 0.00 185.00 160.00" xmlns="http://www.w3.org/2000/svg" xmlns:xlink="http://www.w3.org/1999/xlink">
<g id="graph0" class="graph" transform="scale(1 1) rotate(0) translate(4 156)">
<title>Transform</title>
<!-- Node1 -->
<g id="node1" class="node"><title>Node1</title>
<g id="a_node1"><a xlink:title="A transform contains translation and rotation. It is used to represent the position and orientation o...">
<polygon fill="#bfbfbf" stroke="black" points="91,-0.5 91,-21.5 160,-21.5 160,-0.5 91,-0.5"/>
<text text-anchor="middle" x="125.5" y="-7.9" font-family="Helvetica,sans-Serif" font-size="12.00">Transform</text>
</a>
</g>
</g>
<!-- Node2 -->
<g id="node2" class="node"><title>Node2</title>
<g id="a_node2"><a xlink:href="structtainicom_1_1_aether_1_1_physics2_d_1_1_common_1_1_vector2.html" target="_top" xlink:title=" ">
<polygon fill="none" stroke="black" points="37.5,-71.5 37.5,-92.5 95.5,-92.5 95.5,-71.5 37.5,-71.5"/>
<text text-anchor="middle" x="66.5" y="-78.9" font-family="Helvetica,sans-Serif" font-size="12.00">Vector2</text>
</a>
</g>
</g>
<!-- Node2&#45;&gt;Node1 -->
<g id="edge1" class="edge"><title>Node2&#45;&gt;Node1</title>
<path fill="none" stroke="#9a32cd" stroke-dasharray="5,2" d="M81.2127,-63.7936C92.6405,-50.4289 108.062,-32.394 117.366,-21.5127"/>
<polygon fill="#9a32cd" stroke="#9a32cd" points="78.5424,-61.5309 74.7037,-71.4058 83.8627,-66.0801 78.5424,-61.5309"/>
<text text-anchor="middle" x="106.5" y="-43.4" font-family="Helvetica,sans-Serif" font-size="12.00"> p</text>
</g>
<!-- Node3 -->
<g id="node3" class="node"><title>Node3</title>
<g id="a_node3"><a xlink:title=" ">
<polygon fill="none" stroke="#bfbfbf" points="0,-130.5 0,-151.5 133,-151.5 133,-130.5 0,-130.5"/>
<text text-anchor="middle" x="66.5" y="-137.9" font-family="Helvetica,sans-Serif" font-size="12.00">IEquatable&lt; Vector2 &gt;</text>
</a>
</g>
</g>
<!-- Node3&#45;&gt;Node2 -->
<g id="edge2" class="edge"><title>Node3&#45;&gt;Node2</title>
<path fill="none" stroke="midnightblue" d="M66.5,-120.234C66.5,-110.849 66.5,-100.065 66.5,-92.5265"/>
<polygon fill="midnightblue" stroke="midnightblue" points="63.0001,-120.331 66.5,-130.331 70.0001,-120.331 63.0001,-120.331"/>
</g>
<!-- Node4 -->
<g id="node4" class="node"><title>Node4</title>
<g id="a_node4"><a xlink:href="structtainicom_1_1_aether_1_1_physics2_d_1_1_common_1_1_complex.html" target="_top" xlink:title=" ">
<polygon fill="none" stroke="black" points="114,-71.5 114,-92.5 177,-92.5 177,-71.5 114,-71.5"/>
<text text-anchor="middle" x="145.5" y="-78.9" font-family="Helvetica,sans-Serif" font-size="12.00">Complex</text>
</a>
</g>
</g>
<!-- Node4&#45;&gt;Node1 -->
<g id="edge3" class="edge"><title>Node4&#45;&gt;Node1</title>
<path fill="none" stroke="#9a32cd" stroke-dasharray="5,2" d="M139.842,-61.4814C136.054,-48.4101 131.233,-31.778 128.257,-21.5127"/>
<polygon fill="#9a32cd" stroke="#9a32cd" points="136.573,-62.7756 142.719,-71.4058 143.297,-60.8268 136.573,-62.7756"/>
<text text-anchor="middle" x="142.5" y="-43.4" font-family="Helvetica,sans-Serif" font-size="12.00"> q</text>
</g>
</g>
</svg>
