<?xml version="1.0" encoding="UTF-8" standalone="no"?>
<!DOCTYPE svg PUBLIC "-//W3C//DTD SVG 1.1//EN"
 "http://www.w3.org/Graphics/SVG/1.1/DTD/svg11.dtd">
<!-- Generated by graphviz version 2.38.0 (20140413.2041)
 -->
<!-- Title: DistanceOutput Pages: 1 -->
<svg width="141pt" height="173pt"
 viewBox="0.00 0.00 141.00 173.00" xmlns="http://www.w3.org/2000/svg" xmlns:xlink="http://www.w3.org/1999/xlink">
<g id="graph0" class="graph" transform="scale(1 1) rotate(0) translate(4 169)">
<title>DistanceOutput</title>
<!-- Node1 -->
<g id="node1" class="node"><title>Node1</title>
<g id="a_node1"><a xlink:title="Output for Distance.ComputeDistance().">
<polygon fill="#bfbfbf" stroke="black" points="18,-0.5 18,-21.5 115,-21.5 115,-0.5 18,-0.5"/>
<text text-anchor="middle" x="66.5" y="-7.9" font-family="Helvetica,sans-Serif" font-size="12.00">DistanceOutput</text>
</a>
</g>
</g>
<!-- Node2 -->
<g id="node2" class="node"><title>Node2</title>
<g id="a_node2"><a xlink:href="structtainicom_1_1_aether_1_1_physics2_d_1_1_common_1_1_vector2.html" target="_top" xlink:title=" ">
<polygon fill="none" stroke="black" points="37.5,-84.5 37.5,-105.5 95.5,-105.5 95.5,-84.5 37.5,-84.5"/>
<text text-anchor="middle" x="66.5" y="-91.9" font-family="Helvetica,sans-Serif" font-size="12.00">Vector2</text>
</a>
</g>
</g>
<!-- Node2&#45;&gt;Node1 -->
<g id="edge1" class="edge"><title>Node2&#45;&gt;Node1</title>
<path fill="none" stroke="#9a32cd" stroke-dasharray="5,2" d="M66.5,-73.9899C66.5,-57.4 66.5,-34.5318 66.5,-21.7158"/>
<polygon fill="#9a32cd" stroke="#9a32cd" points="63.0001,-74.2715 66.5,-84.2715 70.0001,-74.2715 63.0001,-74.2715"/>
<text text-anchor="middle" x="86" y="-56.4" font-family="Helvetica,sans-Serif" font-size="12.00"> PointA</text>
<text text-anchor="middle" x="86" y="-43.4" font-family="Helvetica,sans-Serif" font-size="12.00">PointB</text>
</g>
<!-- Node3 -->
<g id="node3" class="node"><title>Node3</title>
<g id="a_node3"><a xlink:title=" ">
<polygon fill="none" stroke="#bfbfbf" points="0,-143.5 0,-164.5 133,-164.5 133,-143.5 0,-143.5"/>
<text text-anchor="middle" x="66.5" y="-150.9" font-family="Helvetica,sans-Serif" font-size="12.00">IEquatable&lt; Vector2 &gt;</text>
</a>
</g>
</g>
<!-- Node3&#45;&gt;Node2 -->
<g id="edge2" class="edge"><title>Node3&#45;&gt;Node2</title>
<path fill="none" stroke="midnightblue" d="M66.5,-133.234C66.5,-123.849 66.5,-113.065 66.5,-105.526"/>
<polygon fill="midnightblue" stroke="midnightblue" points="63.0001,-133.331 66.5,-143.331 70.0001,-133.331 63.0001,-133.331"/>
</g>
</g>
</svg>
