<?xml version="1.0" encoding="UTF-8" standalone="no"?>
<!DOCTYPE svg PUBLIC "-//W3C//DTD SVG 1.1//EN"
 "http://www.w3.org/Graphics/SVG/1.1/DTD/svg11.dtd">
<!-- Generated by graphviz version 2.38.0 (20140413.2041)
 -->
<!-- Title: ManifoldPoint Pages: 1 -->
<svg width="258pt" height="172pt"
 viewBox="0.00 0.00 257.50 172.00" xmlns="http://www.w3.org/2000/svg" xmlns:xlink="http://www.w3.org/1999/xlink">
<g id="graph0" class="graph" transform="scale(1 1) rotate(0) translate(4 168)">
<title>ManifoldPoint</title>
<!-- Node1 -->
<g id="node1" class="node"><title>Node1</title>
<g id="a_node1"><a xlink:title="A manifold point is a contact point belonging to a contact manifold. It holds details related to the ...">
<polygon fill="#bfbfbf" stroke="black" points="81,-0.5 81,-21.5 169,-21.5 169,-0.5 81,-0.5"/>
<text text-anchor="middle" x="125" y="-7.9" font-family="Helvetica,sans-Serif" font-size="12.00">ManifoldPoint</text>
</a>
</g>
</g>
<!-- Node2 -->
<g id="node2" class="node"><title>Node2</title>
<g id="a_node2"><a xlink:href="structtainicom_1_1_aether_1_1_physics2_d_1_1_collision_1_1_contact_i_d.html" target="_top" xlink:title="Contact ids to facilitate warm starting.">
<polygon fill="none" stroke="black" points="29,-71.5 29,-92.5 97,-92.5 97,-71.5 29,-71.5"/>
<text text-anchor="middle" x="63" y="-78.9" font-family="Helvetica,sans-Serif" font-size="12.00">ContactID</text>
</a>
</g>
</g>
<!-- Node2&#45;&gt;Node1 -->
<g id="edge1" class="edge"><title>Node2&#45;&gt;Node1</title>
<path fill="none" stroke="#9a32cd" stroke-dasharray="5,2" d="M78.4608,-63.7936C90.4697,-50.4289 106.675,-32.394 116.452,-21.5127"/>
<polygon fill="#9a32cd" stroke="#9a32cd" points="75.7011,-61.6282 71.6208,-71.4058 80.908,-66.3068 75.7011,-61.6282"/>
<text text-anchor="middle" x="106.5" y="-43.4" font-family="Helvetica,sans-Serif" font-size="12.00"> Id</text>
</g>
<!-- Node3 -->
<g id="node3" class="node"><title>Node3</title>
<g id="a_node3"><a xlink:href="structtainicom_1_1_aether_1_1_physics2_d_1_1_collision_1_1_contact_feature.html" target="_top" xlink:title="The features that intersect to form the contact point This must be 4 bytes or less.">
<polygon fill="none" stroke="black" points="0,-142.5 0,-163.5 98,-163.5 98,-142.5 0,-142.5"/>
<text text-anchor="middle" x="49" y="-149.9" font-family="Helvetica,sans-Serif" font-size="12.00">ContactFeature</text>
</a>
</g>
</g>
<!-- Node3&#45;&gt;Node2 -->
<g id="edge2" class="edge"><title>Node3&#45;&gt;Node2</title>
<path fill="none" stroke="#9a32cd" stroke-dasharray="5,2" d="M52.9603,-132.481C55.6124,-119.41 58.9871,-102.778 61.0699,-92.5127"/>
<polygon fill="#9a32cd" stroke="#9a32cd" points="49.5051,-131.91 50.9466,-142.406 56.3653,-133.302 49.5051,-131.91"/>
<text text-anchor="middle" x="83" y="-114.4" font-family="Helvetica,sans-Serif" font-size="12.00"> Features</text>
</g>
<!-- Node4 -->
<g id="node4" class="node"><title>Node4</title>
<g id="a_node4"><a xlink:href="structtainicom_1_1_aether_1_1_physics2_d_1_1_common_1_1_vector2.html" target="_top" xlink:title=" ">
<polygon fill="none" stroke="black" points="141,-71.5 141,-92.5 199,-92.5 199,-71.5 141,-71.5"/>
<text text-anchor="middle" x="170" y="-78.9" font-family="Helvetica,sans-Serif" font-size="12.00">Vector2</text>
</a>
</g>
</g>
<!-- Node4&#45;&gt;Node1 -->
<g id="edge3" class="edge"><title>Node4&#45;&gt;Node1</title>
<path fill="none" stroke="#9a32cd" stroke-dasharray="5,2" d="M158.031,-62.6479C149.4,-49.4138 138.1,-32.086 131.204,-21.5127"/>
<polygon fill="#9a32cd" stroke="#9a32cd" points="155.349,-64.9417 163.743,-71.4058 161.212,-61.1178 155.349,-64.9417"/>
<text text-anchor="middle" x="181.5" y="-43.4" font-family="Helvetica,sans-Serif" font-size="12.00"> LocalPoint</text>
</g>
<!-- Node5 -->
<g id="node5" class="node"><title>Node5</title>
<g id="a_node5"><a xlink:title=" ">
<polygon fill="none" stroke="#bfbfbf" points="116.5,-142.5 116.5,-163.5 249.5,-163.5 249.5,-142.5 116.5,-142.5"/>
<text text-anchor="middle" x="183" y="-149.9" font-family="Helvetica,sans-Serif" font-size="12.00">IEquatable&lt; Vector2 &gt;</text>
</a>
</g>
</g>
<!-- Node5&#45;&gt;Node4 -->
<g id="edge4" class="edge"><title>Node5&#45;&gt;Node4</title>
<path fill="none" stroke="midnightblue" d="M179.323,-132.481C176.86,-119.41 173.726,-102.778 171.792,-92.5127"/>
<polygon fill="midnightblue" stroke="midnightblue" points="175.901,-133.227 181.192,-142.406 182.78,-131.931 175.901,-133.227"/>
</g>
</g>
</svg>
